<?xml version="1.0" encoding="UTF-8" standalone="no"?>
<!DOCTYPE svg PUBLIC "-//W3C//DTD SVG 1.1//EN"
 "http://www.w3.org/Graphics/SVG/1.1/DTD/svg11.dtd">
<!-- Generated by graphviz version 2.43.0 (0)
 -->
<!-- Title: bwrite Pages: 1 -->
<svg width="487pt" height="101pt"
 viewBox="0.00 0.00 487.00 101.00" xmlns="http://www.w3.org/2000/svg" xmlns:xlink="http://www.w3.org/1999/xlink">
<g id="graph0" class="graph" transform="scale(1 1) rotate(0) translate(4 97)">
<title>bwrite</title>
<!-- Node1 -->
<g id="Node000001" class="node">
<title>Node1</title>
<g id="a_Node000001"><a xlink:title=" ">
<polygon fill="#999999" stroke="#666666" points="479,-56 432,-56 432,-37 479,-37 479,-56"/>
<text text-anchor="middle" x="455.5" y="-44" font-family="Helvetica,sans-Serif" font-size="10.00">bwrite</text>
</a>
</g>
</g>
<!-- Node2 -->
<g id="Node000002" class="node">
<title>Node2</title>
<g id="a_Node000002"><a xlink:href="log_8c.html#ab5eaeac1ab988530dcda4fd57a634df0" target="_top" xlink:title=" ">
<polygon fill="white" stroke="#666666" points="396,-19 319,-19 319,0 396,0 396,-19"/>
<text text-anchor="middle" x="357.5" y="-7" font-family="Helvetica,sans-Serif" font-size="10.00">install_trans</text>
</a>
</g>
</g>
<!-- Node1&#45;&gt;Node2 -->
<g id="edge1_Node000001_Node000002" class="edge">
<title>Node1&#45;&gt;Node2</title>
<g id="a_edge1_Node000001_Node000002"><a xlink:title=" ">
<path fill="none" stroke="#63b8ff" d="M422.06,-34C409.45,-29.14 395.23,-23.66 383.45,-19.11"/>
<polygon fill="#63b8ff" stroke="#63b8ff" points="421.16,-37.4 431.75,-37.73 423.68,-30.87 421.16,-37.4"/>
</a>
</g>
</g>
<!-- Node9 -->
<g id="Node000009" class="node">
<title>Node9</title>
<g id="a_Node000009"><a xlink:href="log_8c.html#a34322134c00d3e9ad7fb48a7baa9a4c5" target="_top" xlink:title=" ">
<polygon fill="white" stroke="#666666" points="393,-56 322,-56 322,-37 393,-37 393,-56"/>
<text text-anchor="middle" x="357.5" y="-44" font-family="Helvetica,sans-Serif" font-size="10.00">write_head</text>
</a>
</g>
</g>
<!-- Node1&#45;&gt;Node9 -->
<g id="edge8_Node000001_Node000009" class="edge">
<title>Node1&#45;&gt;Node9</title>
<g id="a_edge8_Node000001_Node000009"><a xlink:title=" ">
<path fill="none" stroke="#63b8ff" d="M421.46,-46.5C412.31,-46.5 402.35,-46.5 393.11,-46.5"/>
<polygon fill="#63b8ff" stroke="#63b8ff" points="421.75,-50 431.75,-46.5 421.75,-43 421.75,-50"/>
</a>
</g>
</g>
<!-- Node10 -->
<g id="Node000010" class="node">
<title>Node10</title>
<g id="a_Node000010"><a xlink:href="log_8c.html#af4e7fbf2920c27568c9b88d45f0bd5e1" target="_top" xlink:title=" ">
<polygon fill="white" stroke="#666666" points="388.5,-93 326.5,-93 326.5,-74 388.5,-74 388.5,-93"/>
<text text-anchor="middle" x="357.5" y="-81" font-family="Helvetica,sans-Serif" font-size="10.00">write_log</text>
</a>
</g>
</g>
<!-- Node1&#45;&gt;Node10 -->
<g id="edge11_Node000001_Node000010" class="edge">
<title>Node1&#45;&gt;Node10</title>
<g id="a_edge11_Node000001_Node000010"><a xlink:title=" ">
<path fill="none" stroke="#63b8ff" d="M422.06,-59C409.45,-63.86 395.23,-69.34 383.45,-73.89"/>
<polygon fill="#63b8ff" stroke="#63b8ff" points="423.68,-62.13 431.75,-55.27 421.16,-55.6 423.68,-62.13"/>
</a>
</g>
</g>
<!-- Node3 -->
<g id="Node000003" class="node">
<title>Node3</title>
<g id="a_Node000003"><a xlink:href="log_8c.html#a504ac82448623ae8ad27b97dbed82694" target="_top" xlink:title=" ">
<polygon fill="white" stroke="#666666" points="259,-56 205,-56 205,-37 259,-37 259,-56"/>
<text text-anchor="middle" x="232" y="-44" font-family="Helvetica,sans-Serif" font-size="10.00">commit</text>
</a>
</g>
</g>
<!-- Node2&#45;&gt;Node3 -->
<g id="edge2_Node000002_Node000003" class="edge">
<title>Node2&#45;&gt;Node3</title>
<g id="a_edge2_Node000002_Node000003"><a xlink:title=" ">
<path fill="none" stroke="#63b8ff" d="M315.07,-21.91C296.64,-27.43 275.49,-33.77 259.28,-38.63"/>
<polygon fill="#63b8ff" stroke="#63b8ff" points="316.12,-25.25 324.7,-19.03 314.11,-18.55 316.12,-25.25"/>
</a>
</g>
</g>
<!-- Node7 -->
<g id="Node000007" class="node">
<title>Node7</title>
<g id="a_Node000007"><a xlink:href="log_8c.html#a18cdf83ef674be145df14b83500f1d1b" target="_top" xlink:title=" ">
<polygon fill="white" stroke="#666666" points="283,-19 181,-19 181,0 283,0 283,-19"/>
<text text-anchor="middle" x="232" y="-7" font-family="Helvetica,sans-Serif" font-size="10.00">recover_from_log</text>
</a>
</g>
</g>
<!-- Node2&#45;&gt;Node7 -->
<g id="edge6_Node000002_Node000007" class="edge">
<title>Node2&#45;&gt;Node7</title>
<g id="a_edge6_Node000002_Node000007"><a xlink:title=" ">
<path fill="none" stroke="#63b8ff" d="M308.51,-9.5C300.22,-9.5 291.58,-9.5 283.24,-9.5"/>
<polygon fill="#63b8ff" stroke="#63b8ff" points="308.77,-13 318.77,-9.5 308.77,-6 308.77,-13"/>
</a>
</g>
</g>
<!-- Node4 -->
<g id="Node000004" class="node">
<title>Node4</title>
<g id="a_Node000004"><a xlink:href="log_8c.html#ac0f12be0ca0de555e60b27b06a57a65b" target="_top" xlink:title=" ">
<polygon fill="white" stroke="#666666" points="145,-56 93,-56 93,-37 145,-37 145,-56"/>
<text text-anchor="middle" x="119" y="-44" font-family="Helvetica,sans-Serif" font-size="10.00">end_op</text>
</a>
</g>
</g>
<!-- Node3&#45;&gt;Node4 -->
<g id="edge3_Node000003_Node000004" class="edge">
<title>Node3&#45;&gt;Node4</title>
<g id="a_edge3_Node000003_Node000004"><a xlink:title=" ">
<path fill="none" stroke="#63b8ff" d="M194.73,-46.5C178.5,-46.5 159.75,-46.5 145.1,-46.5"/>
<polygon fill="#63b8ff" stroke="#63b8ff" points="194.98,-50 204.98,-46.5 194.98,-43 194.98,-50"/>
</a>
</g>
</g>
<!-- Node5 -->
<g id="Node000005" class="node">
<title>Node5</title>
<g id="a_Node000005"><a xlink:href="file_8c.html#ae557c81ab89c24219146144bb6adaa2c" target="_top" xlink:title=" ">
<polygon fill="white" stroke="#666666" points="57,-74 0,-74 0,-55 57,-55 57,-74"/>
<text text-anchor="middle" x="28.5" y="-62" font-family="Helvetica,sans-Serif" font-size="10.00">fileclose</text>
</a>
</g>
</g>
<!-- Node4&#45;&gt;Node5 -->
<g id="edge4_Node000004_Node000005" class="edge">
<title>Node4&#45;&gt;Node5</title>
<g id="a_edge4_Node000004_Node000005"><a xlink:title=" ">
<path fill="none" stroke="#63b8ff" d="M82.8,-53.66C74.28,-55.39 65.29,-57.22 57.17,-58.87"/>
<polygon fill="#63b8ff" stroke="#63b8ff" points="83.77,-57.03 92.88,-51.61 82.38,-50.17 83.77,-57.03"/>
</a>
</g>
</g>
<!-- Node6 -->
<g id="Node000006" class="node">
<title>Node6</title>
<g id="a_Node000006"><a xlink:href="file_8c.html#ab8de757a0a9f58dcc6511ea5e46ebb88" target="_top" xlink:title=" ">
<polygon fill="white" stroke="#666666" points="56.5,-37 0.5,-37 0.5,-18 56.5,-18 56.5,-37"/>
<text text-anchor="middle" x="28.5" y="-25" font-family="Helvetica,sans-Serif" font-size="10.00">filewrite</text>
</a>
</g>
</g>
<!-- Node4&#45;&gt;Node6 -->
<g id="edge5_Node000004_Node000006" class="edge">
<title>Node4&#45;&gt;Node6</title>
<g id="a_edge5_Node000004_Node000006"><a xlink:title=" ">
<path fill="none" stroke="#63b8ff" d="M82.9,-38.96C74.13,-37.08 64.86,-35.09 56.55,-33.31"/>
<polygon fill="#63b8ff" stroke="#63b8ff" points="82.36,-42.43 92.88,-41.11 83.83,-35.59 82.36,-42.43"/>
</a>
</g>
</g>
<!-- Node8 -->
<g id="Node000008" class="node">
<title>Node8</title>
<g id="a_Node000008"><a xlink:href="log_8c.html#ad5e79aaefb91f41b9ef6aeae7ecf4708" target="_top" xlink:title=" ">
<polygon fill="white" stroke="#666666" points="142.5,-19 95.5,-19 95.5,0 142.5,0 142.5,-19"/>
<text text-anchor="middle" x="119" y="-7" font-family="Helvetica,sans-Serif" font-size="10.00">initlog</text>
</a>
</g>
</g>
<!-- Node7&#45;&gt;Node8 -->
<g id="edge7_Node000007_Node000008" class="edge">
<title>Node7&#45;&gt;Node8</title>
<g id="a_edge7_Node000007_Node000008"><a xlink:title=" ">
<path fill="none" stroke="#63b8ff" d="M170.69,-9.5C160.7,-9.5 150.92,-9.5 142.66,-9.5"/>
<polygon fill="#63b8ff" stroke="#63b8ff" points="170.7,-13 180.7,-9.5 170.7,-6 170.7,-13"/>
</a>
</g>
</g>
<!-- Node9&#45;&gt;Node3 -->
<g id="edge9_Node000009_Node000003" class="edge">
<title>Node9&#45;&gt;Node3</title>
<g id="a_edge9_Node000009_Node000003"><a xlink:title=" ">
<path fill="none" stroke="#63b8ff" d="M311.68,-46.5C294.08,-46.5 274.48,-46.5 259.25,-46.5"/>
<polygon fill="#63b8ff" stroke="#63b8ff" points="311.77,-50 321.77,-46.5 311.77,-43 311.77,-50"/>
</a>
</g>
</g>
<!-- Node9&#45;&gt;Node7 -->
<g id="edge10_Node000009_Node000007" class="edge">
<title>Node9&#45;&gt;Node7</title>
<g id="a_edge10_Node000009_Node000007"><a xlink:title=" ">
<path fill="none" stroke="#63b8ff" d="M314.9,-34.04C298.65,-29.17 280.32,-23.68 265.13,-19.12"/>
<polygon fill="#63b8ff" stroke="#63b8ff" points="314.11,-37.45 324.7,-36.97 316.12,-30.75 314.11,-37.45"/>
</a>
</g>
</g>
<!-- Node10&#45;&gt;Node3 -->
<g id="edge12_Node000010_Node000003" class="edge">
<title>Node10&#45;&gt;Node3</title>
<g id="a_edge12_Node000010_Node000003"><a xlink:title=" ">
<path fill="none" stroke="#63b8ff" d="M316.49,-71.51C297.68,-65.88 275.78,-59.32 259.13,-54.33"/>
<polygon fill="#63b8ff" stroke="#63b8ff" points="315.7,-74.93 326.29,-74.45 317.71,-68.23 315.7,-74.93"/>
</a>
</g>
</g>
</g>
</svg>
