<?xml version="1.0" encoding="UTF-8" standalone="no"?>
<!DOCTYPE svg PUBLIC "-//W3C//DTD SVG 1.1//EN"
 "http://www.w3.org/Graphics/SVG/1.1/DTD/svg11.dtd">
<!-- Generated by graphviz version 2.43.0 (0)
 -->
<!-- Title: bget Pages: 1 -->
<!--zoomable 546 -->

<svg id="main" version="1.1" xmlns="http://www.w3.org/2000/svg" xmlns:xlink="http://www.w3.org/1999/xlink" xml:space="preserve" onload="init(evt)">
<style type="text/css"><![CDATA[
.node, .edge {opacity: 0.7;}
.node.selected, .edge.selected {opacity: 1;}
.edge:hover path { stroke: red; }
.edge:hover polygon { stroke: red; fill: red; }
]]></style>

<defs>
  <circle id="rim" cx="0" cy="0" r="7"/>
  <circle id="rim2" cx="0" cy="0" r="3.5"/>
  <g id="zoomPlus">
    <use xlink:href="#rim" fill="#404040"><set attributeName="fill" to="#808080" begin="zoomplus.mouseover" end="zoomplus.mouseout"/></use>
    <path d="M-4,0h8M0,-4v8" fill="none" stroke="white" stroke-width="1.5" pointer-events="none"/>
  </g>
  <g id="zoomMin">
    <use xlink:href="#rim" fill="#404040"><set attributeName="fill" to="#808080" begin="zoomminus.mouseover" end="zoomminus.mouseout"/></use>
    <path d="M-4,0h8" fill="none" stroke="white" stroke-width="1.5" pointer-events="none"/>
  </g>
  <g id="arrowUp" transform="translate(30 24)">
    <use xlink:href="#rim"/>
    <path pointer-events="none" fill="none" stroke="white" stroke-width="1.5" d="M0,-3.0v7 M-2.5,-0.5L0,-3.0L2.5,-0.5"/>
  </g>
  <g id="arrowRight" transform="rotate(90) translate(36 -43)">
    <use xlink:href="#rim"/>
    <path pointer-events="none" fill="none" stroke="white" stroke-width="1.5" d="M0,-3.0v7 M-2.5,-0.5L0,-3.0L2.5,-0.5"/>
  </g>
  <g id="arrowDown" transform="rotate(180) translate(-30 -48)">
    <use xlink:href="#rim"/>
    <path pointer-events="none" fill="none" stroke="white" stroke-width="1.5" d="M0,-3.0v7 M-2.5,-0.5L0,-3.0L2.5,-0.5"/>
  </g>
  <g id="arrowLeft" transform="rotate(270) translate(-36 17)">
    <use xlink:href="#rim"/>
    <path pointer-events="none" fill="none" stroke="white" stroke-width="1.5" d="M0,-3.0v7 M-2.5,-0.5L0,-3.0L2.5,-0.5"/>
  </g>
  <g id="resetDef">
    <use xlink:href="#rim2" fill="#404040"><set attributeName="fill" to="#808080" begin="reset.mouseover" end="reset.mouseout"/></use>
  </g>
</defs>
<script type="application/ecmascript">
var viewWidth = 853;
var viewHeight = 546;
var sectionId = 'dynsection-1';
</script>
<script type="application/ecmascript" xlink:href="svg.min.js"/>
<svg id="graph" class="graph">
<g id="viewport">
<title>bget</title>
<!-- Node1 -->
<g id="Node000001" class="node">
<title>Node1</title>
<g id="a_Node000001"><a xlink:title=" ">
<polygon fill="#999999" stroke="#666666" points="845,-282 807,-282 807,-263 845,-263 845,-282"/>
<text text-anchor="middle" x="826" y="-270" font-family="Helvetica,sans-Serif" font-size="10.00">bget</text>
</a>
</g>
</g>
<!-- Node2 -->
<g id="Node000002" class="node">
<title>Node2</title>
<g id="a_Node000002"><a xlink:href="bio_8c.html#a30b8d2ef2300ed8e3d879a428fe39898" target="_top" xlink:title=" ">
<polygon fill="white" stroke="#666666" points="771,-282 727,-282 727,-263 771,-263 771,-282"/>
<text text-anchor="middle" x="749" y="-270" font-family="Helvetica,sans-Serif" font-size="10.00">bread</text>
</a>
</g>
</g>
<!-- Node1&#45;&gt;Node2 -->
<g id="edge1_Node000001_Node000002" class="edge">
<title>Node1&#45;&gt;Node2</title>
<g id="a_edge1_Node000001_Node000002"><a xlink:title=" ">
<path fill="none" stroke="#63b8ff" d="M796.64,-272.5C788.19,-272.5 779.08,-272.5 771.18,-272.5"/>
<polygon fill="#63b8ff" stroke="#63b8ff" points="796.84,-276 806.84,-272.5 796.84,-269 796.84,-276"/>
</a>
</g>
</g>
<!-- Node3 -->
<g id="Node000003" class="node">
<title>Node3</title>
<g id="a_Node000003"><a xlink:href="fs_8c.html#a29272227722d57ff937caaffd03455a9" target="_top" xlink:title=" ">
<polygon fill="white" stroke="#666666" points="550,-472 504,-472 504,-453 550,-453 550,-472"/>
<text text-anchor="middle" x="527" y="-460" font-family="Helvetica,sans-Serif" font-size="10.00">balloc</text>
</a>
</g>
</g>
<!-- Node2&#45;&gt;Node3 -->
<g id="edge2_Node000002_Node000003" class="edge">
<title>Node2&#45;&gt;Node3</title>
<g id="a_edge2_Node000002_Node000003"><a xlink:title=" ">
<path fill="none" stroke="#63b8ff" d="M747.76,-292.37C746.15,-328.54 737.13,-404.84 691,-442.5 650.47,-475.59 584.3,-471.52 550.06,-466.56"/>
<polygon fill="#63b8ff" stroke="#63b8ff" points="751.26,-292.24 748.06,-282.14 744.27,-292.03 751.26,-292.24"/>
</a>
</g>
</g>
<!-- Node4 -->
<g id="Node000004" class="node">
<title>Node4</title>
<g id="a_Node000004"><a xlink:href="fs_8c.html#a965e83e1fa9b15abf268784ce74181bb" target="_top" xlink:title=" ">
<polygon fill="white" stroke="#666666" points="438.5,-472 394.5,-472 394.5,-453 438.5,-453 438.5,-472"/>
<text text-anchor="middle" x="416.5" y="-460" font-family="Helvetica,sans-Serif" font-size="10.00">bmap</text>
</a>
</g>
</g>
<!-- Node2&#45;&gt;Node4 -->
<g id="edge24_Node000002_Node000004" class="edge">
<title>Node2&#45;&gt;Node4</title>
<g id="a_edge24_Node000002_Node000004"><a xlink:title=" ">
<path fill="none" stroke="#63b8ff" d="M745.16,-292.2C738.19,-337.59 718.76,-447.41 691,-470.5 617.04,-532.01 488.96,-491.2 438.65,-471.46"/>
<polygon fill="#63b8ff" stroke="#63b8ff" points="748.64,-292.55 746.66,-282.14 741.72,-291.52 748.64,-292.55"/>
</a>
</g>
</g>
<!-- Node5 -->
<g id="Node000005" class="node">
<title>Node5</title>
<g id="a_Node000005"><a xlink:href="fs_8c.html#a3aba1fa9f6789d09356aec5b96d91fa8" target="_top" xlink:title=" ">
<polygon fill="white" stroke="#666666" points="351.5,-472 310.5,-472 310.5,-453 351.5,-453 351.5,-472"/>
<text text-anchor="middle" x="331" y="-460" font-family="Helvetica,sans-Serif" font-size="10.00">readi</text>
</a>
</g>
</g>
<!-- Node2&#45;&gt;Node5 -->
<g id="edge47_Node000002_Node000005" class="edge">
<title>Node2&#45;&gt;Node5</title>
<g id="a_edge47_Node000002_Node000005"><a xlink:title=" ">
<path fill="none" stroke="#63b8ff" d="M745.96,-292.39C740.35,-342.65 722.99,-472.68 691,-499.5 588.25,-585.65 406.42,-501.91 349.52,-472.12"/>
<polygon fill="#63b8ff" stroke="#63b8ff" points="749.46,-292.5 747.05,-282.18 742.5,-291.75 749.46,-292.5"/>
</a>
</g>
</g>
<!-- Node12 -->
<g id="Node000012" class="node">
<title>Node12</title>
<g id="a_Node000012"><a xlink:href="fs_8c.html#a15858f4d8a4cc1def3d84d03c312836b" target="_top" xlink:title=" ">
<polygon fill="white" stroke="#666666" points="353,-396 309,-396 309,-377 353,-377 353,-396"/>
<text text-anchor="middle" x="331" y="-384" font-family="Helvetica,sans-Serif" font-size="10.00">writei</text>
</a>
</g>
</g>
<!-- Node2&#45;&gt;Node12 -->
<g id="edge56_Node000002_Node000012" class="edge">
<title>Node2&#45;&gt;Node12</title>
<g id="a_edge56_Node000002_Node000012"><a xlink:title=" ">
<path fill="none" stroke="#63b8ff" d="M735.64,-290.58C725.31,-304.24 709.35,-322.33 691,-332.5 576.33,-396.03 411,-391.97 353.04,-388.22"/>
<polygon fill="#63b8ff" stroke="#63b8ff" points="738.56,-292.52 741.58,-282.36 732.88,-288.42 738.56,-292.52"/>
</a>
</g>
</g>
<!-- Node14 -->
<g id="Node000014" class="node">
<title>Node14</title>
<g id="a_Node000014"><a xlink:href="fs_8c.html#a2800a4b570ae39363cec0613dac92fd7" target="_top" xlink:title=" ">
<polygon fill="white" stroke="#666666" points="548,-152 506,-152 506,-133 548,-133 548,-152"/>
<text text-anchor="middle" x="527" y="-140" font-family="Helvetica,sans-Serif" font-size="10.00">bfree</text>
</a>
</g>
</g>
<!-- Node2&#45;&gt;Node14 -->
<g id="edge16_Node000002_Node000014" class="edge">
<title>Node2&#45;&gt;Node14</title>
<g id="a_edge16_Node000002_Node000014"><a xlink:title=" ">
<path fill="none" stroke="#63b8ff" d="M745.92,-252.67C741.61,-222.79 728.68,-167.12 691,-142.5 646.94,-113.71 580.86,-126.75 548.01,-136.04"/>
<polygon fill="#63b8ff" stroke="#63b8ff" points="742.47,-253.25 747.19,-262.74 749.42,-252.38 742.47,-253.25"/>
</a>
</g>
</g>
<!-- Node15 -->
<g id="Node000015" class="node">
<title>Node15</title>
<g id="a_Node000015"><a xlink:href="fs_8c.html#a7c42ba96035fb59aef87372552b1a661" target="_top" xlink:title=" ">
<polygon fill="white" stroke="#666666" points="438.5,-170 394.5,-170 394.5,-151 438.5,-151 438.5,-170"/>
<text text-anchor="middle" x="416.5" y="-158" font-family="Helvetica,sans-Serif" font-size="10.00">itrunc</text>
</a>
</g>
</g>
<!-- Node2&#45;&gt;Node15 -->
<g id="edge40_Node000002_Node000015" class="edge">
<title>Node2&#45;&gt;Node15</title>
<g id="a_edge40_Node000002_Node000015"><a xlink:title=" ">
<path fill="none" stroke="#63b8ff" d="M747.24,-252.46C744.74,-218.74 734.3,-151.44 691,-121.5 676.5,-111.48 525.76,-108.69 476,-123.5 457.8,-128.92 439.78,-141.74 428.65,-150.77"/>
<polygon fill="#63b8ff" stroke="#63b8ff" points="743.77,-253.08 747.83,-262.87 750.76,-252.68 743.77,-253.08"/>
</a>
</g>
</g>
<!-- Node19 -->
<g id="Node000019" class="node">
<title>Node19</title>
<g id="a_Node000019"><a xlink:href="fs_8c.html#ac93f607f4a954323f4c9ea485ca88538" target="_top" xlink:title=" ">
<polygon fill="white" stroke="#666666" points="674.5,-434 630.5,-434 630.5,-415 674.5,-415 674.5,-434"/>
<text text-anchor="middle" x="652.5" y="-422" font-family="Helvetica,sans-Serif" font-size="10.00">bzero</text>
</a>
</g>
</g>
<!-- Node2&#45;&gt;Node19 -->
<g id="edge25_Node000002_Node000019" class="edge">
<title>Node2&#45;&gt;Node19</title>
<g id="a_edge25_Node000002_Node000019"><a xlink:title=" ">
<path fill="none" stroke="#63b8ff" d="M743.15,-291.97C735.68,-318.86 719.16,-367.75 691,-400.5 686.06,-406.24 679.41,-411.11 673.08,-414.92"/>
<polygon fill="#63b8ff" stroke="#63b8ff" points="746.56,-292.77 745.74,-282.21 739.8,-290.98 746.56,-292.77"/>
</a>
</g>
</g>
<!-- Node20 -->
<g id="Node000020" class="node">
<title>Node20</title>
<g id="a_Node000020"><a xlink:href="fs_8c.html#af95049367381647bc9487af49724b869" target="_top" xlink:title=" ">
<polygon fill="white" stroke="#666666" points="674,-20 631,-20 631,-1 674,-1 674,-20"/>
<text text-anchor="middle" x="652.5" y="-8" font-family="Helvetica,sans-Serif" font-size="10.00">ialloc</text>
</a>
</g>
</g>
<!-- Node2&#45;&gt;Node20 -->
<g id="edge27_Node000002_Node000020" class="edge">
<title>Node2&#45;&gt;Node20</title>
<g id="a_edge27_Node000002_Node000020"><a xlink:title=" ">
<path fill="none" stroke="#63b8ff" d="M748.82,-252.69C749.64,-207.71 745.61,-96.53 691,-28.5 686.66,-23.09 680.3,-19.21 674.05,-16.47"/>
<polygon fill="#63b8ff" stroke="#63b8ff" points="745.32,-252.76 748.53,-262.86 752.32,-252.96 745.32,-252.76"/>
</a>
</g>
</g>
<!-- Node21 -->
<g id="Node000021" class="node">
<title>Node21</title>
<g id="a_Node000021"><a xlink:href="fs_8c.html#aed28187406d84a3aa71f10c6235a03ec" target="_top" xlink:title=" ">
<polygon fill="white" stroke="#666666" points="351,-358 311,-358 311,-339 351,-339 351,-358"/>
<text text-anchor="middle" x="331" y="-346" font-family="Helvetica,sans-Serif" font-size="10.00">ilock</text>
</a>
</g>
</g>
<!-- Node2&#45;&gt;Node21 -->
<g id="edge28_Node000002_Node000021" class="edge">
<title>Node2&#45;&gt;Node21</title>
<g id="a_edge28_Node000002_Node000021"><a xlink:title=" ">
<path fill="none" stroke="#63b8ff" d="M727.34,-288.23C716.98,-295.3 703.91,-303.05 691,-307.5 567.06,-350.26 406.21,-350.53 351.33,-349.19"/>
<polygon fill="#63b8ff" stroke="#63b8ff" points="729.57,-290.94 735.68,-282.29 725.51,-285.24 729.57,-290.94"/>
</a>
</g>
</g>
<!-- Node23 -->
<g id="Node000023" class="node">
<title>Node23</title>
<g id="a_Node000023"><a xlink:href="log_8c.html#ab5eaeac1ab988530dcda4fd57a634df0" target="_top" xlink:title=" ">
<polygon fill="white" stroke="#666666" points="691,-208 614,-208 614,-189 691,-189 691,-208"/>
<text text-anchor="middle" x="652.5" y="-196" font-family="Helvetica,sans-Serif" font-size="10.00">install_trans</text>
</a>
</g>
</g>
<!-- Node2&#45;&gt;Node23 -->
<g id="edge33_Node000002_Node000023" class="edge">
<title>Node2&#45;&gt;Node23</title>
<g id="a_edge33_Node000002_Node000023"><a xlink:title=" ">
<path fill="none" stroke="#63b8ff" d="M733.23,-255.24C722.4,-243.3 706.87,-227.64 691,-216.5 686.51,-213.35 681.38,-210.48 676.38,-208.01"/>
<polygon fill="#63b8ff" stroke="#63b8ff" points="730.68,-257.63 739.92,-262.8 735.92,-252.99 730.68,-257.63"/>
</a>
</g>
</g>
<!-- Node28 -->
<g id="Node000028" class="node">
<title>Node28</title>
<g id="a_Node000028"><a xlink:href="fs_8c.html#a7220afa8e5f4bea540eb95879ea7df6e" target="_top" xlink:title=" ">
<polygon fill="white" stroke="#666666" points="553.5,-301 500.5,-301 500.5,-282 553.5,-282 553.5,-301"/>
<text text-anchor="middle" x="527" y="-289" font-family="Helvetica,sans-Serif" font-size="10.00">iupdate</text>
</a>
</g>
</g>
<!-- Node2&#45;&gt;Node28 -->
<g id="edge41_Node000002_Node000028" class="edge">
<title>Node2&#45;&gt;Node28</title>
<g id="a_edge41_Node000002_Node000028"><a xlink:title=" ">
<path fill="none" stroke="#63b8ff" d="M717.22,-284.07C708.84,-286.71 699.67,-289.14 691,-290.5 642.92,-298.06 585.86,-295.91 553.6,-293.69"/>
<polygon fill="#63b8ff" stroke="#63b8ff" points="718.61,-287.29 726.98,-280.8 716.39,-280.66 718.61,-287.29"/>
</a>
</g>
</g>
<!-- Node29 -->
<g id="Node000029" class="node">
<title>Node29</title>
<g id="a_Node000029"><a xlink:href="log_8c.html#a608ce9e072cf1640900437d6b59ca181" target="_top" xlink:title=" ">
<polygon fill="white" stroke="#666666" points="686.5,-171 618.5,-171 618.5,-152 686.5,-152 686.5,-171"/>
<text text-anchor="middle" x="652.5" y="-159" font-family="Helvetica,sans-Serif" font-size="10.00">read_head</text>
</a>
</g>
</g>
<!-- Node2&#45;&gt;Node29 -->
<g id="edge45_Node000002_Node000029" class="edge">
<title>Node2&#45;&gt;Node29</title>
<g id="a_edge45_Node000002_Node000029"><a xlink:title=" ">
<path fill="none" stroke="#63b8ff" d="M740.32,-253.58C731.19,-233.06 714.21,-200.45 691,-179.5 687.35,-176.21 683,-173.4 678.57,-171.04"/>
<polygon fill="#63b8ff" stroke="#63b8ff" points="737.13,-255 744.27,-262.82 743.56,-252.25 737.13,-255"/>
</a>
</g>
</g>
<!-- Node30 -->
<g id="Node000030" class="node">
<title>Node30</title>
<g id="a_Node000030"><a xlink:href="fs_8c.html#aff0080b2133027be2e525ca088b40e78" target="_top" xlink:title=" ">
<polygon fill="white" stroke="#666666" points="677.5,-57 627.5,-57 627.5,-38 677.5,-38 677.5,-57"/>
<text text-anchor="middle" x="652.5" y="-45" font-family="Helvetica,sans-Serif" font-size="10.00">readsb</text>
</a>
</g>
</g>
<!-- Node2&#45;&gt;Node30 -->
<g id="edge48_Node000002_Node000030" class="edge">
<title>Node2&#45;&gt;Node30</title>
<g id="a_edge48_Node000002_Node000030"><a xlink:title=" ">
<path fill="none" stroke="#63b8ff" d="M746.93,-252.2C743.95,-213.43 732.75,-127.71 691,-71.5 686.67,-65.67 680.46,-60.88 674.34,-57.16"/>
<polygon fill="#63b8ff" stroke="#63b8ff" points="743.47,-252.89 747.62,-262.64 750.45,-252.43 743.47,-252.89"/>
</a>
</g>
</g>
<!-- Node32 -->
<g id="Node000032" class="node">
<title>Node32</title>
<g id="a_Node000032"><a xlink:href="log_8c.html#a34322134c00d3e9ad7fb48a7baa9a4c5" target="_top" xlink:title=" ">
<polygon fill="white" stroke="#666666" points="688,-245 617,-245 617,-226 688,-226 688,-245"/>
<text text-anchor="middle" x="652.5" y="-233" font-family="Helvetica,sans-Serif" font-size="10.00">write_head</text>
</a>
</g>
</g>
<!-- Node2&#45;&gt;Node32 -->
<g id="edge51_Node000002_Node000032" class="edge">
<title>Node2&#45;&gt;Node32</title>
<g id="a_edge51_Node000002_Node000032"><a xlink:title=" ">
<path fill="none" stroke="#63b8ff" d="M717.23,-260.45C704.46,-255.45 689.86,-249.74 677.86,-245.04"/>
<polygon fill="#63b8ff" stroke="#63b8ff" points="715.97,-263.72 726.56,-264.1 718.52,-257.2 715.97,-263.72"/>
</a>
</g>
</g>
<!-- Node33 -->
<g id="Node000033" class="node">
<title>Node33</title>
<g id="a_Node000033"><a xlink:href="log_8c.html#af4e7fbf2920c27568c9b88d45f0bd5e1" target="_top" xlink:title=" ">
<polygon fill="white" stroke="#666666" points="683.5,-282 621.5,-282 621.5,-263 683.5,-263 683.5,-282"/>
<text text-anchor="middle" x="652.5" y="-270" font-family="Helvetica,sans-Serif" font-size="10.00">write_log</text>
</a>
</g>
</g>
<!-- Node2&#45;&gt;Node33 -->
<g id="edge54_Node000002_Node000033" class="edge">
<title>Node2&#45;&gt;Node33</title>
<g id="a_edge54_Node000002_Node000033"><a xlink:title=" ">
<path fill="none" stroke="#63b8ff" d="M716.51,-272.5C705.97,-272.5 694.26,-272.5 683.81,-272.5"/>
<polygon fill="#63b8ff" stroke="#63b8ff" points="716.56,-276 726.56,-272.5 716.56,-269 716.56,-276"/>
</a>
</g>
</g>
<!-- Node3&#45;&gt;Node4 -->
<g id="edge3_Node000003_Node000004" class="edge">
<title>Node3&#45;&gt;Node4</title>
<g id="a_edge3_Node000003_Node000004"><a xlink:title=" ">
<path fill="none" stroke="#63b8ff" d="M493.54,-462.5C475.74,-462.5 454.19,-462.5 438.58,-462.5"/>
<polygon fill="#63b8ff" stroke="#63b8ff" points="493.78,-466 503.78,-462.5 493.78,-459 493.78,-466"/>
</a>
</g>
</g>
<!-- Node4&#45;&gt;Node5 -->
<g id="edge4_Node000004_Node000005" class="edge">
<title>Node4&#45;&gt;Node5</title>
<g id="a_edge4_Node000004_Node000005"><a xlink:title=" ">
<path fill="none" stroke="#63b8ff" d="M384.35,-462.5C373.38,-462.5 361.38,-462.5 351.63,-462.5"/>
<polygon fill="#63b8ff" stroke="#63b8ff" points="384.43,-466 394.43,-462.5 384.43,-459 384.43,-466"/>
</a>
</g>
</g>
<!-- Node4&#45;&gt;Node12 -->
<g id="edge13_Node000004_Node000012" class="edge">
<title>Node4&#45;&gt;Node12</title>
<g id="a_edge13_Node000004_Node000012"><a xlink:title=" ">
<path fill="none" stroke="#63b8ff" d="M397.38,-446.01C380.61,-430.74 356.25,-408.57 342.49,-396.05"/>
<polygon fill="#63b8ff" stroke="#63b8ff" points="395.17,-448.73 404.92,-452.87 399.89,-443.55 395.17,-448.73"/>
</a>
</g>
</g>
<!-- Node6 -->
<g id="Node000006" class="node">
<title>Node6</title>
<g id="a_Node000006"><a xlink:href="fs_8c.html#a69a135a0e8a06d9f306d77ebc0c1f7a0" target="_top" xlink:title=" ">
<polygon fill="white" stroke="#666666" points="163.5,-453 116.5,-453 116.5,-434 163.5,-434 163.5,-453"/>
<text text-anchor="middle" x="140" y="-441" font-family="Helvetica,sans-Serif" font-size="10.00">dirlink</text>
</a>
</g>
</g>
<!-- Node5&#45;&gt;Node6 -->
<g id="edge5_Node000005_Node000006" class="edge">
<title>Node5&#45;&gt;Node6</title>
<g id="a_edge5_Node000005_Node000006"><a xlink:title=" ">
<path fill="none" stroke="#63b8ff" d="M300.63,-473.84C274.16,-482.41 234.4,-491.19 201,-481.5 182.05,-476 163.35,-462.53 151.99,-453.21"/>
<polygon fill="#63b8ff" stroke="#63b8ff" points="302.09,-477.03 310.42,-470.48 299.82,-470.41 302.09,-477.03"/>
</a>
</g>
</g>
<!-- Node7 -->
<g id="Node000007" class="node">
<title>Node7</title>
<g id="a_Node000007"><a xlink:href="fs_8c.html#a5341068f021beac8cf0032b97d231e6f" target="_top" xlink:title=" ">
<polygon fill="white" stroke="#666666" points="266,-472 204,-472 204,-453 266,-453 266,-472"/>
<text text-anchor="middle" x="235" y="-460" font-family="Helvetica,sans-Serif" font-size="10.00">dirlookup</text>
</a>
</g>
</g>
<!-- Node5&#45;&gt;Node7 -->
<g id="edge6_Node000005_Node000007" class="edge">
<title>Node5&#45;&gt;Node7</title>
<g id="a_edge6_Node000005_Node000007"><a xlink:title=" ">
<path fill="none" stroke="#63b8ff" d="M299.87,-462.5C289.13,-462.5 277.03,-462.5 266.28,-462.5"/>
<polygon fill="#63b8ff" stroke="#63b8ff" points="300.07,-466 310.07,-462.5 300.06,-459 300.07,-466"/>
</a>
</g>
</g>
<!-- Node11 -->
<g id="Node000011" class="node">
<title>Node11</title>
<g id="a_Node000011"><a xlink:href="file_8c.html#a1dc8c87c7e48bdaaf98e9c7047928f29" target="_top" xlink:title=" ">
<polygon fill="white" stroke="#666666" points="261.5,-396 208.5,-396 208.5,-377 261.5,-377 261.5,-396"/>
<text text-anchor="middle" x="235" y="-384" font-family="Helvetica,sans-Serif" font-size="10.00">fileread</text>
</a>
</g>
</g>
<!-- Node5&#45;&gt;Node11 -->
<g id="edge12_Node000005_Node000011" class="edge">
<title>Node5&#45;&gt;Node11</title>
<g id="a_edge12_Node000005_Node000011"><a xlink:title=" ">
<path fill="none" stroke="#63b8ff" d="M310.11,-446.42C291.22,-431.15 263.44,-408.68 247.81,-396.05"/>
<polygon fill="#63b8ff" stroke="#63b8ff" points="308.12,-449.31 318.09,-452.87 312.52,-443.87 308.12,-449.31"/>
</a>
</g>
</g>
<!-- Node7&#45;&gt;Node6 -->
<g id="edge7_Node000007_Node000006" class="edge">
<title>Node7&#45;&gt;Node6</title>
<g id="a_edge7_Node000007_Node000006"><a xlink:title=" ">
<path fill="none" stroke="#63b8ff" d="M193.73,-454.27C183.44,-452.17 172.73,-449.98 163.68,-448.13"/>
<polygon fill="#63b8ff" stroke="#63b8ff" points="193.31,-457.76 203.81,-456.33 194.71,-450.9 193.31,-457.76"/>
</a>
</g>
</g>
<!-- Node8 -->
<g id="Node000008" class="node">
<title>Node8</title>
<g id="a_Node000008"><a xlink:href="fs_8c.html#a0f085d02326c9dd34cb4e58133a7b948" target="_top" xlink:title=" ">
<polygon fill="white" stroke="#666666" points="165,-246 115,-246 115,-227 165,-227 165,-246"/>
<text text-anchor="middle" x="140" y="-234" font-family="Helvetica,sans-Serif" font-size="10.00">namex</text>
</a>
</g>
</g>
<!-- Node7&#45;&gt;Node8 -->
<g id="edge8_Node000007_Node000008" class="edge">
<title>Node7&#45;&gt;Node8</title>
<g id="a_edge8_Node000007_Node000008"><a xlink:title=" ">
<path fill="none" stroke="#63b8ff" d="M222.44,-444.11C215.68,-432.92 207.28,-418.18 201,-404.5 174.27,-346.23 151.54,-272.35 143.81,-246.2"/>
<polygon fill="#63b8ff" stroke="#63b8ff" points="219.64,-446.24 227.86,-452.92 225.6,-442.57 219.64,-446.24"/>
</a>
</g>
</g>
<!-- Node9 -->
<g id="Node000009" class="node">
<title>Node9</title>
<g id="a_Node000009"><a xlink:href="fs_8c.html#a35c52ecf358097c17dcbbd5594acb41a" target="_top" xlink:title=" ">
<polygon fill="white" stroke="#666666" points="63,-283 16,-283 16,-264 63,-264 63,-283"/>
<text text-anchor="middle" x="39.5" y="-271" font-family="Helvetica,sans-Serif" font-size="10.00">namei</text>
</a>
</g>
</g>
<!-- Node8&#45;&gt;Node9 -->
<g id="edge9_Node000008_Node000009" class="edge">
<title>Node8&#45;&gt;Node9</title>
<g id="a_edge9_Node000008_Node000009"><a xlink:title=" ">
<path fill="none" stroke="#63b8ff" d="M105.23,-249.19C91.41,-254.38 75.77,-260.25 63.33,-264.92"/>
<polygon fill="#63b8ff" stroke="#63b8ff" points="106.77,-252.34 114.9,-245.55 104.31,-245.79 106.77,-252.34"/>
</a>
</g>
</g>
<!-- Node10 -->
<g id="Node000010" class="node">
<title>Node10</title>
<g id="a_Node000010"><a xlink:href="fs_8c.html#ade44726f2aed2af27fa0df5f63f9e688" target="_top" xlink:title=" ">
<polygon fill="white" stroke="#666666" points="79,-246 0,-246 0,-227 79,-227 79,-246"/>
<text text-anchor="middle" x="39.5" y="-234" font-family="Helvetica,sans-Serif" font-size="10.00">nameiparent</text>
</a>
</g>
</g>
<!-- Node8&#45;&gt;Node10 -->
<g id="edge10_Node000008_Node000010" class="edge">
<title>Node8&#45;&gt;Node10</title>
<g id="a_edge10_Node000008_Node000010"><a xlink:title=" ">
<path fill="none" stroke="#63b8ff" d="M104.87,-230.04C96.63,-229.71 87.76,-229.66 79.31,-229.89"/>
<polygon fill="#63b8ff" stroke="#63b8ff" points="104.72,-233.54 114.9,-230.6 105.12,-226.55 104.72,-233.54"/>
</a>
</g>
</g>
<!-- Node10&#45;&gt;Node8 -->
<g id="edge11_Node000010_Node000008" class="edge">
<title>Node10&#45;&gt;Node8</title>
<g id="a_edge11_Node000010_Node000008"><a xlink:title=" ">
<path fill="none" stroke="#63b8ff" d="M89.58,-243.25C98.39,-243.25 107.21,-242.97 114.9,-242.4"/>
<polygon fill="#63b8ff" stroke="#63b8ff" points="89.36,-239.75 79.31,-243.11 89.27,-246.75 89.36,-239.75"/>
</a>
</g>
</g>
<!-- Node12&#45;&gt;Node6 -->
<g id="edge14_Node000012_Node000006" class="edge">
<title>Node12&#45;&gt;Node6</title>
<g id="a_edge14_Node000012_Node000006"><a xlink:title=" ">
<path fill="none" stroke="#63b8ff" d="M298.67,-395.95C260.62,-407.42 197.36,-426.5 163.7,-436.65"/>
<polygon fill="#63b8ff" stroke="#63b8ff" points="300.12,-399.17 308.69,-392.93 298.1,-392.46 300.12,-399.17"/>
</a>
</g>
</g>
<!-- Node13 -->
<g id="Node000013" class="node">
<title>Node13</title>
<g id="a_Node000013"><a xlink:href="file_8c.html#ab8de757a0a9f58dcc6511ea5e46ebb88" target="_top" xlink:title=" ">
<polygon fill="white" stroke="#666666" points="263,-283 207,-283 207,-264 263,-264 263,-283"/>
<text text-anchor="middle" x="235" y="-271" font-family="Helvetica,sans-Serif" font-size="10.00">filewrite</text>
</a>
</g>
</g>
<!-- Node12&#45;&gt;Node13 -->
<g id="edge15_Node000012_Node000013" class="edge">
<title>Node12&#45;&gt;Node13</title>
<g id="a_edge15_Node000012_Node000013"><a xlink:title=" ">
<path fill="none" stroke="#63b8ff" d="M308.86,-370.26C307.52,-369.02 306.22,-367.77 305,-366.5 278.35,-338.86 253.06,-300.69 241.93,-283.1"/>
<polygon fill="#63b8ff" stroke="#63b8ff" points="306.84,-373.13 316.74,-376.92 311.37,-367.79 306.84,-373.13"/>
</a>
</g>
</g>
<!-- Node14&#45;&gt;Node15 -->
<g id="edge17_Node000014_Node000015" class="edge">
<title>Node14&#45;&gt;Node15</title>
<g id="a_edge17_Node000014_Node000015"><a xlink:title=" ">
<path fill="none" stroke="#63b8ff" d="M495.75,-147.52C477.58,-150.53 454.91,-154.29 438.66,-156.99"/>
<polygon fill="#63b8ff" stroke="#63b8ff" points="496.55,-150.93 505.85,-145.84 495.41,-144.03 496.55,-150.93"/>
</a>
</g>
</g>
<!-- Node16 -->
<g id="Node000016" class="node">
<title>Node16</title>
<g id="a_Node000016"><a xlink:href="fs_8c.html#ab3c447f135c68e4c3c1f8d5866f6e77b" target="_top" xlink:title=" ">
<polygon fill="white" stroke="#666666" points="348.5,-189 313.5,-189 313.5,-170 348.5,-170 348.5,-189"/>
<text text-anchor="middle" x="331" y="-177" font-family="Helvetica,sans-Serif" font-size="10.00">iput</text>
</a>
</g>
</g>
<!-- Node15&#45;&gt;Node16 -->
<g id="edge18_Node000015_Node000016" class="edge">
<title>Node15&#45;&gt;Node16</title>
<g id="a_edge18_Node000015_Node000016"><a xlink:title=" ">
<path fill="none" stroke="#63b8ff" d="M384.6,-167.53C372.4,-170.31 358.87,-173.39 348.59,-175.72"/>
<polygon fill="#63b8ff" stroke="#63b8ff" points="385.46,-170.93 394.43,-165.29 383.9,-164.1 385.46,-170.93"/>
</a>
</g>
</g>
<!-- Node16&#45;&gt;Node6 -->
<g id="edge19_Node000016_Node000006" class="edge">
<title>Node16&#45;&gt;Node6</title>
<g id="a_edge19_Node000016_Node000006"><a xlink:title=" ">
<path fill="none" stroke="#63b8ff" d="M302.84,-180.03C273.65,-182.1 227.86,-189.91 201,-217.5 139.56,-280.62 139.17,-399.12 140.48,-433.76"/>
<polygon fill="#63b8ff" stroke="#63b8ff" points="303.33,-183.51 313.13,-179.49 302.96,-176.52 303.33,-183.51"/>
</a>
</g>
</g>
<!-- Node16&#45;&gt;Node8 -->
<g id="edge23_Node000016_Node000008" class="edge">
<title>Node16&#45;&gt;Node8</title>
<g id="a_edge23_Node000016_Node000008"><a xlink:title=" ">
<path fill="none" stroke="#63b8ff" d="M303.23,-175.52C276.38,-172.66 234.34,-171.32 201,-184.5 178.69,-193.32 158.99,-214.17 148.66,-226.63"/>
<polygon fill="#63b8ff" stroke="#63b8ff" points="303.06,-179.02 313.4,-176.75 303.9,-172.07 303.06,-179.02"/>
</a>
</g>
</g>
<!-- Node17 -->
<g id="Node000017" class="node">
<title>Node17</title>
<g id="a_Node000017"><a xlink:href="file_8c.html#ae557c81ab89c24219146144bb6adaa2c" target="_top" xlink:title=" ">
<polygon fill="white" stroke="#666666" points="263.5,-246 206.5,-246 206.5,-227 263.5,-227 263.5,-246"/>
<text text-anchor="middle" x="235" y="-234" font-family="Helvetica,sans-Serif" font-size="10.00">fileclose</text>
</a>
</g>
</g>
<!-- Node16&#45;&gt;Node17 -->
<g id="edge20_Node000016_Node000017" class="edge">
<title>Node16&#45;&gt;Node17</title>
<g id="a_edge20_Node000016_Node000017"><a xlink:title=" ">
<path fill="none" stroke="#63b8ff" d="M305.23,-194.52C288.27,-204.8 266.3,-218.12 251.71,-226.97"/>
<polygon fill="#63b8ff" stroke="#63b8ff" points="307.32,-197.35 314.05,-189.17 303.69,-191.36 307.32,-197.35"/>
</a>
</g>
</g>
<!-- Node18 -->
<g id="Node000018" class="node">
<title>Node18</title>
<g id="a_Node000018"><a xlink:href="fs_8c.html#a207b3008bae35596c55ec7c4fc6875eb" target="_top" xlink:title=" ">
<polygon fill="white" stroke="#666666" points="269,-132 201,-132 201,-113 269,-113 269,-132"/>
<text text-anchor="middle" x="235" y="-120" font-family="Helvetica,sans-Serif" font-size="10.00">iunlockput</text>
</a>
</g>
</g>
<!-- Node16&#45;&gt;Node18 -->
<g id="edge21_Node000016_Node000018" class="edge">
<title>Node16&#45;&gt;Node18</title>
<g id="a_edge21_Node000016_Node000018"><a xlink:title=" ">
<path fill="none" stroke="#63b8ff" d="M305.23,-164.48C288.27,-154.2 266.3,-140.88 251.71,-132.03"/>
<polygon fill="#63b8ff" stroke="#63b8ff" points="303.69,-167.64 314.05,-169.83 307.32,-161.65 303.69,-167.64"/>
</a>
</g>
</g>
<!-- Node18&#45;&gt;Node8 -->
<g id="edge22_Node000018_Node000008" class="edge">
<title>Node18&#45;&gt;Node8</title>
<g id="a_edge22_Node000018_Node000008"><a xlink:title=" ">
<path fill="none" stroke="#63b8ff" d="M210.23,-138.2C206.97,-140.79 203.79,-143.59 201,-146.5 176.29,-172.24 155.21,-209.35 145.98,-226.77"/>
<polygon fill="#63b8ff" stroke="#63b8ff" points="212.35,-140.98 218.31,-132.21 208.19,-135.35 212.35,-140.98"/>
</a>
</g>
</g>
<!-- Node19&#45;&gt;Node3 -->
<g id="edge26_Node000019_Node000003" class="edge">
<title>Node19&#45;&gt;Node3</title>
<g id="a_edge26_Node000019_Node000003"><a xlink:title=" ">
<path fill="none" stroke="#63b8ff" d="M620.46,-434.05C598.58,-440.78 569.8,-449.64 550.2,-455.67"/>
<polygon fill="#63b8ff" stroke="#63b8ff" points="621.74,-437.32 630.27,-431.03 619.68,-430.63 621.74,-437.32"/>
</a>
</g>
</g>
<!-- Node21&#45;&gt;Node8 -->
<g id="edge32_Node000021_Node000008" class="edge">
<title>Node21&#45;&gt;Node8</title>
<g id="a_edge32_Node000021_Node000008"><a xlink:title=" ">
<path fill="none" stroke="#63b8ff" d="M300.99,-338.78C273.91,-329.01 232.98,-312.41 201,-291.5 180.66,-278.2 160.56,-257.94 149.57,-246.08"/>
<polygon fill="#63b8ff" stroke="#63b8ff" points="300.05,-342.16 310.65,-342.19 302.38,-335.56 300.05,-342.16"/>
</a>
</g>
</g>
<!-- Node21&#45;&gt;Node11 -->
<g id="edge29_Node000021_Node000011" class="edge">
<title>Node21&#45;&gt;Node11</title>
<g id="a_edge29_Node000021_Node000011"><a xlink:title=" ">
<path fill="none" stroke="#63b8ff" d="M301.32,-360.09C287.99,-365.48 272.32,-371.82 259.67,-376.93"/>
<polygon fill="#63b8ff" stroke="#63b8ff" points="303.02,-363.18 310.98,-356.19 300.39,-356.69 303.02,-363.18"/>
</a>
</g>
</g>
<!-- Node21&#45;&gt;Node13 -->
<g id="edge31_Node000021_Node000013" class="edge">
<title>Node21&#45;&gt;Node13</title>
<g id="a_edge31_Node000021_Node000013"><a xlink:title=" ">
<path fill="none" stroke="#63b8ff" d="M311.03,-332.08C299.13,-321.91 283.36,-308.71 269,-297.5 262.74,-292.62 255.65,-287.42 249.64,-283.11"/>
<polygon fill="#63b8ff" stroke="#63b8ff" points="309.08,-335.01 318.94,-338.87 313.64,-329.7 309.08,-335.01"/>
</a>
</g>
</g>
<!-- Node22 -->
<g id="Node000022" class="node">
<title>Node22</title>
<g id="a_Node000022"><a xlink:href="file_8c.html#afff8e849fa54dea2a5a27dbb97474607" target="_top" xlink:title=" ">
<polygon fill="white" stroke="#666666" points="260,-359 210,-359 210,-340 260,-340 260,-359"/>
<text text-anchor="middle" x="235" y="-347" font-family="Helvetica,sans-Serif" font-size="10.00">filestat</text>
</a>
</g>
</g>
<!-- Node21&#45;&gt;Node22 -->
<g id="edge30_Node000021_Node000022" class="edge">
<title>Node21&#45;&gt;Node22</title>
<g id="a_edge30_Node000021_Node000022"><a xlink:title=" ">
<path fill="none" stroke="#63b8ff" d="M300.62,-348.81C287.56,-348.95 272.38,-349.11 260.01,-349.24"/>
<polygon fill="#63b8ff" stroke="#63b8ff" points="301.02,-352.31 310.98,-348.7 300.94,-345.31 301.02,-352.31"/>
</a>
</g>
</g>
<!-- Node24 -->
<g id="Node000024" class="node">
<title>Node24</title>
<g id="a_Node000024"><a xlink:href="log_8c.html#a504ac82448623ae8ad27b97dbed82694" target="_top" xlink:title=" ">
<polygon fill="white" stroke="#666666" points="554,-245 500,-245 500,-226 554,-226 554,-245"/>
<text text-anchor="middle" x="527" y="-233" font-family="Helvetica,sans-Serif" font-size="10.00">commit</text>
</a>
</g>
</g>
<!-- Node23&#45;&gt;Node24 -->
<g id="edge34_Node000023_Node000024" class="edge">
<title>Node23&#45;&gt;Node24</title>
<g id="a_edge34_Node000023_Node000024"><a xlink:title=" ">
<path fill="none" stroke="#63b8ff" d="M610.07,-210.91C591.64,-216.43 570.49,-222.77 554.28,-227.63"/>
<polygon fill="#63b8ff" stroke="#63b8ff" points="611.12,-214.25 619.7,-208.03 609.11,-207.55 611.12,-214.25"/>
</a>
</g>
</g>
<!-- Node26 -->
<g id="Node000026" class="node">
<title>Node26</title>
<g id="a_Node000026"><a xlink:href="log_8c.html#a18cdf83ef674be145df14b83500f1d1b" target="_top" xlink:title=" ">
<polygon fill="white" stroke="#666666" points="578,-199 476,-199 476,-180 578,-180 578,-199"/>
<text text-anchor="middle" x="527" y="-187" font-family="Helvetica,sans-Serif" font-size="10.00">recover_from_log</text>
</a>
</g>
</g>
<!-- Node23&#45;&gt;Node26 -->
<g id="edge38_Node000023_Node000026" class="edge">
<title>Node23&#45;&gt;Node26</title>
<g id="a_edge38_Node000023_Node000026"><a xlink:title=" ">
<path fill="none" stroke="#63b8ff" d="M603.79,-195.02C595.41,-194.41 586.68,-193.78 578.24,-193.16"/>
<polygon fill="#63b8ff" stroke="#63b8ff" points="603.55,-198.51 613.77,-195.75 604.06,-191.53 603.55,-198.51"/>
</a>
</g>
</g>
<!-- Node25 -->
<g id="Node000025" class="node">
<title>Node25</title>
<g id="a_Node000025"><a xlink:href="log_8c.html#ac0f12be0ca0de555e60b27b06a57a65b" target="_top" xlink:title=" ">
<polygon fill="white" stroke="#666666" points="357,-246 305,-246 305,-227 357,-227 357,-246"/>
<text text-anchor="middle" x="331" y="-234" font-family="Helvetica,sans-Serif" font-size="10.00">end_op</text>
</a>
</g>
</g>
<!-- Node24&#45;&gt;Node25 -->
<g id="edge35_Node000024_Node000025" class="edge">
<title>Node24&#45;&gt;Node25</title>
<g id="a_edge35_Node000024_Node000025"><a xlink:title=" ">
<path fill="none" stroke="#63b8ff" d="M489.54,-235.69C450.87,-235.89 390.83,-236.2 357.14,-236.37"/>
<polygon fill="#63b8ff" stroke="#63b8ff" points="489.85,-239.19 499.84,-235.63 489.82,-232.19 489.85,-239.19"/>
</a>
</g>
</g>
<!-- Node25&#45;&gt;Node13 -->
<g id="edge37_Node000025_Node000013" class="edge">
<title>Node25&#45;&gt;Node13</title>
<g id="a_edge37_Node000025_Node000013"><a xlink:title=" ">
<path fill="none" stroke="#63b8ff" d="M296.22,-249.8C284.4,-254.45 271.36,-259.58 260.45,-263.88"/>
<polygon fill="#63b8ff" stroke="#63b8ff" points="297.77,-252.95 305.79,-246.03 295.21,-246.43 297.77,-252.95"/>
</a>
</g>
</g>
<!-- Node25&#45;&gt;Node17 -->
<g id="edge36_Node000025_Node000017" class="edge">
<title>Node25&#45;&gt;Node17</title>
<g id="a_edge36_Node000025_Node000017"><a xlink:title=" ">
<path fill="none" stroke="#63b8ff" d="M294.51,-236.5C284.27,-236.5 273.25,-236.5 263.57,-236.5"/>
<polygon fill="#63b8ff" stroke="#63b8ff" points="294.81,-240 304.81,-236.5 294.81,-233 294.81,-240"/>
</a>
</g>
</g>
<!-- Node27 -->
<g id="Node000027" class="node">
<title>Node27</title>
<g id="a_Node000027"><a xlink:href="log_8c.html#ad5e79aaefb91f41b9ef6aeae7ecf4708" target="_top" xlink:title=" ">
<polygon fill="white" stroke="#666666" points="440,-104 393,-104 393,-85 440,-85 440,-104"/>
<text text-anchor="middle" x="416.5" y="-92" font-family="Helvetica,sans-Serif" font-size="10.00">initlog</text>
</a>
</g>
</g>
<!-- Node26&#45;&gt;Node27 -->
<g id="edge39_Node000026_Node000027" class="edge">
<title>Node26&#45;&gt;Node27</title>
<g id="a_edge39_Node000026_Node000027"><a xlink:title=" ">
<path fill="none" stroke="#63b8ff" d="M497.18,-174.89C489.96,-170.67 482.44,-165.77 476,-160.5 454.9,-143.24 434.86,-118.08 424.61,-104.34"/>
<polygon fill="#63b8ff" stroke="#63b8ff" points="495.63,-178.03 506.07,-179.84 499.04,-171.91 495.63,-178.03"/>
</a>
</g>
</g>
<!-- Node28&#45;&gt;Node12 -->
<g id="edge44_Node000028_Node000012" class="edge">
<title>Node28&#45;&gt;Node12</title>
<g id="a_edge44_Node000028_Node000012"><a xlink:title=" ">
<path fill="none" stroke="#63b8ff" d="M497.1,-305.65C457.04,-325.27 385.7,-360.2 351.43,-376.98"/>
<polygon fill="#63b8ff" stroke="#63b8ff" points="498.89,-308.67 506.33,-301.13 495.81,-302.39 498.89,-308.67"/>
</a>
</g>
</g>
<!-- Node28&#45;&gt;Node15 -->
<g id="edge43_Node000028_Node000015" class="edge">
<title>Node28&#45;&gt;Node15</title>
<g id="a_edge43_Node000028_Node000015"><a xlink:title=" ">
<path fill="none" stroke="#63b8ff" d="M502.02,-275.97C493.25,-269.63 483.62,-261.82 476,-253.5 451.4,-226.63 430.94,-188.08 422.14,-170.24"/>
<polygon fill="#63b8ff" stroke="#63b8ff" points="500.19,-278.96 510.4,-281.8 504.19,-273.21 500.19,-278.96"/>
</a>
</g>
</g>
<!-- Node28&#45;&gt;Node16 -->
<g id="edge42_Node000028_Node000016" class="edge">
<title>Node28&#45;&gt;Node16</title>
<g id="a_edge42_Node000028_Node000016"><a xlink:title=" ">
<path fill="none" stroke="#63b8ff" d="M500.75,-276.92C460.4,-253.63 382.47,-208.63 348.5,-189.02"/>
<polygon fill="#63b8ff" stroke="#63b8ff" points="499.05,-279.98 509.46,-281.95 502.55,-273.92 499.05,-279.98"/>
</a>
</g>
</g>
<!-- Node29&#45;&gt;Node26 -->
<g id="edge46_Node000029_Node000026" class="edge">
<title>Node29&#45;&gt;Node26</title>
<g id="a_edge46_Node000029_Node000026"><a xlink:title=" ">
<path fill="none" stroke="#63b8ff" d="M608.29,-171.3C595.89,-174.11 582.38,-177.17 570.05,-179.97"/>
<polygon fill="#63b8ff" stroke="#63b8ff" points="609.43,-174.63 618.4,-169 607.88,-167.8 609.43,-174.63"/>
</a>
</g>
</g>
<!-- Node30&#45;&gt;Node27 -->
<g id="edge50_Node000030_Node000027" class="edge">
<title>Node30&#45;&gt;Node27</title>
<g id="a_edge50_Node000030_Node000027"><a xlink:title=" ">
<path fill="none" stroke="#63b8ff" d="M616.93,-49.78C581.19,-52.7 524,-58.97 476,-71.5 463.12,-74.86 449.23,-80.24 438.22,-84.96"/>
<polygon fill="#63b8ff" stroke="#63b8ff" points="617.6,-53.24 627.3,-48.98 617.06,-46.26 617.6,-53.24"/>
</a>
</g>
</g>
<!-- Node31 -->
<g id="Node000031" class="node">
<title>Node31</title>
<g id="a_Node000031"><a xlink:href="fs_8c.html#a301761a27cf266e0bad483272fb31a3c" target="_top" xlink:title=" ">
<polygon fill="white" stroke="#666666" points="544.5,-19 509.5,-19 509.5,0 544.5,0 544.5,-19"/>
<text text-anchor="middle" x="527" y="-7" font-family="Helvetica,sans-Serif" font-size="10.00">iinit</text>
</a>
</g>
</g>
<!-- Node30&#45;&gt;Node31 -->
<g id="edge49_Node000030_Node000031" class="edge">
<title>Node30&#45;&gt;Node31</title>
<g id="a_edge49_Node000030_Node000031"><a xlink:title=" ">
<path fill="none" stroke="#63b8ff" d="M617.69,-37.1C593.93,-29.79 563.17,-20.32 544.54,-14.59"/>
<polygon fill="#63b8ff" stroke="#63b8ff" points="616.81,-40.49 627.39,-40.08 618.87,-33.8 616.81,-40.49"/>
</a>
</g>
</g>
<!-- Node32&#45;&gt;Node24 -->
<g id="edge52_Node000032_Node000024" class="edge">
<title>Node32&#45;&gt;Node24</title>
<g id="a_edge52_Node000032_Node000024"><a xlink:title=" ">
<path fill="none" stroke="#63b8ff" d="M606.68,-235.5C589.08,-235.5 569.48,-235.5 554.25,-235.5"/>
<polygon fill="#63b8ff" stroke="#63b8ff" points="606.77,-239 616.77,-235.5 606.77,-232 606.77,-239"/>
</a>
</g>
</g>
<!-- Node32&#45;&gt;Node26 -->
<g id="edge53_Node000032_Node000026" class="edge">
<title>Node32&#45;&gt;Node26</title>
<g id="a_edge53_Node000032_Node000026"><a xlink:title=" ">
<path fill="none" stroke="#63b8ff" d="M616.5,-222.46C596.46,-215 571.76,-205.8 553.56,-199.02"/>
<polygon fill="#63b8ff" stroke="#63b8ff" points="615.32,-225.76 625.91,-225.97 617.76,-219.2 615.32,-225.76"/>
</a>
</g>
</g>
<!-- Node33&#45;&gt;Node24 -->
<g id="edge55_Node000033_Node000024" class="edge">
<title>Node33&#45;&gt;Node24</title>
<g id="a_edge55_Node000033_Node000024"><a xlink:title=" ">
<path fill="none" stroke="#63b8ff" d="M611.49,-260.51C592.68,-254.88 570.78,-248.32 554.13,-243.33"/>
<polygon fill="#63b8ff" stroke="#63b8ff" points="610.7,-263.93 621.29,-263.45 612.71,-257.23 610.7,-263.93"/>
</a>
</g>
</g>
</g>
</svg>

<g id="navigator" transform="translate(0 0)" fill="#404254">
  <rect fill="#f2f5e9" fill-opacity="0.5" stroke="#606060" stroke-width=".5" x="0" y="0" width="60" height="60"/>
  <use id="zoomplus" xlink:href="#zoomPlus" x="17" y="9" onmousedown="handleZoom(evt,'in')"/>
  <use id="zoomminus" xlink:href="#zoomMin" x="42" y="9" onmousedown="handleZoom(evt,'out')"/>
  <use id="reset" xlink:href="#resetDef" x="30" y="36" onmousedown="handleReset()"/>
   <use id="arrowup" xlink:href="#arrowUp" x="0" y="0" onmousedown="handlePan(0,-1)"/>
  <use id="arrowright" xlink:href="#arrowRight" x="0" y="0" onmousedown="handlePan(1,0)"/>
  <use id="arrowdown" xlink:href="#arrowDown" x="0" y="0" onmousedown="handlePan(0,1)"/>
  <use id="arrowleft" xlink:href="#arrowLeft" x="0" y="0" onmousedown="handlePan(-1,0)"/>
</g>
<svg viewBox="0 0 15 15" width="100%" height="30px" preserveAspectRatio="xMaxYMin meet">
 <g id="arrow_out" transform="scale(0.3 0.3)">
  <a xlink:href="bio_8c_a69dcd3ce86d958b4024c6746263f3f5b_icgraph_org.svg" target="_base">
   <rect id="button" ry="5" rx="5" y="6" x="6" height="38" width="38"
        fill="#f2f5e9" fill-opacity="0.5" stroke="#606060" stroke-width="1.0"/>
   <path id="arrow"
     d="M 11.500037,31.436501 C 11.940474,20.09759 22.043105,11.32322 32.158766,21.979434 L 37.068811,17.246167 C 37.068811,17.246167 37.088388,32 37.088388,32 L 22.160133,31.978069 C 22.160133,31.978069 26.997745,27.140456 26.997745,27.140456 C 18.528582,18.264221 13.291696,25.230495 11.500037,31.436501 z"
     style="fill:#404040;"/>
  </a>
 </g>
</svg>

<style type='text/css'>
<![CDATA[
[data-mouse-over-selected='false'] { opacity: 0.7; }
[data-mouse-over-selected='true']  { opacity: 1.0; }
]]>
</style>
<script type="application/ecmascript"><![CDATA[
document.addEventListener('DOMContentLoaded', (event) => {
  highlightEdges();
  highlightAdjacentNodes();
});
]]></script>
</svg>
