<?xml version="1.0" encoding="UTF-8" standalone="no"?>
<!DOCTYPE svg PUBLIC "-//W3C//DTD SVG 1.1//EN"
 "http://www.w3.org/Graphics/SVG/1.1/DTD/svg11.dtd">
<!-- Generated by graphviz version 2.43.0 (0)
 -->
<!-- Title: filewrite Pages: 1 -->
<!--zoomable 442 -->

<svg id="main" version="1.1" xmlns="http://www.w3.org/2000/svg" xmlns:xlink="http://www.w3.org/1999/xlink" xml:space="preserve" onload="init(evt)">
<style type="text/css"><![CDATA[
.node, .edge {opacity: 0.7;}
.node.selected, .edge.selected {opacity: 1;}
.edge:hover path { stroke: red; }
.edge:hover polygon { stroke: red; fill: red; }
]]></style>

<defs>
  <circle id="rim" cx="0" cy="0" r="7"/>
  <circle id="rim2" cx="0" cy="0" r="3.5"/>
  <g id="zoomPlus">
    <use xlink:href="#rim" fill="#404040"><set attributeName="fill" to="#808080" begin="zoomplus.mouseover" end="zoomplus.mouseout"/></use>
    <path d="M-4,0h8M0,-4v8" fill="none" stroke="white" stroke-width="1.5" pointer-events="none"/>
  </g>
  <g id="zoomMin">
    <use xlink:href="#rim" fill="#404040"><set attributeName="fill" to="#808080" begin="zoomminus.mouseover" end="zoomminus.mouseout"/></use>
    <path d="M-4,0h8" fill="none" stroke="white" stroke-width="1.5" pointer-events="none"/>
  </g>
  <g id="arrowUp" transform="translate(30 24)">
    <use xlink:href="#rim"/>
    <path pointer-events="none" fill="none" stroke="white" stroke-width="1.5" d="M0,-3.0v7 M-2.5,-0.5L0,-3.0L2.5,-0.5"/>
  </g>
  <g id="arrowRight" transform="rotate(90) translate(36 -43)">
    <use xlink:href="#rim"/>
    <path pointer-events="none" fill="none" stroke="white" stroke-width="1.5" d="M0,-3.0v7 M-2.5,-0.5L0,-3.0L2.5,-0.5"/>
  </g>
  <g id="arrowDown" transform="rotate(180) translate(-30 -48)">
    <use xlink:href="#rim"/>
    <path pointer-events="none" fill="none" stroke="white" stroke-width="1.5" d="M0,-3.0v7 M-2.5,-0.5L0,-3.0L2.5,-0.5"/>
  </g>
  <g id="arrowLeft" transform="rotate(270) translate(-36 17)">
    <use xlink:href="#rim"/>
    <path pointer-events="none" fill="none" stroke="white" stroke-width="1.5" d="M0,-3.0v7 M-2.5,-0.5L0,-3.0L2.5,-0.5"/>
  </g>
  <g id="resetDef">
    <use xlink:href="#rim2" fill="#404040"><set attributeName="fill" to="#808080" begin="reset.mouseover" end="reset.mouseout"/></use>
  </g>
</defs>
<script type="application/ecmascript">
var viewWidth = 624;
var viewHeight = 442;
var sectionId = 'dynsection-4';
</script>
<script type="application/ecmascript" xlink:href="svg.min.js"/>
<svg id="graph" class="graph">
<g id="viewport">
<title>filewrite</title>
<!-- Node1 -->
<g id="Node000001" class="node">
<title>Node1</title>
<g id="a_Node000001"><a xlink:title=" ">
<polygon fill="#999999" stroke="#666666" points="56,-323 0,-323 0,-304 56,-304 56,-323"/>
<text text-anchor="middle" x="28" y="-311" font-family="Helvetica,sans-Serif" font-size="10.00">filewrite</text>
</a>
</g>
</g>
<!-- Node2 -->
<g id="Node000002" class="node">
<title>Node2</title>
<g id="a_Node000002"><a xlink:href="log_8c.html#ac96aa31ffc0500e749c62c4d377c21c9" target="_top" xlink:title=" ">
<polygon fill="white" stroke="#666666" points="153,-399 92,-399 92,-380 153,-380 153,-399"/>
<text text-anchor="middle" x="122.5" y="-387" font-family="Helvetica,sans-Serif" font-size="10.00">begin_op</text>
</a>
</g>
</g>
<!-- Node1&#45;&gt;Node2 -->
<g id="edge1_Node000001_Node000002" class="edge">
<title>Node1&#45;&gt;Node2</title>
<g id="a_edge1_Node000001_Node000002"><a xlink:title=" ">
<path fill="none" stroke="#63b8ff" d="M40.59,-323.11C53.21,-333.56 74.01,-350.76 92,-365.5 95.18,-368.11 98.57,-370.87 101.86,-373.56"/>
<polygon fill="#63b8ff" stroke="#63b8ff" points="99.75,-376.35 109.71,-379.94 104.16,-370.92 99.75,-376.35"/>
</a>
</g>
</g>
<!-- Node3 -->
<g id="Node000003" class="node">
<title>Node3</title>
<g id="a_Node000003"><a xlink:href="log_8c.html#ac0f12be0ca0de555e60b27b06a57a65b" target="_top" xlink:title=" ">
<polygon fill="white" stroke="#666666" points="241,-370 189,-370 189,-351 241,-351 241,-370"/>
<text text-anchor="middle" x="215" y="-358" font-family="Helvetica,sans-Serif" font-size="10.00">end_op</text>
</a>
</g>
</g>
<!-- Node1&#45;&gt;Node3 -->
<g id="edge2_Node000001_Node000003" class="edge">
<title>Node1&#45;&gt;Node3</title>
<g id="a_edge2_Node000001_Node000003"><a xlink:title=" ">
<path fill="none" stroke="#63b8ff" d="M56.3,-320.44C88.86,-328.71 143.37,-342.56 179,-351.61"/>
<polygon fill="#63b8ff" stroke="#63b8ff" points="178.41,-355.07 188.97,-354.14 180.14,-348.29 178.41,-355.07"/>
</a>
</g>
</g>
<!-- Node12 -->
<g id="Node000012" class="node">
<title>Node12</title>
<g id="a_Node000012"><a xlink:href="fs_8c.html#aed28187406d84a3aa71f10c6235a03ec" target="_top" xlink:title=" ">
<polygon fill="white" stroke="#666666" points="425.5,-323 385.5,-323 385.5,-304 425.5,-304 425.5,-323"/>
<text text-anchor="middle" x="405.5" y="-311" font-family="Helvetica,sans-Serif" font-size="10.00">ilock</text>
</a>
</g>
</g>
<!-- Node1&#45;&gt;Node12 -->
<g id="edge17_Node000001_Node000012" class="edge">
<title>Node1&#45;&gt;Node12</title>
<g id="a_edge17_Node000001_Node000012"><a xlink:title=" ">
<path fill="none" stroke="#63b8ff" d="M56.01,-313.5C124.46,-313.5 304.38,-313.5 375.23,-313.5"/>
<polygon fill="#63b8ff" stroke="#63b8ff" points="375.25,-317 385.25,-313.5 375.25,-310 375.25,-317"/>
</a>
</g>
</g>
<!-- Node13 -->
<g id="Node000013" class="node">
<title>Node13</title>
<g id="a_Node000013"><a xlink:href="fs_8c.html#ae4e29916219b9293b37f9c34220694fe" target="_top" xlink:title=" ">
<polygon fill="white" stroke="#666666" points="148.5,-134 96.5,-134 96.5,-115 148.5,-115 148.5,-134"/>
<text text-anchor="middle" x="122.5" y="-122" font-family="Helvetica,sans-Serif" font-size="10.00">iunlock</text>
</a>
</g>
</g>
<!-- Node1&#45;&gt;Node13 -->
<g id="edge20_Node000001_Node000013" class="edge">
<title>Node1&#45;&gt;Node13</title>
<g id="a_edge20_Node000001_Node000013"><a xlink:title=" ">
<path fill="none" stroke="#63b8ff" d="M30.28,-303.89C34.45,-276.01 49.81,-193.83 92,-142.5 92.58,-141.79 93.2,-141.1 93.85,-140.43"/>
<polygon fill="#63b8ff" stroke="#63b8ff" points="96.11,-143.1 101.63,-134.06 91.68,-137.69 96.11,-143.1"/>
</a>
</g>
</g>
<!-- Node14 -->
<g id="Node000014" class="node">
<title>Node14</title>
<g id="a_Node000014"><a xlink:href="fs_8c.html#a15858f4d8a4cc1def3d84d03c312836b" target="_top" xlink:title=" ">
<polygon fill="white" stroke="#666666" points="144.5,-171 100.5,-171 100.5,-152 144.5,-152 144.5,-171"/>
<text text-anchor="middle" x="122.5" y="-159" font-family="Helvetica,sans-Serif" font-size="10.00">writei</text>
</a>
</g>
</g>
<!-- Node1&#45;&gt;Node14 -->
<g id="edge21_Node000001_Node000014" class="edge">
<title>Node1&#45;&gt;Node14</title>
<g id="a_edge21_Node000001_Node000014"><a xlink:title=" ">
<path fill="none" stroke="#63b8ff" d="M34.79,-303.99C49.84,-279.25 90.43,-212.55 110.28,-179.94"/>
<polygon fill="#63b8ff" stroke="#63b8ff" points="113.51,-181.37 115.72,-171 107.53,-177.73 113.51,-181.37"/>
</a>
</g>
</g>
<!-- Node4 -->
<g id="Node000004" class="node">
<title>Node4</title>
<g id="a_Node000004"><a xlink:href="log_8c.html#a504ac82448623ae8ad27b97dbed82694" target="_top" xlink:title=" ">
<polygon fill="white" stroke="#666666" points="331,-388 277,-388 277,-369 331,-369 331,-388"/>
<text text-anchor="middle" x="304" y="-376" font-family="Helvetica,sans-Serif" font-size="10.00">commit</text>
</a>
</g>
</g>
<!-- Node3&#45;&gt;Node4 -->
<g id="edge3_Node000003_Node000004" class="edge">
<title>Node3&#45;&gt;Node4</title>
<g id="a_edge3_Node000003_Node000004"><a xlink:title=" ">
<path fill="none" stroke="#63b8ff" d="M241.16,-365.71C249.24,-367.38 258.36,-369.26 267.05,-371.06"/>
<polygon fill="#63b8ff" stroke="#63b8ff" points="266.48,-374.52 276.99,-373.12 267.9,-367.66 266.48,-374.52"/>
</a>
</g>
</g>
<!-- Node5 -->
<g id="Node000005" class="node">
<title>Node5</title>
<g id="a_Node000005"><a xlink:href="log_8c.html#ab5eaeac1ab988530dcda4fd57a634df0" target="_top" xlink:title=" ">
<polygon fill="white" stroke="#666666" points="444,-360 367,-360 367,-341 444,-341 444,-360"/>
<text text-anchor="middle" x="405.5" y="-348" font-family="Helvetica,sans-Serif" font-size="10.00">install_trans</text>
</a>
</g>
</g>
<!-- Node4&#45;&gt;Node5 -->
<g id="edge4_Node000004_Node000005" class="edge">
<title>Node4&#45;&gt;Node5</title>
<g id="a_edge4_Node000004_Node000005"><a xlink:title=" ">
<path fill="none" stroke="#63b8ff" d="M331.14,-371.14C340.21,-368.59 350.64,-365.66 360.74,-362.81"/>
<polygon fill="#63b8ff" stroke="#63b8ff" points="361.98,-366.1 370.66,-360.02 360.09,-359.36 361.98,-366.1"/>
</a>
</g>
</g>
<!-- Node10 -->
<g id="Node000010" class="node">
<title>Node10</title>
<g id="a_Node000010"><a xlink:href="log_8c.html#a34322134c00d3e9ad7fb48a7baa9a4c5" target="_top" xlink:title=" ">
<polygon fill="white" stroke="#666666" points="441,-434 370,-434 370,-415 441,-415 441,-434"/>
<text text-anchor="middle" x="405.5" y="-422" font-family="Helvetica,sans-Serif" font-size="10.00">write_head</text>
</a>
</g>
</g>
<!-- Node4&#45;&gt;Node10 -->
<g id="edge9_Node000004_Node000010" class="edge">
<title>Node4&#45;&gt;Node10</title>
<g id="a_edge9_Node000004_Node000010"><a xlink:title=" ">
<path fill="none" stroke="#63b8ff" d="M325.62,-388.03C339.76,-394.57 358.75,-403.35 374.55,-410.66"/>
<polygon fill="#63b8ff" stroke="#63b8ff" points="373.36,-413.96 383.91,-414.98 376.3,-407.61 373.36,-413.96"/>
</a>
</g>
</g>
<!-- Node11 -->
<g id="Node000011" class="node">
<title>Node11</title>
<g id="a_Node000011"><a xlink:href="log_8c.html#af4e7fbf2920c27568c9b88d45f0bd5e1" target="_top" xlink:title=" ">
<polygon fill="white" stroke="#666666" points="436.5,-397 374.5,-397 374.5,-378 436.5,-378 436.5,-397"/>
<text text-anchor="middle" x="405.5" y="-385" font-family="Helvetica,sans-Serif" font-size="10.00">write_log</text>
</a>
</g>
</g>
<!-- Node4&#45;&gt;Node11 -->
<g id="edge13_Node000004_Node000011" class="edge">
<title>Node4&#45;&gt;Node11</title>
<g id="a_edge13_Node000004_Node000011"><a xlink:title=" ">
<path fill="none" stroke="#63b8ff" d="M331.14,-380.86C341.28,-381.78 353.12,-382.85 364.3,-383.86"/>
<polygon fill="#63b8ff" stroke="#63b8ff" points="364.03,-387.35 374.3,-384.77 364.66,-380.38 364.03,-387.35"/>
</a>
</g>
</g>
<!-- Node6 -->
<g id="Node000006" class="node">
<title>Node6</title>
<g id="a_Node000006"><a xlink:href="bio_8c.html#a30b8d2ef2300ed8e3d879a428fe39898" target="_top" xlink:title=" ">
<polygon fill="white" stroke="#666666" points="533,-171 489,-171 489,-152 533,-152 533,-171"/>
<text text-anchor="middle" x="511" y="-159" font-family="Helvetica,sans-Serif" font-size="10.00">bread</text>
</a>
</g>
</g>
<!-- Node5&#45;&gt;Node6 -->
<g id="edge5_Node000005_Node000006" class="edge">
<title>Node5&#45;&gt;Node6</title>
<g id="a_edge5_Node000005_Node000006"><a xlink:title=" ">
<path fill="none" stroke="#63b8ff" d="M433.23,-340.82C437.2,-338.54 440.96,-335.79 444,-332.5 465.22,-309.53 492.75,-221.05 504.4,-181.18"/>
<polygon fill="#63b8ff" stroke="#63b8ff" points="507.84,-181.9 507.25,-171.32 501.11,-179.96 507.84,-181.9"/>
</a>
</g>
</g>
<!-- Node8 -->
<g id="Node000008" class="node">
<title>Node8</title>
<g id="a_Node000008"><a xlink:href="bio_8c.html#ab5335aeb503731104314321a78a6d727" target="_top" xlink:title=" ">
<polygon fill="white" stroke="#666666" points="534.5,-285 487.5,-285 487.5,-266 534.5,-266 534.5,-285"/>
<text text-anchor="middle" x="511" y="-273" font-family="Helvetica,sans-Serif" font-size="10.00">brelse</text>
</a>
</g>
</g>
<!-- Node5&#45;&gt;Node8 -->
<g id="edge7_Node000005_Node000008" class="edge">
<title>Node5&#45;&gt;Node8</title>
<g id="a_edge7_Node000005_Node000008"><a xlink:title=" ">
<path fill="none" stroke="#63b8ff" d="M428.84,-340.97C433.97,-338.46 439.29,-335.59 444,-332.5 461.87,-320.79 480.09,-304.68 492.85,-292.57"/>
<polygon fill="#63b8ff" stroke="#63b8ff" points="495.63,-294.74 500.38,-285.27 490.76,-289.71 495.63,-294.74"/>
</a>
</g>
</g>
<!-- Node9 -->
<g id="Node000009" class="node">
<title>Node9</title>
<g id="a_Node000009"><a xlink:href="bio_8c.html#a63c899c13b176ddf80064d32225e1298" target="_top" xlink:title=" ">
<polygon fill="white" stroke="#666666" points="534.5,-397 487.5,-397 487.5,-378 534.5,-378 534.5,-397"/>
<text text-anchor="middle" x="511" y="-385" font-family="Helvetica,sans-Serif" font-size="10.00">bwrite</text>
</a>
</g>
</g>
<!-- Node5&#45;&gt;Node9 -->
<g id="edge8_Node000005_Node000009" class="edge">
<title>Node5&#45;&gt;Node9</title>
<g id="a_edge8_Node000005_Node000009"><a xlink:title=" ">
<path fill="none" stroke="#63b8ff" d="M433.15,-360.03C446.78,-364.9 463.47,-370.87 477.81,-375.99"/>
<polygon fill="#63b8ff" stroke="#63b8ff" points="476.7,-379.31 487.29,-379.38 479.06,-372.72 476.7,-379.31"/>
</a>
</g>
</g>
<!-- Node7 -->
<g id="Node000007" class="node">
<title>Node7</title>
<g id="a_Node000007"><a xlink:href="bio_8c.html#a69dcd3ce86d958b4024c6746263f3f5b" target="_top" xlink:title=" ">
<polygon fill="white" stroke="#666666" points="616,-171 578,-171 578,-152 616,-152 616,-171"/>
<text text-anchor="middle" x="597" y="-159" font-family="Helvetica,sans-Serif" font-size="10.00">bget</text>
</a>
</g>
</g>
<!-- Node6&#45;&gt;Node7 -->
<g id="edge6_Node000006_Node000007" class="edge">
<title>Node6&#45;&gt;Node7</title>
<g id="a_edge6_Node000006_Node000007"><a xlink:title=" ">
<path fill="none" stroke="#63b8ff" d="M533.2,-161.5C543.66,-161.5 556.42,-161.5 567.7,-161.5"/>
<polygon fill="#63b8ff" stroke="#63b8ff" points="567.94,-165 577.94,-161.5 567.94,-158 567.94,-165"/>
</a>
</g>
</g>
<!-- Node10&#45;&gt;Node6 -->
<g id="edge10_Node000010_Node000006" class="edge">
<title>Node10&#45;&gt;Node6</title>
<g id="a_edge10_Node000010_Node000006"><a xlink:title=" ">
<path fill="none" stroke="#63b8ff" d="M433.99,-414.93C437.77,-412.65 441.27,-409.87 444,-406.5 486.85,-353.53 461.83,-323.16 480,-257.5 487.39,-230.79 497.15,-200.29 503.5,-180.98"/>
<polygon fill="#63b8ff" stroke="#63b8ff" points="506.9,-181.84 506.72,-171.25 500.25,-179.64 506.9,-181.84"/>
</a>
</g>
</g>
<!-- Node10&#45;&gt;Node8 -->
<g id="edge11_Node000010_Node000008" class="edge">
<title>Node10&#45;&gt;Node8</title>
<g id="a_edge11_Node000010_Node000008"><a xlink:title=" ">
<path fill="none" stroke="#63b8ff" d="M432.19,-414.99C436.46,-412.65 440.6,-409.84 444,-406.5 476.74,-374.38 496.08,-322.62 504.67,-294.75"/>
<polygon fill="#63b8ff" stroke="#63b8ff" points="508.07,-295.6 507.53,-285.02 501.35,-293.62 508.07,-295.6"/>
</a>
</g>
</g>
<!-- Node10&#45;&gt;Node9 -->
<g id="edge12_Node000010_Node000009" class="edge">
<title>Node10&#45;&gt;Node9</title>
<g id="a_edge12_Node000010_Node000009"><a xlink:title=" ">
<path fill="none" stroke="#63b8ff" d="M433.15,-414.97C446.78,-410.1 463.47,-404.13 477.81,-399.01"/>
<polygon fill="#63b8ff" stroke="#63b8ff" points="479.06,-402.28 487.29,-395.62 476.7,-395.69 479.06,-402.28"/>
</a>
</g>
</g>
<!-- Node11&#45;&gt;Node6 -->
<g id="edge14_Node000011_Node000006" class="edge">
<title>Node11&#45;&gt;Node6</title>
<g id="a_edge14_Node000011_Node000006"><a xlink:title=" ">
<path fill="none" stroke="#63b8ff" d="M433.41,-377.98C437.35,-375.68 441.06,-372.88 444,-369.5 445.61,-367.64 488.06,-231.85 504.02,-180.7"/>
<polygon fill="#63b8ff" stroke="#63b8ff" points="507.36,-181.74 506.99,-171.15 500.68,-179.66 507.36,-181.74"/>
</a>
</g>
</g>
<!-- Node11&#45;&gt;Node8 -->
<g id="edge15_Node000011_Node000008" class="edge">
<title>Node11&#45;&gt;Node8</title>
<g id="a_edge15_Node000011_Node000008"><a xlink:title=" ">
<path fill="none" stroke="#63b8ff" d="M431.01,-377.98C435.59,-375.6 440.14,-372.77 444,-369.5 469.23,-348.12 489.47,-314.98 500.6,-294.3"/>
<polygon fill="#63b8ff" stroke="#63b8ff" points="503.79,-295.74 505.31,-285.26 497.59,-292.51 503.79,-295.74"/>
</a>
</g>
</g>
<!-- Node11&#45;&gt;Node9 -->
<g id="edge16_Node000011_Node000009" class="edge">
<title>Node11&#45;&gt;Node9</title>
<g id="a_edge16_Node000011_Node000009"><a xlink:title=" ">
<path fill="none" stroke="#63b8ff" d="M436.71,-387.5C449.39,-387.5 464.17,-387.5 477.12,-387.5"/>
<polygon fill="#63b8ff" stroke="#63b8ff" points="477.49,-391 487.49,-387.5 477.49,-384 477.49,-391"/>
</a>
</g>
</g>
<!-- Node12&#45;&gt;Node6 -->
<g id="edge18_Node000012_Node000006" class="edge">
<title>Node12&#45;&gt;Node6</title>
<g id="a_edge18_Node000012_Node000006"><a xlink:title=" ">
<path fill="none" stroke="#63b8ff" d="M412.97,-303.99C429.89,-279.15 475.63,-211.97 497.73,-179.52"/>
<polygon fill="#63b8ff" stroke="#63b8ff" points="500.79,-181.24 503.53,-171 495.01,-177.3 500.79,-181.24"/>
</a>
</g>
</g>
<!-- Node12&#45;&gt;Node8 -->
<g id="edge19_Node000012_Node000008" class="edge">
<title>Node12&#45;&gt;Node8</title>
<g id="a_edge19_Node000012_Node000008"><a xlink:title=" ">
<path fill="none" stroke="#63b8ff" d="M425.97,-306.35C440.55,-301 460.84,-293.55 477.83,-287.31"/>
<polygon fill="#63b8ff" stroke="#63b8ff" points="479.2,-290.54 487.38,-283.81 476.78,-283.97 479.2,-290.54"/>
</a>
</g>
</g>
<!-- Node14&#45;&gt;Node6 -->
<g id="edge34_Node000014_Node000006" class="edge">
<title>Node14&#45;&gt;Node6</title>
<g id="a_edge34_Node000014_Node000006"><a xlink:title=" ">
<path fill="none" stroke="#63b8ff" d="M139.91,-151.92C144.31,-149.09 148.97,-145.84 153,-142.5 170.91,-127.65 169.93,-117.83 189,-104.5 256.45,-57.35 284.92,-59.4 367,-53.5 401.13,-51.05 414.15,-36.76 444,-53.5 477.71,-72.4 496.25,-116.31 504.56,-141.94"/>
<polygon fill="#63b8ff" stroke="#63b8ff" points="501.26,-143.12 507.5,-151.68 507.96,-141.09 501.26,-143.12"/>
</a>
</g>
</g>
<!-- Node14&#45;&gt;Node8 -->
<g id="edge35_Node000014_Node000008" class="edge">
<title>Node14&#45;&gt;Node8</title>
<g id="a_edge35_Node000014_Node000008"><a xlink:title=" ">
<path fill="none" stroke="#63b8ff" d="M144.66,-170.16C186.52,-187.02 283.09,-224.6 367,-247.5 404.39,-257.7 448.23,-265.72 477.42,-270.52"/>
<polygon fill="#63b8ff" stroke="#63b8ff" points="477.04,-274 487.47,-272.13 478.16,-267.09 477.04,-274"/>
</a>
</g>
</g>
<!-- Node15 -->
<g id="Node000015" class="node">
<title>Node15</title>
<g id="a_Node000015"><a xlink:href="fs_8c.html#a965e83e1fa9b15abf268784ce74181bb" target="_top" xlink:title=" ">
<polygon fill="white" stroke="#666666" points="237,-133 193,-133 193,-114 237,-114 237,-133"/>
<text text-anchor="middle" x="215" y="-121" font-family="Helvetica,sans-Serif" font-size="10.00">bmap</text>
</a>
</g>
</g>
<!-- Node14&#45;&gt;Node15 -->
<g id="edge22_Node000014_Node000015" class="edge">
<title>Node14&#45;&gt;Node15</title>
<g id="a_edge22_Node000014_Node000015"><a xlink:title=" ">
<path fill="none" stroke="#63b8ff" d="M144.95,-152.49C156.44,-147.67 170.8,-141.64 183.45,-136.33"/>
<polygon fill="#63b8ff" stroke="#63b8ff" points="184.84,-139.54 192.71,-132.44 182.13,-133.09 184.84,-139.54"/>
</a>
</g>
</g>
<!-- Node18 -->
<g id="Node000018" class="node">
<title>Node18</title>
<g id="a_Node000018"><a xlink:href="log_8c.html#a7eacb0fbebe5ce4c7d3ddea15908b13d" target="_top" xlink:title=" ">
<polygon fill="white" stroke="#666666" points="542,-19 480,-19 480,0 542,0 542,-19"/>
<text text-anchor="middle" x="511" y="-7" font-family="Helvetica,sans-Serif" font-size="10.00">log_write</text>
</a>
</g>
</g>
<!-- Node14&#45;&gt;Node18 -->
<g id="edge40_Node000014_Node000018" class="edge">
<title>Node14&#45;&gt;Node18</title>
<g id="a_edge40_Node000014_Node000018"><a xlink:title=" ">
<path fill="none" stroke="#63b8ff" d="M141.84,-151.83C145.84,-149.17 149.82,-146.03 153,-142.5 176.7,-116.23 162.48,-94.92 189,-71.5 268.36,-1.43 402.48,-0.55 469.44,-5.24"/>
<polygon fill="#63b8ff" stroke="#63b8ff" points="469.35,-8.74 479.59,-6.03 469.89,-1.76 469.35,-8.74"/>
</a>
</g>
</g>
<!-- Node19 -->
<g id="Node000019" class="node">
<title>Node19</title>
<g id="a_Node000019"><a xlink:href="fs_8c.html#a7220afa8e5f4bea540eb95879ea7df6e" target="_top" xlink:title=" ">
<polygon fill="white" stroke="#666666" points="432,-171 379,-171 379,-152 432,-152 432,-171"/>
<text text-anchor="middle" x="405.5" y="-159" font-family="Helvetica,sans-Serif" font-size="10.00">iupdate</text>
</a>
</g>
</g>
<!-- Node14&#45;&gt;Node19 -->
<g id="edge36_Node000014_Node000019" class="edge">
<title>Node14&#45;&gt;Node19</title>
<g id="a_edge36_Node000014_Node000019"><a xlink:title=" ">
<path fill="none" stroke="#63b8ff" d="M144.62,-161.5C192.42,-161.5 309.34,-161.5 368.69,-161.5"/>
<polygon fill="#63b8ff" stroke="#63b8ff" points="368.73,-165 378.73,-161.5 368.73,-158 368.73,-165"/>
</a>
</g>
</g>
<!-- Node15&#45;&gt;Node6 -->
<g id="edge31_Node000015_Node000006" class="edge">
<title>Node15&#45;&gt;Node6</title>
<g id="a_edge31_Node000015_Node000006"><a xlink:title=" ">
<path fill="none" stroke="#63b8ff" d="M237.24,-123.88C277.77,-124.9 368.8,-128.68 444,-142.5 455.67,-144.64 468.25,-147.99 479.25,-151.29"/>
<polygon fill="#63b8ff" stroke="#63b8ff" points="478.27,-154.64 488.85,-154.26 480.34,-147.96 478.27,-154.64"/>
</a>
</g>
</g>
<!-- Node15&#45;&gt;Node8 -->
<g id="edge32_Node000015_Node000008" class="edge">
<title>Node15&#45;&gt;Node8</title>
<g id="a_edge32_Node000015_Node000008"><a xlink:title=" ">
<path fill="none" stroke="#63b8ff" d="M230.16,-133.12C256.43,-150.74 314.78,-188.83 367,-215.5 404.05,-234.43 448.48,-252.37 477.87,-263.61"/>
<polygon fill="#63b8ff" stroke="#63b8ff" points="476.64,-266.89 487.24,-267.16 479.13,-260.34 476.64,-266.89"/>
</a>
</g>
</g>
<!-- Node16 -->
<g id="Node000016" class="node">
<title>Node16</title>
<g id="a_Node000016"><a xlink:href="fs_8c.html#a29272227722d57ff937caaffd03455a9" target="_top" xlink:title=" ">
<polygon fill="white" stroke="#666666" points="327,-95 281,-95 281,-76 327,-76 327,-95"/>
<text text-anchor="middle" x="304" y="-83" font-family="Helvetica,sans-Serif" font-size="10.00">balloc</text>
</a>
</g>
</g>
<!-- Node15&#45;&gt;Node16 -->
<g id="edge23_Node000015_Node000016" class="edge">
<title>Node15&#45;&gt;Node16</title>
<g id="a_edge23_Node000015_Node000016"><a xlink:title=" ">
<path fill="none" stroke="#63b8ff" d="M237.06,-114.3C247.51,-109.74 260.34,-104.13 271.9,-99.08"/>
<polygon fill="#63b8ff" stroke="#63b8ff" points="273.46,-102.22 281.23,-95.01 270.66,-95.81 273.46,-102.22"/>
</a>
</g>
</g>
<!-- Node15&#45;&gt;Node18 -->
<g id="edge33_Node000015_Node000018" class="edge">
<title>Node15&#45;&gt;Node18</title>
<g id="a_edge33_Node000015_Node000018"><a xlink:title=" ">
<path fill="none" stroke="#63b8ff" d="M224.74,-113.65C235.95,-101.45 256.4,-80.55 277,-66.5 313.62,-41.52 324.29,-35.4 367,-23.5 400.82,-14.08 440.66,-10.79 469.69,-9.73"/>
<polygon fill="#63b8ff" stroke="#63b8ff" points="469.97,-13.22 479.87,-9.43 469.77,-6.23 469.97,-13.22"/>
</a>
</g>
</g>
<!-- Node16&#45;&gt;Node6 -->
<g id="edge24_Node000016_Node000006" class="edge">
<title>Node16&#45;&gt;Node6</title>
<g id="a_edge24_Node000016_Node000006"><a xlink:title=" ">
<path fill="none" stroke="#63b8ff" d="M324.68,-75.89C352.8,-63.64 405.37,-46.3 444,-66.5 474.56,-82.48 493.81,-119.76 503.18,-142.58"/>
<polygon fill="#63b8ff" stroke="#63b8ff" points="499.92,-143.86 506.8,-151.92 506.45,-141.33 499.92,-143.86"/>
</a>
</g>
</g>
<!-- Node16&#45;&gt;Node8 -->
<g id="edge25_Node000016_Node000008" class="edge">
<title>Node16&#45;&gt;Node8</title>
<g id="a_edge25_Node000016_Node000008"><a xlink:title=" ">
<path fill="none" stroke="#63b8ff" d="M309.42,-95.09C318.22,-113.37 339.48,-153.69 367,-179.5 395.75,-206.47 411.32,-201.47 444,-223.5 460.47,-234.6 478.09,-248.61 490.98,-259.29"/>
<polygon fill="#63b8ff" stroke="#63b8ff" points="488.79,-262.02 498.71,-265.76 493.29,-256.65 488.79,-262.02"/>
</a>
</g>
</g>
<!-- Node17 -->
<g id="Node000017" class="node">
<title>Node17</title>
<g id="a_Node000017"><a xlink:href="fs_8c.html#ac93f607f4a954323f4c9ea485ca88538" target="_top" xlink:title=" ">
<polygon fill="white" stroke="#666666" points="427.5,-95 383.5,-95 383.5,-76 427.5,-76 427.5,-95"/>
<text text-anchor="middle" x="405.5" y="-83" font-family="Helvetica,sans-Serif" font-size="10.00">bzero</text>
</a>
</g>
</g>
<!-- Node16&#45;&gt;Node17 -->
<g id="edge26_Node000016_Node000017" class="edge">
<title>Node16&#45;&gt;Node17</title>
<g id="a_edge26_Node000016_Node000017"><a xlink:title=" ">
<path fill="none" stroke="#63b8ff" d="M327.08,-85.5C340.53,-85.5 357.95,-85.5 372.85,-85.5"/>
<polygon fill="#63b8ff" stroke="#63b8ff" points="373.16,-89 383.16,-85.5 373.16,-82 373.16,-89"/>
</a>
</g>
</g>
<!-- Node16&#45;&gt;Node18 -->
<g id="edge30_Node000016_Node000018" class="edge">
<title>Node16&#45;&gt;Node18</title>
<g id="a_edge30_Node000016_Node000018"><a xlink:title=" ">
<path fill="none" stroke="#63b8ff" d="M321.46,-75.98C333.74,-69.13 351.07,-60 367,-53.5 400.99,-39.63 441.04,-27.66 470.09,-19.73"/>
<polygon fill="#63b8ff" stroke="#63b8ff" points="471.14,-23.07 479.88,-17.09 469.32,-16.31 471.14,-23.07"/>
</a>
</g>
</g>
<!-- Node17&#45;&gt;Node6 -->
<g id="edge27_Node000017_Node000006" class="edge">
<title>Node17&#45;&gt;Node6</title>
<g id="a_edge27_Node000017_Node000006"><a xlink:title=" ">
<path fill="none" stroke="#63b8ff" d="M422.42,-95.21C429.17,-99.45 437.07,-104.57 444,-109.5 460.19,-121.01 477.83,-134.99 490.8,-145.55"/>
<polygon fill="#63b8ff" stroke="#63b8ff" points="488.63,-148.3 498.58,-151.94 493.07,-142.89 488.63,-148.3"/>
</a>
</g>
</g>
<!-- Node17&#45;&gt;Node8 -->
<g id="edge28_Node000017_Node000008" class="edge">
<title>Node17&#45;&gt;Node8</title>
<g id="a_edge28_Node000017_Node000008"><a xlink:title=" ">
<path fill="none" stroke="#63b8ff" d="M413.51,-95.36C421.35,-106.54 434.21,-125.45 444,-142.5 466.78,-182.17 489.69,-230.74 501.6,-256.82"/>
<polygon fill="#63b8ff" stroke="#63b8ff" points="498.42,-258.28 505.74,-265.94 504.8,-255.39 498.42,-258.28"/>
</a>
</g>
</g>
<!-- Node17&#45;&gt;Node18 -->
<g id="edge29_Node000017_Node000018" class="edge">
<title>Node17&#45;&gt;Node18</title>
<g id="a_edge29_Node000017_Node000018"><a xlink:title=" ">
<path fill="none" stroke="#63b8ff" d="M419.61,-75.87C437.03,-63.08 468.02,-40.33 488.79,-25.07"/>
<polygon fill="#63b8ff" stroke="#63b8ff" points="491.01,-27.79 497,-19.05 486.87,-22.14 491.01,-27.79"/>
</a>
</g>
</g>
<!-- Node19&#45;&gt;Node6 -->
<g id="edge37_Node000019_Node000006" class="edge">
<title>Node19&#45;&gt;Node6</title>
<g id="a_edge37_Node000019_Node000006"><a xlink:title=" ">
<path fill="none" stroke="#63b8ff" d="M432.08,-161.5C446.15,-161.5 463.72,-161.5 478.61,-161.5"/>
<polygon fill="#63b8ff" stroke="#63b8ff" points="478.89,-165 488.89,-161.5 478.89,-158 478.89,-165"/>
</a>
</g>
</g>
<!-- Node19&#45;&gt;Node8 -->
<g id="edge38_Node000019_Node000008" class="edge">
<title>Node19&#45;&gt;Node8</title>
<g id="a_edge38_Node000019_Node000008"><a xlink:title=" ">
<path fill="none" stroke="#63b8ff" d="M424.26,-171.02C430.85,-175.01 438.14,-180 444,-185.5 467.09,-207.17 487.59,-237.84 499.4,-257.19"/>
<polygon fill="#63b8ff" stroke="#63b8ff" points="496.49,-259.14 504.62,-265.94 502.5,-255.56 496.49,-259.14"/>
</a>
</g>
</g>
<!-- Node19&#45;&gt;Node18 -->
<g id="edge39_Node000019_Node000018" class="edge">
<title>Node19&#45;&gt;Node18</title>
<g id="a_edge39_Node000019_Node000018"><a xlink:title=" ">
<path fill="none" stroke="#63b8ff" d="M412.97,-151.99C429.89,-127.15 475.63,-59.97 497.73,-27.52"/>
<polygon fill="#63b8ff" stroke="#63b8ff" points="500.79,-29.24 503.53,-19 495.01,-25.3 500.79,-29.24"/>
</a>
</g>
</g>
</g>
</svg>

<g id="navigator" transform="translate(0 0)" fill="#404254">
  <rect fill="#f2f5e9" fill-opacity="0.5" stroke="#606060" stroke-width=".5" x="0" y="0" width="60" height="60"/>
  <use id="zoomplus" xlink:href="#zoomPlus" x="17" y="9" onmousedown="handleZoom(evt,'in')"/>
  <use id="zoomminus" xlink:href="#zoomMin" x="42" y="9" onmousedown="handleZoom(evt,'out')"/>
  <use id="reset" xlink:href="#resetDef" x="30" y="36" onmousedown="handleReset()"/>
   <use id="arrowup" xlink:href="#arrowUp" x="0" y="0" onmousedown="handlePan(0,-1)"/>
  <use id="arrowright" xlink:href="#arrowRight" x="0" y="0" onmousedown="handlePan(1,0)"/>
  <use id="arrowdown" xlink:href="#arrowDown" x="0" y="0" onmousedown="handlePan(0,1)"/>
  <use id="arrowleft" xlink:href="#arrowLeft" x="0" y="0" onmousedown="handlePan(-1,0)"/>
</g>
<svg viewBox="0 0 15 15" width="100%" height="30px" preserveAspectRatio="xMaxYMin meet">
 <g id="arrow_out" transform="scale(0.3 0.3)">
  <a xlink:href="file_8c_ab8de757a0a9f58dcc6511ea5e46ebb88_cgraph_org.svg" target="_base">
   <rect id="button" ry="5" rx="5" y="6" x="6" height="38" width="38"
        fill="#f2f5e9" fill-opacity="0.5" stroke="#606060" stroke-width="1.0"/>
   <path id="arrow"
     d="M 11.500037,31.436501 C 11.940474,20.09759 22.043105,11.32322 32.158766,21.979434 L 37.068811,17.246167 C 37.068811,17.246167 37.088388,32 37.088388,32 L 22.160133,31.978069 C 22.160133,31.978069 26.997745,27.140456 26.997745,27.140456 C 18.528582,18.264221 13.291696,25.230495 11.500037,31.436501 z"
     style="fill:#404040;"/>
  </a>
 </g>
</svg>

<style type='text/css'>
<![CDATA[
[data-mouse-over-selected='false'] { opacity: 0.7; }
[data-mouse-over-selected='true']  { opacity: 1.0; }
]]>
</style>
<script type="application/ecmascript"><![CDATA[
document.addEventListener('DOMContentLoaded', (event) => {
  highlightEdges();
  highlightAdjacentNodes();
});
]]></script>
</svg>
