<?xml version="1.0" encoding="UTF-8" standalone="no"?>
<!DOCTYPE svg PUBLIC "-//W3C//DTD SVG 1.1//EN"
 "http://www.w3.org/Graphics/SVG/1.1/DTD/svg11.dtd">
<!-- Generated by graphviz version 2.43.0 (0)
 -->
<!-- Title: filestat Pages: 1 -->
<svg width="303pt" height="119pt"
 viewBox="0.00 0.00 303.00 119.00" xmlns="http://www.w3.org/2000/svg" xmlns:xlink="http://www.w3.org/1999/xlink">
<g id="graph0" class="graph" transform="scale(1 1) rotate(0) translate(4 115)">
<title>filestat</title>
<!-- Node1 -->
<g id="Node000001" class="node">
<title>Node1</title>
<g id="a_Node000001"><a xlink:title=" ">
<polygon fill="#999999" stroke="#666666" points="50,-56 0,-56 0,-37 50,-37 50,-56"/>
<text text-anchor="middle" x="25" y="-44" font-family="Helvetica,sans-Serif" font-size="10.00">filestat</text>
</a>
</g>
</g>
<!-- Node2 -->
<g id="Node000002" class="node">
<title>Node2</title>
<g id="a_Node000002"><a xlink:href="fs_8c.html#aed28187406d84a3aa71f10c6235a03ec" target="_top" xlink:title=" ">
<polygon fill="white" stroke="#666666" points="132,-93 92,-93 92,-74 132,-74 132,-93"/>
<text text-anchor="middle" x="112" y="-81" font-family="Helvetica,sans-Serif" font-size="10.00">ilock</text>
</a>
</g>
</g>
<!-- Node1&#45;&gt;Node2 -->
<g id="edge1_Node000001_Node000002" class="edge">
<title>Node1&#45;&gt;Node2</title>
<g id="a_edge1_Node000001_Node000002"><a xlink:title=" ">
<path fill="none" stroke="#63b8ff" d="M47.89,-56.03C58.39,-60.6 71.11,-66.13 82.36,-71.03"/>
<polygon fill="#63b8ff" stroke="#63b8ff" points="81.22,-74.36 91.79,-75.14 84.02,-67.94 81.22,-74.36"/>
</a>
</g>
</g>
<!-- Node6 -->
<g id="Node000006" class="node">
<title>Node6</title>
<g id="a_Node000006"><a xlink:href="fs_8c.html#ae4e29916219b9293b37f9c34220694fe" target="_top" xlink:title=" ">
<polygon fill="white" stroke="#666666" points="138,-56 86,-56 86,-37 138,-37 138,-56"/>
<text text-anchor="middle" x="112" y="-44" font-family="Helvetica,sans-Serif" font-size="10.00">iunlock</text>
</a>
</g>
</g>
<!-- Node1&#45;&gt;Node6 -->
<g id="edge5_Node000001_Node000006" class="edge">
<title>Node1&#45;&gt;Node6</title>
<g id="a_edge5_Node000001_Node000006"><a xlink:title=" ">
<path fill="none" stroke="#63b8ff" d="M50.13,-46.5C58.09,-46.5 67.11,-46.5 75.72,-46.5"/>
<polygon fill="#63b8ff" stroke="#63b8ff" points="75.92,-50 85.92,-46.5 75.92,-43 75.92,-50"/>
</a>
</g>
</g>
<!-- Node7 -->
<g id="Node000007" class="node">
<title>Node7</title>
<g id="a_Node000007"><a xlink:href="fs_8c.html#a4ccff0bd4d9802e709d0af8d71a59861" target="_top" xlink:title=" ">
<polygon fill="white" stroke="#666666" points="131,-19 93,-19 93,0 131,0 131,-19"/>
<text text-anchor="middle" x="112" y="-7" font-family="Helvetica,sans-Serif" font-size="10.00">stati</text>
</a>
</g>
</g>
<!-- Node1&#45;&gt;Node7 -->
<g id="edge6_Node000001_Node000007" class="edge">
<title>Node1&#45;&gt;Node7</title>
<g id="a_edge6_Node000001_Node000007"><a xlink:title=" ">
<path fill="none" stroke="#63b8ff" d="M47.89,-36.97C58.8,-32.22 72.11,-26.43 83.69,-21.39"/>
<polygon fill="#63b8ff" stroke="#63b8ff" points="85.14,-24.57 92.91,-17.37 82.35,-18.16 85.14,-24.57"/>
</a>
</g>
</g>
<!-- Node3 -->
<g id="Node000003" class="node">
<title>Node3</title>
<g id="a_Node000003"><a xlink:href="bio_8c.html#a30b8d2ef2300ed8e3d879a428fe39898" target="_top" xlink:title=" ">
<polygon fill="white" stroke="#666666" points="219.5,-111 175.5,-111 175.5,-92 219.5,-92 219.5,-111"/>
<text text-anchor="middle" x="197.5" y="-99" font-family="Helvetica,sans-Serif" font-size="10.00">bread</text>
</a>
</g>
</g>
<!-- Node2&#45;&gt;Node3 -->
<g id="edge2_Node000002_Node000003" class="edge">
<title>Node2&#45;&gt;Node3</title>
<g id="a_edge2_Node000002_Node000003"><a xlink:title=" ">
<path fill="none" stroke="#63b8ff" d="M132.37,-87.67C142.25,-89.81 154.51,-92.45 165.66,-94.85"/>
<polygon fill="#63b8ff" stroke="#63b8ff" points="164.97,-98.28 175.48,-96.97 166.45,-91.44 164.97,-98.28"/>
</a>
</g>
</g>
<!-- Node5 -->
<g id="Node000005" class="node">
<title>Node5</title>
<g id="a_Node000005"><a xlink:href="bio_8c.html#ab5335aeb503731104314321a78a6d727" target="_top" xlink:title=" ">
<polygon fill="white" stroke="#666666" points="221,-74 174,-74 174,-55 221,-55 221,-74"/>
<text text-anchor="middle" x="197.5" y="-62" font-family="Helvetica,sans-Serif" font-size="10.00">brelse</text>
</a>
</g>
</g>
<!-- Node2&#45;&gt;Node5 -->
<g id="edge4_Node000002_Node000005" class="edge">
<title>Node2&#45;&gt;Node5</title>
<g id="a_edge4_Node000002_Node000005"><a xlink:title=" ">
<path fill="none" stroke="#63b8ff" d="M132.37,-79.09C141.79,-76.95 153.36,-74.32 164.08,-71.88"/>
<polygon fill="#63b8ff" stroke="#63b8ff" points="165.01,-75.25 173.99,-69.62 163.46,-68.43 165.01,-75.25"/>
</a>
</g>
</g>
<!-- Node4 -->
<g id="Node000004" class="node">
<title>Node4</title>
<g id="a_Node000004"><a xlink:href="bio_8c.html#a69dcd3ce86d958b4024c6746263f3f5b" target="_top" xlink:title=" ">
<polygon fill="white" stroke="#666666" points="295,-111 257,-111 257,-92 295,-92 295,-111"/>
<text text-anchor="middle" x="276" y="-99" font-family="Helvetica,sans-Serif" font-size="10.00">bget</text>
</a>
</g>
</g>
<!-- Node3&#45;&gt;Node4 -->
<g id="edge3_Node000003_Node000004" class="edge">
<title>Node3&#45;&gt;Node4</title>
<g id="a_edge3_Node000003_Node000004"><a xlink:title=" ">
<path fill="none" stroke="#63b8ff" d="M219.81,-101.5C228.2,-101.5 237.95,-101.5 246.9,-101.5"/>
<polygon fill="#63b8ff" stroke="#63b8ff" points="246.91,-105 256.91,-101.5 246.91,-98 246.91,-105"/>
</a>
</g>
</g>
</g>
</svg>
