<?xml version="1.0" encoding="UTF-8" standalone="no"?>
<!DOCTYPE svg PUBLIC "-//W3C//DTD SVG 1.1//EN"
 "http://www.w3.org/Graphics/SVG/1.1/DTD/svg11.dtd">
<!-- Generated by graphviz version 2.43.0 (0)
 -->
<!-- Title: fileclose Pages: 1 -->
<svg width="537pt" height="253pt"
 viewBox="0.00 0.00 537.00 253.00" xmlns="http://www.w3.org/2000/svg" xmlns:xlink="http://www.w3.org/1999/xlink">
<g id="graph0" class="graph" transform="scale(1 1) rotate(0) translate(4 249)">
<title>fileclose</title>
<!-- Node1 -->
<g id="Node000001" class="node">
<title>Node1</title>
<g id="a_Node000001"><a xlink:title=" ">
<polygon fill="#999999" stroke="#666666" points="57,-151 0,-151 0,-132 57,-132 57,-151"/>
<text text-anchor="middle" x="28.5" y="-139" font-family="Helvetica,sans-Serif" font-size="10.00">fileclose</text>
</a>
</g>
</g>
<!-- Node2 -->
<g id="Node000002" class="node">
<title>Node2</title>
<g id="a_Node000002"><a xlink:href="log_8c.html#ac96aa31ffc0500e749c62c4d377c21c9" target="_top" xlink:title=" ">
<polygon fill="white" stroke="#666666" points="154,-188 93,-188 93,-169 154,-169 154,-188"/>
<text text-anchor="middle" x="123.5" y="-176" font-family="Helvetica,sans-Serif" font-size="10.00">begin_op</text>
</a>
</g>
</g>
<!-- Node1&#45;&gt;Node2 -->
<g id="edge1_Node000001_Node000002" class="edge">
<title>Node1&#45;&gt;Node2</title>
<g id="a_edge1_Node000001_Node000002"><a xlink:title=" ">
<path fill="none" stroke="#63b8ff" d="M53.45,-151.03C64.21,-155.31 77.1,-160.44 88.82,-165.1"/>
<polygon fill="#63b8ff" stroke="#63b8ff" points="87.72,-168.43 98.31,-168.88 90.31,-161.93 87.72,-168.43"/>
</a>
</g>
</g>
<!-- Node3 -->
<g id="Node000003" class="node">
<title>Node3</title>
<g id="a_Node000003"><a xlink:href="log_8c.html#ac0f12be0ca0de555e60b27b06a57a65b" target="_top" xlink:title=" ">
<polygon fill="white" stroke="#666666" points="149.5,-151 97.5,-151 97.5,-132 149.5,-132 149.5,-151"/>
<text text-anchor="middle" x="123.5" y="-139" font-family="Helvetica,sans-Serif" font-size="10.00">end_op</text>
</a>
</g>
</g>
<!-- Node1&#45;&gt;Node3 -->
<g id="edge2_Node000001_Node000003" class="edge">
<title>Node1&#45;&gt;Node3</title>
<g id="a_edge2_Node000001_Node000003"><a xlink:title=" ">
<path fill="none" stroke="#63b8ff" d="M57.15,-141.5C66.61,-141.5 77.32,-141.5 87.29,-141.5"/>
<polygon fill="#63b8ff" stroke="#63b8ff" points="87.33,-145 97.33,-141.5 87.33,-138 87.33,-145"/>
</a>
</g>
</g>
<!-- Node12 -->
<g id="Node000012" class="node">
<title>Node12</title>
<g id="a_Node000012"><a xlink:href="fs_8c.html#ab3c447f135c68e4c3c1f8d5866f6e77b" target="_top" xlink:title=" ">
<polygon fill="white" stroke="#666666" points="141,-76 106,-76 106,-57 141,-57 141,-76"/>
<text text-anchor="middle" x="123.5" y="-64" font-family="Helvetica,sans-Serif" font-size="10.00">iput</text>
</a>
</g>
</g>
<!-- Node1&#45;&gt;Node12 -->
<g id="edge17_Node000001_Node000012" class="edge">
<title>Node1&#45;&gt;Node12</title>
<g id="a_edge17_Node000001_Node000012"><a xlink:title=" ">
<path fill="none" stroke="#63b8ff" d="M41.66,-131.7C57.2,-119.16 84.31,-97.3 102.81,-82.38"/>
<polygon fill="#63b8ff" stroke="#63b8ff" points="105.05,-85.07 110.63,-76.07 100.65,-79.62 105.05,-85.07"/>
</a>
</g>
</g>
<!-- Node4 -->
<g id="Node000004" class="node">
<title>Node4</title>
<g id="a_Node000004"><a xlink:href="log_8c.html#a504ac82448623ae8ad27b97dbed82694" target="_top" xlink:title=" ">
<polygon fill="white" stroke="#666666" points="244,-189 190,-189 190,-170 244,-170 244,-189"/>
<text text-anchor="middle" x="217" y="-177" font-family="Helvetica,sans-Serif" font-size="10.00">commit</text>
</a>
</g>
</g>
<!-- Node3&#45;&gt;Node4 -->
<g id="edge3_Node000003_Node000004" class="edge">
<title>Node3&#45;&gt;Node4</title>
<g id="a_edge3_Node000003_Node000004"><a xlink:title=" ">
<path fill="none" stroke="#63b8ff" d="M147.59,-151.09C158.43,-155.59 171.53,-161.03 183.36,-165.94"/>
<polygon fill="#63b8ff" stroke="#63b8ff" points="182.34,-169.31 192.92,-169.91 185.03,-162.85 182.34,-169.31"/>
</a>
</g>
</g>
<!-- Node5 -->
<g id="Node000005" class="node">
<title>Node5</title>
<g id="a_Node000005"><a xlink:href="log_8c.html#ab5eaeac1ab988530dcda4fd57a634df0" target="_top" xlink:title=" ">
<polygon fill="white" stroke="#666666" points="357,-245 280,-245 280,-226 357,-226 357,-245"/>
<text text-anchor="middle" x="318.5" y="-233" font-family="Helvetica,sans-Serif" font-size="10.00">install_trans</text>
</a>
</g>
</g>
<!-- Node4&#45;&gt;Node5 -->
<g id="edge4_Node000004_Node000005" class="edge">
<title>Node4&#45;&gt;Node5</title>
<g id="a_edge4_Node000004_Node000005"><a xlink:title=" ">
<path fill="none" stroke="#63b8ff" d="M233.03,-189.31C245.43,-197.26 263.59,-208.56 280,-217.5 282.41,-218.81 284.94,-220.14 287.49,-221.43"/>
<polygon fill="#63b8ff" stroke="#63b8ff" points="286.16,-224.68 296.68,-225.97 289.26,-218.41 286.16,-224.68"/>
</a>
</g>
</g>
<!-- Node10 -->
<g id="Node000010" class="node">
<title>Node10</title>
<g id="a_Node000010"><a xlink:href="log_8c.html#a34322134c00d3e9ad7fb48a7baa9a4c5" target="_top" xlink:title=" ">
<polygon fill="white" stroke="#666666" points="354,-208 283,-208 283,-189 354,-189 354,-208"/>
<text text-anchor="middle" x="318.5" y="-196" font-family="Helvetica,sans-Serif" font-size="10.00">write_head</text>
</a>
</g>
</g>
<!-- Node4&#45;&gt;Node10 -->
<g id="edge9_Node000004_Node000010" class="edge">
<title>Node4&#45;&gt;Node10</title>
<g id="a_edge9_Node000004_Node000010"><a xlink:title=" ">
<path fill="none" stroke="#63b8ff" d="M244.14,-184.49C252.95,-186.17 263.03,-188.1 272.85,-189.97"/>
<polygon fill="#63b8ff" stroke="#63b8ff" points="272.44,-193.46 282.92,-191.9 273.76,-186.58 272.44,-193.46"/>
</a>
</g>
</g>
<!-- Node11 -->
<g id="Node000011" class="node">
<title>Node11</title>
<g id="a_Node000011"><a xlink:href="log_8c.html#af4e7fbf2920c27568c9b88d45f0bd5e1" target="_top" xlink:title=" ">
<polygon fill="white" stroke="#666666" points="349.5,-171 287.5,-171 287.5,-152 349.5,-152 349.5,-171"/>
<text text-anchor="middle" x="318.5" y="-159" font-family="Helvetica,sans-Serif" font-size="10.00">write_log</text>
</a>
</g>
</g>
<!-- Node4&#45;&gt;Node11 -->
<g id="edge13_Node000004_Node000011" class="edge">
<title>Node4&#45;&gt;Node11</title>
<g id="a_edge13_Node000004_Node000011"><a xlink:title=" ">
<path fill="none" stroke="#63b8ff" d="M244.14,-174.77C254.28,-172.94 266.12,-170.79 277.3,-168.77"/>
<polygon fill="#63b8ff" stroke="#63b8ff" points="278.09,-172.19 287.3,-166.96 276.84,-165.3 278.09,-172.19"/>
</a>
</g>
</g>
<!-- Node6 -->
<g id="Node000006" class="node">
<title>Node6</title>
<g id="a_Node000006"><a xlink:href="bio_8c.html#a30b8d2ef2300ed8e3d879a428fe39898" target="_top" xlink:title=" ">
<polygon fill="white" stroke="#666666" points="446,-105 402,-105 402,-86 446,-86 446,-105"/>
<text text-anchor="middle" x="424" y="-93" font-family="Helvetica,sans-Serif" font-size="10.00">bread</text>
</a>
</g>
</g>
<!-- Node5&#45;&gt;Node6 -->
<g id="edge5_Node000005_Node000006" class="edge">
<title>Node5&#45;&gt;Node6</title>
<g id="a_edge5_Node000005_Node000006"><a xlink:title=" ">
<path fill="none" stroke="#63b8ff" d="M346.23,-225.82C350.19,-223.54 353.96,-220.79 357,-217.5 387.09,-184.96 368.49,-161.43 393,-124.5 395.85,-120.2 399.44,-116.05 403.14,-112.29"/>
<polygon fill="#63b8ff" stroke="#63b8ff" points="405.77,-114.62 410.66,-105.22 400.98,-109.52 405.77,-114.62"/>
</a>
</g>
</g>
<!-- Node8 -->
<g id="Node000008" class="node">
<title>Node8</title>
<g id="a_Node000008"><a xlink:href="bio_8c.html#ab5335aeb503731104314321a78a6d727" target="_top" xlink:title=" ">
<polygon fill="white" stroke="#666666" points="447.5,-152 400.5,-152 400.5,-133 447.5,-133 447.5,-152"/>
<text text-anchor="middle" x="424" y="-140" font-family="Helvetica,sans-Serif" font-size="10.00">brelse</text>
</a>
</g>
</g>
<!-- Node5&#45;&gt;Node8 -->
<g id="edge7_Node000005_Node000008" class="edge">
<title>Node5&#45;&gt;Node8</title>
<g id="a_edge7_Node000005_Node000008"><a xlink:title=" ">
<path fill="none" stroke="#63b8ff" d="M343.35,-225.84C348.08,-223.44 352.86,-220.64 357,-217.5 368.62,-208.7 393.44,-179.11 409.12,-159.83"/>
<polygon fill="#63b8ff" stroke="#63b8ff" points="411.84,-162.03 415.4,-152.05 406.39,-157.63 411.84,-162.03"/>
</a>
</g>
</g>
<!-- Node9 -->
<g id="Node000009" class="node">
<title>Node9</title>
<g id="a_Node000009"><a xlink:href="bio_8c.html#a63c899c13b176ddf80064d32225e1298" target="_top" xlink:title=" ">
<polygon fill="white" stroke="#666666" points="447.5,-208 400.5,-208 400.5,-189 447.5,-189 447.5,-208"/>
<text text-anchor="middle" x="424" y="-196" font-family="Helvetica,sans-Serif" font-size="10.00">bwrite</text>
</a>
</g>
</g>
<!-- Node5&#45;&gt;Node9 -->
<g id="edge8_Node000005_Node000009" class="edge">
<title>Node5&#45;&gt;Node9</title>
<g id="a_edge8_Node000005_Node000009"><a xlink:title=" ">
<path fill="none" stroke="#63b8ff" d="M346.15,-225.97C359.78,-221.1 376.47,-215.13 390.81,-210.01"/>
<polygon fill="#63b8ff" stroke="#63b8ff" points="392.06,-213.28 400.29,-206.62 389.7,-206.69 392.06,-213.28"/>
</a>
</g>
</g>
<!-- Node7 -->
<g id="Node000007" class="node">
<title>Node7</title>
<g id="a_Node000007"><a xlink:href="bio_8c.html#a69dcd3ce86d958b4024c6746263f3f5b" target="_top" xlink:title=" ">
<polygon fill="white" stroke="#666666" points="529,-105 491,-105 491,-86 529,-86 529,-105"/>
<text text-anchor="middle" x="510" y="-93" font-family="Helvetica,sans-Serif" font-size="10.00">bget</text>
</a>
</g>
</g>
<!-- Node6&#45;&gt;Node7 -->
<g id="edge6_Node000006_Node000007" class="edge">
<title>Node6&#45;&gt;Node7</title>
<g id="a_edge6_Node000006_Node000007"><a xlink:title=" ">
<path fill="none" stroke="#63b8ff" d="M446.2,-95.5C456.66,-95.5 469.42,-95.5 480.7,-95.5"/>
<polygon fill="#63b8ff" stroke="#63b8ff" points="480.94,-99 490.94,-95.5 480.94,-92 480.94,-99"/>
</a>
</g>
</g>
<!-- Node10&#45;&gt;Node6 -->
<g id="edge10_Node000010_Node000006" class="edge">
<title>Node10&#45;&gt;Node6</title>
<g id="a_edge10_Node000010_Node000006"><a xlink:title=" ">
<path fill="none" stroke="#63b8ff" d="M344.51,-188.9C348.95,-186.54 353.32,-183.75 357,-180.5 379.18,-160.91 374.24,-147.38 393,-124.5 396.47,-120.27 400.51,-116.01 404.47,-112.1"/>
<polygon fill="#63b8ff" stroke="#63b8ff" points="406.98,-114.55 411.84,-105.14 402.17,-109.46 406.98,-114.55"/>
</a>
</g>
</g>
<!-- Node10&#45;&gt;Node8 -->
<g id="edge11_Node000010_Node000008" class="edge">
<title>Node10&#45;&gt;Node8</title>
<g id="a_edge11_Node000010_Node000008"><a xlink:title=" ">
<path fill="none" stroke="#63b8ff" d="M340.27,-188.87C345.75,-186.24 351.63,-183.33 357,-180.5 370.89,-173.18 386.09,-164.48 398.4,-157.25"/>
<polygon fill="#63b8ff" stroke="#63b8ff" points="400.36,-160.16 407.18,-152.05 396.79,-154.13 400.36,-160.16"/>
</a>
</g>
</g>
<!-- Node10&#45;&gt;Node9 -->
<g id="edge12_Node000010_Node000009" class="edge">
<title>Node10&#45;&gt;Node9</title>
<g id="a_edge12_Node000010_Node000009"><a xlink:title=" ">
<path fill="none" stroke="#63b8ff" d="M354.25,-198.5C365.85,-198.5 378.73,-198.5 390.18,-198.5"/>
<polygon fill="#63b8ff" stroke="#63b8ff" points="390.22,-202 400.22,-198.5 390.22,-195 390.22,-202"/>
</a>
</g>
</g>
<!-- Node11&#45;&gt;Node6 -->
<g id="edge14_Node000011_Node000006" class="edge">
<title>Node11&#45;&gt;Node6</title>
<g id="a_edge14_Node000011_Node000006"><a xlink:title=" ">
<path fill="none" stroke="#63b8ff" d="M334.77,-151.76C351.84,-140.88 379.68,-123.13 399.52,-110.48"/>
<polygon fill="#63b8ff" stroke="#63b8ff" points="401.45,-113.39 408,-105.06 397.69,-107.49 401.45,-113.39"/>
</a>
</g>
</g>
<!-- Node11&#45;&gt;Node8 -->
<g id="edge15_Node000011_Node000008" class="edge">
<title>Node11&#45;&gt;Node8</title>
<g id="a_edge15_Node000011_Node000008"><a xlink:title=" ">
<path fill="none" stroke="#63b8ff" d="M349.71,-155.95C362.52,-153.6 377.47,-150.86 390.51,-148.46"/>
<polygon fill="#63b8ff" stroke="#63b8ff" points="391.28,-151.88 400.49,-146.63 390.02,-145 391.28,-151.88"/>
</a>
</g>
</g>
<!-- Node11&#45;&gt;Node9 -->
<g id="edge16_Node000011_Node000009" class="edge">
<title>Node11&#45;&gt;Node9</title>
<g id="a_edge16_Node000011_Node000009"><a xlink:title=" ">
<path fill="none" stroke="#63b8ff" d="M346.15,-171.03C359.78,-175.9 376.47,-181.87 390.81,-186.99"/>
<polygon fill="#63b8ff" stroke="#63b8ff" points="389.7,-190.31 400.29,-190.38 392.06,-183.72 389.7,-190.31"/>
</a>
</g>
</g>
<!-- Node13 -->
<g id="Node000013" class="node">
<title>Node13</title>
<g id="a_Node000013"><a xlink:href="fs_8c.html#a7c42ba96035fb59aef87372552b1a661" target="_top" xlink:title=" ">
<polygon fill="white" stroke="#666666" points="239,-76 195,-76 195,-57 239,-57 239,-76"/>
<text text-anchor="middle" x="217" y="-64" font-family="Helvetica,sans-Serif" font-size="10.00">itrunc</text>
</a>
</g>
</g>
<!-- Node12&#45;&gt;Node13 -->
<g id="edge18_Node000012_Node000013" class="edge">
<title>Node12&#45;&gt;Node13</title>
<g id="a_edge18_Node000012_Node000013"><a xlink:title=" ">
<path fill="none" stroke="#63b8ff" d="M141.28,-66.5C153.41,-66.5 170.14,-66.5 184.7,-66.5"/>
<polygon fill="#63b8ff" stroke="#63b8ff" points="184.81,-70 194.81,-66.5 184.81,-63 184.81,-70"/>
</a>
</g>
</g>
<!-- Node16 -->
<g id="Node000016" class="node">
<title>Node16</title>
<g id="a_Node000016"><a xlink:href="fs_8c.html#a7220afa8e5f4bea540eb95879ea7df6e" target="_top" xlink:title=" ">
<polygon fill="white" stroke="#666666" points="345,-19 292,-19 292,0 345,0 345,-19"/>
<text text-anchor="middle" x="318.5" y="-7" font-family="Helvetica,sans-Serif" font-size="10.00">iupdate</text>
</a>
</g>
</g>
<!-- Node12&#45;&gt;Node16 -->
<g id="edge29_Node000012_Node000016" class="edge">
<title>Node12&#45;&gt;Node16</title>
<g id="a_edge29_Node000012_Node000016"><a xlink:title=" ">
<path fill="none" stroke="#63b8ff" d="M141.29,-61.54C172.55,-52.31 240.3,-32.3 282.09,-19.96"/>
<polygon fill="#63b8ff" stroke="#63b8ff" points="283.26,-23.26 291.86,-17.07 281.28,-16.55 283.26,-23.26"/>
</a>
</g>
</g>
<!-- Node13&#45;&gt;Node6 -->
<g id="edge23_Node000013_Node000006" class="edge">
<title>Node13&#45;&gt;Node6</title>
<g id="a_edge23_Node000013_Node000006"><a xlink:title=" ">
<path fill="none" stroke="#63b8ff" d="M239.48,-63.79C267.03,-60.94 316.14,-57.92 357,-66.5 371.01,-69.44 385.68,-75.55 397.63,-81.4"/>
<polygon fill="#63b8ff" stroke="#63b8ff" points="396.06,-84.53 406.55,-85.98 399.25,-78.3 396.06,-84.53"/>
</a>
</g>
</g>
<!-- Node13&#45;&gt;Node8 -->
<g id="edge24_Node000013_Node000008" class="edge">
<title>Node13&#45;&gt;Node8</title>
<g id="a_edge24_Node000013_Node000008"><a xlink:title=" ">
<path fill="none" stroke="#63b8ff" d="M231.17,-76.14C243.32,-84.65 262.13,-96.84 280,-104.5 316.17,-120 360.26,-130.55 389.83,-136.53"/>
<polygon fill="#63b8ff" stroke="#63b8ff" points="389.55,-140.04 400.03,-138.53 390.89,-133.18 389.55,-140.04"/>
</a>
</g>
</g>
<!-- Node14 -->
<g id="Node000014" class="node">
<title>Node14</title>
<g id="a_Node000014"><a xlink:href="fs_8c.html#a2800a4b570ae39363cec0613dac92fd7" target="_top" xlink:title=" ">
<polygon fill="white" stroke="#666666" points="339.5,-95 297.5,-95 297.5,-76 339.5,-76 339.5,-95"/>
<text text-anchor="middle" x="318.5" y="-83" font-family="Helvetica,sans-Serif" font-size="10.00">bfree</text>
</a>
</g>
</g>
<!-- Node13&#45;&gt;Node14 -->
<g id="edge19_Node000013_Node000014" class="edge">
<title>Node13&#45;&gt;Node14</title>
<g id="a_edge19_Node000013_Node000014"><a xlink:title=" ">
<path fill="none" stroke="#63b8ff" d="M239.1,-70.53C253.1,-73.2 271.69,-76.75 287.25,-79.72"/>
<polygon fill="#63b8ff" stroke="#63b8ff" points="286.97,-83.23 297.45,-81.67 288.28,-76.36 286.97,-83.23"/>
</a>
</g>
</g>
<!-- Node13&#45;&gt;Node16 -->
<g id="edge25_Node000013_Node000016" class="edge">
<title>Node13&#45;&gt;Node16</title>
<g id="a_edge25_Node000013_Node000016"><a xlink:title=" ">
<path fill="none" stroke="#63b8ff" d="M234.88,-56.83C250.55,-47.85 274.11,-34.36 292.06,-24.07"/>
<polygon fill="#63b8ff" stroke="#63b8ff" points="293.93,-27.03 300.87,-19.03 290.45,-20.96 293.93,-27.03"/>
</a>
</g>
</g>
<!-- Node14&#45;&gt;Node6 -->
<g id="edge20_Node000014_Node000006" class="edge">
<title>Node14&#45;&gt;Node6</title>
<g id="a_edge20_Node000014_Node000006"><a xlink:title=" ">
<path fill="none" stroke="#63b8ff" d="M339.95,-87.48C354.64,-88.9 374.72,-90.84 391.46,-92.45"/>
<polygon fill="#63b8ff" stroke="#63b8ff" points="391.59,-95.98 401.88,-93.46 392.27,-89.01 391.59,-95.98"/>
</a>
</g>
</g>
<!-- Node14&#45;&gt;Node8 -->
<g id="edge21_Node000014_Node000008" class="edge">
<title>Node14&#45;&gt;Node8</title>
<g id="a_edge21_Node000014_Node000008"><a xlink:title=" ">
<path fill="none" stroke="#63b8ff" d="M337.06,-95.17C353.44,-104.19 378.09,-117.77 396.8,-128.07"/>
<polygon fill="#63b8ff" stroke="#63b8ff" points="395.25,-131.22 405.7,-132.97 398.63,-125.08 395.25,-131.22"/>
</a>
</g>
</g>
<!-- Node15 -->
<g id="Node000015" class="node">
<title>Node15</title>
<g id="a_Node000015"><a xlink:href="log_8c.html#a7eacb0fbebe5ce4c7d3ddea15908b13d" target="_top" xlink:title=" ">
<polygon fill="white" stroke="#666666" points="455,-49 393,-49 393,-30 455,-30 455,-49"/>
<text text-anchor="middle" x="424" y="-37" font-family="Helvetica,sans-Serif" font-size="10.00">log_write</text>
</a>
</g>
</g>
<!-- Node14&#45;&gt;Node15 -->
<g id="edge22_Node000014_Node000015" class="edge">
<title>Node14&#45;&gt;Node15</title>
<g id="a_edge22_Node000014_Node000015"><a xlink:title=" ">
<path fill="none" stroke="#63b8ff" d="M339.95,-76.41C354.82,-69.8 375.22,-60.74 392.08,-53.24"/>
<polygon fill="#63b8ff" stroke="#63b8ff" points="393.81,-56.3 401.53,-49.04 390.97,-49.91 393.81,-56.3"/>
</a>
</g>
</g>
<!-- Node16&#45;&gt;Node6 -->
<g id="edge26_Node000016_Node000006" class="edge">
<title>Node16&#45;&gt;Node6</title>
<g id="a_edge26_Node000016_Node000006"><a xlink:title=" ">
<path fill="none" stroke="#63b8ff" d="M336.01,-19.15C342.71,-23.3 350.41,-28.37 357,-33.5 374.87,-47.42 393.53,-65.31 406.44,-78.3"/>
<polygon fill="#63b8ff" stroke="#63b8ff" points="404.16,-80.98 413.67,-85.67 409.16,-76.08 404.16,-80.98"/>
</a>
</g>
</g>
<!-- Node16&#45;&gt;Node8 -->
<g id="edge27_Node000016_Node000008" class="edge">
<title>Node16&#45;&gt;Node8</title>
<g id="a_edge27_Node000016_Node000008"><a xlink:title=" ">
<path fill="none" stroke="#63b8ff" d="M325.96,-19.28C341.02,-41.97 378.26,-97.53 393,-114.5 396.38,-118.4 400.26,-122.33 404.07,-125.97"/>
<polygon fill="#63b8ff" stroke="#63b8ff" points="401.9,-128.73 411.63,-132.91 406.63,-123.57 401.9,-128.73"/>
</a>
</g>
</g>
<!-- Node16&#45;&gt;Node15 -->
<g id="edge28_Node000016_Node000015" class="edge">
<title>Node16&#45;&gt;Node15</title>
<g id="a_edge28_Node000016_Node000015"><a xlink:title=" ">
<path fill="none" stroke="#63b8ff" d="M345.08,-16.92C356.52,-20.23 370.26,-24.21 383,-27.9"/>
<polygon fill="#63b8ff" stroke="#63b8ff" points="382.36,-31.36 392.94,-30.79 384.31,-24.64 382.36,-31.36"/>
</a>
</g>
</g>
</g>
</svg>
