<?xml version="1.0" encoding="UTF-8" standalone="no"?>
<!DOCTYPE svg PUBLIC "-//W3C//DTD SVG 1.1//EN"
 "http://www.w3.org/Graphics/SVG/1.1/DTD/svg11.dtd">
<!-- Generated by graphviz version 2.43.0 (0)
 -->
<!-- Title: fileread Pages: 1 -->
<!--zoomable 293 -->

<svg id="main" version="1.1" xmlns="http://www.w3.org/2000/svg" xmlns:xlink="http://www.w3.org/1999/xlink" xml:space="preserve" onload="init(evt)">
<style type="text/css"><![CDATA[
.node, .edge {opacity: 0.7;}
.node.selected, .edge.selected {opacity: 1;}
.edge:hover path { stroke: red; }
.edge:hover polygon { stroke: red; fill: red; }
]]></style>

<defs>
  <circle id="rim" cx="0" cy="0" r="7"/>
  <circle id="rim2" cx="0" cy="0" r="3.5"/>
  <g id="zoomPlus">
    <use xlink:href="#rim" fill="#404040"><set attributeName="fill" to="#808080" begin="zoomplus.mouseover" end="zoomplus.mouseout"/></use>
    <path d="M-4,0h8M0,-4v8" fill="none" stroke="white" stroke-width="1.5" pointer-events="none"/>
  </g>
  <g id="zoomMin">
    <use xlink:href="#rim" fill="#404040"><set attributeName="fill" to="#808080" begin="zoomminus.mouseover" end="zoomminus.mouseout"/></use>
    <path d="M-4,0h8" fill="none" stroke="white" stroke-width="1.5" pointer-events="none"/>
  </g>
  <g id="arrowUp" transform="translate(30 24)">
    <use xlink:href="#rim"/>
    <path pointer-events="none" fill="none" stroke="white" stroke-width="1.5" d="M0,-3.0v7 M-2.5,-0.5L0,-3.0L2.5,-0.5"/>
  </g>
  <g id="arrowRight" transform="rotate(90) translate(36 -43)">
    <use xlink:href="#rim"/>
    <path pointer-events="none" fill="none" stroke="white" stroke-width="1.5" d="M0,-3.0v7 M-2.5,-0.5L0,-3.0L2.5,-0.5"/>
  </g>
  <g id="arrowDown" transform="rotate(180) translate(-30 -48)">
    <use xlink:href="#rim"/>
    <path pointer-events="none" fill="none" stroke="white" stroke-width="1.5" d="M0,-3.0v7 M-2.5,-0.5L0,-3.0L2.5,-0.5"/>
  </g>
  <g id="arrowLeft" transform="rotate(270) translate(-36 17)">
    <use xlink:href="#rim"/>
    <path pointer-events="none" fill="none" stroke="white" stroke-width="1.5" d="M0,-3.0v7 M-2.5,-0.5L0,-3.0L2.5,-0.5"/>
  </g>
  <g id="resetDef">
    <use xlink:href="#rim2" fill="#404040"><set attributeName="fill" to="#808080" begin="reset.mouseover" end="reset.mouseout"/></use>
  </g>
</defs>
<script type="application/ecmascript">
var viewWidth = 563;
var viewHeight = 293;
var sectionId = 'dynsection-2';
</script>
<script type="application/ecmascript" xlink:href="svg.min.js"/>
<svg id="graph" class="graph">
<g id="viewport">
<title>fileread</title>
<!-- Node1 -->
<g id="Node000001" class="node">
<title>Node1</title>
<g id="a_Node000001"><a xlink:title=" ">
<polygon fill="#999999" stroke="#666666" points="53,-57 0,-57 0,-38 53,-38 53,-57"/>
<text text-anchor="middle" x="26.5" y="-45" font-family="Helvetica,sans-Serif" font-size="10.00">fileread</text>
</a>
</g>
</g>
<!-- Node2 -->
<g id="Node000002" class="node">
<title>Node2</title>
<g id="a_Node000002"><a xlink:href="fs_8c.html#aed28187406d84a3aa71f10c6235a03ec" target="_top" xlink:title=" ">
<polygon fill="white" stroke="#666666" points="381,-95 341,-95 341,-76 381,-76 381,-95"/>
<text text-anchor="middle" x="361" y="-83" font-family="Helvetica,sans-Serif" font-size="10.00">ilock</text>
</a>
</g>
</g>
<!-- Node1&#45;&gt;Node2 -->
<g id="edge1_Node000001_Node000002" class="edge">
<title>Node1&#45;&gt;Node2</title>
<g id="a_edge1_Node000001_Node000002"><a xlink:title=" ">
<path fill="none" stroke="#63b8ff" d="M53.04,-50.42C113.7,-57.35 266.18,-74.78 330.57,-82.14"/>
<polygon fill="#63b8ff" stroke="#63b8ff" points="330.5,-85.65 340.83,-83.31 331.29,-78.7 330.5,-85.65"/>
</a>
</g>
</g>
<!-- Node6 -->
<g id="Node000006" class="node">
<title>Node6</title>
<g id="a_Node000006"><a xlink:href="fs_8c.html#ae4e29916219b9293b37f9c34220694fe" target="_top" xlink:title=" ">
<polygon fill="white" stroke="#666666" points="141,-19 89,-19 89,0 141,0 141,-19"/>
<text text-anchor="middle" x="115" y="-7" font-family="Helvetica,sans-Serif" font-size="10.00">iunlock</text>
</a>
</g>
</g>
<!-- Node1&#45;&gt;Node6 -->
<g id="edge5_Node000001_Node000006" class="edge">
<title>Node1&#45;&gt;Node6</title>
<g id="a_edge5_Node000001_Node000006"><a xlink:title=" ">
<path fill="none" stroke="#63b8ff" d="M49.33,-37.91C59.47,-33.46 71.71,-28.08 82.81,-23.2"/>
<polygon fill="#63b8ff" stroke="#63b8ff" points="84.43,-26.31 92.18,-19.09 81.62,-19.9 84.43,-26.31"/>
</a>
</g>
</g>
<!-- Node7 -->
<g id="Node000007" class="node">
<title>Node7</title>
<g id="a_Node000007"><a xlink:href="fs_8c.html#a3aba1fa9f6789d09356aec5b96d91fa8" target="_top" xlink:title=" ">
<polygon fill="white" stroke="#666666" points="135.5,-114 94.5,-114 94.5,-95 135.5,-95 135.5,-114"/>
<text text-anchor="middle" x="115" y="-102" font-family="Helvetica,sans-Serif" font-size="10.00">readi</text>
</a>
</g>
</g>
<!-- Node1&#45;&gt;Node7 -->
<g id="edge6_Node000001_Node000007" class="edge">
<title>Node1&#45;&gt;Node7</title>
<g id="a_edge6_Node000001_Node000007"><a xlink:title=" ">
<path fill="none" stroke="#63b8ff" d="M42.17,-57.17C55.55,-65.98 75.53,-79.15 91.02,-89.36"/>
<polygon fill="#63b8ff" stroke="#63b8ff" points="89.27,-92.39 99.54,-94.97 93.12,-86.55 89.27,-92.39"/>
</a>
</g>
</g>
<!-- Node3 -->
<g id="Node000003" class="node">
<title>Node3</title>
<g id="a_Node000003"><a xlink:href="bio_8c.html#a30b8d2ef2300ed8e3d879a428fe39898" target="_top" xlink:title=" ">
<polygon fill="white" stroke="#666666" points="472,-209 428,-209 428,-190 472,-190 472,-209"/>
<text text-anchor="middle" x="450" y="-197" font-family="Helvetica,sans-Serif" font-size="10.00">bread</text>
</a>
</g>
</g>
<!-- Node2&#45;&gt;Node3 -->
<g id="edge2_Node000002_Node000003" class="edge">
<title>Node2&#45;&gt;Node3</title>
<g id="a_edge2_Node000002_Node000003"><a xlink:title=" ">
<path fill="none" stroke="#63b8ff" d="M370.78,-95.15C374.62,-99.46 379.12,-104.66 383,-109.5 402.49,-133.81 423.54,-163.1 436.5,-181.51"/>
<polygon fill="#63b8ff" stroke="#63b8ff" points="433.72,-183.65 442.33,-189.84 439.46,-179.64 433.72,-183.65"/>
</a>
</g>
</g>
<!-- Node5 -->
<g id="Node000005" class="node">
<title>Node5</title>
<g id="a_Node000005"><a xlink:href="bio_8c.html#ab5335aeb503731104314321a78a6d727" target="_top" xlink:title=" ">
<polygon fill="white" stroke="#666666" points="473.5,-95 426.5,-95 426.5,-76 473.5,-76 473.5,-95"/>
<text text-anchor="middle" x="450" y="-83" font-family="Helvetica,sans-Serif" font-size="10.00">brelse</text>
</a>
</g>
</g>
<!-- Node2&#45;&gt;Node5 -->
<g id="edge4_Node000002_Node000005" class="edge">
<title>Node2&#45;&gt;Node5</title>
<g id="a_edge4_Node000002_Node000005"><a xlink:title=" ">
<path fill="none" stroke="#63b8ff" d="M381.31,-85.5C391.5,-85.5 404.3,-85.5 416.01,-85.5"/>
<polygon fill="#63b8ff" stroke="#63b8ff" points="416.36,-89 426.36,-85.5 416.36,-82 416.36,-89"/>
</a>
</g>
</g>
<!-- Node4 -->
<g id="Node000004" class="node">
<title>Node4</title>
<g id="a_Node000004"><a xlink:href="bio_8c.html#a69dcd3ce86d958b4024c6746263f3f5b" target="_top" xlink:title=" ">
<polygon fill="white" stroke="#666666" points="555,-209 517,-209 517,-190 555,-190 555,-209"/>
<text text-anchor="middle" x="536" y="-197" font-family="Helvetica,sans-Serif" font-size="10.00">bget</text>
</a>
</g>
</g>
<!-- Node3&#45;&gt;Node4 -->
<g id="edge3_Node000003_Node000004" class="edge">
<title>Node3&#45;&gt;Node4</title>
<g id="a_edge3_Node000003_Node000004"><a xlink:title=" ">
<path fill="none" stroke="#63b8ff" d="M472.2,-199.5C482.66,-199.5 495.42,-199.5 506.7,-199.5"/>
<polygon fill="#63b8ff" stroke="#63b8ff" points="506.94,-203 516.94,-199.5 506.94,-196 506.94,-203"/>
</a>
</g>
</g>
<!-- Node7&#45;&gt;Node3 -->
<g id="edge19_Node000007_Node000003" class="edge">
<title>Node7&#45;&gt;Node3</title>
<g id="a_edge19_Node000007_Node000003"><a xlink:title=" ">
<path fill="none" stroke="#63b8ff" d="M135.83,-110.16C191.65,-126.08 350.42,-171.38 417.97,-190.65"/>
<polygon fill="#63b8ff" stroke="#63b8ff" points="417.42,-194.13 428,-193.51 419.34,-187.4 417.42,-194.13"/>
</a>
</g>
</g>
<!-- Node7&#45;&gt;Node5 -->
<g id="edge20_Node000007_Node000005" class="edge">
<title>Node7&#45;&gt;Node5</title>
<g id="a_edge20_Node000007_Node000005"><a xlink:title=" ">
<path fill="none" stroke="#63b8ff" d="M135.83,-95.91C180.23,-77.78 290.98,-38.79 383,-57.5 396.53,-60.25 410.73,-65.88 422.48,-71.37"/>
<polygon fill="#63b8ff" stroke="#63b8ff" points="421.18,-74.63 431.7,-75.88 424.25,-68.34 421.18,-74.63"/>
</a>
</g>
</g>
<!-- Node8 -->
<g id="Node000008" class="node">
<title>Node8</title>
<g id="a_Node000008"><a xlink:href="fs_8c.html#a965e83e1fa9b15abf268784ce74181bb" target="_top" xlink:title=" ">
<polygon fill="white" stroke="#666666" points="221,-228 177,-228 177,-209 221,-209 221,-228"/>
<text text-anchor="middle" x="199" y="-216" font-family="Helvetica,sans-Serif" font-size="10.00">bmap</text>
</a>
</g>
</g>
<!-- Node7&#45;&gt;Node8 -->
<g id="edge7_Node000007_Node000008" class="edge">
<title>Node7&#45;&gt;Node8</title>
<g id="a_edge7_Node000007_Node000008"><a xlink:title=" ">
<path fill="none" stroke="#63b8ff" d="M122.99,-114.22C136.73,-133.32 167.43,-176 185,-200.42"/>
<polygon fill="#63b8ff" stroke="#63b8ff" points="182.35,-202.73 191.03,-208.81 188.03,-198.64 182.35,-202.73"/>
</a>
</g>
</g>
<!-- Node8&#45;&gt;Node3 -->
<g id="edge16_Node000008_Node000003" class="edge">
<title>Node8&#45;&gt;Node3</title>
<g id="a_edge16_Node000008_Node000003"><a xlink:title=" ">
<path fill="none" stroke="#63b8ff" d="M217.12,-228.04C250.08,-245.08 324.27,-277.06 383,-255.5 403.79,-247.87 422.52,-230.46 434.67,-217.06"/>
<polygon fill="#63b8ff" stroke="#63b8ff" points="437.44,-219.21 441.35,-209.36 432.15,-214.63 437.44,-219.21"/>
</a>
</g>
</g>
<!-- Node8&#45;&gt;Node5 -->
<g id="edge17_Node000008_Node000005" class="edge">
<title>Node8&#45;&gt;Node5</title>
<g id="a_edge17_Node000008_Node000005"><a xlink:title=" ">
<path fill="none" stroke="#63b8ff" d="M204.97,-208.88C220.3,-180.45 269.95,-96.92 339,-66.5 365.11,-55 397.57,-63.01 420.44,-71.89"/>
<polygon fill="#63b8ff" stroke="#63b8ff" points="419.33,-75.22 429.91,-75.83 422.02,-68.76 419.33,-75.22"/>
</a>
</g>
</g>
<!-- Node9 -->
<g id="Node000009" class="node">
<title>Node9</title>
<g id="a_Node000009"><a xlink:href="fs_8c.html#a29272227722d57ff937caaffd03455a9" target="_top" xlink:title=" ">
<polygon fill="white" stroke="#666666" points="303,-228 257,-228 257,-209 303,-209 303,-228"/>
<text text-anchor="middle" x="280" y="-216" font-family="Helvetica,sans-Serif" font-size="10.00">balloc</text>
</a>
</g>
</g>
<!-- Node8&#45;&gt;Node9 -->
<g id="edge8_Node000008_Node000009" class="edge">
<title>Node8&#45;&gt;Node9</title>
<g id="a_edge8_Node000008_Node000009"><a xlink:title=" ">
<path fill="none" stroke="#63b8ff" d="M221.17,-218.5C229.03,-218.5 238.14,-218.5 246.77,-218.5"/>
<polygon fill="#63b8ff" stroke="#63b8ff" points="246.94,-222 256.94,-218.5 246.94,-215 246.94,-222"/>
</a>
</g>
</g>
<!-- Node11 -->
<g id="Node000011" class="node">
<title>Node11</title>
<g id="a_Node000011"><a xlink:href="log_8c.html#a7eacb0fbebe5ce4c7d3ddea15908b13d" target="_top" xlink:title=" ">
<polygon fill="white" stroke="#666666" points="481,-285 419,-285 419,-266 481,-266 481,-285"/>
<text text-anchor="middle" x="450" y="-273" font-family="Helvetica,sans-Serif" font-size="10.00">log_write</text>
</a>
</g>
</g>
<!-- Node8&#45;&gt;Node11 -->
<g id="edge18_Node000008_Node000011" class="edge">
<title>Node8&#45;&gt;Node11</title>
<g id="a_edge18_Node000008_Node000011"><a xlink:title=" ">
<path fill="none" stroke="#63b8ff" d="M207.68,-228.1C217.65,-239.76 236.25,-258.93 257,-267.5 306.22,-287.82 368.7,-285.91 408.77,-281.59"/>
<polygon fill="#63b8ff" stroke="#63b8ff" points="409.18,-285.07 418.7,-280.43 408.36,-278.12 409.18,-285.07"/>
</a>
</g>
</g>
<!-- Node9&#45;&gt;Node3 -->
<g id="edge9_Node000009_Node000003" class="edge">
<title>Node9&#45;&gt;Node3</title>
<g id="a_edge9_Node000009_Node000003"><a xlink:title=" ">
<path fill="none" stroke="#63b8ff" d="M303.31,-215.98C332.71,-212.65 384.57,-206.79 417.83,-203.03"/>
<polygon fill="#63b8ff" stroke="#63b8ff" points="418.38,-206.49 427.92,-201.88 417.59,-199.53 418.38,-206.49"/>
</a>
</g>
</g>
<!-- Node9&#45;&gt;Node5 -->
<g id="edge10_Node000009_Node000005" class="edge">
<title>Node9&#45;&gt;Node5</title>
<g id="a_edge10_Node000009_Node000005"><a xlink:title=" ">
<path fill="none" stroke="#63b8ff" d="M293.08,-208.93C321.52,-186.42 392.94,-129.88 428.39,-101.82"/>
<polygon fill="#63b8ff" stroke="#63b8ff" points="430.91,-104.29 436.57,-95.34 426.56,-98.8 430.91,-104.29"/>
</a>
</g>
</g>
<!-- Node10 -->
<g id="Node000010" class="node">
<title>Node10</title>
<g id="a_Node000010"><a xlink:href="fs_8c.html#ac93f607f4a954323f4c9ea485ca88538" target="_top" xlink:title=" ">
<polygon fill="white" stroke="#666666" points="383,-247 339,-247 339,-228 383,-228 383,-247"/>
<text text-anchor="middle" x="361" y="-235" font-family="Helvetica,sans-Serif" font-size="10.00">bzero</text>
</a>
</g>
</g>
<!-- Node9&#45;&gt;Node10 -->
<g id="edge11_Node000009_Node000010" class="edge">
<title>Node9&#45;&gt;Node10</title>
<g id="a_edge11_Node000009_Node000010"><a xlink:title=" ">
<path fill="none" stroke="#63b8ff" d="M303.01,-223.79C311.08,-225.73 320.37,-227.97 329.08,-230.06"/>
<polygon fill="#63b8ff" stroke="#63b8ff" points="328.39,-233.5 338.93,-232.43 330.02,-226.69 328.39,-233.5"/>
</a>
</g>
</g>
<!-- Node9&#45;&gt;Node11 -->
<g id="edge15_Node000009_Node000011" class="edge">
<title>Node9&#45;&gt;Node11</title>
<g id="a_edge15_Node000009_Node000011"><a xlink:title=" ">
<path fill="none" stroke="#63b8ff" d="M293.13,-228.24C304.37,-236.76 321.88,-248.78 339,-255.5 361.21,-264.21 387.44,-269.17 408.72,-271.97"/>
<polygon fill="#63b8ff" stroke="#63b8ff" points="408.38,-275.45 418.73,-273.17 409.22,-268.5 408.38,-275.45"/>
</a>
</g>
</g>
<!-- Node10&#45;&gt;Node3 -->
<g id="edge12_Node000010_Node000003" class="edge">
<title>Node10&#45;&gt;Node3</title>
<g id="a_edge12_Node000010_Node000003"><a xlink:title=" ">
<path fill="none" stroke="#63b8ff" d="M383.06,-228.3C393.67,-223.67 406.73,-217.96 418.42,-212.86"/>
<polygon fill="#63b8ff" stroke="#63b8ff" points="420.07,-215.96 427.83,-208.75 417.27,-209.54 420.07,-215.96"/>
</a>
</g>
</g>
<!-- Node10&#45;&gt;Node5 -->
<g id="edge13_Node000010_Node000005" class="edge">
<title>Node10&#45;&gt;Node5</title>
<g id="a_edge13_Node000010_Node000005"><a xlink:title=" ">
<path fill="none" stroke="#63b8ff" d="M367.44,-227.99C381.6,-203.25 419.78,-136.55 438.44,-103.94"/>
<polygon fill="#63b8ff" stroke="#63b8ff" points="441.63,-105.42 443.56,-95 435.55,-101.94 441.63,-105.42"/>
</a>
</g>
</g>
<!-- Node10&#45;&gt;Node11 -->
<g id="edge14_Node000010_Node000011" class="edge">
<title>Node10&#45;&gt;Node11</title>
<g id="a_edge14_Node000010_Node000011"><a xlink:title=" ">
<path fill="none" stroke="#63b8ff" d="M383.06,-246.7C393.51,-251.26 406.34,-256.87 417.9,-261.92"/>
<polygon fill="#63b8ff" stroke="#63b8ff" points="416.66,-265.19 427.23,-265.99 419.46,-258.78 416.66,-265.19"/>
</a>
</g>
</g>
</g>
</svg>

<g id="navigator" transform="translate(0 0)" fill="#404254">
  <rect fill="#f2f5e9" fill-opacity="0.5" stroke="#606060" stroke-width=".5" x="0" y="0" width="60" height="60"/>
  <use id="zoomplus" xlink:href="#zoomPlus" x="17" y="9" onmousedown="handleZoom(evt,'in')"/>
  <use id="zoomminus" xlink:href="#zoomMin" x="42" y="9" onmousedown="handleZoom(evt,'out')"/>
  <use id="reset" xlink:href="#resetDef" x="30" y="36" onmousedown="handleReset()"/>
   <use id="arrowup" xlink:href="#arrowUp" x="0" y="0" onmousedown="handlePan(0,-1)"/>
  <use id="arrowright" xlink:href="#arrowRight" x="0" y="0" onmousedown="handlePan(1,0)"/>
  <use id="arrowdown" xlink:href="#arrowDown" x="0" y="0" onmousedown="handlePan(0,1)"/>
  <use id="arrowleft" xlink:href="#arrowLeft" x="0" y="0" onmousedown="handlePan(-1,0)"/>
</g>
<svg viewBox="0 0 15 15" width="100%" height="30px" preserveAspectRatio="xMaxYMin meet">
 <g id="arrow_out" transform="scale(0.3 0.3)">
  <a xlink:href="file_8c_a1dc8c87c7e48bdaaf98e9c7047928f29_cgraph_org.svg" target="_base">
   <rect id="button" ry="5" rx="5" y="6" x="6" height="38" width="38"
        fill="#f2f5e9" fill-opacity="0.5" stroke="#606060" stroke-width="1.0"/>
   <path id="arrow"
     d="M 11.500037,31.436501 C 11.940474,20.09759 22.043105,11.32322 32.158766,21.979434 L 37.068811,17.246167 C 37.068811,17.246167 37.088388,32 37.088388,32 L 22.160133,31.978069 C 22.160133,31.978069 26.997745,27.140456 26.997745,27.140456 C 18.528582,18.264221 13.291696,25.230495 11.500037,31.436501 z"
     style="fill:#404040;"/>
  </a>
 </g>
</svg>

<style type='text/css'>
<![CDATA[
[data-mouse-over-selected='false'] { opacity: 0.7; }
[data-mouse-over-selected='true']  { opacity: 1.0; }
]]>
</style>
<script type="application/ecmascript"><![CDATA[
document.addEventListener('DOMContentLoaded', (event) => {
  highlightEdges();
  highlightAdjacentNodes();
});
]]></script>
</svg>
