<?xml version="1.0" encoding="UTF-8" standalone="no"?>
<!DOCTYPE svg PUBLIC "-//W3C//DTD SVG 1.1//EN"
 "http://www.w3.org/Graphics/SVG/1.1/DTD/svg11.dtd">
<!-- Generated by graphviz version 2.43.0 (0)
 -->
<!-- Title: dirlink Pages: 1 -->
<!--zoomable 471 -->

<svg id="main" version="1.1" xmlns="http://www.w3.org/2000/svg" xmlns:xlink="http://www.w3.org/1999/xlink" xml:space="preserve" onload="init(evt)">
<style type="text/css"><![CDATA[
.node, .edge {opacity: 0.7;}
.node.selected, .edge.selected {opacity: 1;}
.edge:hover path { stroke: red; }
.edge:hover polygon { stroke: red; fill: red; }
]]></style>

<defs>
  <circle id="rim" cx="0" cy="0" r="7"/>
  <circle id="rim2" cx="0" cy="0" r="3.5"/>
  <g id="zoomPlus">
    <use xlink:href="#rim" fill="#404040"><set attributeName="fill" to="#808080" begin="zoomplus.mouseover" end="zoomplus.mouseout"/></use>
    <path d="M-4,0h8M0,-4v8" fill="none" stroke="white" stroke-width="1.5" pointer-events="none"/>
  </g>
  <g id="zoomMin">
    <use xlink:href="#rim" fill="#404040"><set attributeName="fill" to="#808080" begin="zoomminus.mouseover" end="zoomminus.mouseout"/></use>
    <path d="M-4,0h8" fill="none" stroke="white" stroke-width="1.5" pointer-events="none"/>
  </g>
  <g id="arrowUp" transform="translate(30 24)">
    <use xlink:href="#rim"/>
    <path pointer-events="none" fill="none" stroke="white" stroke-width="1.5" d="M0,-3.0v7 M-2.5,-0.5L0,-3.0L2.5,-0.5"/>
  </g>
  <g id="arrowRight" transform="rotate(90) translate(36 -43)">
    <use xlink:href="#rim"/>
    <path pointer-events="none" fill="none" stroke="white" stroke-width="1.5" d="M0,-3.0v7 M-2.5,-0.5L0,-3.0L2.5,-0.5"/>
  </g>
  <g id="arrowDown" transform="rotate(180) translate(-30 -48)">
    <use xlink:href="#rim"/>
    <path pointer-events="none" fill="none" stroke="white" stroke-width="1.5" d="M0,-3.0v7 M-2.5,-0.5L0,-3.0L2.5,-0.5"/>
  </g>
  <g id="arrowLeft" transform="rotate(270) translate(-36 17)">
    <use xlink:href="#rim"/>
    <path pointer-events="none" fill="none" stroke="white" stroke-width="1.5" d="M0,-3.0v7 M-2.5,-0.5L0,-3.0L2.5,-0.5"/>
  </g>
  <g id="resetDef">
    <use xlink:href="#rim2" fill="#404040"><set attributeName="fill" to="#808080" begin="reset.mouseover" end="reset.mouseout"/></use>
  </g>
</defs>
<script type="application/ecmascript">
var viewWidth = 677;
var viewHeight = 471;
var sectionId = 'dynsection-9';
</script>
<script type="application/ecmascript" xlink:href="svg.min.js"/>
<svg id="graph" class="graph">
<g id="viewport">
<title>dirlink</title>
<!-- Node1 -->
<g id="Node000001" class="node">
<title>Node1</title>
<g id="a_Node000001"><a xlink:title=" ">
<polygon fill="#999999" stroke="#666666" points="47,-209 0,-209 0,-190 47,-190 47,-209"/>
<text text-anchor="middle" x="23.5" y="-197" font-family="Helvetica,sans-Serif" font-size="10.00">dirlink</text>
</a>
</g>
</g>
<!-- Node2 -->
<g id="Node000002" class="node">
<title>Node2</title>
<g id="a_Node000002"><a xlink:href="fs_8c.html#a5341068f021beac8cf0032b97d231e6f" target="_top" xlink:title=" ">
<polygon fill="white" stroke="#666666" points="145,-266 83,-266 83,-247 145,-247 145,-266"/>
<text text-anchor="middle" x="114" y="-254" font-family="Helvetica,sans-Serif" font-size="10.00">dirlookup</text>
</a>
</g>
</g>
<!-- Node1&#45;&gt;Node2 -->
<g id="edge1_Node000001_Node000002" class="edge">
<title>Node1&#45;&gt;Node2</title>
<g id="a_edge1_Node000001_Node000002"><a xlink:title=" ">
<path fill="none" stroke="#63b8ff" d="M39.51,-209.17C53.2,-217.98 73.64,-231.15 89.49,-241.36"/>
<polygon fill="#63b8ff" stroke="#63b8ff" points="87.91,-244.5 98.21,-246.97 91.7,-238.62 87.91,-244.5"/>
</a>
</g>
</g>
<!-- Node5 -->
<g id="Node000005" class="node">
<title>Node5</title>
<g id="a_Node000005"><a xlink:href="fs_8c.html#a3aba1fa9f6789d09356aec5b96d91fa8" target="_top" xlink:title=" ">
<polygon fill="white" stroke="#666666" points="234,-190 193,-190 193,-171 234,-171 234,-190"/>
<text text-anchor="middle" x="213.5" y="-178" font-family="Helvetica,sans-Serif" font-size="10.00">readi</text>
</a>
</g>
</g>
<!-- Node1&#45;&gt;Node5 -->
<g id="edge33_Node000001_Node000005" class="edge">
<title>Node1&#45;&gt;Node5</title>
<g id="a_edge33_Node000001_Node000005"><a xlink:title=" ">
<path fill="none" stroke="#63b8ff" d="M47.18,-197.21C81.04,-193.79 144.87,-187.33 182.54,-183.53"/>
<polygon fill="#63b8ff" stroke="#63b8ff" points="183.28,-186.97 192.88,-182.48 182.58,-180.01 183.28,-186.97"/>
</a>
</g>
</g>
<!-- Node13 -->
<g id="Node000013" class="node">
<title>Node13</title>
<g id="a_Node000013"><a xlink:href="fs_8c.html#ab3c447f135c68e4c3c1f8d5866f6e77b" target="_top" xlink:title=" ">
<polygon fill="white" stroke="#666666" points="321.5,-228 286.5,-228 286.5,-209 321.5,-209 321.5,-228"/>
<text text-anchor="middle" x="304" y="-216" font-family="Helvetica,sans-Serif" font-size="10.00">iput</text>
</a>
</g>
</g>
<!-- Node1&#45;&gt;Node13 -->
<g id="edge20_Node000001_Node000013" class="edge">
<title>Node1&#45;&gt;Node13</title>
<g id="a_edge20_Node000001_Node000013"><a xlink:title=" ">
<path fill="none" stroke="#63b8ff" d="M47.27,-201.56C58.09,-202.51 71.21,-203.62 83,-204.5 152.72,-209.7 234.96,-214.61 276.35,-216.99"/>
<polygon fill="#63b8ff" stroke="#63b8ff" points="276.25,-220.49 286.43,-217.57 276.65,-213.5 276.25,-220.49"/>
</a>
</g>
</g>
<!-- Node17 -->
<g id="Node000017" class="node">
<title>Node17</title>
<g id="a_Node000017"><a xlink:href="fs_8c.html#a15858f4d8a4cc1def3d84d03c312836b" target="_top" xlink:title=" ">
<polygon fill="white" stroke="#666666" points="235.5,-123 191.5,-123 191.5,-104 235.5,-104 235.5,-123"/>
<text text-anchor="middle" x="213.5" y="-111" font-family="Helvetica,sans-Serif" font-size="10.00">writei</text>
</a>
</g>
</g>
<!-- Node1&#45;&gt;Node17 -->
<g id="edge34_Node000001_Node000017" class="edge">
<title>Node1&#45;&gt;Node17</title>
<g id="a_edge34_Node000001_Node000017"><a xlink:title=" ">
<path fill="none" stroke="#63b8ff" d="M45.34,-189.97C78.65,-174.73 144.05,-144.81 182.43,-127.26"/>
<polygon fill="#63b8ff" stroke="#63b8ff" points="183.93,-130.42 191.57,-123.07 181.02,-124.05 183.93,-130.42"/>
</a>
</g>
</g>
<!-- Node3 -->
<g id="Node000003" class="node">
<title>Node3</title>
<g id="a_Node000003"><a xlink:href="fs_8c.html#aa574143402896986fe315a0c2749fffa" target="_top" xlink:title=" ">
<polygon fill="white" stroke="#666666" points="231,-266 196,-266 196,-247 231,-247 231,-266"/>
<text text-anchor="middle" x="213.5" y="-254" font-family="Helvetica,sans-Serif" font-size="10.00">iget</text>
</a>
</g>
</g>
<!-- Node2&#45;&gt;Node3 -->
<g id="edge2_Node000002_Node000003" class="edge">
<title>Node2&#45;&gt;Node3</title>
<g id="a_edge2_Node000002_Node000003"><a xlink:title=" ">
<path fill="none" stroke="#63b8ff" d="M145.05,-256.5C157.95,-256.5 172.9,-256.5 185.45,-256.5"/>
<polygon fill="#63b8ff" stroke="#63b8ff" points="185.74,-260 195.74,-256.5 185.74,-253 185.74,-260"/>
</a>
</g>
</g>
<!-- Node4 -->
<g id="Node000004" class="node">
<title>Node4</title>
<g id="a_Node000004"><a xlink:href="fs_8c.html#ae74f6e5b19a4e7f3e72807ee67141819" target="_top" xlink:title=" ">
<polygon fill="white" stroke="#666666" points="246,-303 181,-303 181,-284 246,-284 246,-303"/>
<text text-anchor="middle" x="213.5" y="-291" font-family="Helvetica,sans-Serif" font-size="10.00">namecmp</text>
</a>
</g>
</g>
<!-- Node2&#45;&gt;Node4 -->
<g id="edge3_Node000002_Node000004" class="edge">
<title>Node2&#45;&gt;Node4</title>
<g id="a_edge3_Node000002_Node000004"><a xlink:title=" ">
<path fill="none" stroke="#63b8ff" d="M140.11,-266.03C151.51,-270.35 165.18,-275.54 177.56,-280.24"/>
<polygon fill="#63b8ff" stroke="#63b8ff" points="176.55,-283.6 187.14,-283.88 179.03,-277.05 176.55,-283.6"/>
</a>
</g>
</g>
<!-- Node2&#45;&gt;Node5 -->
<g id="edge4_Node000002_Node000005" class="edge">
<title>Node2&#45;&gt;Node5</title>
<g id="a_edge4_Node000002_Node000005"><a xlink:title=" ">
<path fill="none" stroke="#63b8ff" d="M127.35,-246.87C143.69,-234.14 172.69,-211.53 192.26,-196.28"/>
<polygon fill="#63b8ff" stroke="#63b8ff" points="194.52,-198.96 200.25,-190.05 190.21,-193.43 194.52,-198.96"/>
</a>
</g>
</g>
<!-- Node6 -->
<g id="Node000006" class="node">
<title>Node6</title>
<g id="a_Node000006"><a xlink:href="fs_8c.html#a965e83e1fa9b15abf268784ce74181bb" target="_top" xlink:title=" ">
<polygon fill="white" stroke="#666666" points="326,-114 282,-114 282,-95 326,-95 326,-114"/>
<text text-anchor="middle" x="304" y="-102" font-family="Helvetica,sans-Serif" font-size="10.00">bmap</text>
</a>
</g>
</g>
<!-- Node5&#45;&gt;Node6 -->
<g id="edge5_Node000005_Node000006" class="edge">
<title>Node5&#45;&gt;Node6</title>
<g id="a_edge5_Node000005_Node000006"><a xlink:title=" ">
<path fill="none" stroke="#63b8ff" d="M225.71,-170.87C240.34,-158.31 266.16,-136.13 283.91,-120.9"/>
<polygon fill="#63b8ff" stroke="#63b8ff" points="286.58,-123.22 291.88,-114.05 282.02,-117.91 286.58,-123.22"/>
</a>
</g>
</g>
<!-- Node8 -->
<g id="Node000008" class="node">
<title>Node8</title>
<g id="a_Node000008"><a xlink:href="bio_8c.html#a30b8d2ef2300ed8e3d879a428fe39898" target="_top" xlink:title=" ">
<polygon fill="white" stroke="#666666" points="586,-133 542,-133 542,-114 586,-114 586,-133"/>
<text text-anchor="middle" x="564" y="-121" font-family="Helvetica,sans-Serif" font-size="10.00">bread</text>
</a>
</g>
</g>
<!-- Node5&#45;&gt;Node8 -->
<g id="edge18_Node000005_Node000008" class="edge">
<title>Node5&#45;&gt;Node8</title>
<g id="a_edge18_Node000005_Node000008"><a xlink:title=" ">
<path fill="none" stroke="#63b8ff" d="M234.24,-177.27C292.03,-167.82 461.27,-140.14 531.69,-128.62"/>
<polygon fill="#63b8ff" stroke="#63b8ff" points="532.42,-132.05 541.73,-126.98 531.29,-125.14 532.42,-132.05"/>
</a>
</g>
</g>
<!-- Node10 -->
<g id="Node000010" class="node">
<title>Node10</title>
<g id="a_Node000010"><a xlink:href="bio_8c.html#ab5335aeb503731104314321a78a6d727" target="_top" xlink:title=" ">
<polygon fill="white" stroke="#666666" points="587.5,-303 540.5,-303 540.5,-284 587.5,-284 587.5,-303"/>
<text text-anchor="middle" x="564" y="-291" font-family="Helvetica,sans-Serif" font-size="10.00">brelse</text>
</a>
</g>
</g>
<!-- Node5&#45;&gt;Node10 -->
<g id="edge19_Node000005_Node000010" class="edge">
<title>Node5&#45;&gt;Node10</title>
<g id="a_edge19_Node000005_Node000010"><a xlink:title=" ">
<path fill="none" stroke="#63b8ff" d="M221.05,-190.33C228.22,-201.53 239.55,-220.61 246,-238.5 274.1,-316.48 217.98,-368.85 282,-421.5 355.8,-482.2 415.41,-471.23 497,-421.5 536,-397.73 552.95,-342.71 559.46,-313.14"/>
<polygon fill="#63b8ff" stroke="#63b8ff" points="562.92,-313.67 561.46,-303.17 556.06,-312.29 562.92,-313.67"/>
</a>
</g>
</g>
<!-- Node7 -->
<g id="Node000007" class="node">
<title>Node7</title>
<g id="a_Node000007"><a xlink:href="fs_8c.html#a29272227722d57ff937caaffd03455a9" target="_top" xlink:title=" ">
<polygon fill="white" stroke="#666666" points="408,-76 362,-76 362,-57 408,-57 408,-76"/>
<text text-anchor="middle" x="385" y="-64" font-family="Helvetica,sans-Serif" font-size="10.00">balloc</text>
</a>
</g>
</g>
<!-- Node6&#45;&gt;Node7 -->
<g id="edge6_Node000006_Node000007" class="edge">
<title>Node6&#45;&gt;Node7</title>
<g id="a_edge6_Node000006_Node000007"><a xlink:title=" ">
<path fill="none" stroke="#63b8ff" d="M324.94,-94.91C334.01,-90.55 344.93,-85.29 354.9,-80.5"/>
<polygon fill="#63b8ff" stroke="#63b8ff" points="356.58,-83.57 364.07,-76.09 353.54,-77.27 356.58,-83.57"/>
</a>
</g>
</g>
<!-- Node6&#45;&gt;Node8 -->
<g id="edge15_Node000006_Node000008" class="edge">
<title>Node6&#45;&gt;Node8</title>
<g id="a_edge15_Node000006_Node000008"><a xlink:title=" ">
<path fill="none" stroke="#63b8ff" d="M326.11,-106.05C371.49,-109.4 478.49,-117.28 531.75,-121.2"/>
<polygon fill="#63b8ff" stroke="#63b8ff" points="531.73,-124.71 541.96,-121.95 532.24,-117.73 531.73,-124.71"/>
</a>
</g>
</g>
<!-- Node6&#45;&gt;Node10 -->
<g id="edge16_Node000006_Node000010" class="edge">
<title>Node6&#45;&gt;Node10</title>
<g id="a_edge16_Node000006_Node000010"><a xlink:title=" ">
<path fill="none" stroke="#63b8ff" d="M307.29,-114.24C315.01,-146.52 340.81,-249.37 362,-275.5 402.11,-324.96 434.76,-336.98 497,-323.5 511.27,-320.41 526.16,-313.96 538.17,-307.83"/>
<polygon fill="#63b8ff" stroke="#63b8ff" points="539.95,-310.85 547.13,-303.05 536.66,-304.67 539.95,-310.85"/>
</a>
</g>
</g>
<!-- Node12 -->
<g id="Node000012" class="node">
<title>Node12</title>
<g id="a_Node000012"><a xlink:href="log_8c.html#a7eacb0fbebe5ce4c7d3ddea15908b13d" target="_top" xlink:title=" ">
<polygon fill="white" stroke="#666666" points="595,-19 533,-19 533,0 595,0 595,-19"/>
<text text-anchor="middle" x="564" y="-7" font-family="Helvetica,sans-Serif" font-size="10.00">log_write</text>
</a>
</g>
</g>
<!-- Node6&#45;&gt;Node12 -->
<g id="edge17_Node000006_Node000012" class="edge">
<title>Node6&#45;&gt;Node12</title>
<g id="a_edge17_Node000006_Node000012"><a xlink:title=" ">
<path fill="none" stroke="#63b8ff" d="M312.44,-94.67C322.43,-82.08 341.33,-60.38 362,-47.5 411.43,-16.7 480,-9.77 522.92,-8.76"/>
<polygon fill="#63b8ff" stroke="#63b8ff" points="523.03,-12.26 532.98,-8.62 522.94,-5.26 523.03,-12.26"/>
</a>
</g>
</g>
<!-- Node7&#45;&gt;Node8 -->
<g id="edge7_Node000007_Node000008" class="edge">
<title>Node7&#45;&gt;Node8</title>
<g id="a_edge7_Node000007_Node000008"><a xlink:title=" ">
<path fill="none" stroke="#63b8ff" d="M404.93,-56.84C427.73,-46.61 466.76,-33.71 497,-47.5 522.74,-59.24 542.32,-86.53 553.24,-105"/>
<polygon fill="#63b8ff" stroke="#63b8ff" points="550.32,-106.96 558.27,-113.97 556.43,-103.53 550.32,-106.96"/>
</a>
</g>
</g>
<!-- Node7&#45;&gt;Node10 -->
<g id="edge9_Node000007_Node000010" class="edge">
<title>Node7&#45;&gt;Node10</title>
<g id="a_edge9_Node000007_Node000010"><a xlink:title=" ">
<path fill="none" stroke="#63b8ff" d="M386.73,-76.25C389.34,-104.51 400.5,-187.55 444,-236.5 466.94,-262.31 504.12,-277.49 530.82,-285.61"/>
<polygon fill="#63b8ff" stroke="#63b8ff" points="529.91,-288.99 540.49,-288.38 531.84,-282.26 529.91,-288.99"/>
</a>
</g>
</g>
<!-- Node11 -->
<g id="Node000011" class="node">
<title>Node11</title>
<g id="a_Node000011"><a xlink:href="fs_8c.html#ac93f607f4a954323f4c9ea485ca88538" target="_top" xlink:title=" ">
<polygon fill="white" stroke="#666666" points="492.5,-76 448.5,-76 448.5,-57 492.5,-57 492.5,-76"/>
<text text-anchor="middle" x="470.5" y="-64" font-family="Helvetica,sans-Serif" font-size="10.00">bzero</text>
</a>
</g>
</g>
<!-- Node7&#45;&gt;Node11 -->
<g id="edge10_Node000007_Node000011" class="edge">
<title>Node7&#45;&gt;Node11</title>
<g id="a_edge10_Node000007_Node000011"><a xlink:title=" ">
<path fill="none" stroke="#63b8ff" d="M408.38,-66.5C417.53,-66.5 428.28,-66.5 438.19,-66.5"/>
<polygon fill="#63b8ff" stroke="#63b8ff" points="438.5,-70 448.5,-66.5 438.5,-63 438.5,-70"/>
</a>
</g>
</g>
<!-- Node7&#45;&gt;Node12 -->
<g id="edge14_Node000007_Node000012" class="edge">
<title>Node7&#45;&gt;Node12</title>
<g id="a_edge14_Node000007_Node000012"><a xlink:title=" ">
<path fill="none" stroke="#63b8ff" d="M403.35,-56.93C414.67,-50.99 429.9,-43.56 444,-38.5 469.63,-29.31 499.39,-22.05 522.74,-17.1"/>
<polygon fill="#63b8ff" stroke="#63b8ff" points="523.57,-20.51 532.65,-15.06 522.15,-13.65 523.57,-20.51"/>
</a>
</g>
</g>
<!-- Node9 -->
<g id="Node000009" class="node">
<title>Node9</title>
<g id="a_Node000009"><a xlink:href="bio_8c.html#a69dcd3ce86d958b4024c6746263f3f5b" target="_top" xlink:title=" ">
<polygon fill="white" stroke="#666666" points="669,-133 631,-133 631,-114 669,-114 669,-133"/>
<text text-anchor="middle" x="650" y="-121" font-family="Helvetica,sans-Serif" font-size="10.00">bget</text>
</a>
</g>
</g>
<!-- Node8&#45;&gt;Node9 -->
<g id="edge8_Node000008_Node000009" class="edge">
<title>Node8&#45;&gt;Node9</title>
<g id="a_edge8_Node000008_Node000009"><a xlink:title=" ">
<path fill="none" stroke="#63b8ff" d="M586.2,-123.5C596.66,-123.5 609.42,-123.5 620.7,-123.5"/>
<polygon fill="#63b8ff" stroke="#63b8ff" points="620.94,-127 630.94,-123.5 620.94,-120 620.94,-127"/>
</a>
</g>
</g>
<!-- Node11&#45;&gt;Node8 -->
<g id="edge11_Node000011_Node000008" class="edge">
<title>Node11&#45;&gt;Node8</title>
<g id="a_edge11_Node000011_Node000008"><a xlink:title=" ">
<path fill="none" stroke="#63b8ff" d="M487.02,-76.17C501.3,-85.07 522.7,-98.4 539.15,-108.64"/>
<polygon fill="#63b8ff" stroke="#63b8ff" points="537.37,-111.66 547.71,-113.97 541.07,-105.72 537.37,-111.66"/>
</a>
</g>
</g>
<!-- Node11&#45;&gt;Node10 -->
<g id="edge12_Node000011_Node000010" class="edge">
<title>Node11&#45;&gt;Node10</title>
<g id="a_edge12_Node000011_Node000010"><a xlink:title=" ">
<path fill="none" stroke="#63b8ff" d="M475.43,-76.25C489.36,-110.82 536.54,-227.86 555.26,-274.29"/>
<polygon fill="#63b8ff" stroke="#63b8ff" points="552.1,-275.82 559.08,-283.78 558.59,-273.2 552.1,-275.82"/>
</a>
</g>
</g>
<!-- Node11&#45;&gt;Node12 -->
<g id="edge13_Node000011_Node000012" class="edge">
<title>Node11&#45;&gt;Node12</title>
<g id="a_edge13_Node000011_Node000012"><a xlink:title=" ">
<path fill="none" stroke="#63b8ff" d="M487.02,-56.83C501.3,-47.93 522.7,-34.6 539.15,-24.36"/>
<polygon fill="#63b8ff" stroke="#63b8ff" points="541.07,-27.28 547.71,-19.03 537.37,-21.34 541.07,-27.28"/>
</a>
</g>
</g>
<!-- Node14 -->
<g id="Node000014" class="node">
<title>Node14</title>
<g id="a_Node000014"><a xlink:href="fs_8c.html#a7c42ba96035fb59aef87372552b1a661" target="_top" xlink:title=" ">
<polygon fill="white" stroke="#666666" points="407,-266 363,-266 363,-247 407,-247 407,-266"/>
<text text-anchor="middle" x="385" y="-254" font-family="Helvetica,sans-Serif" font-size="10.00">itrunc</text>
</a>
</g>
</g>
<!-- Node13&#45;&gt;Node14 -->
<g id="edge21_Node000013_Node000014" class="edge">
<title>Node13&#45;&gt;Node14</title>
<g id="a_edge21_Node000013_Node000014"><a xlink:title=" ">
<path fill="none" stroke="#63b8ff" d="M321.75,-226.56C331.45,-231.22 343.92,-237.22 355.15,-242.62"/>
<polygon fill="#63b8ff" stroke="#63b8ff" points="353.67,-245.79 364.2,-246.98 356.7,-239.49 353.67,-245.79"/>
</a>
</g>
</g>
<!-- Node16 -->
<g id="Node000016" class="node">
<title>Node16</title>
<g id="a_Node000016"><a xlink:href="fs_8c.html#a7220afa8e5f4bea540eb95879ea7df6e" target="_top" xlink:title=" ">
<polygon fill="white" stroke="#666666" points="497,-190 444,-190 444,-171 497,-171 497,-190"/>
<text text-anchor="middle" x="470.5" y="-178" font-family="Helvetica,sans-Serif" font-size="10.00">iupdate</text>
</a>
</g>
</g>
<!-- Node13&#45;&gt;Node16 -->
<g id="edge32_Node000013_Node000016" class="edge">
<title>Node13&#45;&gt;Node16</title>
<g id="a_edge32_Node000013_Node000016"><a xlink:title=" ">
<path fill="none" stroke="#63b8ff" d="M321.68,-214.65C347.92,-208.59 399.44,-196.68 434.17,-188.66"/>
<polygon fill="#63b8ff" stroke="#63b8ff" points="434.97,-192.07 443.93,-186.41 433.4,-185.25 434.97,-192.07"/>
</a>
</g>
</g>
<!-- Node14&#45;&gt;Node8 -->
<g id="edge26_Node000014_Node000008" class="edge">
<title>Node14&#45;&gt;Node8</title>
<g id="a_edge26_Node000014_Node000008"><a xlink:title=" ">
<path fill="none" stroke="#63b8ff" d="M407.2,-257.72C431.13,-258.04 470.2,-255.24 497,-236.5 529.75,-213.6 548.65,-168.83 557.27,-143.05"/>
<polygon fill="#63b8ff" stroke="#63b8ff" points="560.68,-143.87 560.35,-133.28 554.01,-141.77 560.68,-143.87"/>
</a>
</g>
</g>
<!-- Node14&#45;&gt;Node10 -->
<g id="edge27_Node000014_Node000010" class="edge">
<title>Node14&#45;&gt;Node10</title>
<g id="a_edge27_Node000014_Node000010"><a xlink:title=" ">
<path fill="none" stroke="#63b8ff" d="M393.32,-266.31C403.22,-278.67 422.17,-299.27 444,-307.5 471.93,-318.03 505.94,-312.36 530.44,-305.34"/>
<polygon fill="#63b8ff" stroke="#63b8ff" points="531.79,-308.58 540.31,-302.29 529.72,-301.9 531.79,-308.58"/>
</a>
</g>
</g>
<!-- Node15 -->
<g id="Node000015" class="node">
<title>Node15</title>
<g id="a_Node000015"><a xlink:href="fs_8c.html#a2800a4b570ae39363cec0613dac92fd7" target="_top" xlink:title=" ">
<polygon fill="white" stroke="#666666" points="491.5,-227 449.5,-227 449.5,-208 491.5,-208 491.5,-227"/>
<text text-anchor="middle" x="470.5" y="-215" font-family="Helvetica,sans-Serif" font-size="10.00">bfree</text>
</a>
</g>
</g>
<!-- Node14&#45;&gt;Node15 -->
<g id="edge22_Node000014_Node000015" class="edge">
<title>Node14&#45;&gt;Node15</title>
<g id="a_edge22_Node000014_Node000015"><a xlink:title=" ">
<path fill="none" stroke="#63b8ff" d="M406.64,-246.86C416.73,-242.15 429.04,-236.4 440.09,-231.24"/>
<polygon fill="#63b8ff" stroke="#63b8ff" points="441.81,-234.3 449.39,-226.89 438.84,-227.96 441.81,-234.3"/>
</a>
</g>
</g>
<!-- Node14&#45;&gt;Node16 -->
<g id="edge28_Node000014_Node000016" class="edge">
<title>Node14&#45;&gt;Node16</title>
<g id="a_edge28_Node000014_Node000016"><a xlink:title=" ">
<path fill="none" stroke="#63b8ff" d="M395.07,-246.81C406.18,-235.13 425.78,-215.12 444,-199.5 445.3,-198.39 446.65,-197.27 448.03,-196.16"/>
<polygon fill="#63b8ff" stroke="#63b8ff" points="450.21,-198.9 456,-190.03 445.94,-193.35 450.21,-198.9"/>
</a>
</g>
</g>
<!-- Node15&#45;&gt;Node8 -->
<g id="edge23_Node000015_Node000008" class="edge">
<title>Node15&#45;&gt;Node8</title>
<g id="a_edge23_Node000015_Node000008"><a xlink:title=" ">
<path fill="none" stroke="#63b8ff" d="M486.26,-207.99C489.9,-205.4 493.7,-202.48 497,-199.5 517.12,-181.3 537.11,-157.23 549.73,-141.09"/>
<polygon fill="#63b8ff" stroke="#63b8ff" points="552.61,-143.09 555.93,-133.04 547.06,-138.82 552.61,-143.09"/>
</a>
</g>
</g>
<!-- Node15&#45;&gt;Node10 -->
<g id="edge24_Node000015_Node000010" class="edge">
<title>Node15&#45;&gt;Node10</title>
<g id="a_edge24_Node000015_Node000010"><a xlink:title=" ">
<path fill="none" stroke="#63b8ff" d="M483.09,-227.13C498.35,-239.8 525.4,-262.27 543.76,-277.52"/>
<polygon fill="#63b8ff" stroke="#63b8ff" points="541.58,-280.26 551.51,-283.95 546.05,-274.87 541.58,-280.26"/>
</a>
</g>
</g>
<!-- Node15&#45;&gt;Node12 -->
<g id="edge25_Node000015_Node000012" class="edge">
<title>Node15&#45;&gt;Node12</title>
<g id="a_edge25_Node000015_Node000012"><a xlink:title=" ">
<path fill="none" stroke="#63b8ff" d="M488.45,-207.8C491.61,-205.4 494.65,-202.62 497,-199.5 507.65,-185.36 542.84,-74.41 557.01,-28.89"/>
<polygon fill="#63b8ff" stroke="#63b8ff" points="560.44,-29.64 560.06,-19.05 553.75,-27.57 560.44,-29.64"/>
</a>
</g>
</g>
<!-- Node16&#45;&gt;Node8 -->
<g id="edge29_Node000016_Node000008" class="edge">
<title>Node16&#45;&gt;Node8</title>
<g id="a_edge29_Node000016_Node000008"><a xlink:title=" ">
<path fill="none" stroke="#63b8ff" d="M487.02,-170.83C501.3,-161.93 522.7,-148.6 539.15,-138.36"/>
<polygon fill="#63b8ff" stroke="#63b8ff" points="541.07,-141.28 547.71,-133.03 537.37,-135.34 541.07,-141.28"/>
</a>
</g>
</g>
<!-- Node16&#45;&gt;Node10 -->
<g id="edge30_Node000016_Node000010" class="edge">
<title>Node16&#45;&gt;Node10</title>
<g id="a_edge30_Node000016_Node000010"><a xlink:title=" ">
<path fill="none" stroke="#63b8ff" d="M485.92,-190C489.73,-192.83 493.69,-196.1 497,-199.5 519.93,-223.09 540.72,-255.32 552.6,-275.25"/>
<polygon fill="#63b8ff" stroke="#63b8ff" points="549.62,-277.09 557.69,-283.96 555.67,-273.56 549.62,-277.09"/>
</a>
</g>
</g>
<!-- Node16&#45;&gt;Node12 -->
<g id="edge31_Node000016_Node000012" class="edge">
<title>Node16&#45;&gt;Node12</title>
<g id="a_edge31_Node000016_Node000012"><a xlink:title=" ">
<path fill="none" stroke="#63b8ff" d="M476.68,-170.82C491.4,-143.31 533.66,-64.33 553.05,-28.09"/>
<polygon fill="#63b8ff" stroke="#63b8ff" points="556.24,-29.55 557.88,-19.08 550.07,-26.24 556.24,-29.55"/>
</a>
</g>
</g>
<!-- Node17&#45;&gt;Node6 -->
<g id="edge35_Node000017_Node000006" class="edge">
<title>Node17&#45;&gt;Node6</title>
<g id="a_edge35_Node000017_Node000006"><a xlink:title=" ">
<path fill="none" stroke="#63b8ff" d="M235.92,-111.32C246.69,-110.23 259.93,-108.88 271.8,-107.67"/>
<polygon fill="#63b8ff" stroke="#63b8ff" points="272.18,-111.15 281.77,-106.66 271.47,-104.19 272.18,-111.15"/>
</a>
</g>
</g>
<!-- Node17&#45;&gt;Node8 -->
<g id="edge36_Node000017_Node000008" class="edge">
<title>Node17&#45;&gt;Node8</title>
<g id="a_edge36_Node000017_Node000008"><a xlink:title=" ">
<path fill="none" stroke="#63b8ff" d="M227.52,-103.84C268.82,-74.45 399.92,9.03 497,-38.5 524.98,-52.2 544.51,-84.1 554.72,-104.69"/>
<polygon fill="#63b8ff" stroke="#63b8ff" points="551.57,-106.2 558.99,-113.76 557.9,-103.22 551.57,-106.2"/>
</a>
</g>
</g>
<!-- Node17&#45;&gt;Node10 -->
<g id="edge37_Node000017_Node000010" class="edge">
<title>Node17&#45;&gt;Node10</title>
<g id="a_edge37_Node000017_Node000010"><a xlink:title=" ">
<path fill="none" stroke="#63b8ff" d="M221.14,-123.04C227.78,-132.76 238.11,-148.37 246,-162.5 264.03,-194.78 259.84,-207.9 282,-237.5 310.67,-275.79 321.02,-284.83 362,-309.5 414.66,-341.19 438.36,-357.92 497,-339.5 515.41,-333.72 533.16,-320.78 545.61,-310.1"/>
<polygon fill="#63b8ff" stroke="#63b8ff" points="548.22,-312.46 553.33,-303.18 543.55,-307.25 548.22,-312.46"/>
</a>
</g>
</g>
<!-- Node17&#45;&gt;Node12 -->
<g id="edge39_Node000017_Node000012" class="edge">
<title>Node17&#45;&gt;Node12</title>
<g id="a_edge39_Node000017_Node000012"><a xlink:title=" ">
<path fill="none" stroke="#63b8ff" d="M221.64,-103.72C232.85,-89.07 256,-61.56 282,-46.5 358.16,-2.38 465.07,-1.85 522.58,-5.54"/>
<polygon fill="#63b8ff" stroke="#63b8ff" points="522.51,-9.04 532.73,-6.27 523.01,-2.06 522.51,-9.04"/>
</a>
</g>
</g>
<!-- Node17&#45;&gt;Node16 -->
<g id="edge38_Node000017_Node000016" class="edge">
<title>Node17&#45;&gt;Node16</title>
<g id="a_edge38_Node000017_Node000016"><a xlink:title=" ">
<path fill="none" stroke="#63b8ff" d="M235.8,-119.1C279.66,-130.62 380.42,-157.09 434.19,-171.22"/>
<polygon fill="#63b8ff" stroke="#63b8ff" points="433.41,-174.64 443.97,-173.79 435.19,-167.87 433.41,-174.64"/>
</a>
</g>
</g>
</g>
</svg>

<g id="navigator" transform="translate(0 0)" fill="#404254">
  <rect fill="#f2f5e9" fill-opacity="0.5" stroke="#606060" stroke-width=".5" x="0" y="0" width="60" height="60"/>
  <use id="zoomplus" xlink:href="#zoomPlus" x="17" y="9" onmousedown="handleZoom(evt,'in')"/>
  <use id="zoomminus" xlink:href="#zoomMin" x="42" y="9" onmousedown="handleZoom(evt,'out')"/>
  <use id="reset" xlink:href="#resetDef" x="30" y="36" onmousedown="handleReset()"/>
   <use id="arrowup" xlink:href="#arrowUp" x="0" y="0" onmousedown="handlePan(0,-1)"/>
  <use id="arrowright" xlink:href="#arrowRight" x="0" y="0" onmousedown="handlePan(1,0)"/>
  <use id="arrowdown" xlink:href="#arrowDown" x="0" y="0" onmousedown="handlePan(0,1)"/>
  <use id="arrowleft" xlink:href="#arrowLeft" x="0" y="0" onmousedown="handlePan(-1,0)"/>
</g>
<svg viewBox="0 0 15 15" width="100%" height="30px" preserveAspectRatio="xMaxYMin meet">
 <g id="arrow_out" transform="scale(0.3 0.3)">
  <a xlink:href="fs_8c_a69a135a0e8a06d9f306d77ebc0c1f7a0_cgraph_org.svg" target="_base">
   <rect id="button" ry="5" rx="5" y="6" x="6" height="38" width="38"
        fill="#f2f5e9" fill-opacity="0.5" stroke="#606060" stroke-width="1.0"/>
   <path id="arrow"
     d="M 11.500037,31.436501 C 11.940474,20.09759 22.043105,11.32322 32.158766,21.979434 L 37.068811,17.246167 C 37.068811,17.246167 37.088388,32 37.088388,32 L 22.160133,31.978069 C 22.160133,31.978069 26.997745,27.140456 26.997745,27.140456 C 18.528582,18.264221 13.291696,25.230495 11.500037,31.436501 z"
     style="fill:#404040;"/>
  </a>
 </g>
</svg>

<style type='text/css'>
<![CDATA[
[data-mouse-over-selected='false'] { opacity: 0.7; }
[data-mouse-over-selected='true']  { opacity: 1.0; }
]]>
</style>
<script type="application/ecmascript"><![CDATA[
document.addEventListener('DOMContentLoaded', (event) => {
  highlightEdges();
  highlightAdjacentNodes();
});
]]></script>
</svg>
