<?xml version="1.0" encoding="UTF-8" standalone="no"?>
<!DOCTYPE svg PUBLIC "-//W3C//DTD SVG 1.1//EN"
 "http://www.w3.org/Graphics/SVG/1.1/DTD/svg11.dtd">
<!-- Generated by graphviz version 2.43.0 (0)
 -->
<!-- Title: iupdate Pages: 1 -->
<svg width="538pt" height="176pt"
 viewBox="0.00 0.00 538.00 176.00" xmlns="http://www.w3.org/2000/svg" xmlns:xlink="http://www.w3.org/1999/xlink">
<g id="graph0" class="graph" transform="scale(1 1) rotate(0) translate(4 172)">
<title>iupdate</title>
<!-- Node1 -->
<g id="Node000001" class="node">
<title>Node1</title>
<g id="a_Node000001"><a xlink:title=" ">
<polygon fill="#999999" stroke="#666666" points="530,-75 477,-75 477,-56 530,-56 530,-75"/>
<text text-anchor="middle" x="503.5" y="-63" font-family="Helvetica,sans-Serif" font-size="10.00">iupdate</text>
</a>
</g>
</g>
<!-- Node2 -->
<g id="Node000002" class="node">
<title>Node2</title>
<g id="a_Node000002"><a xlink:href="fs_8c.html#ab3c447f135c68e4c3c1f8d5866f6e77b" target="_top" xlink:title=" ">
<polygon fill="white" stroke="#666666" points="350.5,-113 315.5,-113 315.5,-94 350.5,-94 350.5,-113"/>
<text text-anchor="middle" x="333" y="-101" font-family="Helvetica,sans-Serif" font-size="10.00">iput</text>
</a>
</g>
</g>
<!-- Node1&#45;&gt;Node2 -->
<g id="edge1_Node000001_Node000002" class="edge">
<title>Node1&#45;&gt;Node2</title>
<g id="a_edge1_Node000001_Node000002"><a xlink:title=" ">
<path fill="none" stroke="#63b8ff" d="M467.23,-76.48C458.69,-78.95 449.55,-81.45 441,-83.5 409.39,-91.06 371.95,-97.49 350.79,-100.9"/>
<polygon fill="#63b8ff" stroke="#63b8ff" points="468.33,-79.8 476.92,-73.61 466.34,-73.09 468.33,-79.8"/>
</a>
</g>
</g>
<!-- Node9 -->
<g id="Node000009" class="node">
<title>Node9</title>
<g id="a_Node000009"><a xlink:href="fs_8c.html#a7c42ba96035fb59aef87372552b1a661" target="_top" xlink:title=" ">
<polygon fill="white" stroke="#666666" points="441,-75 397,-75 397,-56 441,-56 441,-75"/>
<text text-anchor="middle" x="419" y="-63" font-family="Helvetica,sans-Serif" font-size="10.00">itrunc</text>
</a>
</g>
</g>
<!-- Node1&#45;&gt;Node9 -->
<g id="edge10_Node000001_Node000009" class="edge">
<title>Node1&#45;&gt;Node9</title>
<g id="a_edge10_Node000001_Node000009"><a xlink:title=" ">
<path fill="none" stroke="#63b8ff" d="M466.84,-65.5C458.1,-65.5 449.02,-65.5 441.2,-65.5"/>
<polygon fill="#63b8ff" stroke="#63b8ff" points="466.85,-69 476.85,-65.5 466.85,-62 466.85,-69"/>
</a>
</g>
</g>
<!-- Node10 -->
<g id="Node000010" class="node">
<title>Node10</title>
<g id="a_Node000010"><a xlink:href="fs_8c.html#a15858f4d8a4cc1def3d84d03c312836b" target="_top" xlink:title=" ">
<polygon fill="white" stroke="#666666" points="441,-38 397,-38 397,-19 441,-19 441,-38"/>
<text text-anchor="middle" x="419" y="-26" font-family="Helvetica,sans-Serif" font-size="10.00">writei</text>
</a>
</g>
</g>
<!-- Node1&#45;&gt;Node10 -->
<g id="edge12_Node000001_Node000010" class="edge">
<title>Node1&#45;&gt;Node10</title>
<g id="a_edge12_Node000001_Node000010"><a xlink:title=" ">
<path fill="none" stroke="#63b8ff" d="M471.84,-51.75C461.63,-47.17 450.5,-42.18 441.17,-38"/>
<polygon fill="#63b8ff" stroke="#63b8ff" points="470.7,-55.07 481.25,-55.97 473.56,-48.69 470.7,-55.07"/>
</a>
</g>
</g>
<!-- Node3 -->
<g id="Node000003" class="node">
<title>Node3</title>
<g id="a_Node000003"><a xlink:href="fs_8c.html#a69a135a0e8a06d9f306d77ebc0c1f7a0" target="_top" xlink:title=" ">
<polygon fill="white" stroke="#666666" points="258.5,-57 211.5,-57 211.5,-38 258.5,-38 258.5,-57"/>
<text text-anchor="middle" x="235" y="-45" font-family="Helvetica,sans-Serif" font-size="10.00">dirlink</text>
</a>
</g>
</g>
<!-- Node2&#45;&gt;Node3 -->
<g id="edge2_Node000002_Node000003" class="edge">
<title>Node2&#45;&gt;Node3</title>
<g id="a_edge2_Node000002_Node000003"><a xlink:title=" ">
<path fill="none" stroke="#63b8ff" d="M307.85,-88.6C296.18,-81.48 281.94,-72.93 269,-65.5 264.13,-62.71 258.81,-59.76 253.89,-57.07"/>
<polygon fill="#63b8ff" stroke="#63b8ff" points="306.22,-91.7 316.58,-93.94 309.88,-85.73 306.22,-91.7"/>
</a>
</g>
</g>
<!-- Node4 -->
<g id="Node000004" class="node">
<title>Node4</title>
<g id="a_Node000004"><a xlink:href="file_8c.html#ae557c81ab89c24219146144bb6adaa2c" target="_top" xlink:title=" ">
<polygon fill="white" stroke="#666666" points="263.5,-131 206.5,-131 206.5,-112 263.5,-112 263.5,-131"/>
<text text-anchor="middle" x="235" y="-119" font-family="Helvetica,sans-Serif" font-size="10.00">fileclose</text>
</a>
</g>
</g>
<!-- Node2&#45;&gt;Node4 -->
<g id="edge3_Node000002_Node000004" class="edge">
<title>Node2&#45;&gt;Node4</title>
<g id="a_edge3_Node000002_Node000004"><a xlink:title=" ">
<path fill="none" stroke="#63b8ff" d="M305.15,-108.53C292.26,-110.95 276.82,-113.85 263.8,-116.29"/>
<polygon fill="#63b8ff" stroke="#63b8ff" points="306.09,-111.92 315.28,-106.64 304.8,-105.04 306.09,-111.92"/>
</a>
</g>
</g>
<!-- Node5 -->
<g id="Node000005" class="node">
<title>Node5</title>
<g id="a_Node000005"><a xlink:href="fs_8c.html#a207b3008bae35596c55ec7c4fc6875eb" target="_top" xlink:title=" ">
<polygon fill="white" stroke="#666666" points="269,-94 201,-94 201,-75 269,-75 269,-94"/>
<text text-anchor="middle" x="235" y="-82" font-family="Helvetica,sans-Serif" font-size="10.00">iunlockput</text>
</a>
</g>
</g>
<!-- Node2&#45;&gt;Node5 -->
<g id="edge4_Node000002_Node000005" class="edge">
<title>Node2&#45;&gt;Node5</title>
<g id="a_edge4_Node000002_Node000005"><a xlink:title=" ">
<path fill="none" stroke="#63b8ff" d="M305.27,-98.21C294.1,-96 281,-93.41 269.22,-91.08"/>
<polygon fill="#63b8ff" stroke="#63b8ff" points="304.79,-101.68 315.28,-100.19 306.15,-94.82 304.79,-101.68"/>
</a>
</g>
</g>
<!-- Node6 -->
<g id="Node000006" class="node">
<title>Node6</title>
<g id="a_Node000006"><a xlink:href="fs_8c.html#a0f085d02326c9dd34cb4e58133a7b948" target="_top" xlink:title=" ">
<polygon fill="white" stroke="#666666" points="165,-131 115,-131 115,-112 165,-112 165,-131"/>
<text text-anchor="middle" x="140" y="-119" font-family="Helvetica,sans-Serif" font-size="10.00">namex</text>
</a>
</g>
</g>
<!-- Node2&#45;&gt;Node6 -->
<g id="edge9_Node000002_Node000006" class="edge">
<title>Node2&#45;&gt;Node6</title>
<g id="a_edge9_Node000002_Node000006"><a xlink:title=" ">
<path fill="none" stroke="#63b8ff" d="M311.67,-119.21C299.9,-127.29 284.41,-136.31 269,-140.5 233.66,-150.11 191.43,-139.78 165.41,-131.01"/>
<polygon fill="#63b8ff" stroke="#63b8ff" points="313.8,-121.98 319.87,-113.3 309.71,-116.3 313.8,-121.98"/>
</a>
</g>
</g>
<!-- Node5&#45;&gt;Node6 -->
<g id="edge5_Node000005_Node000006" class="edge">
<title>Node5&#45;&gt;Node6</title>
<g id="a_edge5_Node000005_Node000006"><a xlink:title=" ">
<path fill="none" stroke="#63b8ff" d="M200.58,-97.8C188.89,-102.45 175.99,-107.58 165.19,-111.88"/>
<polygon fill="#63b8ff" stroke="#63b8ff" points="202.05,-100.98 210.05,-94.03 199.46,-94.47 202.05,-100.98"/>
</a>
</g>
</g>
<!-- Node7 -->
<g id="Node000007" class="node">
<title>Node7</title>
<g id="a_Node000007"><a xlink:href="fs_8c.html#a35c52ecf358097c17dcbbd5594acb41a" target="_top" xlink:title=" ">
<polygon fill="white" stroke="#666666" points="63,-168 16,-168 16,-149 63,-149 63,-168"/>
<text text-anchor="middle" x="39.5" y="-156" font-family="Helvetica,sans-Serif" font-size="10.00">namei</text>
</a>
</g>
</g>
<!-- Node6&#45;&gt;Node7 -->
<g id="edge6_Node000006_Node000007" class="edge">
<title>Node6&#45;&gt;Node7</title>
<g id="a_edge6_Node000006_Node000007"><a xlink:title=" ">
<path fill="none" stroke="#63b8ff" d="M105.23,-134.19C91.41,-139.38 75.77,-145.25 63.33,-149.92"/>
<polygon fill="#63b8ff" stroke="#63b8ff" points="106.77,-137.34 114.9,-130.55 104.31,-130.79 106.77,-137.34"/>
</a>
</g>
</g>
<!-- Node8 -->
<g id="Node000008" class="node">
<title>Node8</title>
<g id="a_Node000008"><a xlink:href="fs_8c.html#ade44726f2aed2af27fa0df5f63f9e688" target="_top" xlink:title=" ">
<polygon fill="white" stroke="#666666" points="79,-131 0,-131 0,-112 79,-112 79,-131"/>
<text text-anchor="middle" x="39.5" y="-119" font-family="Helvetica,sans-Serif" font-size="10.00">nameiparent</text>
</a>
</g>
</g>
<!-- Node6&#45;&gt;Node8 -->
<g id="edge7_Node000006_Node000008" class="edge">
<title>Node6&#45;&gt;Node8</title>
<g id="a_edge7_Node000006_Node000008"><a xlink:title=" ">
<path fill="none" stroke="#63b8ff" d="M104.87,-115.04C96.63,-114.71 87.76,-114.66 79.31,-114.89"/>
<polygon fill="#63b8ff" stroke="#63b8ff" points="104.72,-118.54 114.9,-115.6 105.12,-111.55 104.72,-118.54"/>
</a>
</g>
</g>
<!-- Node8&#45;&gt;Node6 -->
<g id="edge8_Node000008_Node000006" class="edge">
<title>Node8&#45;&gt;Node6</title>
<g id="a_edge8_Node000008_Node000006"><a xlink:title=" ">
<path fill="none" stroke="#63b8ff" d="M89.58,-128.25C98.39,-128.25 107.21,-127.97 114.9,-127.4"/>
<polygon fill="#63b8ff" stroke="#63b8ff" points="89.36,-124.75 79.31,-128.11 89.27,-131.75 89.36,-124.75"/>
</a>
</g>
</g>
<!-- Node9&#45;&gt;Node2 -->
<g id="edge11_Node000009_Node000002" class="edge">
<title>Node9&#45;&gt;Node2</title>
<g id="a_edge11_Node000009_Node000002"><a xlink:title=" ">
<path fill="none" stroke="#63b8ff" d="M387.64,-79.23C375.18,-84.87 361.24,-91.18 350.69,-95.95"/>
<polygon fill="#63b8ff" stroke="#63b8ff" points="389.13,-82.4 396.8,-75.09 386.25,-76.02 389.13,-82.4"/>
</a>
</g>
</g>
<!-- Node10&#45;&gt;Node3 -->
<g id="edge13_Node000010_Node000003" class="edge">
<title>Node10&#45;&gt;Node3</title>
<g id="a_edge13_Node000010_Node000003"><a xlink:title=" ">
<path fill="none" stroke="#63b8ff" d="M386.67,-31.77C350.17,-35.58 290.75,-41.78 258.52,-45.15"/>
<polygon fill="#63b8ff" stroke="#63b8ff" points="387.18,-35.24 396.77,-30.72 386.46,-28.27 387.18,-35.24"/>
</a>
</g>
</g>
<!-- Node11 -->
<g id="Node000011" class="node">
<title>Node11</title>
<g id="a_Node000011"><a xlink:href="file_8c.html#ab8de757a0a9f58dcc6511ea5e46ebb88" target="_top" xlink:title=" ">
<polygon fill="white" stroke="#666666" points="361,-19 305,-19 305,0 361,0 361,-19"/>
<text text-anchor="middle" x="333" y="-7" font-family="Helvetica,sans-Serif" font-size="10.00">filewrite</text>
</a>
</g>
</g>
<!-- Node10&#45;&gt;Node11 -->
<g id="edge14_Node000010_Node000011" class="edge">
<title>Node10&#45;&gt;Node11</title>
<g id="a_edge14_Node000010_Node000011"><a xlink:title=" ">
<path fill="none" stroke="#63b8ff" d="M386.93,-21.47C378.5,-19.57 369.44,-17.52 361.24,-15.66"/>
<polygon fill="#63b8ff" stroke="#63b8ff" points="386.28,-24.91 396.8,-23.71 387.82,-18.09 386.28,-24.91"/>
</a>
</g>
</g>
</g>
</svg>
