<?xml version="1.0" encoding="UTF-8" standalone="no"?>
<!DOCTYPE svg PUBLIC "-//W3C//DTD SVG 1.1//EN"
 "http://www.w3.org/Graphics/SVG/1.1/DTD/svg11.dtd">
<!-- Generated by graphviz version 2.43.0 (0)
 -->
<!-- Title: ialloc Pages: 1 -->
<svg width="223pt" height="138pt"
 viewBox="0.00 0.00 223.00 138.00" xmlns="http://www.w3.org/2000/svg" xmlns:xlink="http://www.w3.org/1999/xlink">
<g id="graph0" class="graph" transform="scale(1 1) rotate(0) translate(4 134)">
<title>ialloc</title>
<!-- Node1 -->
<g id="Node000001" class="node">
<title>Node1</title>
<g id="a_Node000001"><a xlink:title=" ">
<polygon fill="#999999" stroke="#666666" points="43,-74 0,-74 0,-55 43,-55 43,-74"/>
<text text-anchor="middle" x="21.5" y="-62" font-family="Helvetica,sans-Serif" font-size="10.00">ialloc</text>
</a>
</g>
</g>
<!-- Node2 -->
<g id="Node000002" class="node">
<title>Node2</title>
<g id="a_Node000002"><a xlink:href="bio_8c.html#a30b8d2ef2300ed8e3d879a428fe39898" target="_top" xlink:title=" ">
<polygon fill="white" stroke="#666666" points="132,-130 88,-130 88,-111 132,-111 132,-130"/>
<text text-anchor="middle" x="110" y="-118" font-family="Helvetica,sans-Serif" font-size="10.00">bread</text>
</a>
</g>
</g>
<!-- Node1&#45;&gt;Node2 -->
<g id="edge1_Node000001_Node000002" class="edge">
<title>Node1&#45;&gt;Node2</title>
<g id="a_edge1_Node000001_Node000002"><a xlink:title=" ">
<path fill="none" stroke="#63b8ff" d="M36.3,-74.07C47.66,-81.88 64.24,-93.11 79,-102.5 80.65,-103.55 82.37,-104.62 84.1,-105.69"/>
<polygon fill="#63b8ff" stroke="#63b8ff" points="82.35,-108.73 92.71,-110.94 85.99,-102.75 82.35,-108.73"/>
</a>
</g>
</g>
<!-- Node4 -->
<g id="Node000004" class="node">
<title>Node4</title>
<g id="a_Node000004"><a xlink:href="bio_8c.html#ab5335aeb503731104314321a78a6d727" target="_top" xlink:title=" ">
<polygon fill="white" stroke="#666666" points="133.5,-93 86.5,-93 86.5,-74 133.5,-74 133.5,-93"/>
<text text-anchor="middle" x="110" y="-81" font-family="Helvetica,sans-Serif" font-size="10.00">brelse</text>
</a>
</g>
</g>
<!-- Node1&#45;&gt;Node4 -->
<g id="edge3_Node000001_Node000004" class="edge">
<title>Node1&#45;&gt;Node4</title>
<g id="a_edge3_Node000001_Node000004"><a xlink:title=" ">
<path fill="none" stroke="#63b8ff" d="M43.44,-69.1C53.39,-71.29 65.52,-73.95 76.62,-76.39"/>
<polygon fill="#63b8ff" stroke="#63b8ff" points="75.92,-79.82 86.44,-78.54 77.42,-72.98 75.92,-79.82"/>
</a>
</g>
</g>
<!-- Node5 -->
<g id="Node000005" class="node">
<title>Node5</title>
<g id="a_Node000005"><a xlink:href="fs_8c.html#aa574143402896986fe315a0c2749fffa" target="_top" xlink:title=" ">
<polygon fill="white" stroke="#666666" points="127.5,-56 92.5,-56 92.5,-37 127.5,-37 127.5,-56"/>
<text text-anchor="middle" x="110" y="-44" font-family="Helvetica,sans-Serif" font-size="10.00">iget</text>
</a>
</g>
</g>
<!-- Node1&#45;&gt;Node5 -->
<g id="edge4_Node000001_Node000005" class="edge">
<title>Node1&#45;&gt;Node5</title>
<g id="a_edge4_Node000001_Node000005"><a xlink:title=" ">
<path fill="none" stroke="#63b8ff" d="M43.44,-60.14C55.16,-57.7 69.89,-54.64 82.41,-52.03"/>
<polygon fill="#63b8ff" stroke="#63b8ff" points="83.23,-55.44 92.3,-49.97 81.8,-48.59 83.23,-55.44"/>
</a>
</g>
</g>
<!-- Node6 -->
<g id="Node000006" class="node">
<title>Node6</title>
<g id="a_Node000006"><a xlink:href="log_8c.html#a7eacb0fbebe5ce4c7d3ddea15908b13d" target="_top" xlink:title=" ">
<polygon fill="white" stroke="#666666" points="141,-19 79,-19 79,0 141,0 141,-19"/>
<text text-anchor="middle" x="110" y="-7" font-family="Helvetica,sans-Serif" font-size="10.00">log_write</text>
</a>
</g>
</g>
<!-- Node1&#45;&gt;Node6 -->
<g id="edge5_Node000001_Node000006" class="edge">
<title>Node1&#45;&gt;Node6</title>
<g id="a_edge5_Node000001_Node000006"><a xlink:title=" ">
<path fill="none" stroke="#63b8ff" d="M37.84,-54.71C49.2,-47.46 65.06,-37.36 79,-28.5 80.94,-27.26 82.96,-25.98 84.99,-24.7"/>
<polygon fill="#63b8ff" stroke="#63b8ff" points="87.16,-27.47 93.73,-19.16 83.41,-21.55 87.16,-27.47"/>
</a>
</g>
</g>
<!-- Node3 -->
<g id="Node000003" class="node">
<title>Node3</title>
<g id="a_Node000003"><a xlink:href="bio_8c.html#a69dcd3ce86d958b4024c6746263f3f5b" target="_top" xlink:title=" ">
<polygon fill="white" stroke="#666666" points="215,-130 177,-130 177,-111 215,-111 215,-130"/>
<text text-anchor="middle" x="196" y="-118" font-family="Helvetica,sans-Serif" font-size="10.00">bget</text>
</a>
</g>
</g>
<!-- Node2&#45;&gt;Node3 -->
<g id="edge2_Node000002_Node000003" class="edge">
<title>Node2&#45;&gt;Node3</title>
<g id="a_edge2_Node000002_Node000003"><a xlink:title=" ">
<path fill="none" stroke="#63b8ff" d="M132.2,-120.5C142.66,-120.5 155.42,-120.5 166.7,-120.5"/>
<polygon fill="#63b8ff" stroke="#63b8ff" points="166.94,-124 176.94,-120.5 166.94,-117 166.94,-124"/>
</a>
</g>
</g>
</g>
</svg>
