<?xml version="1.0" encoding="UTF-8" standalone="no"?>
<!DOCTYPE svg PUBLIC "-//W3C//DTD SVG 1.1//EN"
 "http://www.w3.org/Graphics/SVG/1.1/DTD/svg11.dtd">
<!-- Generated by graphviz version 2.43.0 (0)
 -->
<!-- Title: ilock Pages: 1 -->
<svg width="205pt" height="64pt"
 viewBox="0.00 0.00 205.00 64.00" xmlns="http://www.w3.org/2000/svg" xmlns:xlink="http://www.w3.org/1999/xlink">
<g id="graph0" class="graph" transform="scale(1 1) rotate(0) translate(4 60)">
<title>ilock</title>
<!-- Node1 -->
<g id="Node000001" class="node">
<title>Node1</title>
<g id="a_Node000001"><a xlink:title=" ">
<polygon fill="#999999" stroke="#666666" points="40,-37 0,-37 0,-18 40,-18 40,-37"/>
<text text-anchor="middle" x="20" y="-25" font-family="Helvetica,sans-Serif" font-size="10.00">ilock</text>
</a>
</g>
</g>
<!-- Node2 -->
<g id="Node000002" class="node">
<title>Node2</title>
<g id="a_Node000002"><a xlink:href="bio_8c.html#a30b8d2ef2300ed8e3d879a428fe39898" target="_top" xlink:title=" ">
<polygon fill="white" stroke="#666666" points="121.5,-56 77.5,-56 77.5,-37 121.5,-37 121.5,-56"/>
<text text-anchor="middle" x="99.5" y="-44" font-family="Helvetica,sans-Serif" font-size="10.00">bread</text>
</a>
</g>
</g>
<!-- Node1&#45;&gt;Node2 -->
<g id="edge1_Node000001_Node000002" class="edge">
<title>Node1&#45;&gt;Node2</title>
<g id="a_edge1_Node000001_Node000002"><a xlink:title=" ">
<path fill="none" stroke="#63b8ff" d="M40.16,-32.2C48.45,-34.23 58.37,-36.66 67.66,-38.94"/>
<polygon fill="#63b8ff" stroke="#63b8ff" points="66.84,-42.34 77.38,-41.32 68.5,-35.54 66.84,-42.34"/>
</a>
</g>
</g>
<!-- Node4 -->
<g id="Node000004" class="node">
<title>Node4</title>
<g id="a_Node000004"><a xlink:href="bio_8c.html#ab5335aeb503731104314321a78a6d727" target="_top" xlink:title=" ">
<polygon fill="white" stroke="#666666" points="123,-19 76,-19 76,0 123,0 123,-19"/>
<text text-anchor="middle" x="99.5" y="-7" font-family="Helvetica,sans-Serif" font-size="10.00">brelse</text>
</a>
</g>
</g>
<!-- Node1&#45;&gt;Node4 -->
<g id="edge3_Node000001_Node000004" class="edge">
<title>Node1&#45;&gt;Node4</title>
<g id="a_edge3_Node000001_Node000004"><a xlink:title=" ">
<path fill="none" stroke="#63b8ff" d="M40.16,-23.05C47.95,-21.24 57.19,-19.1 65.98,-17.05"/>
<polygon fill="#63b8ff" stroke="#63b8ff" points="67.04,-20.4 75.99,-14.73 65.46,-13.58 67.04,-20.4"/>
</a>
</g>
</g>
<!-- Node3 -->
<g id="Node000003" class="node">
<title>Node3</title>
<g id="a_Node000003"><a xlink:href="bio_8c.html#a69dcd3ce86d958b4024c6746263f3f5b" target="_top" xlink:title=" ">
<polygon fill="white" stroke="#666666" points="197,-56 159,-56 159,-37 197,-37 197,-56"/>
<text text-anchor="middle" x="178" y="-44" font-family="Helvetica,sans-Serif" font-size="10.00">bget</text>
</a>
</g>
</g>
<!-- Node2&#45;&gt;Node3 -->
<g id="edge2_Node000002_Node000003" class="edge">
<title>Node2&#45;&gt;Node3</title>
<g id="a_edge2_Node000002_Node000003"><a xlink:title=" ">
<path fill="none" stroke="#63b8ff" d="M121.81,-46.5C130.2,-46.5 139.95,-46.5 148.9,-46.5"/>
<polygon fill="#63b8ff" stroke="#63b8ff" points="148.91,-50 158.91,-46.5 148.91,-43 148.91,-50"/>
</a>
</g>
</g>
</g>
</svg>
