<?xml version="1.0" encoding="UTF-8" standalone="no"?>
<!DOCTYPE svg PUBLIC "-//W3C//DTD SVG 1.1//EN"
 "http://www.w3.org/Graphics/SVG/1.1/DTD/svg11.dtd">
<!-- Generated by graphviz version 2.43.0 (0)
 -->
<!-- Title: writei Pages: 1 -->
<svg width="475pt" height="272pt"
 viewBox="0.00 0.00 475.00 271.78" xmlns="http://www.w3.org/2000/svg" xmlns:xlink="http://www.w3.org/1999/xlink">

<svg id="main" version="1.1" xmlns="http://www.w3.org/2000/svg" xmlns:xlink="http://www.w3.org/1999/xlink" xml:space="preserve" onload="init(evt)">
<style type="text/css"><![CDATA[
.node, .edge {opacity: 0.7;}
.node.selected, .edge.selected {opacity: 1;}
.edge:hover path { stroke: red; }
.edge:hover polygon { stroke: red; fill: red; }
]]></style>
<script type="application/ecmascript" xlink:href="svg.min.js"/>
<svg id="graph" class="graph">
<g id="graph0" class="graph" transform="scale(1 1) rotate(0) translate(4 267.78)">
<title>writei</title>
<!-- Node1 -->
<g id="Node000001" class="node">
<title>Node1</title>
<g id="a_Node000001"><a xlink:title=" ">
<polygon fill="#999999" stroke="#666666" points="44,-171 0,-171 0,-152 44,-152 44,-171"/>
<text text-anchor="middle" x="22" y="-159" font-family="Helvetica,sans-Serif" font-size="10.00">writei</text>
</a>
</g>
</g>
<!-- Node2 -->
<g id="Node000002" class="node">
<title>Node2</title>
<g id="a_Node000002"><a xlink:href="fs_8c.html#a965e83e1fa9b15abf268784ce74181bb" target="_top" xlink:title=" ">
<polygon fill="white" stroke="#666666" points="124,-133 80,-133 80,-114 124,-114 124,-133"/>
<text text-anchor="middle" x="102" y="-121" font-family="Helvetica,sans-Serif" font-size="10.00">bmap</text>
</a>
</g>
</g>
<!-- Node1&#45;&gt;Node2 -->
<g id="edge1_Node000001_Node000002" class="edge">
<title>Node1&#45;&gt;Node2</title>
<g id="a_edge1_Node000001_Node000002"><a xlink:title=" ">
<path fill="none" stroke="#63b8ff" d="M42.68,-151.91C51.64,-147.55 62.42,-142.29 72.27,-137.5"/>
<polygon fill="#63b8ff" stroke="#63b8ff" points="73.87,-140.61 81.32,-133.09 70.8,-134.32 73.87,-140.61"/>
</a>
</g>
</g>
<!-- Node4 -->
<g id="Node000004" class="node">
<title>Node4</title>
<g id="a_Node000004"><a xlink:href="bio_8c.html#a30b8d2ef2300ed8e3d879a428fe39898" target="_top" xlink:title=" ">
<polygon fill="white" stroke="#666666" points="384,-247 340,-247 340,-228 384,-228 384,-247"/>
<text text-anchor="middle" x="362" y="-235" font-family="Helvetica,sans-Serif" font-size="10.00">bread</text>
</a>
</g>
</g>
<!-- Node1&#45;&gt;Node4 -->
<g id="edge14_Node000001_Node000004" class="edge">
<title>Node1&#45;&gt;Node4</title>
<g id="a_edge14_Node000001_Node000004"><a xlink:title=" ">
<path fill="none" stroke="#63b8ff" d="M37.85,-171.14C72.08,-192.71 159.94,-244.2 242,-260.5 265.1,-265.09 271.77,-264.43 295,-260.5 306.82,-258.5 319.34,-254.62 330.26,-250.61"/>
<polygon fill="#63b8ff" stroke="#63b8ff" points="331.71,-253.8 339.78,-246.94 329.19,-247.27 331.71,-253.8"/>
</a>
</g>
</g>
<!-- Node6 -->
<g id="Node000006" class="node">
<title>Node6</title>
<g id="a_Node000006"><a xlink:href="bio_8c.html#ab5335aeb503731104314321a78a6d727" target="_top" xlink:title=" ">
<polygon fill="white" stroke="#666666" points="385.5,-133 338.5,-133 338.5,-114 385.5,-114 385.5,-133"/>
<text text-anchor="middle" x="362" y="-121" font-family="Helvetica,sans-Serif" font-size="10.00">brelse</text>
</a>
</g>
</g>
<!-- Node1&#45;&gt;Node6 -->
<g id="edge15_Node000001_Node000006" class="edge">
<title>Node1&#45;&gt;Node6</title>
<g id="a_edge15_Node000001_Node000006"><a xlink:title=" ">
<path fill="none" stroke="#63b8ff" d="M44.26,-160.5C90.22,-158.15 202.17,-151.39 295,-137.5 305.86,-135.88 317.62,-133.56 328.16,-131.28"/>
<polygon fill="#63b8ff" stroke="#63b8ff" points="329.22,-134.63 338.22,-129.04 327.69,-127.8 329.22,-134.63"/>
</a>
</g>
</g>
<!-- Node8 -->
<g id="Node000008" class="node">
<title>Node8</title>
<g id="a_Node000008"><a xlink:href="log_8c.html#a7eacb0fbebe5ce4c7d3ddea15908b13d" target="_top" xlink:title=" ">
<polygon fill="white" stroke="#666666" points="393,-19 331,-19 331,0 393,0 393,-19"/>
<text text-anchor="middle" x="362" y="-7" font-family="Helvetica,sans-Serif" font-size="10.00">log_write</text>
</a>
</g>
</g>
<!-- Node1&#45;&gt;Node8 -->
<g id="edge20_Node000001_Node000008" class="edge">
<title>Node1&#45;&gt;Node8</title>
<g id="a_edge20_Node000001_Node000008"><a xlink:title=" ">
<path fill="none" stroke="#63b8ff" d="M30.88,-151.99C50.33,-129.16 103.19,-70.87 160,-40.5 210.67,-13.42 278.13,-8.24 320.56,-8.06"/>
<polygon fill="#63b8ff" stroke="#63b8ff" points="320.77,-11.56 330.79,-8.11 320.81,-4.56 320.77,-11.56"/>
</a>
</g>
</g>
<!-- Node9 -->
<g id="Node000009" class="node">
<title>Node9</title>
<g id="a_Node000009"><a xlink:href="fs_8c.html#a7220afa8e5f4bea540eb95879ea7df6e" target="_top" xlink:title=" ">
<polygon fill="white" stroke="#666666" points="295,-209 242,-209 242,-190 295,-190 295,-209"/>
<text text-anchor="middle" x="268.5" y="-197" font-family="Helvetica,sans-Serif" font-size="10.00">iupdate</text>
</a>
</g>
</g>
<!-- Node1&#45;&gt;Node9 -->
<g id="edge16_Node000001_Node000009" class="edge">
<title>Node1&#45;&gt;Node9</title>
<g id="a_edge16_Node000001_Node000009"><a xlink:title=" ">
<path fill="none" stroke="#63b8ff" d="M44.26,-167.33C54.92,-170.1 68.08,-173.28 80,-175.5 132.49,-185.27 194,-192.32 231.86,-196.15"/>
<polygon fill="#63b8ff" stroke="#63b8ff" points="231.58,-199.64 241.88,-197.15 232.28,-192.68 231.58,-199.64"/>
</a>
</g>
</g>
<!-- Node3 -->
<g id="Node000003" class="node">
<title>Node3</title>
<g id="a_Node000003"><a xlink:href="fs_8c.html#a29272227722d57ff937caaffd03455a9" target="_top" xlink:title=" ">
<polygon fill="white" stroke="#666666" points="206,-95 160,-95 160,-76 206,-76 206,-95"/>
<text text-anchor="middle" x="183" y="-83" font-family="Helvetica,sans-Serif" font-size="10.00">balloc</text>
</a>
</g>
</g>
<!-- Node2&#45;&gt;Node3 -->
<g id="edge2_Node000002_Node000003" class="edge">
<title>Node2&#45;&gt;Node3</title>
<g id="a_edge2_Node000002_Node000003"><a xlink:title=" ">
<path fill="none" stroke="#63b8ff" d="M122.94,-113.91C132.01,-109.55 142.93,-104.29 152.9,-99.5"/>
<polygon fill="#63b8ff" stroke="#63b8ff" points="154.58,-102.57 162.07,-95.09 151.54,-96.27 154.58,-102.57"/>
</a>
</g>
</g>
<!-- Node2&#45;&gt;Node4 -->
<g id="edge11_Node000002_Node000004" class="edge">
<title>Node2&#45;&gt;Node4</title>
<g id="a_edge11_Node000002_Node000004"><a xlink:title=" ">
<path fill="none" stroke="#63b8ff" d="M110.08,-133.1C128.53,-157.2 180.92,-219.92 242,-242.5 270.34,-252.97 305.1,-249.86 329.72,-245.26"/>
<polygon fill="#63b8ff" stroke="#63b8ff" points="330.5,-248.67 339.6,-243.23 329.1,-241.82 330.5,-248.67"/>
</a>
</g>
</g>
<!-- Node2&#45;&gt;Node6 -->
<g id="edge12_Node000002_Node000006" class="edge">
<title>Node2&#45;&gt;Node6</title>
<g id="a_edge12_Node000002_Node000006"><a xlink:title=" ">
<path fill="none" stroke="#63b8ff" d="M124.11,-123.5C169.13,-123.5 274.81,-123.5 328.49,-123.5"/>
<polygon fill="#63b8ff" stroke="#63b8ff" points="328.49,-127 338.49,-123.5 328.49,-120 328.49,-127"/>
</a>
</g>
</g>
<!-- Node2&#45;&gt;Node8 -->
<g id="edge13_Node000002_Node000008" class="edge">
<title>Node2&#45;&gt;Node8</title>
<g id="a_edge13_Node000002_Node000008"><a xlink:title=" ">
<path fill="none" stroke="#63b8ff" d="M110.57,-113.87C120.7,-101.5 139.76,-80.03 160,-66.5 209.45,-33.45 278.02,-19.35 320.93,-13.49"/>
<polygon fill="#63b8ff" stroke="#63b8ff" points="321.52,-16.94 330.99,-12.2 320.63,-10 321.52,-16.94"/>
</a>
</g>
</g>
<!-- Node3&#45;&gt;Node4 -->
<g id="edge3_Node000003_Node000004" class="edge">
<title>Node3&#45;&gt;Node4</title>
<g id="a_edge3_Node000003_Node000004"><a xlink:title=" ">
<path fill="none" stroke="#63b8ff" d="M185.12,-95.01C188.55,-119.65 201.32,-185.82 242,-217.5 266.84,-236.85 303.53,-240.37 329.59,-239.98"/>
<polygon fill="#63b8ff" stroke="#63b8ff" points="329.83,-243.48 339.7,-239.63 329.59,-236.48 329.83,-243.48"/>
</a>
</g>
</g>
<!-- Node3&#45;&gt;Node6 -->
<g id="edge5_Node000003_Node000006" class="edge">
<title>Node3&#45;&gt;Node6</title>
<g id="a_edge5_Node000003_Node000006"><a xlink:title=" ">
<path fill="none" stroke="#63b8ff" d="M204.23,-75.91C226.94,-66.53 264.58,-55.18 295,-66.5 316.15,-74.37 335.05,-92.4 347.14,-106.09"/>
<polygon fill="#63b8ff" stroke="#63b8ff" points="344.63,-108.54 353.76,-113.92 349.98,-104.02 344.63,-108.54"/>
</a>
</g>
</g>
<!-- Node7 -->
<g id="Node000007" class="node">
<title>Node7</title>
<g id="a_Node000007"><a xlink:href="fs_8c.html#ac93f607f4a954323f4c9ea485ca88538" target="_top" xlink:title=" ">
<polygon fill="white" stroke="#666666" points="290.5,-95 246.5,-95 246.5,-76 290.5,-76 290.5,-95"/>
<text text-anchor="middle" x="268.5" y="-83" font-family="Helvetica,sans-Serif" font-size="10.00">bzero</text>
</a>
</g>
</g>
<!-- Node3&#45;&gt;Node7 -->
<g id="edge6_Node000003_Node000007" class="edge">
<title>Node3&#45;&gt;Node7</title>
<g id="a_edge6_Node000003_Node000007"><a xlink:title=" ">
<path fill="none" stroke="#63b8ff" d="M206.38,-85.5C215.53,-85.5 226.28,-85.5 236.19,-85.5"/>
<polygon fill="#63b8ff" stroke="#63b8ff" points="236.5,-89 246.5,-85.5 236.5,-82 236.5,-89"/>
</a>
</g>
</g>
<!-- Node3&#45;&gt;Node8 -->
<g id="edge10_Node000003_Node000008" class="edge">
<title>Node3&#45;&gt;Node8</title>
<g id="a_edge10_Node000003_Node000008"><a xlink:title=" ">
<path fill="none" stroke="#63b8ff" d="M204.03,-75.9C215.16,-70.64 229.28,-64.07 242,-58.5 270.6,-45.96 303.43,-32.51 327.36,-22.88"/>
<polygon fill="#63b8ff" stroke="#63b8ff" points="328.73,-26.1 336.71,-19.13 326.12,-19.61 328.73,-26.1"/>
</a>
</g>
</g>
<!-- Node5 -->
<g id="Node000005" class="node">
<title>Node5</title>
<g id="a_Node000005"><a xlink:href="bio_8c.html#a69dcd3ce86d958b4024c6746263f3f5b" target="_top" xlink:title=" ">
<polygon fill="white" stroke="#666666" points="467,-247 429,-247 429,-228 467,-228 467,-247"/>
<text text-anchor="middle" x="448" y="-235" font-family="Helvetica,sans-Serif" font-size="10.00">bget</text>
</a>
</g>
</g>
<!-- Node4&#45;&gt;Node5 -->
<g id="edge4_Node000004_Node000005" class="edge">
<title>Node4&#45;&gt;Node5</title>
<g id="a_edge4_Node000004_Node000005"><a xlink:title=" ">
<path fill="none" stroke="#63b8ff" d="M384.2,-237.5C394.66,-237.5 407.42,-237.5 418.7,-237.5"/>
<polygon fill="#63b8ff" stroke="#63b8ff" points="418.94,-241 428.94,-237.5 418.94,-234 418.94,-241"/>
</a>
</g>
</g>
<!-- Node7&#45;&gt;Node4 -->
<g id="edge7_Node000007_Node000004" class="edge">
<title>Node7&#45;&gt;Node4</title>
<g id="a_edge7_Node000007_Node000004"><a xlink:title=" ">
<path fill="none" stroke="#63b8ff" d="M275.22,-95.01C290.12,-119.75 330.27,-186.45 349.9,-219.06"/>
<polygon fill="#63b8ff" stroke="#63b8ff" points="347.12,-221.23 355.28,-228 353.12,-217.62 347.12,-221.23"/>
</a>
</g>
</g>
<!-- Node7&#45;&gt;Node6 -->
<g id="edge8_Node000007_Node000006" class="edge">
<title>Node7&#45;&gt;Node6</title>
<g id="a_edge8_Node000007_Node000006"><a xlink:title=" ">
<path fill="none" stroke="#63b8ff" d="M290.72,-94.31C302.08,-99.03 316.3,-104.94 328.98,-110.2"/>
<polygon fill="#63b8ff" stroke="#63b8ff" points="327.72,-113.47 338.29,-114.07 330.4,-107 327.72,-113.47"/>
</a>
</g>
</g>
<!-- Node7&#45;&gt;Node8 -->
<g id="edge9_Node000007_Node000008" class="edge">
<title>Node7&#45;&gt;Node8</title>
<g id="a_edge9_Node000007_Node000008"><a xlink:title=" ">
<path fill="none" stroke="#63b8ff" d="M281.09,-75.87C296.35,-63.2 323.4,-40.73 341.76,-25.48"/>
<polygon fill="#63b8ff" stroke="#63b8ff" points="344.05,-28.13 349.51,-19.05 339.58,-22.74 344.05,-28.13"/>
</a>
</g>
</g>
<!-- Node9&#45;&gt;Node4 -->
<g id="edge17_Node000009_Node000004" class="edge">
<title>Node9&#45;&gt;Node4</title>
<g id="a_edge17_Node000009_Node000004"><a xlink:title=" ">
<path fill="none" stroke="#63b8ff" d="M292.59,-209.09C304.04,-213.84 318.01,-219.65 330.34,-224.77"/>
<polygon fill="#63b8ff" stroke="#63b8ff" points="329.22,-228.09 339.8,-228.7 331.91,-221.63 329.22,-228.09"/>
</a>
</g>
</g>
<!-- Node9&#45;&gt;Node6 -->
<g id="edge18_Node000009_Node000006" class="edge">
<title>Node9&#45;&gt;Node6</title>
<g id="a_edge18_Node000009_Node000006"><a xlink:title=" ">
<path fill="none" stroke="#63b8ff" d="M281.09,-189.87C296.35,-177.2 323.4,-154.73 341.76,-139.48"/>
<polygon fill="#63b8ff" stroke="#63b8ff" points="344.05,-142.13 349.51,-133.05 339.58,-136.74 344.05,-142.13"/>
</a>
</g>
</g>
<!-- Node9&#45;&gt;Node8 -->
<g id="edge19_Node000009_Node000008" class="edge">
<title>Node9&#45;&gt;Node8</title>
<g id="a_edge19_Node000009_Node000008"><a xlink:title=" ">
<path fill="none" stroke="#63b8ff" d="M274.16,-189.82C288.57,-159.9 332.55,-68.58 351.81,-28.59"/>
<polygon fill="#63b8ff" stroke="#63b8ff" points="355.05,-29.92 356.24,-19.39 348.74,-26.88 355.05,-29.92"/>
</a>
</g>
</g>
</g>
</svg>
</svg>

<style type='text/css'>
<![CDATA[
[data-mouse-over-selected='false'] { opacity: 0.7; }
[data-mouse-over-selected='true']  { opacity: 1.0; }
]]>
</style>
<script type="application/ecmascript"><![CDATA[
document.addEventListener('DOMContentLoaded', (event) => {
  highlightEdges();
  highlightAdjacentNodes();
});
]]></script>
</svg>
