<?xml version="1.0" encoding="UTF-8" standalone="no"?>
<!DOCTYPE svg PUBLIC "-//W3C//DTD SVG 1.1//EN"
 "http://www.w3.org/Graphics/SVG/1.1/DTD/svg11.dtd">
<!-- Generated by graphviz version 2.43.0 (0)
 -->
<!-- Title: namei Pages: 1 -->
<!--zoomable 621 -->

<svg id="main" version="1.1" xmlns="http://www.w3.org/2000/svg" xmlns:xlink="http://www.w3.org/1999/xlink" xml:space="preserve" onload="init(evt)">
<style type="text/css"><![CDATA[
.node, .edge {opacity: 0.7;}
.node.selected, .edge.selected {opacity: 1;}
.edge:hover path { stroke: red; }
.edge:hover polygon { stroke: red; fill: red; }
]]></style>

<defs>
  <circle id="rim" cx="0" cy="0" r="7"/>
  <circle id="rim2" cx="0" cy="0" r="3.5"/>
  <g id="zoomPlus">
    <use xlink:href="#rim" fill="#404040"><set attributeName="fill" to="#808080" begin="zoomplus.mouseover" end="zoomplus.mouseout"/></use>
    <path d="M-4,0h8M0,-4v8" fill="none" stroke="white" stroke-width="1.5" pointer-events="none"/>
  </g>
  <g id="zoomMin">
    <use xlink:href="#rim" fill="#404040"><set attributeName="fill" to="#808080" begin="zoomminus.mouseover" end="zoomminus.mouseout"/></use>
    <path d="M-4,0h8" fill="none" stroke="white" stroke-width="1.5" pointer-events="none"/>
  </g>
  <g id="arrowUp" transform="translate(30 24)">
    <use xlink:href="#rim"/>
    <path pointer-events="none" fill="none" stroke="white" stroke-width="1.5" d="M0,-3.0v7 M-2.5,-0.5L0,-3.0L2.5,-0.5"/>
  </g>
  <g id="arrowRight" transform="rotate(90) translate(36 -43)">
    <use xlink:href="#rim"/>
    <path pointer-events="none" fill="none" stroke="white" stroke-width="1.5" d="M0,-3.0v7 M-2.5,-0.5L0,-3.0L2.5,-0.5"/>
  </g>
  <g id="arrowDown" transform="rotate(180) translate(-30 -48)">
    <use xlink:href="#rim"/>
    <path pointer-events="none" fill="none" stroke="white" stroke-width="1.5" d="M0,-3.0v7 M-2.5,-0.5L0,-3.0L2.5,-0.5"/>
  </g>
  <g id="arrowLeft" transform="rotate(270) translate(-36 17)">
    <use xlink:href="#rim"/>
    <path pointer-events="none" fill="none" stroke="white" stroke-width="1.5" d="M0,-3.0v7 M-2.5,-0.5L0,-3.0L2.5,-0.5"/>
  </g>
  <g id="resetDef">
    <use xlink:href="#rim2" fill="#404040"><set attributeName="fill" to="#808080" begin="reset.mouseover" end="reset.mouseout"/></use>
  </g>
</defs>
<script type="application/ecmascript">
var viewWidth = 780;
var viewHeight = 621;
var sectionId = 'dynsection-28';
</script>
<script type="application/ecmascript" xlink:href="svg.min.js"/>
<svg id="graph" class="graph">
<g id="viewport">
<title>namei</title>
<!-- Node1 -->
<g id="Node000001" class="node">
<title>Node1</title>
<g id="a_Node000001"><a xlink:title=" ">
<polygon fill="#999999" stroke="#666666" points="47,-150 0,-150 0,-131 47,-131 47,-150"/>
<text text-anchor="middle" x="23.5" y="-138" font-family="Helvetica,sans-Serif" font-size="10.00">namei</text>
</a>
</g>
</g>
<!-- Node2 -->
<g id="Node000002" class="node">
<title>Node2</title>
<g id="a_Node000002"><a xlink:href="fs_8c.html#a0f085d02326c9dd34cb4e58133a7b948" target="_top" xlink:title=" ">
<polygon fill="white" stroke="#666666" points="133,-150 83,-150 83,-131 133,-131 133,-150"/>
<text text-anchor="middle" x="108" y="-138" font-family="Helvetica,sans-Serif" font-size="10.00">namex</text>
</a>
</g>
</g>
<!-- Node1&#45;&gt;Node2 -->
<g id="edge1_Node000001_Node000002" class="edge">
<title>Node1&#45;&gt;Node2</title>
<g id="a_edge1_Node000001_Node000002"><a xlink:title=" ">
<path fill="none" stroke="#63b8ff" d="M47.04,-140.5C54.91,-140.5 63.93,-140.5 72.55,-140.5"/>
<polygon fill="#63b8ff" stroke="#63b8ff" points="72.75,-144 82.75,-140.5 72.75,-137 72.75,-144"/>
</a>
</g>
</g>
<!-- Node3 -->
<g id="Node000003" class="node">
<title>Node3</title>
<g id="a_Node000003"><a xlink:href="fs_8c.html#a5341068f021beac8cf0032b97d231e6f" target="_top" xlink:title=" ">
<polygon fill="white" stroke="#666666" points="239.5,-301 177.5,-301 177.5,-282 239.5,-282 239.5,-301"/>
<text text-anchor="middle" x="208.5" y="-289" font-family="Helvetica,sans-Serif" font-size="10.00">dirlookup</text>
</a>
</g>
</g>
<!-- Node2&#45;&gt;Node3 -->
<g id="edge2_Node000002_Node000003" class="edge">
<title>Node2&#45;&gt;Node3</title>
<g id="a_edge2_Node000002_Node000003"><a xlink:title=" ">
<path fill="none" stroke="#63b8ff" d="M113.41,-150.29C122.48,-169.95 144.44,-215.28 169,-249.5 175.27,-258.23 183.15,-267.12 190.15,-274.46"/>
<polygon fill="#63b8ff" stroke="#63b8ff" points="187.78,-277.04 197.28,-281.73 192.78,-272.14 187.78,-277.04"/>
</a>
</g>
</g>
<!-- Node4 -->
<g id="Node000004" class="node">
<title>Node4</title>
<g id="a_Node000004"><a xlink:href="fs_8c.html#aa574143402896986fe315a0c2749fffa" target="_top" xlink:title=" ">
<polygon fill="white" stroke="#666666" points="334,-357 299,-357 299,-338 334,-338 334,-357"/>
<text text-anchor="middle" x="316.5" y="-345" font-family="Helvetica,sans-Serif" font-size="10.00">iget</text>
</a>
</g>
</g>
<!-- Node2&#45;&gt;Node4 -->
<g id="edge22_Node000002_Node000004" class="edge">
<title>Node2&#45;&gt;Node4</title>
<g id="a_edge22_Node000002_Node000004"><a xlink:title=" ">
<path fill="none" stroke="#63b8ff" d="M109.39,-150.29C111.09,-179.37 120.21,-266 169,-310.5 202.09,-340.68 256.19,-347.06 288.57,-347.96"/>
<polygon fill="#63b8ff" stroke="#63b8ff" points="288.61,-351.47 298.65,-348.09 288.7,-344.47 288.61,-351.47"/>
</a>
</g>
</g>
<!-- Node14 -->
<g id="Node000014" class="node">
<title>Node14</title>
<g id="a_Node000014"><a xlink:href="fs_8c.html#a24a91383ab80b4b8a1ef1f4df896035c" target="_top" xlink:title=" ">
<polygon fill="white" stroke="#666666" points="227.5,-93 189.5,-93 189.5,-74 227.5,-74 227.5,-93"/>
<text text-anchor="middle" x="208.5" y="-81" font-family="Helvetica,sans-Serif" font-size="10.00">idup</text>
</a>
</g>
</g>
<!-- Node2&#45;&gt;Node14 -->
<g id="edge21_Node000002_Node000014" class="edge">
<title>Node2&#45;&gt;Node14</title>
<g id="a_edge21_Node000002_Node000014"><a xlink:title=" ">
<path fill="none" stroke="#63b8ff" d="M125.71,-130.83C141.23,-121.85 164.55,-108.36 182.32,-98.07"/>
<polygon fill="#63b8ff" stroke="#63b8ff" points="184.14,-101.06 191.04,-93.03 180.63,-95.01 184.14,-101.06"/>
</a>
</g>
</g>
<!-- Node15 -->
<g id="Node000015" class="node">
<title>Node15</title>
<g id="a_Node000015"><a xlink:href="fs_8c.html#aed28187406d84a3aa71f10c6235a03ec" target="_top" xlink:title=" ">
<polygon fill="white" stroke="#666666" points="593.5,-245 553.5,-245 553.5,-226 593.5,-226 593.5,-245"/>
<text text-anchor="middle" x="573.5" y="-233" font-family="Helvetica,sans-Serif" font-size="10.00">ilock</text>
</a>
</g>
</g>
<!-- Node2&#45;&gt;Node15 -->
<g id="edge23_Node000002_Node000015" class="edge">
<title>Node2&#45;&gt;Node15</title>
<g id="a_edge23_Node000002_Node000015"><a xlink:title=" ">
<path fill="none" stroke="#63b8ff" d="M133.1,-136.84C171.56,-131.32 249.26,-121.5 315.5,-121.5 315.5,-121.5 315.5,-121.5 408,-121.5 474.7,-121.5 533.86,-185.59 559.29,-217.66"/>
<polygon fill="#63b8ff" stroke="#63b8ff" points="556.67,-220 565.54,-225.78 562.21,-215.72 556.67,-220"/>
</a>
</g>
</g>
<!-- Node16 -->
<g id="Node000016" class="node">
<title>Node16</title>
<g id="a_Node000016"><a xlink:href="fs_8c.html#ab3c447f135c68e4c3c1f8d5866f6e77b" target="_top" xlink:title=" ">
<polygon fill="white" stroke="#666666" points="424.5,-283 389.5,-283 389.5,-264 424.5,-264 424.5,-283"/>
<text text-anchor="middle" x="407" y="-271" font-family="Helvetica,sans-Serif" font-size="10.00">iput</text>
</a>
</g>
</g>
<!-- Node2&#45;&gt;Node16 -->
<g id="edge26_Node000002_Node000016" class="edge">
<title>Node2&#45;&gt;Node16</title>
<g id="a_edge26_Node000002_Node000016"><a xlink:title=" ">
<path fill="none" stroke="#63b8ff" d="M113.78,-150.2C122.4,-166.62 142.19,-199.77 169,-216.5 238.44,-259.84 269.89,-234.49 349,-255.5 359.02,-258.16 369.89,-261.49 379.44,-264.55"/>
<polygon fill="#63b8ff" stroke="#63b8ff" points="378.57,-267.95 389.16,-267.73 380.74,-261.3 378.57,-267.95"/>
</a>
</g>
</g>
<!-- Node20 -->
<g id="Node000020" class="node">
<title>Node20</title>
<g id="a_Node000020"><a xlink:href="fs_8c.html#ae4e29916219b9293b37f9c34220694fe" target="_top" xlink:title=" ">
<polygon fill="white" stroke="#666666" points="342.5,-169 290.5,-169 290.5,-150 342.5,-150 342.5,-169"/>
<text text-anchor="middle" x="316.5" y="-157" font-family="Helvetica,sans-Serif" font-size="10.00">iunlock</text>
</a>
</g>
</g>
<!-- Node2&#45;&gt;Node20 -->
<g id="edge39_Node000002_Node000020" class="edge">
<title>Node2&#45;&gt;Node20</title>
<g id="a_edge39_Node000002_Node000020"><a xlink:title=" ">
<path fill="none" stroke="#63b8ff" d="M133.09,-142.72C169.38,-146.06 238.28,-152.39 280.23,-156.25"/>
<polygon fill="#63b8ff" stroke="#63b8ff" points="280,-159.75 290.27,-157.18 280.64,-152.78 280,-159.75"/>
</a>
</g>
</g>
<!-- Node21 -->
<g id="Node000021" class="node">
<title>Node21</title>
<g id="a_Node000021"><a xlink:href="fs_8c.html#a207b3008bae35596c55ec7c4fc6875eb" target="_top" xlink:title=" ">
<polygon fill="white" stroke="#666666" points="242.5,-207 174.5,-207 174.5,-188 242.5,-188 242.5,-207"/>
<text text-anchor="middle" x="208.5" y="-195" font-family="Helvetica,sans-Serif" font-size="10.00">iunlockput</text>
</a>
</g>
</g>
<!-- Node2&#45;&gt;Node21 -->
<g id="edge40_Node000002_Node000021" class="edge">
<title>Node2&#45;&gt;Node21</title>
<g id="a_edge40_Node000002_Node000021"><a xlink:title=" ">
<path fill="none" stroke="#63b8ff" d="M125.71,-150.17C141.23,-159.15 164.55,-172.64 182.32,-182.93"/>
<polygon fill="#63b8ff" stroke="#63b8ff" points="180.63,-185.99 191.04,-187.97 184.14,-179.94 180.63,-185.99"/>
</a>
</g>
</g>
<!-- Node22 -->
<g id="Node000022" class="node">
<title>Node22</title>
<g id="a_Node000022"><a xlink:href="fs_8c.html#ade44726f2aed2af27fa0df5f63f9e688" target="_top" xlink:title=" ">
<polygon fill="white" stroke="#666666" points="248,-56 169,-56 169,-37 248,-37 248,-56"/>
<text text-anchor="middle" x="208.5" y="-44" font-family="Helvetica,sans-Serif" font-size="10.00">nameiparent</text>
</a>
</g>
</g>
<!-- Node2&#45;&gt;Node22 -->
<g id="edge43_Node000002_Node000022" class="edge">
<title>Node2&#45;&gt;Node22</title>
<g id="a_edge43_Node000002_Node000022"><a xlink:title=" ">
<path fill="none" stroke="#63b8ff" d="M111.98,-130.82C119,-114.52 137.78,-83.73 161.49,-61.95"/>
<polygon fill="#63b8ff" stroke="#63b8ff" points="164.03,-64.39 169.35,-55.23 159.47,-59.07 164.03,-64.39"/>
</a>
</g>
</g>
<!-- Node23 -->
<g id="Node000023" class="node">
<title>Node23</title>
<g id="a_Node000023"><a xlink:href="fs_8c.html#a8b3eda072ad15763cdaa2fd356643fb4" target="_top" xlink:title=" ">
<polygon fill="white" stroke="#666666" points="239.5,-19 177.5,-19 177.5,0 239.5,0 239.5,-19"/>
<text text-anchor="middle" x="208.5" y="-7" font-family="Helvetica,sans-Serif" font-size="10.00">skipelem</text>
</a>
</g>
</g>
<!-- Node2&#45;&gt;Node23 -->
<g id="edge45_Node000002_Node000023" class="edge">
<title>Node2&#45;&gt;Node23</title>
<g id="a_edge45_Node000002_Node000023"><a xlink:title=" ">
<path fill="none" stroke="#63b8ff" d="M111.83,-130.72C118.48,-109.34 136.96,-57.95 169,-27.5 169.96,-26.59 170.98,-25.71 172.04,-24.87"/>
<polygon fill="#63b8ff" stroke="#63b8ff" points="174.31,-27.58 180.79,-19.2 170.5,-21.7 174.31,-27.58"/>
</a>
</g>
</g>
<!-- Node3&#45;&gt;Node4 -->
<g id="edge3_Node000003_Node000004" class="edge">
<title>Node3&#45;&gt;Node4</title>
<g id="a_edge3_Node000003_Node000004"><a xlink:title=" ">
<path fill="none" stroke="#63b8ff" d="M227.96,-301.25C245.11,-310.32 270.81,-323.89 289.93,-333.99"/>
<polygon fill="#63b8ff" stroke="#63b8ff" points="288.51,-337.2 298.99,-338.78 291.78,-331.01 288.51,-337.2"/>
</a>
</g>
</g>
<!-- Node5 -->
<g id="Node000005" class="node">
<title>Node5</title>
<g id="a_Node000005"><a xlink:href="fs_8c.html#ae74f6e5b19a4e7f3e72807ee67141819" target="_top" xlink:title=" ">
<polygon fill="white" stroke="#666666" points="349,-283 284,-283 284,-264 349,-264 349,-283"/>
<text text-anchor="middle" x="316.5" y="-271" font-family="Helvetica,sans-Serif" font-size="10.00">namecmp</text>
</a>
</g>
</g>
<!-- Node3&#45;&gt;Node5 -->
<g id="edge4_Node000003_Node000005" class="edge">
<title>Node3&#45;&gt;Node5</title>
<g id="a_edge4_Node000003_Node000005"><a xlink:title=" ">
<path fill="none" stroke="#63b8ff" d="M239.59,-286.39C250.18,-284.59 262.28,-282.54 273.67,-280.6"/>
<polygon fill="#63b8ff" stroke="#63b8ff" points="274.58,-284 283.85,-278.87 273.41,-277.1 274.58,-284"/>
</a>
</g>
</g>
<!-- Node6 -->
<g id="Node000006" class="node">
<title>Node6</title>
<g id="a_Node000006"><a xlink:href="fs_8c.html#a3aba1fa9f6789d09356aec5b96d91fa8" target="_top" xlink:title=" ">
<polygon fill="white" stroke="#666666" points="337,-320 296,-320 296,-301 337,-301 337,-320"/>
<text text-anchor="middle" x="316.5" y="-308" font-family="Helvetica,sans-Serif" font-size="10.00">readi</text>
</a>
</g>
</g>
<!-- Node3&#45;&gt;Node6 -->
<g id="edge5_Node000003_Node000006" class="edge">
<title>Node3&#45;&gt;Node6</title>
<g id="a_edge5_Node000003_Node000006"><a xlink:title=" ">
<path fill="none" stroke="#63b8ff" d="M239.59,-296.89C254.07,-299.49 271.38,-302.59 285.81,-305.18"/>
<polygon fill="#63b8ff" stroke="#63b8ff" points="285.26,-308.64 295.72,-306.95 286.5,-301.75 285.26,-308.64"/>
</a>
</g>
</g>
<!-- Node7 -->
<g id="Node000007" class="node">
<title>Node7</title>
<g id="a_Node000007"><a xlink:href="fs_8c.html#a965e83e1fa9b15abf268784ce74181bb" target="_top" xlink:title=" ">
<polygon fill="white" stroke="#666666" points="429,-490 385,-490 385,-471 429,-471 429,-490"/>
<text text-anchor="middle" x="407" y="-478" font-family="Helvetica,sans-Serif" font-size="10.00">bmap</text>
</a>
</g>
</g>
<!-- Node6&#45;&gt;Node7 -->
<g id="edge6_Node000006_Node000007" class="edge">
<title>Node6&#45;&gt;Node7</title>
<g id="a_edge6_Node000006_Node000007"><a xlink:title=" ">
<path fill="none" stroke="#63b8ff" d="M337.06,-319.53C341.43,-322.25 345.73,-325.57 349,-329.5 382.06,-369.19 397.07,-430.03 402.87,-460.97"/>
<polygon fill="#63b8ff" stroke="#63b8ff" points="399.44,-461.67 404.61,-470.92 406.34,-460.47 399.44,-461.67"/>
</a>
</g>
</g>
<!-- Node9 -->
<g id="Node000009" class="node">
<title>Node9</title>
<g id="a_Node000009"><a xlink:href="bio_8c.html#a30b8d2ef2300ed8e3d879a428fe39898" target="_top" xlink:title=" ">
<polygon fill="white" stroke="#666666" points="689,-321 645,-321 645,-302 689,-302 689,-321"/>
<text text-anchor="middle" x="667" y="-309" font-family="Helvetica,sans-Serif" font-size="10.00">bread</text>
</a>
</g>
</g>
<!-- Node6&#45;&gt;Node9 -->
<g id="edge19_Node000006_Node000009" class="edge">
<title>Node6&#45;&gt;Node9</title>
<g id="a_edge19_Node000006_Node000009"><a xlink:title=" ">
<path fill="none" stroke="#63b8ff" d="M336.38,-300.86C340.67,-298.36 345.12,-295.51 349,-292.5 367.14,-278.45 365.43,-267.48 385,-255.5 449.27,-216.16 472.49,-216.74 547,-205.5 570.29,-201.99 579.41,-194.06 600,-205.5 633.33,-224.01 652.02,-267.12 660.45,-292.29"/>
<polygon fill="#63b8ff" stroke="#63b8ff" points="657.11,-293.36 663.44,-301.85 663.79,-291.26 657.11,-293.36"/>
</a>
</g>
</g>
<!-- Node11 -->
<g id="Node000011" class="node">
<title>Node11</title>
<g id="a_Node000011"><a xlink:href="bio_8c.html#ab5335aeb503731104314321a78a6d727" target="_top" xlink:title=" ">
<polygon fill="white" stroke="#666666" points="690.5,-453 643.5,-453 643.5,-434 690.5,-434 690.5,-453"/>
<text text-anchor="middle" x="667" y="-441" font-family="Helvetica,sans-Serif" font-size="10.00">brelse</text>
</a>
</g>
</g>
<!-- Node6&#45;&gt;Node11 -->
<g id="edge20_Node000006_Node000011" class="edge">
<title>Node6&#45;&gt;Node11</title>
<g id="a_edge20_Node000006_Node000011"><a xlink:title=" ">
<path fill="none" stroke="#63b8ff" d="M337.17,-318.99C341.64,-321.75 345.96,-325.23 349,-329.5 393.77,-392.43 335.28,-440.4 385,-499.5 409.65,-528.8 427.69,-522.89 465,-531.5 523.52,-545 547.17,-566.06 600,-537.5 625.7,-523.61 619.08,-506.32 636,-482.5 640.97,-475.51 646.65,-468.01 651.72,-461.46"/>
<polygon fill="#63b8ff" stroke="#63b8ff" points="654.73,-463.31 658.14,-453.28 649.22,-458.99 654.73,-463.31"/>
</a>
</g>
</g>
<!-- Node8 -->
<g id="Node000008" class="node">
<title>Node8</title>
<g id="a_Node000008"><a xlink:href="fs_8c.html#a29272227722d57ff937caaffd03455a9" target="_top" xlink:title=" ">
<polygon fill="white" stroke="#666666" points="511,-490 465,-490 465,-471 511,-471 511,-490"/>
<text text-anchor="middle" x="488" y="-478" font-family="Helvetica,sans-Serif" font-size="10.00">balloc</text>
</a>
</g>
</g>
<!-- Node7&#45;&gt;Node8 -->
<g id="edge7_Node000007_Node000008" class="edge">
<title>Node7&#45;&gt;Node8</title>
<g id="a_edge7_Node000007_Node000008"><a xlink:title=" ">
<path fill="none" stroke="#63b8ff" d="M429.17,-480.5C437.03,-480.5 446.14,-480.5 454.77,-480.5"/>
<polygon fill="#63b8ff" stroke="#63b8ff" points="454.94,-484 464.94,-480.5 454.94,-477 454.94,-484"/>
</a>
</g>
</g>
<!-- Node7&#45;&gt;Node9 -->
<g id="edge16_Node000007_Node000009" class="edge">
<title>Node7&#45;&gt;Node9</title>
<g id="a_edge16_Node000007_Node000009"><a xlink:title=" ">
<path fill="none" stroke="#63b8ff" d="M408.96,-470.9C413.77,-428.66 439.54,-259.64 547,-217.5 568.93,-208.9 579.1,-206.64 600,-217.5 630.09,-233.14 649.33,-269.48 658.85,-292.12"/>
<polygon fill="#63b8ff" stroke="#63b8ff" points="655.72,-293.7 662.65,-301.71 662.22,-291.12 655.72,-293.7"/>
</a>
</g>
</g>
<!-- Node7&#45;&gt;Node11 -->
<g id="edge17_Node000007_Node000011" class="edge">
<title>Node7&#45;&gt;Node11</title>
<g id="a_edge17_Node000007_Node000011"><a xlink:title=" ">
<path fill="none" stroke="#63b8ff" d="M423.92,-490.05C457.79,-509.03 538.88,-547.37 600,-519.5 606.88,-516.36 634.65,-482.7 651.9,-461.24"/>
<polygon fill="#63b8ff" stroke="#63b8ff" points="654.83,-463.18 658.35,-453.18 649.37,-458.8 654.83,-463.18"/>
</a>
</g>
</g>
<!-- Node13 -->
<g id="Node000013" class="node">
<title>Node13</title>
<g id="a_Node000013"><a xlink:href="log_8c.html#a7eacb0fbebe5ce4c7d3ddea15908b13d" target="_top" xlink:title=" ">
<polygon fill="white" stroke="#666666" points="698,-510 636,-510 636,-491 698,-491 698,-510"/>
<text text-anchor="middle" x="667" y="-498" font-family="Helvetica,sans-Serif" font-size="10.00">log_write</text>
</a>
</g>
</g>
<!-- Node7&#45;&gt;Node13 -->
<g id="edge18_Node000007_Node000013" class="edge">
<title>Node7&#45;&gt;Node13</title>
<g id="a_edge18_Node000007_Node000013"><a xlink:title=" ">
<path fill="none" stroke="#63b8ff" d="M409.58,-490.11C413.85,-512.49 427.88,-567.93 465,-590.5 516.27,-621.67 546.48,-617.62 600,-590.5 629.24,-575.68 648.66,-541.13 658.47,-519.41"/>
<polygon fill="#63b8ff" stroke="#63b8ff" points="661.7,-520.76 662.41,-510.19 655.26,-518.01 661.7,-520.76"/>
</a>
</g>
</g>
<!-- Node8&#45;&gt;Node9 -->
<g id="edge8_Node000008_Node000009" class="edge">
<title>Node8&#45;&gt;Node9</title>
<g id="a_edge8_Node000008_Node000009"><a xlink:title=" ">
<path fill="none" stroke="#63b8ff" d="M491.73,-470.93C498.14,-450.01 515.98,-399.66 547,-369.5 571.87,-345.31 608.79,-329.48 634.9,-320.56"/>
<polygon fill="#63b8ff" stroke="#63b8ff" points="636.25,-323.8 644.67,-317.37 634.08,-317.15 636.25,-323.8"/>
</a>
</g>
</g>
<!-- Node8&#45;&gt;Node11 -->
<g id="edge10_Node000008_Node000011" class="edge">
<title>Node8&#45;&gt;Node11</title>
<g id="a_edge10_Node000008_Node000011"><a xlink:title=" ">
<path fill="none" stroke="#63b8ff" d="M511.06,-475.89C541.85,-469.45 597.91,-457.73 633.49,-450.3"/>
<polygon fill="#63b8ff" stroke="#63b8ff" points="634.31,-453.7 643.38,-448.23 632.88,-446.85 634.31,-453.7"/>
</a>
</g>
</g>
<!-- Node12 -->
<g id="Node000012" class="node">
<title>Node12</title>
<g id="a_Node000012"><a xlink:href="fs_8c.html#ac93f607f4a954323f4c9ea485ca88538" target="_top" xlink:title=" ">
<polygon fill="white" stroke="#666666" points="595.5,-510 551.5,-510 551.5,-491 595.5,-491 595.5,-510"/>
<text text-anchor="middle" x="573.5" y="-498" font-family="Helvetica,sans-Serif" font-size="10.00">bzero</text>
</a>
</g>
</g>
<!-- Node8&#45;&gt;Node12 -->
<g id="edge11_Node000008_Node000012" class="edge">
<title>Node8&#45;&gt;Node12</title>
<g id="a_edge11_Node000008_Node000012"><a xlink:title=" ">
<path fill="none" stroke="#63b8ff" d="M511.38,-485.86C520.63,-488.08 531.51,-490.68 541.5,-493.08"/>
<polygon fill="#63b8ff" stroke="#63b8ff" points="540.96,-496.54 551.5,-495.47 542.59,-489.74 540.96,-496.54"/>
</a>
</g>
</g>
<!-- Node8&#45;&gt;Node13 -->
<g id="edge15_Node000008_Node000013" class="edge">
<title>Node8&#45;&gt;Node13</title>
<g id="a_edge15_Node000008_Node000013"><a xlink:title=" ">
<path fill="none" stroke="#63b8ff" d="M499.11,-490.09C509.97,-499.67 528.2,-513.77 547,-519.5 575.54,-528.2 609.22,-521.31 633.45,-513.5"/>
<polygon fill="#63b8ff" stroke="#63b8ff" points="634.89,-516.7 643.21,-510.14 632.62,-510.08 634.89,-516.7"/>
</a>
</g>
</g>
<!-- Node10 -->
<g id="Node000010" class="node">
<title>Node10</title>
<g id="a_Node000010"><a xlink:href="bio_8c.html#a69dcd3ce86d958b4024c6746263f3f5b" target="_top" xlink:title=" ">
<polygon fill="white" stroke="#666666" points="772,-321 734,-321 734,-302 772,-302 772,-321"/>
<text text-anchor="middle" x="753" y="-309" font-family="Helvetica,sans-Serif" font-size="10.00">bget</text>
</a>
</g>
</g>
<!-- Node9&#45;&gt;Node10 -->
<g id="edge9_Node000009_Node000010" class="edge">
<title>Node9&#45;&gt;Node10</title>
<g id="a_edge9_Node000009_Node000010"><a xlink:title=" ">
<path fill="none" stroke="#63b8ff" d="M689.2,-311.5C699.66,-311.5 712.42,-311.5 723.7,-311.5"/>
<polygon fill="#63b8ff" stroke="#63b8ff" points="723.94,-315 733.94,-311.5 723.94,-308 723.94,-315"/>
</a>
</g>
</g>
<!-- Node12&#45;&gt;Node9 -->
<g id="edge12_Node000012_Node000009" class="edge">
<title>Node12&#45;&gt;Node9</title>
<g id="a_edge12_Node000012_Node000009"><a xlink:title=" ">
<path fill="none" stroke="#63b8ff" d="M579.16,-490.87C593.57,-461.11 637.55,-370.27 656.81,-330.49"/>
<polygon fill="#63b8ff" stroke="#63b8ff" points="660.03,-331.87 661.24,-321.34 653.73,-328.82 660.03,-331.87"/>
</a>
</g>
</g>
<!-- Node12&#45;&gt;Node11 -->
<g id="edge13_Node000012_Node000011" class="edge">
<title>Node12&#45;&gt;Node11</title>
<g id="a_edge13_Node000012_Node000011"><a xlink:title=" ">
<path fill="none" stroke="#63b8ff" d="M590.02,-490.83C604.3,-481.93 625.7,-468.6 642.15,-458.36"/>
<polygon fill="#63b8ff" stroke="#63b8ff" points="644.07,-461.28 650.71,-453.03 640.37,-455.34 644.07,-461.28"/>
</a>
</g>
</g>
<!-- Node12&#45;&gt;Node13 -->
<g id="edge14_Node000012_Node000013" class="edge">
<title>Node12&#45;&gt;Node13</title>
<g id="a_edge14_Node000012_Node000013"><a xlink:title=" ">
<path fill="none" stroke="#63b8ff" d="M595.72,-500.5C604.67,-500.5 615.4,-500.5 625.74,-500.5"/>
<polygon fill="#63b8ff" stroke="#63b8ff" points="625.88,-504 635.88,-500.5 625.88,-497 625.88,-504"/>
</a>
</g>
</g>
<!-- Node15&#45;&gt;Node9 -->
<g id="edge24_Node000015_Node000009" class="edge">
<title>Node15&#45;&gt;Node9</title>
<g id="a_edge24_Node000015_Node000009"><a xlink:title=" ">
<path fill="none" stroke="#63b8ff" d="M586.09,-245.13C601.35,-257.8 628.4,-280.27 646.76,-295.52"/>
<polygon fill="#63b8ff" stroke="#63b8ff" points="644.58,-298.26 654.51,-301.95 649.05,-292.87 644.58,-298.26"/>
</a>
</g>
</g>
<!-- Node15&#45;&gt;Node11 -->
<g id="edge25_Node000015_Node000011" class="edge">
<title>Node15&#45;&gt;Node11</title>
<g id="a_edge25_Node000015_Node000011"><a xlink:title=" ">
<path fill="none" stroke="#63b8ff" d="M578.79,-245.25C592.96,-277.46 638.42,-380.79 657.47,-424.11"/>
<polygon fill="#63b8ff" stroke="#63b8ff" points="654.38,-425.78 661.61,-433.53 660.79,-422.96 654.38,-425.78"/>
</a>
</g>
</g>
<!-- Node17 -->
<g id="Node000017" class="node">
<title>Node17</title>
<g id="a_Node000017"><a xlink:href="fs_8c.html#a7c42ba96035fb59aef87372552b1a661" target="_top" xlink:title=" ">
<polygon fill="white" stroke="#666666" points="510,-321 466,-321 466,-302 510,-302 510,-321"/>
<text text-anchor="middle" x="488" y="-309" font-family="Helvetica,sans-Serif" font-size="10.00">itrunc</text>
</a>
</g>
</g>
<!-- Node16&#45;&gt;Node17 -->
<g id="edge27_Node000016_Node000017" class="edge">
<title>Node16&#45;&gt;Node17</title>
<g id="a_edge27_Node000016_Node000017"><a xlink:title=" ">
<path fill="none" stroke="#63b8ff" d="M424.75,-281.56C434.45,-286.22 446.92,-292.22 458.15,-297.62"/>
<polygon fill="#63b8ff" stroke="#63b8ff" points="456.67,-300.79 467.2,-301.98 459.7,-294.49 456.67,-300.79"/>
</a>
</g>
</g>
<!-- Node19 -->
<g id="Node000019" class="node">
<title>Node19</title>
<g id="a_Node000019"><a xlink:href="fs_8c.html#a7220afa8e5f4bea540eb95879ea7df6e" target="_top" xlink:title=" ">
<polygon fill="white" stroke="#666666" points="600,-434 547,-434 547,-415 600,-415 600,-434"/>
<text text-anchor="middle" x="573.5" y="-422" font-family="Helvetica,sans-Serif" font-size="10.00">iupdate</text>
</a>
</g>
</g>
<!-- Node16&#45;&gt;Node19 -->
<g id="edge38_Node000016_Node000019" class="edge">
<title>Node16&#45;&gt;Node19</title>
<g id="a_edge38_Node000016_Node000019"><a xlink:title=" ">
<path fill="none" stroke="#63b8ff" d="M416.95,-283.09C438.34,-305.77 494.58,-364.02 547,-406.5 547.99,-407.31 549.02,-408.12 550.07,-408.92"/>
<polygon fill="#63b8ff" stroke="#63b8ff" points="548.09,-411.82 558.22,-414.92 552.24,-406.18 548.09,-411.82"/>
</a>
</g>
</g>
<!-- Node17&#45;&gt;Node9 -->
<g id="edge32_Node000017_Node000009" class="edge">
<title>Node17&#45;&gt;Node9</title>
<g id="a_edge32_Node000017_Node000009"><a xlink:title=" ">
<path fill="none" stroke="#63b8ff" d="M510.26,-305.09C521.14,-302.14 534.66,-298.97 547,-297.5 570.39,-294.72 576.57,-295.04 600,-297.5 611.48,-298.7 623.89,-301.05 634.83,-303.49"/>
<polygon fill="#63b8ff" stroke="#63b8ff" points="634.24,-306.95 644.78,-305.82 635.84,-300.13 634.24,-306.95"/>
</a>
</g>
</g>
<!-- Node17&#45;&gt;Node11 -->
<g id="edge33_Node000017_Node000011" class="edge">
<title>Node17&#45;&gt;Node11</title>
<g id="a_edge33_Node000017_Node000011"><a xlink:title=" ">
<path fill="none" stroke="#63b8ff" d="M510.38,-319.92C533.77,-329.73 571.7,-347.45 600,-369.5 621.08,-385.93 640.87,-409.65 653.17,-425.77"/>
<polygon fill="#63b8ff" stroke="#63b8ff" points="650.42,-427.93 659.2,-433.85 656.03,-423.74 650.42,-427.93"/>
</a>
</g>
</g>
<!-- Node18 -->
<g id="Node000018" class="node">
<title>Node18</title>
<g id="a_Node000018"><a xlink:href="fs_8c.html#a2800a4b570ae39363cec0613dac92fd7" target="_top" xlink:title=" ">
<polygon fill="white" stroke="#666666" points="594.5,-397 552.5,-397 552.5,-378 594.5,-378 594.5,-397"/>
<text text-anchor="middle" x="573.5" y="-385" font-family="Helvetica,sans-Serif" font-size="10.00">bfree</text>
</a>
</g>
</g>
<!-- Node17&#45;&gt;Node18 -->
<g id="edge28_Node000017_Node000018" class="edge">
<title>Node17&#45;&gt;Node18</title>
<g id="a_edge28_Node000017_Node000018"><a xlink:title=" ">
<path fill="none" stroke="#63b8ff" d="M499.58,-321.13C513.38,-333.69 537.74,-355.87 554.48,-371.1"/>
<polygon fill="#63b8ff" stroke="#63b8ff" points="552.26,-373.81 562.01,-377.95 556.97,-368.63 552.26,-373.81"/>
</a>
</g>
</g>
<!-- Node17&#45;&gt;Node19 -->
<g id="edge34_Node000017_Node000019" class="edge">
<title>Node17&#45;&gt;Node19</title>
<g id="a_edge34_Node000017_Node000019"><a xlink:title=" ">
<path fill="none" stroke="#63b8ff" d="M493.31,-321.26C501.7,-339.52 521.65,-379.41 547,-406.5 547.63,-407.18 548.29,-407.84 548.98,-408.49"/>
<polygon fill="#63b8ff" stroke="#63b8ff" points="546.9,-411.32 556.85,-414.97 551.35,-405.91 546.9,-411.32"/>
</a>
</g>
</g>
<!-- Node18&#45;&gt;Node9 -->
<g id="edge29_Node000018_Node000009" class="edge">
<title>Node18&#45;&gt;Node9</title>
<g id="a_edge29_Node000018_Node000009"><a xlink:title=" ">
<path fill="none" stroke="#63b8ff" d="M586.09,-377.87C601.35,-365.2 628.4,-342.73 646.76,-327.48"/>
<polygon fill="#63b8ff" stroke="#63b8ff" points="649.05,-330.13 654.51,-321.05 644.58,-324.74 649.05,-330.13"/>
</a>
</g>
</g>
<!-- Node18&#45;&gt;Node11 -->
<g id="edge30_Node000018_Node000011" class="edge">
<title>Node18&#45;&gt;Node11</title>
<g id="a_edge30_Node000018_Node000011"><a xlink:title=" ">
<path fill="none" stroke="#63b8ff" d="M590.44,-397.25C604.48,-405.85 625.15,-418.5 641.32,-428.4"/>
<polygon fill="#63b8ff" stroke="#63b8ff" points="639.89,-431.62 650.24,-433.86 643.54,-425.65 639.89,-431.62"/>
</a>
</g>
</g>
<!-- Node18&#45;&gt;Node13 -->
<g id="edge31_Node000018_Node000013" class="edge">
<title>Node18&#45;&gt;Node13</title>
<g id="a_edge31_Node000018_Node000013"><a xlink:title=" ">
<path fill="none" stroke="#63b8ff" d="M589.28,-397.11C593,-399.9 596.84,-403.11 600,-406.5 620.19,-428.13 618.81,-438.42 636,-462.5 640.83,-469.27 646.42,-476.49 651.44,-482.8"/>
<polygon fill="#63b8ff" stroke="#63b8ff" points="648.83,-485.13 657.84,-490.7 654.27,-480.72 648.83,-485.13"/>
</a>
</g>
</g>
<!-- Node19&#45;&gt;Node9 -->
<g id="edge35_Node000019_Node000009" class="edge">
<title>Node19&#45;&gt;Node9</title>
<g id="a_edge35_Node000019_Node000009"><a xlink:title=" ">
<path fill="none" stroke="#63b8ff" d="M590.02,-414.85C593.49,-412.34 597.02,-409.5 600,-406.5 623.34,-382.98 644.01,-350.31 655.76,-330.06"/>
<polygon fill="#63b8ff" stroke="#63b8ff" points="658.89,-331.64 660.78,-321.21 652.8,-328.18 658.89,-331.64"/>
</a>
</g>
</g>
<!-- Node19&#45;&gt;Node11 -->
<g id="edge36_Node000019_Node000011" class="edge">
<title>Node19&#45;&gt;Node11</title>
<g id="a_edge36_Node000019_Node000011"><a xlink:title=" ">
<path fill="none" stroke="#63b8ff" d="M600.48,-429.89C610.73,-432.02 622.62,-434.49 633.43,-436.74"/>
<polygon fill="#63b8ff" stroke="#63b8ff" points="632.88,-440.2 643.38,-438.8 634.3,-433.34 632.88,-440.2"/>
</a>
</g>
</g>
<!-- Node19&#45;&gt;Node13 -->
<g id="edge37_Node000019_Node000013" class="edge">
<title>Node19&#45;&gt;Node13</title>
<g id="a_edge37_Node000019_Node000013"><a xlink:title=" ">
<path fill="none" stroke="#63b8ff" d="M586.09,-434.13C601.35,-446.8 628.4,-469.27 646.76,-484.52"/>
<polygon fill="#63b8ff" stroke="#63b8ff" points="644.58,-487.26 654.51,-490.95 649.05,-481.87 644.58,-487.26"/>
</a>
</g>
</g>
<!-- Node21&#45;&gt;Node16 -->
<g id="edge41_Node000021_Node000016" class="edge">
<title>Node21&#45;&gt;Node16</title>
<g id="a_edge41_Node000021_Node000016"><a xlink:title=" ">
<path fill="none" stroke="#63b8ff" d="M242.67,-198.01C271.99,-199.63 315.23,-204.98 349,-221.5 365.65,-229.65 380.96,-244.18 391.51,-255.82"/>
<polygon fill="#63b8ff" stroke="#63b8ff" points="389.1,-258.39 398.3,-263.65 394.39,-253.8 389.1,-258.39"/>
</a>
</g>
</g>
<!-- Node21&#45;&gt;Node20 -->
<g id="edge42_Node000021_Node000020" class="edge">
<title>Node21&#45;&gt;Node20</title>
<g id="a_edge42_Node000021_Node000020"><a xlink:title=" ">
<path fill="none" stroke="#63b8ff" d="M236.25,-187.91C249.7,-183.09 266.18,-177.18 280.61,-172.01"/>
<polygon fill="#63b8ff" stroke="#63b8ff" points="281.99,-175.23 290.22,-168.56 279.63,-168.64 281.99,-175.23"/>
</a>
</g>
</g>
<!-- Node22&#45;&gt;Node2 -->
<g id="edge44_Node000022_Node000002" class="edge">
<title>Node22&#45;&gt;Node2</title>
<g id="a_edge44_Node000022_Node000002"><a xlink:title=" ">
<path fill="none" stroke="#63b8ff" d="M198.91,-56.1C190.66,-61.1 178.14,-66.26 169,-73.5 151.32,-87.5 135.69,-107.7 124.82,-122.46"/>
<polygon fill="#63b8ff" stroke="#63b8ff" points="121.77,-120.71 118.69,-130.84 127.42,-124.84 121.77,-120.71"/>
</a>
</g>
</g>
</g>
</svg>

<g id="navigator" transform="translate(0 0)" fill="#404254">
  <rect fill="#f2f5e9" fill-opacity="0.5" stroke="#606060" stroke-width=".5" x="0" y="0" width="60" height="60"/>
  <use id="zoomplus" xlink:href="#zoomPlus" x="17" y="9" onmousedown="handleZoom(evt,'in')"/>
  <use id="zoomminus" xlink:href="#zoomMin" x="42" y="9" onmousedown="handleZoom(evt,'out')"/>
  <use id="reset" xlink:href="#resetDef" x="30" y="36" onmousedown="handleReset()"/>
   <use id="arrowup" xlink:href="#arrowUp" x="0" y="0" onmousedown="handlePan(0,-1)"/>
  <use id="arrowright" xlink:href="#arrowRight" x="0" y="0" onmousedown="handlePan(1,0)"/>
  <use id="arrowdown" xlink:href="#arrowDown" x="0" y="0" onmousedown="handlePan(0,1)"/>
  <use id="arrowleft" xlink:href="#arrowLeft" x="0" y="0" onmousedown="handlePan(-1,0)"/>
</g>
<svg viewBox="0 0 15 15" width="100%" height="30px" preserveAspectRatio="xMaxYMin meet">
 <g id="arrow_out" transform="scale(0.3 0.3)">
  <a xlink:href="fs_8c_a35c52ecf358097c17dcbbd5594acb41a_cgraph_org.svg" target="_base">
   <rect id="button" ry="5" rx="5" y="6" x="6" height="38" width="38"
        fill="#f2f5e9" fill-opacity="0.5" stroke="#606060" stroke-width="1.0"/>
   <path id="arrow"
     d="M 11.500037,31.436501 C 11.940474,20.09759 22.043105,11.32322 32.158766,21.979434 L 37.068811,17.246167 C 37.068811,17.246167 37.088388,32 37.088388,32 L 22.160133,31.978069 C 22.160133,31.978069 26.997745,27.140456 26.997745,27.140456 C 18.528582,18.264221 13.291696,25.230495 11.500037,31.436501 z"
     style="fill:#404040;"/>
  </a>
 </g>
</svg>

<style type='text/css'>
<![CDATA[
[data-mouse-over-selected='false'] { opacity: 0.7; }
[data-mouse-over-selected='true']  { opacity: 1.0; }
]]>
</style>
<script type="application/ecmascript"><![CDATA[
document.addEventListener('DOMContentLoaded', (event) => {
  highlightEdges();
  highlightAdjacentNodes();
});
]]></script>
</svg>
