<?xml version="1.0" encoding="UTF-8" standalone="no"?>
<!DOCTYPE svg PUBLIC "-//W3C//DTD SVG 1.1//EN"
 "http://www.w3.org/Graphics/SVG/1.1/DTD/svg11.dtd">
<!-- Generated by graphviz version 2.43.0 (0)
 -->
<!-- Title: bmap Pages: 1 -->
<svg width="431pt" height="192pt"
 viewBox="0.00 0.00 431.00 192.44" xmlns="http://www.w3.org/2000/svg" xmlns:xlink="http://www.w3.org/1999/xlink">

<svg id="main" version="1.1" xmlns="http://www.w3.org/2000/svg" xmlns:xlink="http://www.w3.org/1999/xlink" xml:space="preserve" onload="init(evt)">
<style type="text/css"><![CDATA[
.node, .edge {opacity: 0.7;}
.node.selected, .edge.selected {opacity: 1;}
.edge:hover path { stroke: red; }
.edge:hover polygon { stroke: red; fill: red; }
]]></style>
<script type="application/ecmascript" xlink:href="svg.min.js"/>
<svg id="graph" class="graph">
<g id="graph0" class="graph" transform="scale(1 1) rotate(0) translate(4 188.44)">
<title>bmap</title>
<!-- Node1 -->
<g id="Node000001" class="node">
<title>Node1</title>
<g id="a_Node000001"><a xlink:title=" ">
<polygon fill="#999999" stroke="#666666" points="423,-53.44 379,-53.44 379,-34.44 423,-34.44 423,-53.44"/>
<text text-anchor="middle" x="401" y="-41.44" font-family="Helvetica,sans-Serif" font-size="10.00">bmap</text>
</a>
</g>
</g>
<!-- Node2 -->
<g id="Node000002" class="node">
<title>Node2</title>
<g id="a_Node000002"><a xlink:href="fs_8c.html#a3aba1fa9f6789d09356aec5b96d91fa8" target="_top" xlink:title=" ">
<polygon fill="white" stroke="#666666" points="341.5,-91.44 300.5,-91.44 300.5,-72.44 341.5,-72.44 341.5,-91.44"/>
<text text-anchor="middle" x="321" y="-79.44" font-family="Helvetica,sans-Serif" font-size="10.00">readi</text>
</a>
</g>
</g>
<!-- Node1&#45;&gt;Node2 -->
<g id="edge1_Node000001_Node000002" class="edge">
<title>Node1&#45;&gt;Node2</title>
<g id="a_edge1_Node000001_Node000002"><a xlink:title=" ">
<path fill="none" stroke="#63b8ff" d="M371.26,-57.94C361.42,-62.74 350.64,-67.99 341.68,-72.36"/>
<polygon fill="#63b8ff" stroke="#63b8ff" points="372.86,-61.06 380.32,-53.53 369.79,-54.76 372.86,-61.06"/>
</a>
</g>
</g>
<!-- Node9 -->
<g id="Node000009" class="node">
<title>Node9</title>
<g id="a_Node000009"><a xlink:href="fs_8c.html#a15858f4d8a4cc1def3d84d03c312836b" target="_top" xlink:title=" ">
<polygon fill="white" stroke="#666666" points="343,-34.44 299,-34.44 299,-15.44 343,-15.44 343,-34.44"/>
<text text-anchor="middle" x="321" y="-22.44" font-family="Helvetica,sans-Serif" font-size="10.00">writei</text>
</a>
</g>
</g>
<!-- Node1&#45;&gt;Node9 -->
<g id="edge10_Node000001_Node000009" class="edge">
<title>Node1&#45;&gt;Node9</title>
<g id="a_edge10_Node000001_Node000009"><a xlink:title=" ">
<path fill="none" stroke="#63b8ff" d="M368.86,-36.36C360.18,-34.24 350.96,-32 343.02,-30.06"/>
<polygon fill="#63b8ff" stroke="#63b8ff" points="368.14,-39.78 378.69,-38.75 369.8,-32.98 368.14,-39.78"/>
</a>
</g>
</g>
<!-- Node3 -->
<g id="Node000003" class="node">
<title>Node3</title>
<g id="a_Node000003"><a xlink:href="fs_8c.html#a69a135a0e8a06d9f306d77ebc0c1f7a0" target="_top" xlink:title=" ">
<polygon fill="white" stroke="#666666" points="163.5,-72.44 116.5,-72.44 116.5,-53.44 163.5,-53.44 163.5,-72.44"/>
<text text-anchor="middle" x="140" y="-60.44" font-family="Helvetica,sans-Serif" font-size="10.00">dirlink</text>
</a>
</g>
</g>
<!-- Node2&#45;&gt;Node3 -->
<g id="edge2_Node000002_Node000003" class="edge">
<title>Node2&#45;&gt;Node3</title>
<g id="a_edge2_Node000002_Node000003"><a xlink:title=" ">
<path fill="none" stroke="#63b8ff" d="M289.9,-78.75C254.28,-74.97 195.78,-68.76 163.74,-65.35"/>
<polygon fill="#63b8ff" stroke="#63b8ff" points="289.85,-82.26 300.16,-79.84 290.59,-75.3 289.85,-82.26"/>
</a>
</g>
</g>
<!-- Node4 -->
<g id="Node000004" class="node">
<title>Node4</title>
<g id="a_Node000004"><a xlink:href="fs_8c.html#a5341068f021beac8cf0032b97d231e6f" target="_top" xlink:title=" ">
<polygon fill="white" stroke="#666666" points="263,-147.44 201,-147.44 201,-128.44 263,-128.44 263,-147.44"/>
<text text-anchor="middle" x="232" y="-135.44" font-family="Helvetica,sans-Serif" font-size="10.00">dirlookup</text>
</a>
</g>
</g>
<!-- Node2&#45;&gt;Node4 -->
<g id="edge3_Node000002_Node000004" class="edge">
<title>Node2&#45;&gt;Node4</title>
<g id="a_edge3_Node000002_Node000004"><a xlink:title=" ">
<path fill="none" stroke="#63b8ff" d="M297.55,-97.27C287.12,-104.29 274.5,-112.66 263,-119.94 258.59,-122.73 253.75,-125.68 249.28,-128.37"/>
<polygon fill="#63b8ff" stroke="#63b8ff" points="299.75,-100 306.07,-91.5 295.82,-94.21 299.75,-100"/>
</a>
</g>
</g>
<!-- Node8 -->
<g id="Node000008" class="node">
<title>Node8</title>
<g id="a_Node000008"><a xlink:href="file_8c.html#a1dc8c87c7e48bdaaf98e9c7047928f29" target="_top" xlink:title=" ">
<polygon fill="white" stroke="#666666" points="258.5,-110.44 205.5,-110.44 205.5,-91.44 258.5,-91.44 258.5,-110.44"/>
<text text-anchor="middle" x="232" y="-98.44" font-family="Helvetica,sans-Serif" font-size="10.00">fileread</text>
</a>
</g>
</g>
<!-- Node2&#45;&gt;Node8 -->
<g id="edge9_Node000002_Node000008" class="edge">
<title>Node2&#45;&gt;Node8</title>
<g id="a_edge9_Node000002_Node000008"><a xlink:title=" ">
<path fill="none" stroke="#63b8ff" d="M290.42,-88.4C280.09,-90.66 268.59,-93.17 258.61,-95.35"/>
<polygon fill="#63b8ff" stroke="#63b8ff" points="291.24,-91.81 300.26,-86.25 289.74,-84.97 291.24,-91.81"/>
</a>
</g>
</g>
<!-- Node4&#45;&gt;Node3 -->
<g id="edge4_Node000004_Node000003" class="edge">
<title>Node4&#45;&gt;Node3</title>
<g id="a_edge4_Node000004_Node000003"><a xlink:title=" ">
<path fill="none" stroke="#63b8ff" d="M204.76,-122.67C203.47,-121.77 202.21,-120.86 201,-119.94 181.33,-104.98 161.01,-84.39 149.79,-72.49"/>
<polygon fill="#63b8ff" stroke="#63b8ff" points="203.15,-125.79 213.44,-128.29 206.95,-119.92 203.15,-125.79"/>
</a>
</g>
</g>
<!-- Node5 -->
<g id="Node000005" class="node">
<title>Node5</title>
<g id="a_Node000005"><a xlink:href="fs_8c.html#a0f085d02326c9dd34cb4e58133a7b948" target="_top" xlink:title=" ">
<polygon fill="white" stroke="#666666" points="165,-147.44 115,-147.44 115,-128.44 165,-128.44 165,-147.44"/>
<text text-anchor="middle" x="140" y="-135.44" font-family="Helvetica,sans-Serif" font-size="10.00">namex</text>
</a>
</g>
</g>
<!-- Node4&#45;&gt;Node5 -->
<g id="edge5_Node000004_Node000005" class="edge">
<title>Node4&#45;&gt;Node5</title>
<g id="a_edge5_Node000004_Node000005"><a xlink:title=" ">
<path fill="none" stroke="#63b8ff" d="M190.26,-137.94C181.69,-137.94 172.91,-137.94 165.18,-137.94"/>
<polygon fill="#63b8ff" stroke="#63b8ff" points="190.53,-141.44 200.53,-137.94 190.53,-134.44 190.53,-141.44"/>
</a>
</g>
</g>
<!-- Node6 -->
<g id="Node000006" class="node">
<title>Node6</title>
<g id="a_Node000006"><a xlink:href="fs_8c.html#a35c52ecf358097c17dcbbd5594acb41a" target="_top" xlink:title=" ">
<polygon fill="white" stroke="#666666" points="63,-184.44 16,-184.44 16,-165.44 63,-165.44 63,-184.44"/>
<text text-anchor="middle" x="39.5" y="-172.44" font-family="Helvetica,sans-Serif" font-size="10.00">namei</text>
</a>
</g>
</g>
<!-- Node5&#45;&gt;Node6 -->
<g id="edge6_Node000005_Node000006" class="edge">
<title>Node5&#45;&gt;Node6</title>
<g id="a_edge6_Node000005_Node000006"><a xlink:title=" ">
<path fill="none" stroke="#63b8ff" d="M105.23,-150.63C91.41,-155.82 75.77,-161.69 63.33,-166.36"/>
<polygon fill="#63b8ff" stroke="#63b8ff" points="106.77,-153.79 114.9,-146.99 104.31,-147.23 106.77,-153.79"/>
</a>
</g>
</g>
<!-- Node7 -->
<g id="Node000007" class="node">
<title>Node7</title>
<g id="a_Node000007"><a xlink:href="fs_8c.html#ade44726f2aed2af27fa0df5f63f9e688" target="_top" xlink:title=" ">
<polygon fill="white" stroke="#666666" points="79,-147.44 0,-147.44 0,-128.44 79,-128.44 79,-147.44"/>
<text text-anchor="middle" x="39.5" y="-135.44" font-family="Helvetica,sans-Serif" font-size="10.00">nameiparent</text>
</a>
</g>
</g>
<!-- Node5&#45;&gt;Node7 -->
<g id="edge7_Node000005_Node000007" class="edge">
<title>Node5&#45;&gt;Node7</title>
<g id="a_edge7_Node000005_Node000007"><a xlink:title=" ">
<path fill="none" stroke="#63b8ff" d="M104.87,-131.48C96.63,-131.16 87.76,-131.1 79.31,-131.33"/>
<polygon fill="#63b8ff" stroke="#63b8ff" points="104.72,-134.98 114.9,-132.04 105.12,-127.99 104.72,-134.98"/>
</a>
</g>
</g>
<!-- Node7&#45;&gt;Node5 -->
<g id="edge8_Node000007_Node000005" class="edge">
<title>Node7&#45;&gt;Node5</title>
<g id="a_edge8_Node000007_Node000005"><a xlink:title=" ">
<path fill="none" stroke="#63b8ff" d="M89.58,-144.69C98.39,-144.69 107.21,-144.41 114.9,-143.84"/>
<polygon fill="#63b8ff" stroke="#63b8ff" points="89.36,-141.19 79.31,-144.55 89.27,-148.19 89.36,-141.19"/>
</a>
</g>
</g>
<!-- Node9&#45;&gt;Node3 -->
<g id="edge11_Node000009_Node000003" class="edge">
<title>Node9&#45;&gt;Node3</title>
<g id="a_edge11_Node000009_Node000003"><a xlink:title=" ">
<path fill="none" stroke="#63b8ff" d="M289.95,-11.62C265.29,-2.66 229.86,5.58 201,-5.94 176.98,-15.53 157.08,-39.82 147.37,-53.39"/>
<polygon fill="#63b8ff" stroke="#63b8ff" points="288.9,-14.96 299.49,-15.31 291.43,-8.43 288.9,-14.96"/>
</a>
</g>
</g>
<!-- Node10 -->
<g id="Node000010" class="node">
<title>Node10</title>
<g id="a_Node000010"><a xlink:href="file_8c.html#ab8de757a0a9f58dcc6511ea5e46ebb88" target="_top" xlink:title=" ">
<polygon fill="white" stroke="#666666" points="260,-34.44 204,-34.44 204,-15.44 260,-15.44 260,-34.44"/>
<text text-anchor="middle" x="232" y="-22.44" font-family="Helvetica,sans-Serif" font-size="10.00">filewrite</text>
</a>
</g>
</g>
<!-- Node9&#45;&gt;Node10 -->
<g id="edge12_Node000009_Node000010" class="edge">
<title>Node9&#45;&gt;Node10</title>
<g id="a_edge12_Node000009_Node000010"><a xlink:title=" ">
<path fill="none" stroke="#63b8ff" d="M288.81,-24.94C279.43,-24.94 269.22,-24.94 260.12,-24.94"/>
<polygon fill="#63b8ff" stroke="#63b8ff" points="288.94,-28.44 298.94,-24.94 288.94,-21.44 288.94,-28.44"/>
</a>
</g>
</g>
</g>
</svg>
</svg>

<style type='text/css'>
<![CDATA[
[data-mouse-over-selected='false'] { opacity: 0.7; }
[data-mouse-over-selected='true']  { opacity: 1.0; }
]]>
</style>
<script type="application/ecmascript"><![CDATA[
document.addEventListener('DOMContentLoaded', (event) => {
  highlightEdges();
  highlightAdjacentNodes();
});
]]></script>
</svg>
