<?xml version="1.0" encoding="UTF-8" standalone="no"?>
<!DOCTYPE svg PUBLIC "-//W3C//DTD SVG 1.1//EN"
 "http://www.w3.org/Graphics/SVG/1.1/DTD/svg11.dtd">
<!-- Generated by graphviz version 2.43.0 (0)
 -->
<!-- Title: readi Pages: 1 -->
<svg width="463pt" height="225pt"
 viewBox="0.00 0.00 463.00 224.99" xmlns="http://www.w3.org/2000/svg" xmlns:xlink="http://www.w3.org/1999/xlink">

<svg id="main" version="1.1" xmlns="http://www.w3.org/2000/svg" xmlns:xlink="http://www.w3.org/1999/xlink" xml:space="preserve" onload="init(evt)">
<style type="text/css"><![CDATA[
.node, .edge {opacity: 0.7;}
.node.selected, .edge.selected {opacity: 1;}
.edge:hover path { stroke: red; }
.edge:hover polygon { stroke: red; fill: red; }
]]></style>
<script type="application/ecmascript" xlink:href="svg.min.js"/>
<svg id="graph" class="graph">
<g id="graph0" class="graph" transform="scale(1 1) rotate(0) translate(4 220.99)">
<title>readi</title>
<!-- Node1 -->
<g id="Node000001" class="node">
<title>Node1</title>
<g id="a_Node000001"><a xlink:title=" ">
<polygon fill="#999999" stroke="#666666" points="41,-83.99 0,-83.99 0,-64.99 41,-64.99 41,-83.99"/>
<text text-anchor="middle" x="20.5" y="-71.99" font-family="Helvetica,sans-Serif" font-size="10.00">readi</text>
</a>
</g>
</g>
<!-- Node2 -->
<g id="Node000002" class="node">
<title>Node2</title>
<g id="a_Node000002"><a xlink:href="fs_8c.html#a965e83e1fa9b15abf268784ce74181bb" target="_top" xlink:title=" ">
<polygon fill="white" stroke="#666666" points="121,-83.99 77,-83.99 77,-64.99 121,-64.99 121,-83.99"/>
<text text-anchor="middle" x="99" y="-71.99" font-family="Helvetica,sans-Serif" font-size="10.00">bmap</text>
</a>
</g>
</g>
<!-- Node1&#45;&gt;Node2 -->
<g id="edge1_Node000001_Node000002" class="edge">
<title>Node1&#45;&gt;Node2</title>
<g id="a_edge1_Node000001_Node000002"><a xlink:title=" ">
<path fill="none" stroke="#63b8ff" d="M41.2,-74.49C48.94,-74.49 58.02,-74.49 66.62,-74.49"/>
<polygon fill="#63b8ff" stroke="#63b8ff" points="66.76,-77.99 76.76,-74.49 66.76,-70.99 66.76,-77.99"/>
</a>
</g>
</g>
<!-- Node4 -->
<g id="Node000004" class="node">
<title>Node4</title>
<g id="a_Node000004"><a xlink:href="bio_8c.html#a30b8d2ef2300ed8e3d879a428fe39898" target="_top" xlink:title=" ">
<polygon fill="white" stroke="#666666" points="372,-216.99 328,-216.99 328,-197.99 372,-197.99 372,-216.99"/>
<text text-anchor="middle" x="350" y="-204.99" font-family="Helvetica,sans-Serif" font-size="10.00">bread</text>
</a>
</g>
</g>
<!-- Node1&#45;&gt;Node4 -->
<g id="edge14_Node000001_Node000004" class="edge">
<title>Node1&#45;&gt;Node4</title>
<g id="a_edge14_Node000001_Node000004"><a xlink:title=" ">
<path fill="none" stroke="#63b8ff" d="M33.78,-84.21C65.48,-108.61 153.54,-172.18 239,-195.49 264.96,-202.57 295.45,-205.5 317.73,-206.69"/>
<polygon fill="#63b8ff" stroke="#63b8ff" points="317.81,-210.2 327.96,-207.15 318.12,-203.21 317.81,-210.2"/>
</a>
</g>
</g>
<!-- Node6 -->
<g id="Node000006" class="node">
<title>Node6</title>
<g id="a_Node000006"><a xlink:href="bio_8c.html#ab5335aeb503731104314321a78a6d727" target="_top" xlink:title=" ">
<polygon fill="white" stroke="#666666" points="373.5,-45.99 326.5,-45.99 326.5,-26.99 373.5,-26.99 373.5,-45.99"/>
<text text-anchor="middle" x="350" y="-33.99" font-family="Helvetica,sans-Serif" font-size="10.00">brelse</text>
</a>
</g>
</g>
<!-- Node1&#45;&gt;Node6 -->
<g id="edge15_Node000001_Node000006" class="edge">
<title>Node1&#45;&gt;Node6</title>
<g id="a_edge15_Node000001_Node000006"><a xlink:title=" ">
<path fill="none" stroke="#63b8ff" d="M36.14,-64.8C60.17,-49.53 110,-20.48 157,-9.49 211.53,3.26 228.12,2.67 283,-8.49 296.53,-11.24 310.73,-16.87 322.48,-22.36"/>
<polygon fill="#63b8ff" stroke="#63b8ff" points="321.18,-25.62 331.7,-26.88 324.25,-19.33 321.18,-25.62"/>
</a>
</g>
</g>
<!-- Node3 -->
<g id="Node000003" class="node">
<title>Node3</title>
<g id="a_Node000003"><a xlink:href="fs_8c.html#a29272227722d57ff937caaffd03455a9" target="_top" xlink:title=" ">
<polygon fill="white" stroke="#666666" points="203,-121.99 157,-121.99 157,-102.99 203,-102.99 203,-121.99"/>
<text text-anchor="middle" x="180" y="-109.99" font-family="Helvetica,sans-Serif" font-size="10.00">balloc</text>
</a>
</g>
</g>
<!-- Node2&#45;&gt;Node3 -->
<g id="edge2_Node000002_Node000003" class="edge">
<title>Node2&#45;&gt;Node3</title>
<g id="a_edge2_Node000002_Node000003"><a xlink:title=" ">
<path fill="none" stroke="#63b8ff" d="M119.94,-84.08C129.01,-88.45 139.93,-93.7 149.9,-98.49"/>
<polygon fill="#63b8ff" stroke="#63b8ff" points="148.54,-101.73 159.07,-102.91 151.58,-95.42 148.54,-101.73"/>
</a>
</g>
</g>
<!-- Node2&#45;&gt;Node4 -->
<g id="edge11_Node000002_Node000004" class="edge">
<title>Node2&#45;&gt;Node4</title>
<g id="a_edge11_Node000002_Node000004"><a xlink:title=" ">
<path fill="none" stroke="#63b8ff" d="M108.11,-84.15C118.53,-96.11 137.58,-116.63 157,-130.49 207.82,-166.78 278.17,-189.29 318.08,-200.01"/>
<polygon fill="#63b8ff" stroke="#63b8ff" points="317.22,-203.4 327.78,-202.54 318.99,-196.62 317.22,-203.4"/>
</a>
</g>
</g>
<!-- Node2&#45;&gt;Node6 -->
<g id="edge12_Node000002_Node000006" class="edge">
<title>Node2&#45;&gt;Node6</title>
<g id="a_edge12_Node000002_Node000006"><a xlink:title=" ">
<path fill="none" stroke="#63b8ff" d="M106.78,-64.93C116.32,-52.4 135.02,-31.01 157,-22.49 210.06,-1.92 277.49,-14.91 316.69,-25.92"/>
<polygon fill="#63b8ff" stroke="#63b8ff" points="315.91,-29.34 326.49,-28.79 317.88,-22.62 315.91,-29.34"/>
</a>
</g>
</g>
<!-- Node8 -->
<g id="Node000008" class="node">
<title>Node8</title>
<g id="a_Node000008"><a xlink:href="log_8c.html#a7eacb0fbebe5ce4c7d3ddea15908b13d" target="_top" xlink:title=" ">
<polygon fill="white" stroke="#666666" points="381,-121.99 319,-121.99 319,-102.99 381,-102.99 381,-121.99"/>
<text text-anchor="middle" x="350" y="-109.99" font-family="Helvetica,sans-Serif" font-size="10.00">log_write</text>
</a>
</g>
</g>
<!-- Node2&#45;&gt;Node8 -->
<g id="edge13_Node000002_Node000008" class="edge">
<title>Node2&#45;&gt;Node8</title>
<g id="a_edge13_Node000002_Node000008"><a xlink:title=" ">
<path fill="none" stroke="#63b8ff" d="M121.04,-75.47C155.26,-77.32 224.99,-82.22 283,-93.49 291.93,-95.23 301.4,-97.62 310.29,-100.11"/>
<polygon fill="#63b8ff" stroke="#63b8ff" points="309.45,-103.51 320.03,-102.95 311.41,-96.79 309.45,-103.51"/>
</a>
</g>
</g>
<!-- Node3&#45;&gt;Node4 -->
<g id="edge3_Node000003_Node000004" class="edge">
<title>Node3&#45;&gt;Node4</title>
<g id="a_edge3_Node000003_Node000004"><a xlink:title=" ">
<path fill="none" stroke="#63b8ff" d="M197.19,-122.12C208.79,-128.99 224.81,-138.4 239,-146.49 267.38,-162.68 300.16,-180.78 322.51,-193.03"/>
<polygon fill="#63b8ff" stroke="#63b8ff" points="320.95,-196.17 331.4,-197.9 324.31,-190.03 320.95,-196.17"/>
</a>
</g>
</g>
<!-- Node3&#45;&gt;Node6 -->
<g id="edge5_Node000003_Node000006" class="edge">
<title>Node3&#45;&gt;Node6</title>
<g id="a_edge5_Node000003_Node000006"><a xlink:title=" ">
<path fill="none" stroke="#63b8ff" d="M202.28,-102.87C231.69,-89.56 284.94,-65.47 318.56,-50.27"/>
<polygon fill="#63b8ff" stroke="#63b8ff" points="320.23,-53.35 327.9,-46.04 317.34,-46.97 320.23,-53.35"/>
</a>
</g>
</g>
<!-- Node7 -->
<g id="Node000007" class="node">
<title>Node7</title>
<g id="a_Node000007"><a xlink:href="fs_8c.html#ac93f607f4a954323f4c9ea485ca88538" target="_top" xlink:title=" ">
<polygon fill="white" stroke="#666666" points="283,-121.99 239,-121.99 239,-102.99 283,-102.99 283,-121.99"/>
<text text-anchor="middle" x="261" y="-109.99" font-family="Helvetica,sans-Serif" font-size="10.00">bzero</text>
</a>
</g>
</g>
<!-- Node3&#45;&gt;Node7 -->
<g id="edge6_Node000003_Node000007" class="edge">
<title>Node3&#45;&gt;Node7</title>
<g id="a_edge6_Node000003_Node000007"><a xlink:title=" ">
<path fill="none" stroke="#63b8ff" d="M203.01,-112.49C210.99,-112.49 220.17,-112.49 228.8,-112.49"/>
<polygon fill="#63b8ff" stroke="#63b8ff" points="228.93,-115.99 238.93,-112.49 228.93,-108.99 228.93,-115.99"/>
</a>
</g>
</g>
<!-- Node3&#45;&gt;Node8 -->
<g id="edge10_Node000003_Node000008" class="edge">
<title>Node3&#45;&gt;Node8</title>
<g id="a_edge10_Node000003_Node000008"><a xlink:title=" ">
<path fill="none" stroke="#63b8ff" d="M203.22,-121.11C213.87,-124.79 226.91,-128.66 239,-130.49 258.33,-133.42 263.62,-133.09 283,-130.49 292.07,-129.28 301.65,-127.17 310.62,-124.8"/>
<polygon fill="#63b8ff" stroke="#63b8ff" points="311.74,-128.13 320.43,-122.07 309.86,-121.39 311.74,-128.13"/>
</a>
</g>
</g>
<!-- Node5 -->
<g id="Node000005" class="node">
<title>Node5</title>
<g id="a_Node000005"><a xlink:href="bio_8c.html#a69dcd3ce86d958b4024c6746263f3f5b" target="_top" xlink:title=" ">
<polygon fill="white" stroke="#666666" points="455,-216.99 417,-216.99 417,-197.99 455,-197.99 455,-216.99"/>
<text text-anchor="middle" x="436" y="-204.99" font-family="Helvetica,sans-Serif" font-size="10.00">bget</text>
</a>
</g>
</g>
<!-- Node4&#45;&gt;Node5 -->
<g id="edge4_Node000004_Node000005" class="edge">
<title>Node4&#45;&gt;Node5</title>
<g id="a_edge4_Node000004_Node000005"><a xlink:title=" ">
<path fill="none" stroke="#63b8ff" d="M372.2,-207.49C382.66,-207.49 395.42,-207.49 406.7,-207.49"/>
<polygon fill="#63b8ff" stroke="#63b8ff" points="406.94,-210.99 416.94,-207.49 406.94,-203.99 406.94,-210.99"/>
</a>
</g>
</g>
<!-- Node7&#45;&gt;Node4 -->
<g id="edge7_Node000007_Node000004" class="edge">
<title>Node7&#45;&gt;Node4</title>
<g id="a_edge7_Node000007_Node000004"><a xlink:title=" ">
<path fill="none" stroke="#63b8ff" d="M270.98,-122.3C285.71,-138.38 315.18,-170.56 333.38,-190.44"/>
<polygon fill="#63b8ff" stroke="#63b8ff" points="330.86,-192.87 340.2,-197.88 336.02,-188.14 330.86,-192.87"/>
</a>
</g>
</g>
<!-- Node7&#45;&gt;Node6 -->
<g id="edge8_Node000007_Node000006" class="edge">
<title>Node7&#45;&gt;Node6</title>
<g id="a_edge8_Node000007_Node000006"><a xlink:title=" ">
<path fill="none" stroke="#63b8ff" d="M273.02,-102.87C287.4,-90.3 312.79,-68.13 330.23,-52.89"/>
<polygon fill="#63b8ff" stroke="#63b8ff" points="332.84,-55.25 338.07,-46.04 328.24,-49.98 332.84,-55.25"/>
</a>
</g>
</g>
<!-- Node7&#45;&gt;Node8 -->
<g id="edge9_Node000007_Node000008" class="edge">
<title>Node7&#45;&gt;Node8</title>
<g id="a_edge9_Node000007_Node000008"><a xlink:title=" ">
<path fill="none" stroke="#63b8ff" d="M283.06,-112.49C290.8,-112.49 299.83,-112.49 308.69,-112.49"/>
<polygon fill="#63b8ff" stroke="#63b8ff" points="308.93,-115.99 318.93,-112.49 308.93,-108.99 308.93,-115.99"/>
</a>
</g>
</g>
</g>
</svg>
</svg>

<style type='text/css'>
<![CDATA[
[data-mouse-over-selected='false'] { opacity: 0.7; }
[data-mouse-over-selected='true']  { opacity: 1.0; }
]]>
</style>
<script type="application/ecmascript"><![CDATA[
document.addEventListener('DOMContentLoaded', (event) => {
  highlightEdges();
  highlightAdjacentNodes();
});
]]></script>
</svg>
