<?xml version="1.0" encoding="UTF-8" standalone="no"?>
<!DOCTYPE svg PUBLIC "-//W3C//DTD SVG 1.1//EN"
 "http://www.w3.org/Graphics/SVG/1.1/DTD/svg11.dtd">
<!-- Generated by graphviz version 2.43.0 (0)
 -->
<!-- Title: itrunc Pages: 1 -->
<svg width="313pt" height="101pt"
 viewBox="0.00 0.00 313.00 101.00" xmlns="http://www.w3.org/2000/svg" xmlns:xlink="http://www.w3.org/1999/xlink">

<svg id="main" version="1.1" xmlns="http://www.w3.org/2000/svg" xmlns:xlink="http://www.w3.org/1999/xlink" xml:space="preserve" onload="init(evt)">
<style type="text/css"><![CDATA[
.node, .edge {opacity: 0.7;}
.node.selected, .edge.selected {opacity: 1;}
.edge:hover path { stroke: red; }
.edge:hover polygon { stroke: red; fill: red; }
]]></style>
<script type="application/ecmascript" xlink:href="svg.min.js"/>
<svg id="graph" class="graph">
<g id="graph0" class="graph" transform="scale(1 1) rotate(0) translate(4 97)">
<title>itrunc</title>
<!-- Node1 -->
<g id="Node000001" class="node">
<title>Node1</title>
<g id="a_Node000001"><a xlink:title=" ">
<polygon fill="#999999" stroke="#666666" points="44,-56 0,-56 0,-37 44,-37 44,-56"/>
<text text-anchor="middle" x="22" y="-44" font-family="Helvetica,sans-Serif" font-size="10.00">itrunc</text>
</a>
</g>
</g>
<!-- Node2 -->
<g id="Node000002" class="node">
<title>Node2</title>
<g id="a_Node000002"><a xlink:href="fs_8c.html#a2800a4b570ae39363cec0613dac92fd7" target="_top" xlink:title=" ">
<polygon fill="white" stroke="#666666" points="127.5,-75 85.5,-75 85.5,-56 127.5,-56 127.5,-75"/>
<text text-anchor="middle" x="106.5" y="-63" font-family="Helvetica,sans-Serif" font-size="10.00">bfree</text>
</a>
</g>
</g>
<!-- Node1&#45;&gt;Node2 -->
<g id="edge1_Node000001_Node000002" class="edge">
<title>Node1&#45;&gt;Node2</title>
<g id="a_edge1_Node000001_Node000002"><a xlink:title=" ">
<path fill="none" stroke="#63b8ff" d="M44.25,-51.39C53.77,-53.59 65.17,-56.21 75.54,-58.6"/>
<polygon fill="#63b8ff" stroke="#63b8ff" points="74.93,-62.05 85.46,-60.89 76.5,-55.23 74.93,-62.05"/>
</a>
</g>
</g>
<!-- Node3 -->
<g id="Node000003" class="node">
<title>Node3</title>
<g id="a_Node000003"><a xlink:href="bio_8c.html#a30b8d2ef2300ed8e3d879a428fe39898" target="_top" xlink:title=" ">
<polygon fill="white" stroke="#666666" points="222,-93 178,-93 178,-74 222,-74 222,-93"/>
<text text-anchor="middle" x="200" y="-81" font-family="Helvetica,sans-Serif" font-size="10.00">bread</text>
</a>
</g>
</g>
<!-- Node1&#45;&gt;Node3 -->
<g id="edge6_Node000001_Node000003" class="edge">
<title>Node1&#45;&gt;Node3</title>
<g id="a_edge6_Node000001_Node000003"><a xlink:title=" ">
<path fill="none" stroke="#63b8ff" d="M33.35,-56.2C44.07,-65.52 61.79,-78.99 80,-84.5 108.77,-93.21 143.27,-91.7 167.69,-88.77"/>
<polygon fill="#63b8ff" stroke="#63b8ff" points="168.38,-92.21 177.83,-87.4 167.45,-85.27 168.38,-92.21"/>
</a>
</g>
</g>
<!-- Node5 -->
<g id="Node000005" class="node">
<title>Node5</title>
<g id="a_Node000005"><a xlink:href="bio_8c.html#ab5335aeb503731104314321a78a6d727" target="_top" xlink:title=" ">
<polygon fill="white" stroke="#666666" points="223.5,-19 176.5,-19 176.5,0 223.5,0 223.5,-19"/>
<text text-anchor="middle" x="200" y="-7" font-family="Helvetica,sans-Serif" font-size="10.00">brelse</text>
</a>
</g>
</g>
<!-- Node1&#45;&gt;Node5 -->
<g id="edge7_Node000001_Node000005" class="edge">
<title>Node1&#45;&gt;Node5</title>
<g id="a_edge7_Node000001_Node000005"><a xlink:title=" ">
<path fill="none" stroke="#63b8ff" d="M33.81,-36.71C44.6,-27.65 62.13,-14.79 80,-9.5 108.13,-1.17 141.66,-2.08 165.95,-4.54"/>
<polygon fill="#63b8ff" stroke="#63b8ff" points="165.74,-8.04 176.08,-5.71 166.55,-1.09 165.74,-8.04"/>
</a>
</g>
</g>
<!-- Node7 -->
<g id="Node000007" class="node">
<title>Node7</title>
<g id="a_Node000007"><a xlink:href="fs_8c.html#a7220afa8e5f4bea540eb95879ea7df6e" target="_top" xlink:title=" ">
<polygon fill="white" stroke="#666666" points="133,-38 80,-38 80,-19 133,-19 133,-38"/>
<text text-anchor="middle" x="106.5" y="-26" font-family="Helvetica,sans-Serif" font-size="10.00">iupdate</text>
</a>
</g>
</g>
<!-- Node1&#45;&gt;Node7 -->
<g id="edge8_Node000001_Node000007" class="edge">
<title>Node1&#45;&gt;Node7</title>
<g id="a_edge8_Node000001_Node000007"><a xlink:title=" ">
<path fill="none" stroke="#63b8ff" d="M44.25,-41.86C52.07,-40.16 61.16,-38.17 69.91,-36.27"/>
<polygon fill="#63b8ff" stroke="#63b8ff" points="70.89,-39.63 79.92,-34.08 69.4,-32.79 70.89,-39.63"/>
</a>
</g>
</g>
<!-- Node2&#45;&gt;Node3 -->
<g id="edge2_Node000002_Node000003" class="edge">
<title>Node2&#45;&gt;Node3</title>
<g id="a_edge2_Node000002_Node000003"><a xlink:title=" ">
<path fill="none" stroke="#63b8ff" d="M127.81,-69.49C139.52,-71.8 154.5,-74.75 167.69,-77.34"/>
<polygon fill="#63b8ff" stroke="#63b8ff" points="167.31,-80.83 177.8,-79.33 168.66,-73.96 167.31,-80.83"/>
</a>
</g>
</g>
<!-- Node2&#45;&gt;Node5 -->
<g id="edge4_Node000002_Node000005" class="edge">
<title>Node2&#45;&gt;Node5</title>
<g id="a_edge4_Node000002_Node000005"><a xlink:title=" ">
<path fill="none" stroke="#63b8ff" d="M123.44,-55.75C137.48,-47.15 158.15,-34.5 174.32,-24.6"/>
<polygon fill="#63b8ff" stroke="#63b8ff" points="176.54,-27.35 183.24,-19.14 172.89,-21.38 176.54,-27.35"/>
</a>
</g>
</g>
<!-- Node6 -->
<g id="Node000006" class="node">
<title>Node6</title>
<g id="a_Node000006"><a xlink:href="log_8c.html#a7eacb0fbebe5ce4c7d3ddea15908b13d" target="_top" xlink:title=" ">
<polygon fill="white" stroke="#666666" points="231,-56 169,-56 169,-37 231,-37 231,-56"/>
<text text-anchor="middle" x="200" y="-44" font-family="Helvetica,sans-Serif" font-size="10.00">log_write</text>
</a>
</g>
</g>
<!-- Node2&#45;&gt;Node6 -->
<g id="edge5_Node000002_Node000006" class="edge">
<title>Node2&#45;&gt;Node6</title>
<g id="a_edge5_Node000002_Node000006"><a xlink:title=" ">
<path fill="none" stroke="#63b8ff" d="M127.81,-61.28C136.9,-59.39 147.97,-57.1 158.64,-54.88"/>
<polygon fill="#63b8ff" stroke="#63b8ff" points="159.59,-58.26 168.67,-52.8 158.16,-51.4 159.59,-58.26"/>
</a>
</g>
</g>
<!-- Node4 -->
<g id="Node000004" class="node">
<title>Node4</title>
<g id="a_Node000004"><a xlink:href="bio_8c.html#a69dcd3ce86d958b4024c6746263f3f5b" target="_top" xlink:title=" ">
<polygon fill="white" stroke="#666666" points="305,-93 267,-93 267,-74 305,-74 305,-93"/>
<text text-anchor="middle" x="286" y="-81" font-family="Helvetica,sans-Serif" font-size="10.00">bget</text>
</a>
</g>
</g>
<!-- Node3&#45;&gt;Node4 -->
<g id="edge3_Node000003_Node000004" class="edge">
<title>Node3&#45;&gt;Node4</title>
<g id="a_edge3_Node000003_Node000004"><a xlink:title=" ">
<path fill="none" stroke="#63b8ff" d="M222.2,-83.5C232.66,-83.5 245.42,-83.5 256.7,-83.5"/>
<polygon fill="#63b8ff" stroke="#63b8ff" points="256.94,-87 266.94,-83.5 256.94,-80 256.94,-87"/>
</a>
</g>
</g>
<!-- Node7&#45;&gt;Node3 -->
<g id="edge9_Node000007_Node000003" class="edge">
<title>Node7&#45;&gt;Node3</title>
<g id="a_edge9_Node000007_Node000003"><a xlink:title=" ">
<path fill="none" stroke="#63b8ff" d="M123.43,-38.09C135.84,-45.56 153.51,-56.2 169,-65.5 170.72,-66.53 172.49,-67.6 174.28,-68.67"/>
<polygon fill="#63b8ff" stroke="#63b8ff" points="172.74,-71.83 183.12,-73.98 176.34,-65.83 172.74,-71.83"/>
</a>
</g>
</g>
<!-- Node7&#45;&gt;Node5 -->
<g id="edge10_Node000007_Node000005" class="edge">
<title>Node7&#45;&gt;Node5</title>
<g id="a_edge10_Node000007_Node000005"><a xlink:title=" ">
<path fill="none" stroke="#63b8ff" d="M133.48,-23.11C143.73,-20.98 155.62,-18.51 166.43,-16.26"/>
<polygon fill="#63b8ff" stroke="#63b8ff" points="167.3,-19.66 176.38,-14.2 165.88,-12.8 167.3,-19.66"/>
</a>
</g>
</g>
<!-- Node7&#45;&gt;Node6 -->
<g id="edge11_Node000007_Node000006" class="edge">
<title>Node7&#45;&gt;Node6</title>
<g id="a_edge11_Node000007_Node000006"><a xlink:title=" ">
<path fill="none" stroke="#63b8ff" d="M133.48,-33.61C141.37,-35.16 150.25,-36.91 158.85,-38.6"/>
<polygon fill="#63b8ff" stroke="#63b8ff" points="158.27,-42.05 168.75,-40.55 159.62,-35.19 158.27,-42.05"/>
</a>
</g>
</g>
</g>
</svg>
</svg>

<style type='text/css'>
<![CDATA[
[data-mouse-over-selected='false'] { opacity: 0.7; }
[data-mouse-over-selected='true']  { opacity: 1.0; }
]]>
</style>
<script type="application/ecmascript"><![CDATA[
document.addEventListener('DOMContentLoaded', (event) => {
  highlightEdges();
  highlightAdjacentNodes();
});
]]></script>
</svg>
