<?xml version="1.0" encoding="UTF-8" standalone="no"?>
<!DOCTYPE svg PUBLIC "-//W3C//DTD SVG 1.1//EN"
 "http://www.w3.org/Graphics/SVG/1.1/DTD/svg11.dtd">
<!-- Generated by graphviz version 2.43.0 (0)
 -->
<!-- Title: bmap Pages: 1 -->
<svg width="386pt" height="198pt"
 viewBox="0.00 0.00 386.00 198.09" xmlns="http://www.w3.org/2000/svg" xmlns:xlink="http://www.w3.org/1999/xlink">
<g id="graph0" class="graph" transform="scale(1 1) rotate(0) translate(4 194.09)">
<title>bmap</title>
<!-- Node1 -->
<g id="Node000001" class="node">
<title>Node1</title>
<g id="a_Node000001"><a xlink:title=" ">
<polygon fill="#999999" stroke="#666666" points="44,-133 0,-133 0,-114 44,-114 44,-133"/>
<text text-anchor="middle" x="22" y="-121" font-family="Helvetica,sans-Serif" font-size="10.00">bmap</text>
</a>
</g>
</g>
<!-- Node2 -->
<g id="Node000002" class="node">
<title>Node2</title>
<g id="a_Node000002"><a xlink:href="fs_8c.html#a29272227722d57ff937caaffd03455a9" target="_top" xlink:title=" ">
<polygon fill="white" stroke="#666666" points="126,-95 80,-95 80,-76 126,-76 126,-95"/>
<text text-anchor="middle" x="103" y="-83" font-family="Helvetica,sans-Serif" font-size="10.00">balloc</text>
</a>
</g>
</g>
<!-- Node1&#45;&gt;Node2 -->
<g id="edge1_Node000001_Node000002" class="edge">
<title>Node1&#45;&gt;Node2</title>
<g id="a_edge1_Node000001_Node000002"><a xlink:title=" ">
<path fill="none" stroke="#63b8ff" d="M42.94,-113.91C52.01,-109.55 62.93,-104.29 72.9,-99.5"/>
<polygon fill="#63b8ff" stroke="#63b8ff" points="74.58,-102.57 82.07,-95.09 71.54,-96.27 74.58,-102.57"/>
</a>
</g>
</g>
<!-- Node3 -->
<g id="Node000003" class="node">
<title>Node3</title>
<g id="a_Node000003"><a xlink:href="bio_8c.html#a30b8d2ef2300ed8e3d879a428fe39898" target="_top" xlink:title=" ">
<polygon fill="white" stroke="#666666" points="295,-95 251,-95 251,-76 295,-76 295,-95"/>
<text text-anchor="middle" x="273" y="-83" font-family="Helvetica,sans-Serif" font-size="10.00">bread</text>
</a>
</g>
</g>
<!-- Node1&#45;&gt;Node3 -->
<g id="edge10_Node000001_Node000003" class="edge">
<title>Node1&#45;&gt;Node3</title>
<g id="a_edge10_Node000001_Node000003"><a xlink:title=" ">
<path fill="none" stroke="#63b8ff" d="M44.04,-122.53C78.26,-120.67 147.99,-115.77 206,-104.5 217.65,-102.24 230.22,-98.86 241.23,-95.58"/>
<polygon fill="#63b8ff" stroke="#63b8ff" points="242.3,-98.91 250.83,-92.63 240.24,-92.22 242.3,-98.91"/>
</a>
</g>
</g>
<!-- Node5 -->
<g id="Node000005" class="node">
<title>Node5</title>
<g id="a_Node000005"><a xlink:href="bio_8c.html#ab5335aeb503731104314321a78a6d727" target="_top" xlink:title=" ">
<polygon fill="white" stroke="#666666" points="296.5,-133 249.5,-133 249.5,-114 296.5,-114 296.5,-133"/>
<text text-anchor="middle" x="273" y="-121" font-family="Helvetica,sans-Serif" font-size="10.00">brelse</text>
</a>
</g>
</g>
<!-- Node1&#45;&gt;Node5 -->
<g id="edge11_Node000001_Node000005" class="edge">
<title>Node1&#45;&gt;Node5</title>
<g id="a_edge11_Node000001_Node000005"><a xlink:title=" ">
<path fill="none" stroke="#63b8ff" d="M29.78,-133.06C39.32,-145.6 58.02,-166.98 80,-175.5 132.21,-195.74 153.09,-193.84 206,-175.5 225.9,-168.6 244.35,-152.95 256.65,-140.6"/>
<polygon fill="#63b8ff" stroke="#63b8ff" points="259.44,-142.75 263.8,-133.1 254.37,-137.92 259.44,-142.75"/>
</a>
</g>
</g>
<!-- Node7 -->
<g id="Node000007" class="node">
<title>Node7</title>
<g id="a_Node000007"><a xlink:href="log_8c.html#a7eacb0fbebe5ce4c7d3ddea15908b13d" target="_top" xlink:title=" ">
<polygon fill="white" stroke="#666666" points="304,-19 242,-19 242,0 304,0 304,-19"/>
<text text-anchor="middle" x="273" y="-7" font-family="Helvetica,sans-Serif" font-size="10.00">log_write</text>
</a>
</g>
</g>
<!-- Node1&#45;&gt;Node7 -->
<g id="edge12_Node000001_Node000007" class="edge">
<title>Node1&#45;&gt;Node7</title>
<g id="a_edge12_Node000001_Node000007"><a xlink:title=" ">
<path fill="none" stroke="#63b8ff" d="M30.46,-113.7C40.47,-101.15 59.4,-79.49 80,-66.5 127.35,-36.64 191.07,-21.79 231.85,-14.89"/>
<polygon fill="#63b8ff" stroke="#63b8ff" points="232.64,-18.31 241.96,-13.26 231.53,-11.39 232.64,-18.31"/>
</a>
</g>
</g>
<!-- Node2&#45;&gt;Node3 -->
<g id="edge2_Node000002_Node000003" class="edge">
<title>Node2&#45;&gt;Node3</title>
<g id="a_edge2_Node000002_Node000003"><a xlink:title=" ">
<path fill="none" stroke="#63b8ff" d="M126.18,-76.41C136.82,-72.52 149.86,-68.44 162,-66.5 181.31,-63.42 186.64,-63.77 206,-66.5 217.75,-68.16 230.34,-71.4 241.34,-74.74"/>
<polygon fill="#63b8ff" stroke="#63b8ff" points="240.34,-78.09 250.93,-77.8 242.46,-71.42 240.34,-78.09"/>
</a>
</g>
</g>
<!-- Node2&#45;&gt;Node5 -->
<g id="edge4_Node000002_Node000005" class="edge">
<title>Node2&#45;&gt;Node5</title>
<g id="a_edge4_Node000002_Node000005"><a xlink:title=" ">
<path fill="none" stroke="#63b8ff" d="M126.09,-93.57C136.82,-97.28 149.97,-101.51 162,-104.5 187.7,-110.89 217.3,-115.87 239.32,-119.13"/>
<polygon fill="#63b8ff" stroke="#63b8ff" points="239.07,-122.63 249.47,-120.59 240.07,-115.7 239.07,-122.63"/>
</a>
</g>
</g>
<!-- Node6 -->
<g id="Node000006" class="node">
<title>Node6</title>
<g id="a_Node000006"><a xlink:href="fs_8c.html#ac93f607f4a954323f4c9ea485ca88538" target="_top" xlink:title=" ">
<polygon fill="white" stroke="#666666" points="206,-95 162,-95 162,-76 206,-76 206,-95"/>
<text text-anchor="middle" x="184" y="-83" font-family="Helvetica,sans-Serif" font-size="10.00">bzero</text>
</a>
</g>
</g>
<!-- Node2&#45;&gt;Node6 -->
<g id="edge5_Node000002_Node000006" class="edge">
<title>Node2&#45;&gt;Node6</title>
<g id="a_edge5_Node000002_Node000006"><a xlink:title=" ">
<path fill="none" stroke="#63b8ff" d="M126.01,-85.5C133.99,-85.5 143.17,-85.5 151.8,-85.5"/>
<polygon fill="#63b8ff" stroke="#63b8ff" points="151.93,-89 161.93,-85.5 151.93,-82 151.93,-89"/>
</a>
</g>
</g>
<!-- Node2&#45;&gt;Node7 -->
<g id="edge9_Node000002_Node000007" class="edge">
<title>Node2&#45;&gt;Node7</title>
<g id="a_edge9_Node000002_Node000007"><a xlink:title=" ">
<path fill="none" stroke="#63b8ff" d="M125.28,-75.87C154.69,-62.57 207.94,-38.48 241.56,-23.27"/>
<polygon fill="#63b8ff" stroke="#63b8ff" points="243.23,-26.36 250.9,-19.05 240.34,-19.98 243.23,-26.36"/>
</a>
</g>
</g>
<!-- Node4 -->
<g id="Node000004" class="node">
<title>Node4</title>
<g id="a_Node000004"><a xlink:href="bio_8c.html#a69dcd3ce86d958b4024c6746263f3f5b" target="_top" xlink:title=" ">
<polygon fill="white" stroke="#666666" points="378,-95 340,-95 340,-76 378,-76 378,-95"/>
<text text-anchor="middle" x="359" y="-83" font-family="Helvetica,sans-Serif" font-size="10.00">bget</text>
</a>
</g>
</g>
<!-- Node3&#45;&gt;Node4 -->
<g id="edge3_Node000003_Node000004" class="edge">
<title>Node3&#45;&gt;Node4</title>
<g id="a_edge3_Node000003_Node000004"><a xlink:title=" ">
<path fill="none" stroke="#63b8ff" d="M295.2,-85.5C305.66,-85.5 318.42,-85.5 329.7,-85.5"/>
<polygon fill="#63b8ff" stroke="#63b8ff" points="329.94,-89 339.94,-85.5 329.94,-82 329.94,-89"/>
</a>
</g>
</g>
<!-- Node6&#45;&gt;Node3 -->
<g id="edge6_Node000006_Node000003" class="edge">
<title>Node6&#45;&gt;Node3</title>
<g id="a_edge6_Node000006_Node000003"><a xlink:title=" ">
<path fill="none" stroke="#63b8ff" d="M206.06,-85.5C216.46,-85.5 229.21,-85.5 240.71,-85.5"/>
<polygon fill="#63b8ff" stroke="#63b8ff" points="240.83,-89 250.83,-85.5 240.83,-82 240.83,-89"/>
</a>
</g>
</g>
<!-- Node6&#45;&gt;Node5 -->
<g id="edge7_Node000006_Node000005" class="edge">
<title>Node6&#45;&gt;Node5</title>
<g id="a_edge7_Node000006_Node000005"><a xlink:title=" ">
<path fill="none" stroke="#63b8ff" d="M206.06,-94.7C216.51,-99.26 229.34,-104.87 240.9,-109.92"/>
<polygon fill="#63b8ff" stroke="#63b8ff" points="239.66,-113.19 250.23,-113.99 242.46,-106.78 239.66,-113.19"/>
</a>
</g>
</g>
<!-- Node6&#45;&gt;Node7 -->
<g id="edge8_Node000006_Node000007" class="edge">
<title>Node6&#45;&gt;Node7</title>
<g id="a_edge8_Node000006_Node000007"><a xlink:title=" ">
<path fill="none" stroke="#63b8ff" d="M196.02,-75.87C210.4,-63.31 235.79,-41.13 253.23,-25.9"/>
<polygon fill="#63b8ff" stroke="#63b8ff" points="255.84,-28.26 261.07,-19.05 251.24,-22.99 255.84,-28.26"/>
</a>
</g>
</g>
</g>
</svg>
