<?xml version="1.0" encoding="UTF-8" standalone="no"?>
<!DOCTYPE svg PUBLIC "-//W3C//DTD SVG 1.1//EN"
 "http://www.w3.org/Graphics/SVG/1.1/DTD/svg11.dtd">
<!-- Generated by graphviz version 2.43.0 (0)
 -->
<!-- Title: iput Pages: 1 -->
<svg width="384pt" height="101pt"
 viewBox="0.00 0.00 384.00 101.00" xmlns="http://www.w3.org/2000/svg" xmlns:xlink="http://www.w3.org/1999/xlink">
<g id="graph0" class="graph" transform="scale(1 1) rotate(0) translate(4 97)">
<title>iput</title>
<!-- Node1 -->
<g id="Node000001" class="node">
<title>Node1</title>
<g id="a_Node000001"><a xlink:title=" ">
<polygon fill="#999999" stroke="#666666" points="35,-57 0,-57 0,-38 35,-38 35,-57"/>
<text text-anchor="middle" x="17.5" y="-45" font-family="Helvetica,sans-Serif" font-size="10.00">iput</text>
</a>
</g>
</g>
<!-- Node2 -->
<g id="Node000002" class="node">
<title>Node2</title>
<g id="a_Node000002"><a xlink:href="fs_8c.html#a7c42ba96035fb59aef87372552b1a661" target="_top" xlink:title=" ">
<polygon fill="white" stroke="#666666" points="115,-38 71,-38 71,-19 115,-19 115,-38"/>
<text text-anchor="middle" x="93" y="-26" font-family="Helvetica,sans-Serif" font-size="10.00">itrunc</text>
</a>
</g>
</g>
<!-- Node1&#45;&gt;Node2 -->
<g id="edge1_Node000001_Node000002" class="edge">
<title>Node1&#45;&gt;Node2</title>
<g id="a_edge1_Node000001_Node000002"><a xlink:title=" ">
<path fill="none" stroke="#63b8ff" d="M35.18,-43.19C42.87,-41.2 52.26,-38.77 61.17,-36.47"/>
<polygon fill="#63b8ff" stroke="#63b8ff" points="62.1,-39.84 70.91,-33.95 60.35,-33.07 62.1,-39.84"/>
</a>
</g>
</g>
<!-- Node8 -->
<g id="Node000008" class="node">
<title>Node8</title>
<g id="a_Node000008"><a xlink:href="fs_8c.html#a7220afa8e5f4bea540eb95879ea7df6e" target="_top" xlink:title=" ">
<polygon fill="white" stroke="#666666" points="204,-75 151,-75 151,-56 204,-56 204,-75"/>
<text text-anchor="middle" x="177.5" y="-63" font-family="Helvetica,sans-Serif" font-size="10.00">iupdate</text>
</a>
</g>
</g>
<!-- Node1&#45;&gt;Node8 -->
<g id="edge13_Node000001_Node000008" class="edge">
<title>Node1&#45;&gt;Node8</title>
<g id="a_edge13_Node000001_Node000008"><a xlink:title=" ">
<path fill="none" stroke="#63b8ff" d="M35.11,-49.39C59.99,-52.23 107.54,-57.64 140.59,-61.41"/>
<polygon fill="#63b8ff" stroke="#63b8ff" points="140.43,-64.91 150.76,-62.57 141.22,-57.96 140.43,-64.91"/>
</a>
</g>
</g>
<!-- Node3 -->
<g id="Node000003" class="node">
<title>Node3</title>
<g id="a_Node000003"><a xlink:href="fs_8c.html#a2800a4b570ae39363cec0613dac92fd7" target="_top" xlink:title=" ">
<polygon fill="white" stroke="#666666" points="198.5,-38 156.5,-38 156.5,-19 198.5,-19 198.5,-38"/>
<text text-anchor="middle" x="177.5" y="-26" font-family="Helvetica,sans-Serif" font-size="10.00">bfree</text>
</a>
</g>
</g>
<!-- Node2&#45;&gt;Node3 -->
<g id="edge2_Node000002_Node000003" class="edge">
<title>Node2&#45;&gt;Node3</title>
<g id="a_edge2_Node000002_Node000003"><a xlink:title=" ">
<path fill="none" stroke="#63b8ff" d="M115.25,-28.5C124.67,-28.5 135.94,-28.5 146.22,-28.5"/>
<polygon fill="#63b8ff" stroke="#63b8ff" points="146.46,-32 156.46,-28.5 146.46,-25 146.46,-32"/>
</a>
</g>
</g>
<!-- Node4 -->
<g id="Node000004" class="node">
<title>Node4</title>
<g id="a_Node000004"><a xlink:href="bio_8c.html#a30b8d2ef2300ed8e3d879a428fe39898" target="_top" xlink:title=" ">
<polygon fill="white" stroke="#666666" points="293,-19 249,-19 249,0 293,0 293,-19"/>
<text text-anchor="middle" x="271" y="-7" font-family="Helvetica,sans-Serif" font-size="10.00">bread</text>
</a>
</g>
</g>
<!-- Node2&#45;&gt;Node4 -->
<g id="edge7_Node000002_Node000004" class="edge">
<title>Node2&#45;&gt;Node4</title>
<g id="a_edge7_Node000002_Node000004"><a xlink:title=" ">
<path fill="none" stroke="#63b8ff" d="M115.24,-19.61C125.79,-15.66 138.85,-11.47 151,-9.5 180.49,-4.71 214.63,-5.34 238.76,-6.78"/>
<polygon fill="#63b8ff" stroke="#63b8ff" points="238.56,-10.28 248.77,-7.46 239.03,-3.29 238.56,-10.28"/>
</a>
</g>
</g>
<!-- Node6 -->
<g id="Node000006" class="node">
<title>Node6</title>
<g id="a_Node000006"><a xlink:href="bio_8c.html#ab5335aeb503731104314321a78a6d727" target="_top" xlink:title=" ">
<polygon fill="white" stroke="#666666" points="294.5,-93 247.5,-93 247.5,-74 294.5,-74 294.5,-93"/>
<text text-anchor="middle" x="271" y="-81" font-family="Helvetica,sans-Serif" font-size="10.00">brelse</text>
</a>
</g>
</g>
<!-- Node2&#45;&gt;Node6 -->
<g id="edge8_Node000002_Node000006" class="edge">
<title>Node2&#45;&gt;Node6</title>
<g id="a_edge8_Node000002_Node000006"><a xlink:title=" ">
<path fill="none" stroke="#63b8ff" d="M100.33,-38.15C109.61,-51.32 128.3,-74.34 151,-83.5 178.49,-94.6 212.55,-93.26 237.18,-89.93"/>
<polygon fill="#63b8ff" stroke="#63b8ff" points="237.76,-93.38 247.11,-88.42 236.7,-86.46 237.76,-93.38"/>
</a>
</g>
</g>
<!-- Node2&#45;&gt;Node8 -->
<g id="edge9_Node000002_Node000008" class="edge">
<title>Node2&#45;&gt;Node8</title>
<g id="a_edge9_Node000002_Node000008"><a xlink:title=" ">
<path fill="none" stroke="#63b8ff" d="M115.25,-38.03C124.51,-42.18 135.55,-47.13 145.68,-51.68"/>
<polygon fill="#63b8ff" stroke="#63b8ff" points="144.48,-54.98 155.04,-55.88 147.35,-48.59 144.48,-54.98"/>
</a>
</g>
</g>
<!-- Node3&#45;&gt;Node4 -->
<g id="edge3_Node000003_Node000004" class="edge">
<title>Node3&#45;&gt;Node4</title>
<g id="a_edge3_Node000003_Node000004"><a xlink:title=" ">
<path fill="none" stroke="#63b8ff" d="M198.81,-24.28C210.52,-21.85 225.5,-18.74 238.69,-16"/>
<polygon fill="#63b8ff" stroke="#63b8ff" points="239.72,-19.36 248.8,-13.9 238.29,-12.51 239.72,-19.36"/>
</a>
</g>
</g>
<!-- Node3&#45;&gt;Node6 -->
<g id="edge5_Node000003_Node000006" class="edge">
<title>Node3&#45;&gt;Node6</title>
<g id="a_edge5_Node000003_Node000006"><a xlink:title=" ">
<path fill="none" stroke="#63b8ff" d="M194.44,-38.08C208.39,-46.47 228.9,-58.79 245.03,-68.49"/>
<polygon fill="#63b8ff" stroke="#63b8ff" points="243.56,-71.69 253.94,-73.84 247.17,-65.69 243.56,-71.69"/>
</a>
</g>
</g>
<!-- Node7 -->
<g id="Node000007" class="node">
<title>Node7</title>
<g id="a_Node000007"><a xlink:href="log_8c.html#a7eacb0fbebe5ce4c7d3ddea15908b13d" target="_top" xlink:title=" ">
<polygon fill="white" stroke="#666666" points="302,-56 240,-56 240,-37 302,-37 302,-56"/>
<text text-anchor="middle" x="271" y="-44" font-family="Helvetica,sans-Serif" font-size="10.00">log_write</text>
</a>
</g>
</g>
<!-- Node3&#45;&gt;Node7 -->
<g id="edge6_Node000003_Node000007" class="edge">
<title>Node3&#45;&gt;Node7</title>
<g id="a_edge6_Node000003_Node000007"><a xlink:title=" ">
<path fill="none" stroke="#63b8ff" d="M198.81,-32.49C207.9,-34.28 218.97,-36.46 229.64,-38.56"/>
<polygon fill="#63b8ff" stroke="#63b8ff" points="229.18,-42.04 239.67,-40.53 230.53,-35.17 229.18,-42.04"/>
</a>
</g>
</g>
<!-- Node5 -->
<g id="Node000005" class="node">
<title>Node5</title>
<g id="a_Node000005"><a xlink:href="bio_8c.html#a69dcd3ce86d958b4024c6746263f3f5b" target="_top" xlink:title=" ">
<polygon fill="white" stroke="#666666" points="376,-19 338,-19 338,0 376,0 376,-19"/>
<text text-anchor="middle" x="357" y="-7" font-family="Helvetica,sans-Serif" font-size="10.00">bget</text>
</a>
</g>
</g>
<!-- Node4&#45;&gt;Node5 -->
<g id="edge4_Node000004_Node000005" class="edge">
<title>Node4&#45;&gt;Node5</title>
<g id="a_edge4_Node000004_Node000005"><a xlink:title=" ">
<path fill="none" stroke="#63b8ff" d="M293.2,-9.5C303.66,-9.5 316.42,-9.5 327.7,-9.5"/>
<polygon fill="#63b8ff" stroke="#63b8ff" points="327.94,-13 337.94,-9.5 327.94,-6 327.94,-13"/>
</a>
</g>
</g>
<!-- Node8&#45;&gt;Node4 -->
<g id="edge10_Node000008_Node000004" class="edge">
<title>Node8&#45;&gt;Node4</title>
<g id="a_edge10_Node000008_Node000004"><a xlink:title=" ">
<path fill="none" stroke="#63b8ff" d="M193.88,-55.92C206.3,-48.2 224.24,-37.1 240,-27.5 241.67,-26.48 243.4,-25.43 245.14,-24.38"/>
<polygon fill="#63b8ff" stroke="#63b8ff" points="247.02,-27.33 253.78,-19.18 243.41,-21.34 247.02,-27.33"/>
</a>
</g>
</g>
<!-- Node8&#45;&gt;Node6 -->
<g id="edge11_Node000008_Node000006" class="edge">
<title>Node8&#45;&gt;Node6</title>
<g id="a_edge11_Node000008_Node000006"><a xlink:title=" ">
<path fill="none" stroke="#63b8ff" d="M204.48,-70.61C214.73,-72.63 226.62,-74.97 237.43,-77.09"/>
<polygon fill="#63b8ff" stroke="#63b8ff" points="236.89,-80.55 247.38,-79.05 238.25,-73.69 236.89,-80.55"/>
</a>
</g>
</g>
<!-- Node8&#45;&gt;Node7 -->
<g id="edge12_Node000008_Node000007" class="edge">
<title>Node8&#45;&gt;Node7</title>
<g id="a_edge12_Node000008_Node000007"><a xlink:title=" ">
<path fill="none" stroke="#63b8ff" d="M204.48,-60.11C212.37,-58.47 221.25,-56.62 229.85,-54.84"/>
<polygon fill="#63b8ff" stroke="#63b8ff" points="230.67,-58.24 239.75,-52.78 229.25,-51.39 230.67,-58.24"/>
</a>
</g>
</g>
</g>
</svg>
