<?xml version="1.0" encoding="UTF-8" standalone="no"?>
<!DOCTYPE svg PUBLIC "-//W3C//DTD SVG 1.1//EN"
 "http://www.w3.org/Graphics/SVG/1.1/DTD/svg11.dtd">
<!-- Generated by graphviz version 2.43.0 (0)
 -->
<!-- Title: namex Pages: 1 -->
<svg width="697pt" height="621pt"
 viewBox="0.00 0.00 697.00 620.61" xmlns="http://www.w3.org/2000/svg" xmlns:xlink="http://www.w3.org/1999/xlink">
<g id="graph0" class="graph" transform="scale(1 1) rotate(0) translate(4 616.61)">
<title>namex</title>
<!-- Node1 -->
<g id="Node000001" class="node">
<title>Node1</title>
<g id="a_Node000001"><a xlink:title=" ">
<polygon fill="#999999" stroke="#666666" points="50,-150 0,-150 0,-131 50,-131 50,-150"/>
<text text-anchor="middle" x="25" y="-138" font-family="Helvetica,sans-Serif" font-size="10.00">namex</text>
</a>
</g>
</g>
<!-- Node2 -->
<g id="Node000002" class="node">
<title>Node2</title>
<g id="a_Node000002"><a xlink:href="fs_8c.html#a5341068f021beac8cf0032b97d231e6f" target="_top" xlink:title=" ">
<polygon fill="white" stroke="#666666" points="156.5,-301 94.5,-301 94.5,-282 156.5,-282 156.5,-301"/>
<text text-anchor="middle" x="125.5" y="-289" font-family="Helvetica,sans-Serif" font-size="10.00">dirlookup</text>
</a>
</g>
</g>
<!-- Node1&#45;&gt;Node2 -->
<g id="edge1_Node000001_Node000002" class="edge">
<title>Node1&#45;&gt;Node2</title>
<g id="a_edge1_Node000001_Node000002"><a xlink:title=" ">
<path fill="none" stroke="#63b8ff" d="M30.41,-150.29C39.48,-169.95 61.44,-215.28 86,-249.5 92.27,-258.23 100.15,-267.12 107.15,-274.46"/>
<polygon fill="#63b8ff" stroke="#63b8ff" points="104.78,-277.04 114.28,-281.73 109.78,-272.14 104.78,-277.04"/>
</a>
</g>
</g>
<!-- Node3 -->
<g id="Node000003" class="node">
<title>Node3</title>
<g id="a_Node000003"><a xlink:href="fs_8c.html#aa574143402896986fe315a0c2749fffa" target="_top" xlink:title=" ">
<polygon fill="white" stroke="#666666" points="251,-357 216,-357 216,-338 251,-338 251,-357"/>
<text text-anchor="middle" x="233.5" y="-345" font-family="Helvetica,sans-Serif" font-size="10.00">iget</text>
</a>
</g>
</g>
<!-- Node1&#45;&gt;Node3 -->
<g id="edge21_Node000001_Node000003" class="edge">
<title>Node1&#45;&gt;Node3</title>
<g id="a_edge21_Node000001_Node000003"><a xlink:title=" ">
<path fill="none" stroke="#63b8ff" d="M26.39,-150.29C28.09,-179.37 37.21,-266 86,-310.5 119.09,-340.68 173.19,-347.06 205.57,-347.96"/>
<polygon fill="#63b8ff" stroke="#63b8ff" points="205.61,-351.47 215.65,-348.09 205.7,-344.47 205.61,-351.47"/>
</a>
</g>
</g>
<!-- Node13 -->
<g id="Node000013" class="node">
<title>Node13</title>
<g id="a_Node000013"><a xlink:href="fs_8c.html#a24a91383ab80b4b8a1ef1f4df896035c" target="_top" xlink:title=" ">
<polygon fill="white" stroke="#666666" points="144.5,-93 106.5,-93 106.5,-74 144.5,-74 144.5,-93"/>
<text text-anchor="middle" x="125.5" y="-81" font-family="Helvetica,sans-Serif" font-size="10.00">idup</text>
</a>
</g>
</g>
<!-- Node1&#45;&gt;Node13 -->
<g id="edge20_Node000001_Node000013" class="edge">
<title>Node1&#45;&gt;Node13</title>
<g id="a_edge20_Node000001_Node000013"><a xlink:title=" ">
<path fill="none" stroke="#63b8ff" d="M42.71,-130.83C58.23,-121.85 81.55,-108.36 99.32,-98.07"/>
<polygon fill="#63b8ff" stroke="#63b8ff" points="101.14,-101.06 108.04,-93.03 97.63,-95.01 101.14,-101.06"/>
</a>
</g>
</g>
<!-- Node14 -->
<g id="Node000014" class="node">
<title>Node14</title>
<g id="a_Node000014"><a xlink:href="fs_8c.html#aed28187406d84a3aa71f10c6235a03ec" target="_top" xlink:title=" ">
<polygon fill="white" stroke="#666666" points="510.5,-245 470.5,-245 470.5,-226 510.5,-226 510.5,-245"/>
<text text-anchor="middle" x="490.5" y="-233" font-family="Helvetica,sans-Serif" font-size="10.00">ilock</text>
</a>
</g>
</g>
<!-- Node1&#45;&gt;Node14 -->
<g id="edge22_Node000001_Node000014" class="edge">
<title>Node1&#45;&gt;Node14</title>
<g id="a_edge22_Node000001_Node000014"><a xlink:title=" ">
<path fill="none" stroke="#63b8ff" d="M50.1,-136.84C88.56,-131.32 166.26,-121.5 232.5,-121.5 232.5,-121.5 232.5,-121.5 325,-121.5 391.7,-121.5 450.86,-185.59 476.29,-217.66"/>
<polygon fill="#63b8ff" stroke="#63b8ff" points="473.67,-220 482.54,-225.78 479.21,-215.72 473.67,-220"/>
</a>
</g>
</g>
<!-- Node15 -->
<g id="Node000015" class="node">
<title>Node15</title>
<g id="a_Node000015"><a xlink:href="fs_8c.html#ab3c447f135c68e4c3c1f8d5866f6e77b" target="_top" xlink:title=" ">
<polygon fill="white" stroke="#666666" points="341.5,-283 306.5,-283 306.5,-264 341.5,-264 341.5,-283"/>
<text text-anchor="middle" x="324" y="-271" font-family="Helvetica,sans-Serif" font-size="10.00">iput</text>
</a>
</g>
</g>
<!-- Node1&#45;&gt;Node15 -->
<g id="edge25_Node000001_Node000015" class="edge">
<title>Node1&#45;&gt;Node15</title>
<g id="a_edge25_Node000001_Node000015"><a xlink:title=" ">
<path fill="none" stroke="#63b8ff" d="M30.78,-150.2C39.4,-166.62 59.19,-199.77 86,-216.5 155.44,-259.84 186.89,-234.49 266,-255.5 276.02,-258.16 286.89,-261.49 296.44,-264.55"/>
<polygon fill="#63b8ff" stroke="#63b8ff" points="295.57,-267.95 306.16,-267.73 297.74,-261.3 295.57,-267.95"/>
</a>
</g>
</g>
<!-- Node19 -->
<g id="Node000019" class="node">
<title>Node19</title>
<g id="a_Node000019"><a xlink:href="fs_8c.html#ae4e29916219b9293b37f9c34220694fe" target="_top" xlink:title=" ">
<polygon fill="white" stroke="#666666" points="259.5,-169 207.5,-169 207.5,-150 259.5,-150 259.5,-169"/>
<text text-anchor="middle" x="233.5" y="-157" font-family="Helvetica,sans-Serif" font-size="10.00">iunlock</text>
</a>
</g>
</g>
<!-- Node1&#45;&gt;Node19 -->
<g id="edge38_Node000001_Node000019" class="edge">
<title>Node1&#45;&gt;Node19</title>
<g id="a_edge38_Node000001_Node000019"><a xlink:title=" ">
<path fill="none" stroke="#63b8ff" d="M50.09,-142.72C86.38,-146.06 155.28,-152.39 197.23,-156.25"/>
<polygon fill="#63b8ff" stroke="#63b8ff" points="197,-159.75 207.27,-157.18 197.64,-152.78 197,-159.75"/>
</a>
</g>
</g>
<!-- Node20 -->
<g id="Node000020" class="node">
<title>Node20</title>
<g id="a_Node000020"><a xlink:href="fs_8c.html#a207b3008bae35596c55ec7c4fc6875eb" target="_top" xlink:title=" ">
<polygon fill="white" stroke="#666666" points="159.5,-207 91.5,-207 91.5,-188 159.5,-188 159.5,-207"/>
<text text-anchor="middle" x="125.5" y="-195" font-family="Helvetica,sans-Serif" font-size="10.00">iunlockput</text>
</a>
</g>
</g>
<!-- Node1&#45;&gt;Node20 -->
<g id="edge39_Node000001_Node000020" class="edge">
<title>Node1&#45;&gt;Node20</title>
<g id="a_edge39_Node000001_Node000020"><a xlink:title=" ">
<path fill="none" stroke="#63b8ff" d="M42.71,-150.17C58.23,-159.15 81.55,-172.64 99.32,-182.93"/>
<polygon fill="#63b8ff" stroke="#63b8ff" points="97.63,-185.99 108.04,-187.97 101.14,-179.94 97.63,-185.99"/>
</a>
</g>
</g>
<!-- Node21 -->
<g id="Node000021" class="node">
<title>Node21</title>
<g id="a_Node000021"><a xlink:href="fs_8c.html#ade44726f2aed2af27fa0df5f63f9e688" target="_top" xlink:title=" ">
<polygon fill="white" stroke="#666666" points="165,-56 86,-56 86,-37 165,-37 165,-56"/>
<text text-anchor="middle" x="125.5" y="-44" font-family="Helvetica,sans-Serif" font-size="10.00">nameiparent</text>
</a>
</g>
</g>
<!-- Node1&#45;&gt;Node21 -->
<g id="edge42_Node000001_Node000021" class="edge">
<title>Node1&#45;&gt;Node21</title>
<g id="a_edge42_Node000001_Node000021"><a xlink:title=" ">
<path fill="none" stroke="#63b8ff" d="M28.98,-130.82C36,-114.52 54.78,-83.73 78.49,-61.95"/>
<polygon fill="#63b8ff" stroke="#63b8ff" points="81.03,-64.39 86.35,-55.23 76.47,-59.07 81.03,-64.39"/>
</a>
</g>
</g>
<!-- Node22 -->
<g id="Node000022" class="node">
<title>Node22</title>
<g id="a_Node000022"><a xlink:href="fs_8c.html#a8b3eda072ad15763cdaa2fd356643fb4" target="_top" xlink:title=" ">
<polygon fill="white" stroke="#666666" points="156.5,-19 94.5,-19 94.5,0 156.5,0 156.5,-19"/>
<text text-anchor="middle" x="125.5" y="-7" font-family="Helvetica,sans-Serif" font-size="10.00">skipelem</text>
</a>
</g>
</g>
<!-- Node1&#45;&gt;Node22 -->
<g id="edge44_Node000001_Node000022" class="edge">
<title>Node1&#45;&gt;Node22</title>
<g id="a_edge44_Node000001_Node000022"><a xlink:title=" ">
<path fill="none" stroke="#63b8ff" d="M28.83,-130.72C35.48,-109.34 53.96,-57.95 86,-27.5 86.96,-26.59 87.98,-25.71 89.04,-24.87"/>
<polygon fill="#63b8ff" stroke="#63b8ff" points="91.31,-27.58 97.79,-19.2 87.5,-21.7 91.31,-27.58"/>
</a>
</g>
</g>
<!-- Node2&#45;&gt;Node3 -->
<g id="edge2_Node000002_Node000003" class="edge">
<title>Node2&#45;&gt;Node3</title>
<g id="a_edge2_Node000002_Node000003"><a xlink:title=" ">
<path fill="none" stroke="#63b8ff" d="M144.96,-301.25C162.11,-310.32 187.81,-323.89 206.93,-333.99"/>
<polygon fill="#63b8ff" stroke="#63b8ff" points="205.51,-337.2 215.99,-338.78 208.78,-331.01 205.51,-337.2"/>
</a>
</g>
</g>
<!-- Node4 -->
<g id="Node000004" class="node">
<title>Node4</title>
<g id="a_Node000004"><a xlink:href="fs_8c.html#ae74f6e5b19a4e7f3e72807ee67141819" target="_top" xlink:title=" ">
<polygon fill="white" stroke="#666666" points="266,-283 201,-283 201,-264 266,-264 266,-283"/>
<text text-anchor="middle" x="233.5" y="-271" font-family="Helvetica,sans-Serif" font-size="10.00">namecmp</text>
</a>
</g>
</g>
<!-- Node2&#45;&gt;Node4 -->
<g id="edge3_Node000002_Node000004" class="edge">
<title>Node2&#45;&gt;Node4</title>
<g id="a_edge3_Node000002_Node000004"><a xlink:title=" ">
<path fill="none" stroke="#63b8ff" d="M156.59,-286.39C167.18,-284.59 179.28,-282.54 190.67,-280.6"/>
<polygon fill="#63b8ff" stroke="#63b8ff" points="191.58,-284 200.85,-278.87 190.41,-277.1 191.58,-284"/>
</a>
</g>
</g>
<!-- Node5 -->
<g id="Node000005" class="node">
<title>Node5</title>
<g id="a_Node000005"><a xlink:href="fs_8c.html#a3aba1fa9f6789d09356aec5b96d91fa8" target="_top" xlink:title=" ">
<polygon fill="white" stroke="#666666" points="254,-320 213,-320 213,-301 254,-301 254,-320"/>
<text text-anchor="middle" x="233.5" y="-308" font-family="Helvetica,sans-Serif" font-size="10.00">readi</text>
</a>
</g>
</g>
<!-- Node2&#45;&gt;Node5 -->
<g id="edge4_Node000002_Node000005" class="edge">
<title>Node2&#45;&gt;Node5</title>
<g id="a_edge4_Node000002_Node000005"><a xlink:title=" ">
<path fill="none" stroke="#63b8ff" d="M156.59,-296.89C171.07,-299.49 188.38,-302.59 202.81,-305.18"/>
<polygon fill="#63b8ff" stroke="#63b8ff" points="202.26,-308.64 212.72,-306.95 203.5,-301.75 202.26,-308.64"/>
</a>
</g>
</g>
<!-- Node6 -->
<g id="Node000006" class="node">
<title>Node6</title>
<g id="a_Node000006"><a xlink:href="fs_8c.html#a965e83e1fa9b15abf268784ce74181bb" target="_top" xlink:title=" ">
<polygon fill="white" stroke="#666666" points="346,-490 302,-490 302,-471 346,-471 346,-490"/>
<text text-anchor="middle" x="324" y="-478" font-family="Helvetica,sans-Serif" font-size="10.00">bmap</text>
</a>
</g>
</g>
<!-- Node5&#45;&gt;Node6 -->
<g id="edge5_Node000005_Node000006" class="edge">
<title>Node5&#45;&gt;Node6</title>
<g id="a_edge5_Node000005_Node000006"><a xlink:title=" ">
<path fill="none" stroke="#63b8ff" d="M254.06,-319.53C258.43,-322.25 262.73,-325.57 266,-329.5 299.06,-369.19 314.07,-430.03 319.87,-460.97"/>
<polygon fill="#63b8ff" stroke="#63b8ff" points="316.44,-461.67 321.61,-470.92 323.34,-460.47 316.44,-461.67"/>
</a>
</g>
</g>
<!-- Node8 -->
<g id="Node000008" class="node">
<title>Node8</title>
<g id="a_Node000008"><a xlink:href="bio_8c.html#a30b8d2ef2300ed8e3d879a428fe39898" target="_top" xlink:title=" ">
<polygon fill="white" stroke="#666666" points="606,-321 562,-321 562,-302 606,-302 606,-321"/>
<text text-anchor="middle" x="584" y="-309" font-family="Helvetica,sans-Serif" font-size="10.00">bread</text>
</a>
</g>
</g>
<!-- Node5&#45;&gt;Node8 -->
<g id="edge18_Node000005_Node000008" class="edge">
<title>Node5&#45;&gt;Node8</title>
<g id="a_edge18_Node000005_Node000008"><a xlink:title=" ">
<path fill="none" stroke="#63b8ff" d="M253.38,-300.86C257.67,-298.36 262.12,-295.51 266,-292.5 284.14,-278.45 282.43,-267.48 302,-255.5 366.27,-216.16 389.49,-216.74 464,-205.5 487.29,-201.99 496.41,-194.06 517,-205.5 550.33,-224.01 569.02,-267.12 577.45,-292.29"/>
<polygon fill="#63b8ff" stroke="#63b8ff" points="574.11,-293.36 580.44,-301.85 580.79,-291.26 574.11,-293.36"/>
</a>
</g>
</g>
<!-- Node10 -->
<g id="Node000010" class="node">
<title>Node10</title>
<g id="a_Node000010"><a xlink:href="bio_8c.html#ab5335aeb503731104314321a78a6d727" target="_top" xlink:title=" ">
<polygon fill="white" stroke="#666666" points="607.5,-453 560.5,-453 560.5,-434 607.5,-434 607.5,-453"/>
<text text-anchor="middle" x="584" y="-441" font-family="Helvetica,sans-Serif" font-size="10.00">brelse</text>
</a>
</g>
</g>
<!-- Node5&#45;&gt;Node10 -->
<g id="edge19_Node000005_Node000010" class="edge">
<title>Node5&#45;&gt;Node10</title>
<g id="a_edge19_Node000005_Node000010"><a xlink:title=" ">
<path fill="none" stroke="#63b8ff" d="M254.17,-318.99C258.64,-321.75 262.96,-325.23 266,-329.5 310.77,-392.43 252.28,-440.4 302,-499.5 326.65,-528.8 344.69,-522.89 382,-531.5 440.52,-545 464.17,-566.06 517,-537.5 542.7,-523.61 536.08,-506.32 553,-482.5 557.97,-475.51 563.65,-468.01 568.72,-461.46"/>
<polygon fill="#63b8ff" stroke="#63b8ff" points="571.73,-463.31 575.14,-453.28 566.22,-458.99 571.73,-463.31"/>
</a>
</g>
</g>
<!-- Node7 -->
<g id="Node000007" class="node">
<title>Node7</title>
<g id="a_Node000007"><a xlink:href="fs_8c.html#a29272227722d57ff937caaffd03455a9" target="_top" xlink:title=" ">
<polygon fill="white" stroke="#666666" points="428,-490 382,-490 382,-471 428,-471 428,-490"/>
<text text-anchor="middle" x="405" y="-478" font-family="Helvetica,sans-Serif" font-size="10.00">balloc</text>
</a>
</g>
</g>
<!-- Node6&#45;&gt;Node7 -->
<g id="edge6_Node000006_Node000007" class="edge">
<title>Node6&#45;&gt;Node7</title>
<g id="a_edge6_Node000006_Node000007"><a xlink:title=" ">
<path fill="none" stroke="#63b8ff" d="M346.17,-480.5C354.03,-480.5 363.14,-480.5 371.77,-480.5"/>
<polygon fill="#63b8ff" stroke="#63b8ff" points="371.94,-484 381.94,-480.5 371.94,-477 371.94,-484"/>
</a>
</g>
</g>
<!-- Node6&#45;&gt;Node8 -->
<g id="edge15_Node000006_Node000008" class="edge">
<title>Node6&#45;&gt;Node8</title>
<g id="a_edge15_Node000006_Node000008"><a xlink:title=" ">
<path fill="none" stroke="#63b8ff" d="M325.96,-470.9C330.77,-428.66 356.54,-259.64 464,-217.5 485.93,-208.9 496.1,-206.64 517,-217.5 547.09,-233.14 566.33,-269.48 575.85,-292.12"/>
<polygon fill="#63b8ff" stroke="#63b8ff" points="572.72,-293.7 579.65,-301.71 579.22,-291.12 572.72,-293.7"/>
</a>
</g>
</g>
<!-- Node6&#45;&gt;Node10 -->
<g id="edge16_Node000006_Node000010" class="edge">
<title>Node6&#45;&gt;Node10</title>
<g id="a_edge16_Node000006_Node000010"><a xlink:title=" ">
<path fill="none" stroke="#63b8ff" d="M340.92,-490.05C374.79,-509.03 455.88,-547.37 517,-519.5 523.88,-516.36 551.65,-482.7 568.9,-461.24"/>
<polygon fill="#63b8ff" stroke="#63b8ff" points="571.83,-463.18 575.35,-453.18 566.37,-458.8 571.83,-463.18"/>
</a>
</g>
</g>
<!-- Node12 -->
<g id="Node000012" class="node">
<title>Node12</title>
<g id="a_Node000012"><a xlink:href="log_8c.html#a7eacb0fbebe5ce4c7d3ddea15908b13d" target="_top" xlink:title=" ">
<polygon fill="white" stroke="#666666" points="615,-510 553,-510 553,-491 615,-491 615,-510"/>
<text text-anchor="middle" x="584" y="-498" font-family="Helvetica,sans-Serif" font-size="10.00">log_write</text>
</a>
</g>
</g>
<!-- Node6&#45;&gt;Node12 -->
<g id="edge17_Node000006_Node000012" class="edge">
<title>Node6&#45;&gt;Node12</title>
<g id="a_edge17_Node000006_Node000012"><a xlink:title=" ">
<path fill="none" stroke="#63b8ff" d="M326.58,-490.11C330.85,-512.49 344.88,-567.93 382,-590.5 433.27,-621.67 463.48,-617.62 517,-590.5 546.24,-575.68 565.66,-541.13 575.47,-519.41"/>
<polygon fill="#63b8ff" stroke="#63b8ff" points="578.7,-520.76 579.41,-510.19 572.26,-518.01 578.7,-520.76"/>
</a>
</g>
</g>
<!-- Node7&#45;&gt;Node8 -->
<g id="edge7_Node000007_Node000008" class="edge">
<title>Node7&#45;&gt;Node8</title>
<g id="a_edge7_Node000007_Node000008"><a xlink:title=" ">
<path fill="none" stroke="#63b8ff" d="M408.73,-470.93C415.14,-450.01 432.98,-399.66 464,-369.5 488.87,-345.31 525.79,-329.48 551.9,-320.56"/>
<polygon fill="#63b8ff" stroke="#63b8ff" points="553.25,-323.8 561.67,-317.37 551.08,-317.15 553.25,-323.8"/>
</a>
</g>
</g>
<!-- Node7&#45;&gt;Node10 -->
<g id="edge9_Node000007_Node000010" class="edge">
<title>Node7&#45;&gt;Node10</title>
<g id="a_edge9_Node000007_Node000010"><a xlink:title=" ">
<path fill="none" stroke="#63b8ff" d="M428.06,-475.89C458.85,-469.45 514.91,-457.73 550.49,-450.3"/>
<polygon fill="#63b8ff" stroke="#63b8ff" points="551.31,-453.7 560.38,-448.23 549.88,-446.85 551.31,-453.7"/>
</a>
</g>
</g>
<!-- Node11 -->
<g id="Node000011" class="node">
<title>Node11</title>
<g id="a_Node000011"><a xlink:href="fs_8c.html#ac93f607f4a954323f4c9ea485ca88538" target="_top" xlink:title=" ">
<polygon fill="white" stroke="#666666" points="512.5,-510 468.5,-510 468.5,-491 512.5,-491 512.5,-510"/>
<text text-anchor="middle" x="490.5" y="-498" font-family="Helvetica,sans-Serif" font-size="10.00">bzero</text>
</a>
</g>
</g>
<!-- Node7&#45;&gt;Node11 -->
<g id="edge10_Node000007_Node000011" class="edge">
<title>Node7&#45;&gt;Node11</title>
<g id="a_edge10_Node000007_Node000011"><a xlink:title=" ">
<path fill="none" stroke="#63b8ff" d="M428.38,-485.86C437.63,-488.08 448.51,-490.68 458.5,-493.08"/>
<polygon fill="#63b8ff" stroke="#63b8ff" points="457.96,-496.54 468.5,-495.47 459.59,-489.74 457.96,-496.54"/>
</a>
</g>
</g>
<!-- Node7&#45;&gt;Node12 -->
<g id="edge14_Node000007_Node000012" class="edge">
<title>Node7&#45;&gt;Node12</title>
<g id="a_edge14_Node000007_Node000012"><a xlink:title=" ">
<path fill="none" stroke="#63b8ff" d="M416.11,-490.09C426.97,-499.67 445.2,-513.77 464,-519.5 492.54,-528.2 526.22,-521.31 550.45,-513.5"/>
<polygon fill="#63b8ff" stroke="#63b8ff" points="551.89,-516.7 560.21,-510.14 549.62,-510.08 551.89,-516.7"/>
</a>
</g>
</g>
<!-- Node9 -->
<g id="Node000009" class="node">
<title>Node9</title>
<g id="a_Node000009"><a xlink:href="bio_8c.html#a69dcd3ce86d958b4024c6746263f3f5b" target="_top" xlink:title=" ">
<polygon fill="white" stroke="#666666" points="689,-321 651,-321 651,-302 689,-302 689,-321"/>
<text text-anchor="middle" x="670" y="-309" font-family="Helvetica,sans-Serif" font-size="10.00">bget</text>
</a>
</g>
</g>
<!-- Node8&#45;&gt;Node9 -->
<g id="edge8_Node000008_Node000009" class="edge">
<title>Node8&#45;&gt;Node9</title>
<g id="a_edge8_Node000008_Node000009"><a xlink:title=" ">
<path fill="none" stroke="#63b8ff" d="M606.2,-311.5C616.66,-311.5 629.42,-311.5 640.7,-311.5"/>
<polygon fill="#63b8ff" stroke="#63b8ff" points="640.94,-315 650.94,-311.5 640.94,-308 640.94,-315"/>
</a>
</g>
</g>
<!-- Node11&#45;&gt;Node8 -->
<g id="edge11_Node000011_Node000008" class="edge">
<title>Node11&#45;&gt;Node8</title>
<g id="a_edge11_Node000011_Node000008"><a xlink:title=" ">
<path fill="none" stroke="#63b8ff" d="M496.16,-490.87C510.57,-461.11 554.55,-370.27 573.81,-330.49"/>
<polygon fill="#63b8ff" stroke="#63b8ff" points="577.03,-331.87 578.24,-321.34 570.73,-328.82 577.03,-331.87"/>
</a>
</g>
</g>
<!-- Node11&#45;&gt;Node10 -->
<g id="edge12_Node000011_Node000010" class="edge">
<title>Node11&#45;&gt;Node10</title>
<g id="a_edge12_Node000011_Node000010"><a xlink:title=" ">
<path fill="none" stroke="#63b8ff" d="M507.02,-490.83C521.3,-481.93 542.7,-468.6 559.15,-458.36"/>
<polygon fill="#63b8ff" stroke="#63b8ff" points="561.07,-461.28 567.71,-453.03 557.37,-455.34 561.07,-461.28"/>
</a>
</g>
</g>
<!-- Node11&#45;&gt;Node12 -->
<g id="edge13_Node000011_Node000012" class="edge">
<title>Node11&#45;&gt;Node12</title>
<g id="a_edge13_Node000011_Node000012"><a xlink:title=" ">
<path fill="none" stroke="#63b8ff" d="M512.72,-500.5C521.67,-500.5 532.4,-500.5 542.74,-500.5"/>
<polygon fill="#63b8ff" stroke="#63b8ff" points="542.88,-504 552.88,-500.5 542.88,-497 542.88,-504"/>
</a>
</g>
</g>
<!-- Node14&#45;&gt;Node8 -->
<g id="edge23_Node000014_Node000008" class="edge">
<title>Node14&#45;&gt;Node8</title>
<g id="a_edge23_Node000014_Node000008"><a xlink:title=" ">
<path fill="none" stroke="#63b8ff" d="M503.09,-245.13C518.35,-257.8 545.4,-280.27 563.76,-295.52"/>
<polygon fill="#63b8ff" stroke="#63b8ff" points="561.58,-298.26 571.51,-301.95 566.05,-292.87 561.58,-298.26"/>
</a>
</g>
</g>
<!-- Node14&#45;&gt;Node10 -->
<g id="edge24_Node000014_Node000010" class="edge">
<title>Node14&#45;&gt;Node10</title>
<g id="a_edge24_Node000014_Node000010"><a xlink:title=" ">
<path fill="none" stroke="#63b8ff" d="M495.79,-245.25C509.96,-277.46 555.42,-380.79 574.47,-424.11"/>
<polygon fill="#63b8ff" stroke="#63b8ff" points="571.38,-425.78 578.61,-433.53 577.79,-422.96 571.38,-425.78"/>
</a>
</g>
</g>
<!-- Node16 -->
<g id="Node000016" class="node">
<title>Node16</title>
<g id="a_Node000016"><a xlink:href="fs_8c.html#a7c42ba96035fb59aef87372552b1a661" target="_top" xlink:title=" ">
<polygon fill="white" stroke="#666666" points="427,-321 383,-321 383,-302 427,-302 427,-321"/>
<text text-anchor="middle" x="405" y="-309" font-family="Helvetica,sans-Serif" font-size="10.00">itrunc</text>
</a>
</g>
</g>
<!-- Node15&#45;&gt;Node16 -->
<g id="edge26_Node000015_Node000016" class="edge">
<title>Node15&#45;&gt;Node16</title>
<g id="a_edge26_Node000015_Node000016"><a xlink:title=" ">
<path fill="none" stroke="#63b8ff" d="M341.75,-281.56C351.45,-286.22 363.92,-292.22 375.15,-297.62"/>
<polygon fill="#63b8ff" stroke="#63b8ff" points="373.67,-300.79 384.2,-301.98 376.7,-294.49 373.67,-300.79"/>
</a>
</g>
</g>
<!-- Node18 -->
<g id="Node000018" class="node">
<title>Node18</title>
<g id="a_Node000018"><a xlink:href="fs_8c.html#a7220afa8e5f4bea540eb95879ea7df6e" target="_top" xlink:title=" ">
<polygon fill="white" stroke="#666666" points="517,-434 464,-434 464,-415 517,-415 517,-434"/>
<text text-anchor="middle" x="490.5" y="-422" font-family="Helvetica,sans-Serif" font-size="10.00">iupdate</text>
</a>
</g>
</g>
<!-- Node15&#45;&gt;Node18 -->
<g id="edge37_Node000015_Node000018" class="edge">
<title>Node15&#45;&gt;Node18</title>
<g id="a_edge37_Node000015_Node000018"><a xlink:title=" ">
<path fill="none" stroke="#63b8ff" d="M333.95,-283.09C355.34,-305.77 411.58,-364.02 464,-406.5 464.99,-407.31 466.02,-408.12 467.07,-408.92"/>
<polygon fill="#63b8ff" stroke="#63b8ff" points="465.09,-411.82 475.22,-414.92 469.24,-406.18 465.09,-411.82"/>
</a>
</g>
</g>
<!-- Node16&#45;&gt;Node8 -->
<g id="edge31_Node000016_Node000008" class="edge">
<title>Node16&#45;&gt;Node8</title>
<g id="a_edge31_Node000016_Node000008"><a xlink:title=" ">
<path fill="none" stroke="#63b8ff" d="M427.26,-305.09C438.14,-302.14 451.66,-298.97 464,-297.5 487.39,-294.72 493.57,-295.04 517,-297.5 528.48,-298.7 540.89,-301.05 551.83,-303.49"/>
<polygon fill="#63b8ff" stroke="#63b8ff" points="551.24,-306.95 561.78,-305.82 552.84,-300.13 551.24,-306.95"/>
</a>
</g>
</g>
<!-- Node16&#45;&gt;Node10 -->
<g id="edge32_Node000016_Node000010" class="edge">
<title>Node16&#45;&gt;Node10</title>
<g id="a_edge32_Node000016_Node000010"><a xlink:title=" ">
<path fill="none" stroke="#63b8ff" d="M427.38,-319.92C450.77,-329.73 488.7,-347.45 517,-369.5 538.08,-385.93 557.87,-409.65 570.17,-425.77"/>
<polygon fill="#63b8ff" stroke="#63b8ff" points="567.42,-427.93 576.2,-433.85 573.03,-423.74 567.42,-427.93"/>
</a>
</g>
</g>
<!-- Node17 -->
<g id="Node000017" class="node">
<title>Node17</title>
<g id="a_Node000017"><a xlink:href="fs_8c.html#a2800a4b570ae39363cec0613dac92fd7" target="_top" xlink:title=" ">
<polygon fill="white" stroke="#666666" points="511.5,-397 469.5,-397 469.5,-378 511.5,-378 511.5,-397"/>
<text text-anchor="middle" x="490.5" y="-385" font-family="Helvetica,sans-Serif" font-size="10.00">bfree</text>
</a>
</g>
</g>
<!-- Node16&#45;&gt;Node17 -->
<g id="edge27_Node000016_Node000017" class="edge">
<title>Node16&#45;&gt;Node17</title>
<g id="a_edge27_Node000016_Node000017"><a xlink:title=" ">
<path fill="none" stroke="#63b8ff" d="M416.58,-321.13C430.38,-333.69 454.74,-355.87 471.48,-371.1"/>
<polygon fill="#63b8ff" stroke="#63b8ff" points="469.26,-373.81 479.01,-377.95 473.97,-368.63 469.26,-373.81"/>
</a>
</g>
</g>
<!-- Node16&#45;&gt;Node18 -->
<g id="edge33_Node000016_Node000018" class="edge">
<title>Node16&#45;&gt;Node18</title>
<g id="a_edge33_Node000016_Node000018"><a xlink:title=" ">
<path fill="none" stroke="#63b8ff" d="M410.31,-321.26C418.7,-339.52 438.65,-379.41 464,-406.5 464.63,-407.18 465.29,-407.84 465.98,-408.49"/>
<polygon fill="#63b8ff" stroke="#63b8ff" points="463.9,-411.32 473.85,-414.97 468.35,-405.91 463.9,-411.32"/>
</a>
</g>
</g>
<!-- Node17&#45;&gt;Node8 -->
<g id="edge28_Node000017_Node000008" class="edge">
<title>Node17&#45;&gt;Node8</title>
<g id="a_edge28_Node000017_Node000008"><a xlink:title=" ">
<path fill="none" stroke="#63b8ff" d="M503.09,-377.87C518.35,-365.2 545.4,-342.73 563.76,-327.48"/>
<polygon fill="#63b8ff" stroke="#63b8ff" points="566.05,-330.13 571.51,-321.05 561.58,-324.74 566.05,-330.13"/>
</a>
</g>
</g>
<!-- Node17&#45;&gt;Node10 -->
<g id="edge29_Node000017_Node000010" class="edge">
<title>Node17&#45;&gt;Node10</title>
<g id="a_edge29_Node000017_Node000010"><a xlink:title=" ">
<path fill="none" stroke="#63b8ff" d="M507.44,-397.25C521.48,-405.85 542.15,-418.5 558.32,-428.4"/>
<polygon fill="#63b8ff" stroke="#63b8ff" points="556.89,-431.62 567.24,-433.86 560.54,-425.65 556.89,-431.62"/>
</a>
</g>
</g>
<!-- Node17&#45;&gt;Node12 -->
<g id="edge30_Node000017_Node000012" class="edge">
<title>Node17&#45;&gt;Node12</title>
<g id="a_edge30_Node000017_Node000012"><a xlink:title=" ">
<path fill="none" stroke="#63b8ff" d="M506.28,-397.11C510,-399.9 513.84,-403.11 517,-406.5 537.19,-428.13 535.81,-438.42 553,-462.5 557.83,-469.27 563.42,-476.49 568.44,-482.8"/>
<polygon fill="#63b8ff" stroke="#63b8ff" points="565.83,-485.13 574.84,-490.7 571.27,-480.72 565.83,-485.13"/>
</a>
</g>
</g>
<!-- Node18&#45;&gt;Node8 -->
<g id="edge34_Node000018_Node000008" class="edge">
<title>Node18&#45;&gt;Node8</title>
<g id="a_edge34_Node000018_Node000008"><a xlink:title=" ">
<path fill="none" stroke="#63b8ff" d="M507.02,-414.85C510.49,-412.34 514.02,-409.5 517,-406.5 540.34,-382.98 561.01,-350.31 572.76,-330.06"/>
<polygon fill="#63b8ff" stroke="#63b8ff" points="575.89,-331.64 577.78,-321.21 569.8,-328.18 575.89,-331.64"/>
</a>
</g>
</g>
<!-- Node18&#45;&gt;Node10 -->
<g id="edge35_Node000018_Node000010" class="edge">
<title>Node18&#45;&gt;Node10</title>
<g id="a_edge35_Node000018_Node000010"><a xlink:title=" ">
<path fill="none" stroke="#63b8ff" d="M517.48,-429.89C527.73,-432.02 539.62,-434.49 550.43,-436.74"/>
<polygon fill="#63b8ff" stroke="#63b8ff" points="549.88,-440.2 560.38,-438.8 551.3,-433.34 549.88,-440.2"/>
</a>
</g>
</g>
<!-- Node18&#45;&gt;Node12 -->
<g id="edge36_Node000018_Node000012" class="edge">
<title>Node18&#45;&gt;Node12</title>
<g id="a_edge36_Node000018_Node000012"><a xlink:title=" ">
<path fill="none" stroke="#63b8ff" d="M503.09,-434.13C518.35,-446.8 545.4,-469.27 563.76,-484.52"/>
<polygon fill="#63b8ff" stroke="#63b8ff" points="561.58,-487.26 571.51,-490.95 566.05,-481.87 561.58,-487.26"/>
</a>
</g>
</g>
<!-- Node20&#45;&gt;Node15 -->
<g id="edge40_Node000020_Node000015" class="edge">
<title>Node20&#45;&gt;Node15</title>
<g id="a_edge40_Node000020_Node000015"><a xlink:title=" ">
<path fill="none" stroke="#63b8ff" d="M159.67,-198.01C188.99,-199.63 232.23,-204.98 266,-221.5 282.65,-229.65 297.96,-244.18 308.51,-255.82"/>
<polygon fill="#63b8ff" stroke="#63b8ff" points="306.1,-258.39 315.3,-263.65 311.39,-253.8 306.1,-258.39"/>
</a>
</g>
</g>
<!-- Node20&#45;&gt;Node19 -->
<g id="edge41_Node000020_Node000019" class="edge">
<title>Node20&#45;&gt;Node19</title>
<g id="a_edge41_Node000020_Node000019"><a xlink:title=" ">
<path fill="none" stroke="#63b8ff" d="M153.25,-187.91C166.7,-183.09 183.18,-177.18 197.61,-172.01"/>
<polygon fill="#63b8ff" stroke="#63b8ff" points="198.99,-175.23 207.22,-168.56 196.63,-168.64 198.99,-175.23"/>
</a>
</g>
</g>
<!-- Node21&#45;&gt;Node1 -->
<g id="edge43_Node000021_Node000001" class="edge">
<title>Node21&#45;&gt;Node1</title>
<g id="a_edge43_Node000021_Node000001"><a xlink:title=" ">
<path fill="none" stroke="#63b8ff" d="M115.91,-56.1C107.66,-61.1 95.14,-66.26 86,-73.5 68.32,-87.5 52.69,-107.7 41.82,-122.46"/>
<polygon fill="#63b8ff" stroke="#63b8ff" points="38.77,-120.71 35.69,-130.84 44.42,-124.84 38.77,-120.71"/>
</a>
</g>
</g>
</g>
</svg>
