<?xml version="1.0" encoding="UTF-8" standalone="no"?>
<!DOCTYPE svg PUBLIC "-//W3C//DTD SVG 1.1//EN"
 "http://www.w3.org/Graphics/SVG/1.1/DTD/svg11.dtd">
<!-- Generated by graphviz version 2.43.0 (0)
 -->
<!-- Title: bfree Pages: 1 -->
<!--zoomable 120 -->

<svg id="main" version="1.1" xmlns="http://www.w3.org/2000/svg" xmlns:xlink="http://www.w3.org/1999/xlink" xml:space="preserve" onload="init(evt)">
<style type="text/css"><![CDATA[
.node, .edge {opacity: 0.7;}
.node.selected, .edge.selected {opacity: 1;}
.edge:hover path { stroke: red; }
.edge:hover polygon { stroke: red; fill: red; }
]]></style>

<defs>
  <circle id="rim" cx="0" cy="0" r="7"/>
  <circle id="rim2" cx="0" cy="0" r="3.5"/>
  <g id="zoomPlus">
    <use xlink:href="#rim" fill="#404040"><set attributeName="fill" to="#808080" begin="zoomplus.mouseover" end="zoomplus.mouseout"/></use>
    <path d="M-4,0h8M0,-4v8" fill="none" stroke="white" stroke-width="1.5" pointer-events="none"/>
  </g>
  <g id="zoomMin">
    <use xlink:href="#rim" fill="#404040"><set attributeName="fill" to="#808080" begin="zoomminus.mouseover" end="zoomminus.mouseout"/></use>
    <path d="M-4,0h8" fill="none" stroke="white" stroke-width="1.5" pointer-events="none"/>
  </g>
  <g id="arrowUp" transform="translate(30 24)">
    <use xlink:href="#rim"/>
    <path pointer-events="none" fill="none" stroke="white" stroke-width="1.5" d="M0,-3.0v7 M-2.5,-0.5L0,-3.0L2.5,-0.5"/>
  </g>
  <g id="arrowRight" transform="rotate(90) translate(36 -43)">
    <use xlink:href="#rim"/>
    <path pointer-events="none" fill="none" stroke="white" stroke-width="1.5" d="M0,-3.0v7 M-2.5,-0.5L0,-3.0L2.5,-0.5"/>
  </g>
  <g id="arrowDown" transform="rotate(180) translate(-30 -48)">
    <use xlink:href="#rim"/>
    <path pointer-events="none" fill="none" stroke="white" stroke-width="1.5" d="M0,-3.0v7 M-2.5,-0.5L0,-3.0L2.5,-0.5"/>
  </g>
  <g id="arrowLeft" transform="rotate(270) translate(-36 17)">
    <use xlink:href="#rim"/>
    <path pointer-events="none" fill="none" stroke="white" stroke-width="1.5" d="M0,-3.0v7 M-2.5,-0.5L0,-3.0L2.5,-0.5"/>
  </g>
  <g id="resetDef">
    <use xlink:href="#rim2" fill="#404040"><set attributeName="fill" to="#808080" begin="reset.mouseover" end="reset.mouseout"/></use>
  </g>
</defs>
<script type="application/ecmascript">
var viewWidth = 506;
var viewHeight = 120;
var sectionId = 'dynsection-4';
</script>
<script type="application/ecmascript" xlink:href="svg.min.js"/>
<svg id="graph" class="graph">
<g id="viewport">
<title>bfree</title>
<!-- Node1 -->
<g id="Node000001" class="node">
<title>Node1</title>
<g id="a_Node000001"><a xlink:title=" ">
<polygon fill="#999999" stroke="#666666" points="498,-56 456,-56 456,-37 498,-37 498,-56"/>
<text text-anchor="middle" x="477" y="-44" font-family="Helvetica,sans-Serif" font-size="10.00">bfree</text>
</a>
</g>
</g>
<!-- Node2 -->
<g id="Node000002" class="node">
<title>Node2</title>
<g id="a_Node000002"><a xlink:href="fs_8c.html#a7c42ba96035fb59aef87372552b1a661" target="_top" xlink:title=" ">
<polygon fill="white" stroke="#666666" points="420,-56 376,-56 376,-37 420,-37 420,-56"/>
<text text-anchor="middle" x="398" y="-44" font-family="Helvetica,sans-Serif" font-size="10.00">itrunc</text>
</a>
</g>
</g>
<!-- Node1&#45;&gt;Node2 -->
<g id="edge1_Node000001_Node000002" class="edge">
<title>Node1&#45;&gt;Node2</title>
<g id="a_edge1_Node000001_Node000002"><a xlink:title=" ">
<path fill="none" stroke="#63b8ff" d="M445.74,-46.5C437.19,-46.5 428.06,-46.5 420.17,-46.5"/>
<polygon fill="#63b8ff" stroke="#63b8ff" points="445.77,-50 455.77,-46.5 445.77,-43 445.77,-50"/>
</a>
</g>
</g>
<!-- Node3 -->
<g id="Node000003" class="node">
<title>Node3</title>
<g id="a_Node000003"><a xlink:href="fs_8c.html#ab3c447f135c68e4c3c1f8d5866f6e77b" target="_top" xlink:title=" ">
<polygon fill="white" stroke="#666666" points="340,-56 305,-56 305,-37 340,-37 340,-56"/>
<text text-anchor="middle" x="322.5" y="-44" font-family="Helvetica,sans-Serif" font-size="10.00">iput</text>
</a>
</g>
</g>
<!-- Node2&#45;&gt;Node3 -->
<g id="edge2_Node000002_Node000003" class="edge">
<title>Node2&#45;&gt;Node3</title>
<g id="a_edge2_Node000002_Node000003"><a xlink:title=" ">
<path fill="none" stroke="#63b8ff" d="M365.71,-46.5C356.88,-46.5 347.63,-46.5 340.04,-46.5"/>
<polygon fill="#63b8ff" stroke="#63b8ff" points="365.74,-50 375.74,-46.5 365.74,-43 365.74,-50"/>
</a>
</g>
</g>
<!-- Node4 -->
<g id="Node000004" class="node">
<title>Node4</title>
<g id="a_Node000004"><a xlink:href="fs_8c.html#a69a135a0e8a06d9f306d77ebc0c1f7a0" target="_top" xlink:title=" ">
<polygon fill="white" stroke="#666666" points="258.5,-112 211.5,-112 211.5,-93 258.5,-93 258.5,-112"/>
<text text-anchor="middle" x="235" y="-100" font-family="Helvetica,sans-Serif" font-size="10.00">dirlink</text>
</a>
</g>
</g>
<!-- Node3&#45;&gt;Node4 -->
<g id="edge3_Node000003_Node000004" class="edge">
<title>Node3&#45;&gt;Node4</title>
<g id="a_edge3_Node000003_Node000004"><a xlink:title=" ">
<path fill="none" stroke="#63b8ff" d="M301.18,-62.13C291.62,-69.25 279.93,-77.6 269,-84.5 264.47,-87.36 259.46,-90.23 254.74,-92.82"/>
<polygon fill="#63b8ff" stroke="#63b8ff" points="303.41,-64.83 309.29,-56.02 299.2,-59.24 303.41,-64.83"/>
</a>
</g>
</g>
<!-- Node5 -->
<g id="Node000005" class="node">
<title>Node5</title>
<g id="a_Node000005"><a xlink:href="file_8c.html#ae557c81ab89c24219146144bb6adaa2c" target="_top" xlink:title=" ">
<polygon fill="white" stroke="#666666" points="263.5,-75 206.5,-75 206.5,-56 263.5,-56 263.5,-75"/>
<text text-anchor="middle" x="235" y="-63" font-family="Helvetica,sans-Serif" font-size="10.00">fileclose</text>
</a>
</g>
</g>
<!-- Node3&#45;&gt;Node5 -->
<g id="edge4_Node000003_Node000005" class="edge">
<title>Node3&#45;&gt;Node5</title>
<g id="a_edge4_Node000003_Node000005"><a xlink:title=" ">
<path fill="none" stroke="#63b8ff" d="M294.55,-52.49C284.69,-54.68 273.54,-57.16 263.63,-59.36"/>
<polygon fill="#63b8ff" stroke="#63b8ff" points="295.61,-55.84 304.61,-50.25 294.09,-49.01 295.61,-55.84"/>
</a>
</g>
</g>
<!-- Node6 -->
<g id="Node000006" class="node">
<title>Node6</title>
<g id="a_Node000006"><a xlink:href="fs_8c.html#a207b3008bae35596c55ec7c4fc6875eb" target="_top" xlink:title=" ">
<polygon fill="white" stroke="#666666" points="269,-38 201,-38 201,-19 269,-19 269,-38"/>
<text text-anchor="middle" x="235" y="-26" font-family="Helvetica,sans-Serif" font-size="10.00">iunlockput</text>
</a>
</g>
</g>
<!-- Node3&#45;&gt;Node6 -->
<g id="edge5_Node000003_Node000006" class="edge">
<title>Node3&#45;&gt;Node6</title>
<g id="a_edge5_Node000003_Node000006"><a xlink:title=" ">
<path fill="none" stroke="#63b8ff" d="M294.61,-40.84C286.53,-39.14 277.57,-37.25 269.13,-35.48"/>
<polygon fill="#63b8ff" stroke="#63b8ff" points="294.1,-44.31 304.61,-42.94 295.54,-37.46 294.1,-44.31"/>
</a>
</g>
</g>
<!-- Node7 -->
<g id="Node000007" class="node">
<title>Node7</title>
<g id="a_Node000007"><a xlink:href="fs_8c.html#a0f085d02326c9dd34cb4e58133a7b948" target="_top" xlink:title=" ">
<polygon fill="white" stroke="#666666" points="165,-19 115,-19 115,0 165,0 165,-19"/>
<text text-anchor="middle" x="140" y="-7" font-family="Helvetica,sans-Serif" font-size="10.00">namex</text>
</a>
</g>
</g>
<!-- Node3&#45;&gt;Node7 -->
<g id="edge10_Node000003_Node000007" class="edge">
<title>Node3&#45;&gt;Node7</title>
<g id="a_edge10_Node000003_Node000007"><a xlink:title=" ">
<path fill="none" stroke="#63b8ff" d="M303.37,-30.07C293.86,-22.56 281.59,-14.46 269,-10.5 234.23,0.42 191.48,-2.24 165.24,-5.56"/>
<polygon fill="#63b8ff" stroke="#63b8ff" points="301.34,-32.94 311.26,-36.68 305.84,-27.57 301.34,-32.94"/>
</a>
</g>
</g>
<!-- Node6&#45;&gt;Node7 -->
<g id="edge6_Node000006_Node000007" class="edge">
<title>Node6&#45;&gt;Node7</title>
<g id="a_edge6_Node000006_Node000007"><a xlink:title=" ">
<path fill="none" stroke="#63b8ff" d="M191.06,-19.73C182.17,-17.91 173.1,-16.06 165.17,-14.44"/>
<polygon fill="#63b8ff" stroke="#63b8ff" points="190.45,-23.18 200.95,-21.75 191.85,-16.32 190.45,-23.18"/>
</a>
</g>
</g>
<!-- Node8 -->
<g id="Node000008" class="node">
<title>Node8</title>
<g id="a_Node000008"><a xlink:href="fs_8c.html#a35c52ecf358097c17dcbbd5594acb41a" target="_top" xlink:title=" ">
<polygon fill="white" stroke="#666666" points="63,-56 16,-56 16,-37 63,-37 63,-56"/>
<text text-anchor="middle" x="39.5" y="-44" font-family="Helvetica,sans-Serif" font-size="10.00">namei</text>
</a>
</g>
</g>
<!-- Node7&#45;&gt;Node8 -->
<g id="edge7_Node000007_Node000008" class="edge">
<title>Node7&#45;&gt;Node8</title>
<g id="a_edge7_Node000007_Node000008"><a xlink:title=" ">
<path fill="none" stroke="#63b8ff" d="M105.23,-22.19C91.41,-27.38 75.77,-33.25 63.33,-37.92"/>
<polygon fill="#63b8ff" stroke="#63b8ff" points="106.77,-25.34 114.9,-18.55 104.31,-18.79 106.77,-25.34"/>
</a>
</g>
</g>
<!-- Node9 -->
<g id="Node000009" class="node">
<title>Node9</title>
<g id="a_Node000009"><a xlink:href="fs_8c.html#ade44726f2aed2af27fa0df5f63f9e688" target="_top" xlink:title=" ">
<polygon fill="white" stroke="#666666" points="79,-19 0,-19 0,0 79,0 79,-19"/>
<text text-anchor="middle" x="39.5" y="-7" font-family="Helvetica,sans-Serif" font-size="10.00">nameiparent</text>
</a>
</g>
</g>
<!-- Node7&#45;&gt;Node9 -->
<g id="edge8_Node000007_Node000009" class="edge">
<title>Node7&#45;&gt;Node9</title>
<g id="a_edge8_Node000007_Node000009"><a xlink:title=" ">
<path fill="none" stroke="#63b8ff" d="M104.87,-3.04C96.63,-2.71 87.76,-2.66 79.31,-2.89"/>
<polygon fill="#63b8ff" stroke="#63b8ff" points="104.72,-6.54 114.9,-3.6 105.12,0.45 104.72,-6.54"/>
</a>
</g>
</g>
<!-- Node9&#45;&gt;Node7 -->
<g id="edge9_Node000009_Node000007" class="edge">
<title>Node9&#45;&gt;Node7</title>
<g id="a_edge9_Node000009_Node000007"><a xlink:title=" ">
<path fill="none" stroke="#63b8ff" d="M89.58,-16.25C98.39,-16.25 107.21,-15.97 114.9,-15.4"/>
<polygon fill="#63b8ff" stroke="#63b8ff" points="89.36,-12.75 79.31,-16.11 89.27,-19.75 89.36,-12.75"/>
</a>
</g>
</g>
</g>
</svg>

<g id="navigator" transform="translate(0 0)" fill="#404254">
  <rect fill="#f2f5e9" fill-opacity="0.5" stroke="#606060" stroke-width=".5" x="0" y="0" width="60" height="60"/>
  <use id="zoomplus" xlink:href="#zoomPlus" x="17" y="9" onmousedown="handleZoom(evt,'in')"/>
  <use id="zoomminus" xlink:href="#zoomMin" x="42" y="9" onmousedown="handleZoom(evt,'out')"/>
  <use id="reset" xlink:href="#resetDef" x="30" y="36" onmousedown="handleReset()"/>
   <use id="arrowup" xlink:href="#arrowUp" x="0" y="0" onmousedown="handlePan(0,-1)"/>
  <use id="arrowright" xlink:href="#arrowRight" x="0" y="0" onmousedown="handlePan(1,0)"/>
  <use id="arrowdown" xlink:href="#arrowDown" x="0" y="0" onmousedown="handlePan(0,1)"/>
  <use id="arrowleft" xlink:href="#arrowLeft" x="0" y="0" onmousedown="handlePan(-1,0)"/>
</g>
<svg viewBox="0 0 15 15" width="100%" height="30px" preserveAspectRatio="xMaxYMin meet">
 <g id="arrow_out" transform="scale(0.3 0.3)">
  <a xlink:href="fs_8c_a2800a4b570ae39363cec0613dac92fd7_icgraph_org.svg" target="_base">
   <rect id="button" ry="5" rx="5" y="6" x="6" height="38" width="38"
        fill="#f2f5e9" fill-opacity="0.5" stroke="#606060" stroke-width="1.0"/>
   <path id="arrow"
     d="M 11.500037,31.436501 C 11.940474,20.09759 22.043105,11.32322 32.158766,21.979434 L 37.068811,17.246167 C 37.068811,17.246167 37.088388,32 37.088388,32 L 22.160133,31.978069 C 22.160133,31.978069 26.997745,27.140456 26.997745,27.140456 C 18.528582,18.264221 13.291696,25.230495 11.500037,31.436501 z"
     style="fill:#404040;"/>
  </a>
 </g>
</svg>

<style type='text/css'>
<![CDATA[
[data-mouse-over-selected='false'] { opacity: 0.7; }
[data-mouse-over-selected='true']  { opacity: 1.0; }
]]>
</style>
<script type="application/ecmascript"><![CDATA[
document.addEventListener('DOMContentLoaded', (event) => {
  highlightEdges();
  highlightAdjacentNodes();
});
]]></script>
</svg>
