<?xml version="1.0" encoding="UTF-8" standalone="no"?>
<!DOCTYPE svg PUBLIC "-//W3C//DTD SVG 1.1//EN"
 "http://www.w3.org/Graphics/SVG/1.1/DTD/svg11.dtd">
<!-- Generated by graphviz version 2.43.0 (0)
 -->
<!-- Title: iget Pages: 1 -->
<svg width="342pt" height="103pt"
 viewBox="0.00 0.00 342.00 103.00" xmlns="http://www.w3.org/2000/svg" xmlns:xlink="http://www.w3.org/1999/xlink">
<g id="graph0" class="graph" transform="scale(1 1) rotate(0) translate(4 99)">
<title>iget</title>
<!-- Node1 -->
<g id="Node000001" class="node">
<title>Node1</title>
<g id="a_Node000001"><a xlink:title=" ">
<polygon fill="#999999" stroke="#666666" points="334,-57 299,-57 299,-38 334,-38 334,-57"/>
<text text-anchor="middle" x="316.5" y="-45" font-family="Helvetica,sans-Serif" font-size="10.00">iget</text>
</a>
</g>
</g>
<!-- Node2 -->
<g id="Node000002" class="node">
<title>Node2</title>
<g id="a_Node000002"><a xlink:href="fs_8c.html#a5341068f021beac8cf0032b97d231e6f" target="_top" xlink:title=" ">
<polygon fill="white" stroke="#666666" points="263,-95 201,-95 201,-76 263,-76 263,-95"/>
<text text-anchor="middle" x="232" y="-83" font-family="Helvetica,sans-Serif" font-size="10.00">dirlookup</text>
</a>
</g>
</g>
<!-- Node1&#45;&gt;Node2 -->
<g id="edge1_Node000001_Node000002" class="edge">
<title>Node1&#45;&gt;Node2</title>
<g id="a_edge1_Node000001_Node000002"><a xlink:title=" ">
<path fill="none" stroke="#63b8ff" d="M289.64,-59.41C278.09,-64.73 264.66,-70.92 253.77,-75.93"/>
<polygon fill="#63b8ff" stroke="#63b8ff" points="291.19,-62.55 298.8,-55.19 288.26,-56.19 291.19,-62.55"/>
</a>
</g>
</g>
<!-- Node4 -->
<g id="Node000004" class="node">
<title>Node4</title>
<g id="a_Node000004"><a xlink:href="fs_8c.html#a0f085d02326c9dd34cb4e58133a7b948" target="_top" xlink:title=" ">
<polygon fill="white" stroke="#666666" points="165,-58 115,-58 115,-39 165,-39 165,-58"/>
<text text-anchor="middle" x="140" y="-46" font-family="Helvetica,sans-Serif" font-size="10.00">namex</text>
</a>
</g>
</g>
<!-- Node1&#45;&gt;Node4 -->
<g id="edge8_Node000001_Node000004" class="edge">
<title>Node1&#45;&gt;Node4</title>
<g id="a_edge8_Node000001_Node000004"><a xlink:title=" ">
<path fill="none" stroke="#63b8ff" d="M288.71,-47.65C254.99,-47.85 197.57,-48.18 165.14,-48.36"/>
<polygon fill="#63b8ff" stroke="#63b8ff" points="288.79,-51.15 298.77,-47.6 288.75,-44.15 288.79,-51.15"/>
</a>
</g>
</g>
<!-- Node7 -->
<g id="Node000007" class="node">
<title>Node7</title>
<g id="a_Node000007"><a xlink:href="fs_8c.html#af95049367381647bc9487af49724b869" target="_top" xlink:title=" ">
<polygon fill="white" stroke="#666666" points="253.5,-19 210.5,-19 210.5,0 253.5,0 253.5,-19"/>
<text text-anchor="middle" x="232" y="-7" font-family="Helvetica,sans-Serif" font-size="10.00">ialloc</text>
</a>
</g>
</g>
<!-- Node1&#45;&gt;Node7 -->
<g id="edge7_Node000001_Node000007" class="edge">
<title>Node1&#45;&gt;Node7</title>
<g id="a_edge7_Node000001_Node000007"><a xlink:title=" ">
<path fill="none" stroke="#63b8ff" d="M289.64,-35.59C278.09,-30.27 264.66,-24.08 253.77,-19.07"/>
<polygon fill="#63b8ff" stroke="#63b8ff" points="288.26,-38.81 298.8,-39.81 291.19,-32.45 288.26,-38.81"/>
</a>
</g>
</g>
<!-- Node3 -->
<g id="Node000003" class="node">
<title>Node3</title>
<g id="a_Node000003"><a xlink:href="fs_8c.html#a69a135a0e8a06d9f306d77ebc0c1f7a0" target="_top" xlink:title=" ">
<polygon fill="white" stroke="#666666" points="163.5,-95 116.5,-95 116.5,-76 163.5,-76 163.5,-95"/>
<text text-anchor="middle" x="140" y="-83" font-family="Helvetica,sans-Serif" font-size="10.00">dirlink</text>
</a>
</g>
</g>
<!-- Node2&#45;&gt;Node3 -->
<g id="edge2_Node000002_Node000003" class="edge">
<title>Node2&#45;&gt;Node3</title>
<g id="a_edge2_Node000002_Node000003"><a xlink:title=" ">
<path fill="none" stroke="#63b8ff" d="M190.39,-85.5C181.25,-85.5 171.86,-85.5 163.75,-85.5"/>
<polygon fill="#63b8ff" stroke="#63b8ff" points="190.53,-89 200.53,-85.5 190.53,-82 190.53,-89"/>
</a>
</g>
</g>
<!-- Node2&#45;&gt;Node4 -->
<g id="edge3_Node000002_Node000004" class="edge">
<title>Node2&#45;&gt;Node4</title>
<g id="a_edge3_Node000002_Node000004"><a xlink:title=" ">
<path fill="none" stroke="#63b8ff" d="M198.32,-72.06C187.09,-67.45 174.75,-62.38 164.41,-58.12"/>
<polygon fill="#63b8ff" stroke="#63b8ff" points="197.24,-75.41 207.82,-75.97 199.9,-68.93 197.24,-75.41"/>
</a>
</g>
</g>
<!-- Node5 -->
<g id="Node000005" class="node">
<title>Node5</title>
<g id="a_Node000005"><a xlink:href="fs_8c.html#a35c52ecf358097c17dcbbd5594acb41a" target="_top" xlink:title=" ">
<polygon fill="white" stroke="#666666" points="63,-95 16,-95 16,-76 63,-76 63,-95"/>
<text text-anchor="middle" x="39.5" y="-83" font-family="Helvetica,sans-Serif" font-size="10.00">namei</text>
</a>
</g>
</g>
<!-- Node4&#45;&gt;Node5 -->
<g id="edge4_Node000004_Node000005" class="edge">
<title>Node4&#45;&gt;Node5</title>
<g id="a_edge4_Node000004_Node000005"><a xlink:title=" ">
<path fill="none" stroke="#63b8ff" d="M105.23,-61.19C91.41,-66.38 75.77,-72.25 63.33,-76.92"/>
<polygon fill="#63b8ff" stroke="#63b8ff" points="106.77,-64.34 114.9,-57.55 104.31,-57.79 106.77,-64.34"/>
</a>
</g>
</g>
<!-- Node6 -->
<g id="Node000006" class="node">
<title>Node6</title>
<g id="a_Node000006"><a xlink:href="fs_8c.html#ade44726f2aed2af27fa0df5f63f9e688" target="_top" xlink:title=" ">
<polygon fill="white" stroke="#666666" points="79,-58 0,-58 0,-39 79,-39 79,-58"/>
<text text-anchor="middle" x="39.5" y="-46" font-family="Helvetica,sans-Serif" font-size="10.00">nameiparent</text>
</a>
</g>
</g>
<!-- Node4&#45;&gt;Node6 -->
<g id="edge5_Node000004_Node000006" class="edge">
<title>Node4&#45;&gt;Node6</title>
<g id="a_edge5_Node000004_Node000006"><a xlink:title=" ">
<path fill="none" stroke="#63b8ff" d="M104.87,-42.04C96.63,-41.71 87.76,-41.66 79.31,-41.89"/>
<polygon fill="#63b8ff" stroke="#63b8ff" points="104.72,-45.54 114.9,-42.6 105.12,-38.55 104.72,-45.54"/>
</a>
</g>
</g>
<!-- Node6&#45;&gt;Node4 -->
<g id="edge6_Node000006_Node000004" class="edge">
<title>Node6&#45;&gt;Node4</title>
<g id="a_edge6_Node000006_Node000004"><a xlink:title=" ">
<path fill="none" stroke="#63b8ff" d="M89.58,-55.25C98.39,-55.25 107.21,-54.97 114.9,-54.4"/>
<polygon fill="#63b8ff" stroke="#63b8ff" points="89.36,-51.75 79.31,-55.11 89.27,-58.75 89.36,-51.75"/>
</a>
</g>
</g>
</g>
</svg>
