<?xml version="1.0" encoding="UTF-8" standalone="no"?>
<!DOCTYPE svg PUBLIC "-//W3C//DTD SVG 1.1//EN"
 "http://www.w3.org/Graphics/SVG/1.1/DTD/svg11.dtd">
<!-- Generated by graphviz version 2.43.0 (0)
 -->
<!-- Title: iunlock Pages: 1 -->
<svg width="365pt" height="157pt"
 viewBox="0.00 0.00 365.00 157.00" xmlns="http://www.w3.org/2000/svg" xmlns:xlink="http://www.w3.org/1999/xlink">
<g id="graph0" class="graph" transform="scale(1 1) rotate(0) translate(4 153)">
<title>iunlock</title>
<!-- Node1 -->
<g id="Node000001" class="node">
<title>Node1</title>
<g id="a_Node000001"><a xlink:title=" ">
<polygon fill="#999999" stroke="#666666" points="357,-75 305,-75 305,-56 357,-56 357,-75"/>
<text text-anchor="middle" x="331" y="-63" font-family="Helvetica,sans-Serif" font-size="10.00">iunlock</text>
</a>
</g>
</g>
<!-- Node2 -->
<g id="Node000002" class="node">
<title>Node2</title>
<g id="a_Node000002"><a xlink:href="file_8c.html#a1dc8c87c7e48bdaaf98e9c7047928f29" target="_top" xlink:title=" ">
<polygon fill="white" stroke="#666666" points="261.5,-149 208.5,-149 208.5,-130 261.5,-130 261.5,-149"/>
<text text-anchor="middle" x="235" y="-137" font-family="Helvetica,sans-Serif" font-size="10.00">fileread</text>
</a>
</g>
</g>
<!-- Node1&#45;&gt;Node2 -->
<g id="edge1_Node000001_Node000002" class="edge">
<title>Node1&#45;&gt;Node2</title>
<g id="a_edge1_Node000001_Node000002"><a xlink:title=" ">
<path fill="none" stroke="#63b8ff" d="M313.38,-82.84C301.63,-94.56 285.15,-109.95 269,-121.5 264.75,-124.54 259.94,-127.43 255.33,-129.98"/>
<polygon fill="#63b8ff" stroke="#63b8ff" points="316.18,-84.98 320.7,-75.4 311.19,-80.07 316.18,-84.98"/>
</a>
</g>
</g>
<!-- Node3 -->
<g id="Node000003" class="node">
<title>Node3</title>
<g id="a_Node000003"><a xlink:href="file_8c.html#afff8e849fa54dea2a5a27dbb97474607" target="_top" xlink:title=" ">
<polygon fill="white" stroke="#666666" points="260,-112 210,-112 210,-93 260,-93 260,-112"/>
<text text-anchor="middle" x="235" y="-100" font-family="Helvetica,sans-Serif" font-size="10.00">filestat</text>
</a>
</g>
</g>
<!-- Node1&#45;&gt;Node3 -->
<g id="edge2_Node000001_Node000003" class="edge">
<title>Node1&#45;&gt;Node3</title>
<g id="a_edge2_Node000001_Node000003"><a xlink:title=" ">
<path fill="none" stroke="#63b8ff" d="M296.14,-78.83C284.22,-83.52 271.08,-88.69 260.13,-93"/>
<polygon fill="#63b8ff" stroke="#63b8ff" points="297.77,-81.95 305.79,-75.03 295.21,-75.43 297.77,-81.95"/>
</a>
</g>
</g>
<!-- Node4 -->
<g id="Node000004" class="node">
<title>Node4</title>
<g id="a_Node000004"><a xlink:href="file_8c.html#ab8de757a0a9f58dcc6511ea5e46ebb88" target="_top" xlink:title=" ">
<polygon fill="white" stroke="#666666" points="263,-75 207,-75 207,-56 263,-56 263,-75"/>
<text text-anchor="middle" x="235" y="-63" font-family="Helvetica,sans-Serif" font-size="10.00">filewrite</text>
</a>
</g>
</g>
<!-- Node1&#45;&gt;Node4 -->
<g id="edge3_Node000001_Node000004" class="edge">
<title>Node1&#45;&gt;Node4</title>
<g id="a_edge3_Node000001_Node000004"><a xlink:title=" ">
<path fill="none" stroke="#63b8ff" d="M294.74,-65.5C284.32,-65.5 273.07,-65.5 263.24,-65.5"/>
<polygon fill="#63b8ff" stroke="#63b8ff" points="294.81,-69 304.81,-65.5 294.81,-62 294.81,-69"/>
</a>
</g>
</g>
<!-- Node5 -->
<g id="Node000005" class="node">
<title>Node5</title>
<g id="a_Node000005"><a xlink:href="fs_8c.html#a207b3008bae35596c55ec7c4fc6875eb" target="_top" xlink:title=" ">
<polygon fill="white" stroke="#666666" points="269,-38 201,-38 201,-19 269,-19 269,-38"/>
<text text-anchor="middle" x="235" y="-26" font-family="Helvetica,sans-Serif" font-size="10.00">iunlockput</text>
</a>
</g>
</g>
<!-- Node1&#45;&gt;Node5 -->
<g id="edge4_Node000001_Node000005" class="edge">
<title>Node1&#45;&gt;Node5</title>
<g id="a_edge4_Node000001_Node000005"><a xlink:title=" ">
<path fill="none" stroke="#63b8ff" d="M296.22,-52.2C284.4,-47.55 271.36,-42.42 260.45,-38.12"/>
<polygon fill="#63b8ff" stroke="#63b8ff" points="295.21,-55.57 305.79,-55.97 297.77,-49.05 295.21,-55.57"/>
</a>
</g>
</g>
<!-- Node6 -->
<g id="Node000006" class="node">
<title>Node6</title>
<g id="a_Node000006"><a xlink:href="fs_8c.html#a0f085d02326c9dd34cb4e58133a7b948" target="_top" xlink:title=" ">
<polygon fill="white" stroke="#666666" points="165,-19 115,-19 115,0 165,0 165,-19"/>
<text text-anchor="middle" x="140" y="-7" font-family="Helvetica,sans-Serif" font-size="10.00">namex</text>
</a>
</g>
</g>
<!-- Node1&#45;&gt;Node6 -->
<g id="edge9_Node000001_Node000006" class="edge">
<title>Node1&#45;&gt;Node6</title>
<g id="a_edge9_Node000001_Node000006"><a xlink:title=" ">
<path fill="none" stroke="#63b8ff" d="M316.64,-47.94C305.52,-34.88 288.41,-18.04 269,-10.5 234.82,2.79 191.53,-0.64 165.07,-4.75"/>
<polygon fill="#63b8ff" stroke="#63b8ff" points="314.04,-50.29 323.05,-55.85 319.48,-45.88 314.04,-50.29"/>
</a>
</g>
</g>
<!-- Node5&#45;&gt;Node6 -->
<g id="edge5_Node000005_Node000006" class="edge">
<title>Node5&#45;&gt;Node6</title>
<g id="a_edge5_Node000005_Node000006"><a xlink:title=" ">
<path fill="none" stroke="#63b8ff" d="M191.06,-19.73C182.17,-17.91 173.1,-16.06 165.17,-14.44"/>
<polygon fill="#63b8ff" stroke="#63b8ff" points="190.45,-23.18 200.95,-21.75 191.85,-16.32 190.45,-23.18"/>
</a>
</g>
</g>
<!-- Node7 -->
<g id="Node000007" class="node">
<title>Node7</title>
<g id="a_Node000007"><a xlink:href="fs_8c.html#a35c52ecf358097c17dcbbd5594acb41a" target="_top" xlink:title=" ">
<polygon fill="white" stroke="#666666" points="63,-56 16,-56 16,-37 63,-37 63,-56"/>
<text text-anchor="middle" x="39.5" y="-44" font-family="Helvetica,sans-Serif" font-size="10.00">namei</text>
</a>
</g>
</g>
<!-- Node6&#45;&gt;Node7 -->
<g id="edge6_Node000006_Node000007" class="edge">
<title>Node6&#45;&gt;Node7</title>
<g id="a_edge6_Node000006_Node000007"><a xlink:title=" ">
<path fill="none" stroke="#63b8ff" d="M105.23,-22.19C91.41,-27.38 75.77,-33.25 63.33,-37.92"/>
<polygon fill="#63b8ff" stroke="#63b8ff" points="106.77,-25.34 114.9,-18.55 104.31,-18.79 106.77,-25.34"/>
</a>
</g>
</g>
<!-- Node8 -->
<g id="Node000008" class="node">
<title>Node8</title>
<g id="a_Node000008"><a xlink:href="fs_8c.html#ade44726f2aed2af27fa0df5f63f9e688" target="_top" xlink:title=" ">
<polygon fill="white" stroke="#666666" points="79,-19 0,-19 0,0 79,0 79,-19"/>
<text text-anchor="middle" x="39.5" y="-7" font-family="Helvetica,sans-Serif" font-size="10.00">nameiparent</text>
</a>
</g>
</g>
<!-- Node6&#45;&gt;Node8 -->
<g id="edge7_Node000006_Node000008" class="edge">
<title>Node6&#45;&gt;Node8</title>
<g id="a_edge7_Node000006_Node000008"><a xlink:title=" ">
<path fill="none" stroke="#63b8ff" d="M104.87,-3.04C96.63,-2.71 87.76,-2.66 79.31,-2.89"/>
<polygon fill="#63b8ff" stroke="#63b8ff" points="104.72,-6.54 114.9,-3.6 105.12,0.45 104.72,-6.54"/>
</a>
</g>
</g>
<!-- Node8&#45;&gt;Node6 -->
<g id="edge8_Node000008_Node000006" class="edge">
<title>Node8&#45;&gt;Node6</title>
<g id="a_edge8_Node000008_Node000006"><a xlink:title=" ">
<path fill="none" stroke="#63b8ff" d="M89.58,-16.25C98.39,-16.25 107.21,-15.97 114.9,-15.4"/>
<polygon fill="#63b8ff" stroke="#63b8ff" points="89.36,-12.75 79.31,-16.11 89.27,-19.75 89.36,-12.75"/>
</a>
</g>
</g>
</g>
</svg>
