<?xml version="1.0" encoding="UTF-8" standalone="no"?>
<!DOCTYPE svg PUBLIC "-//W3C//DTD SVG 1.1//EN"
 "http://www.w3.org/Graphics/SVG/1.1/DTD/svg11.dtd">
<!-- Generated by graphviz version 2.43.0 (0)
 -->
<!-- Title: dirlookup Pages: 1 -->
<svg width="585pt" height="225pt"
 viewBox="0.00 0.00 585.00 224.72" xmlns="http://www.w3.org/2000/svg" xmlns:xlink="http://www.w3.org/1999/xlink">
<g id="graph0" class="graph" transform="scale(1 1) rotate(0) translate(4 220.72)">
<title>dirlookup</title>
<!-- Node1 -->
<g id="Node000001" class="node">
<title>Node1</title>
<g id="a_Node000001"><a xlink:title=" ">
<polygon fill="#999999" stroke="#666666" points="62,-120.72 0,-120.72 0,-101.72 62,-101.72 62,-120.72"/>
<text text-anchor="middle" x="31" y="-108.72" font-family="Helvetica,sans-Serif" font-size="10.00">dirlookup</text>
</a>
</g>
</g>
<!-- Node2 -->
<g id="Node000002" class="node">
<title>Node2</title>
<g id="a_Node000002"><a xlink:href="fs_8c.html#aa574143402896986fe315a0c2749fffa" target="_top" xlink:title=" ">
<polygon fill="white" stroke="#666666" points="148,-157.72 113,-157.72 113,-138.72 148,-138.72 148,-157.72"/>
<text text-anchor="middle" x="130.5" y="-145.72" font-family="Helvetica,sans-Serif" font-size="10.00">iget</text>
</a>
</g>
</g>
<!-- Node1&#45;&gt;Node2 -->
<g id="edge1_Node000001_Node000002" class="edge">
<title>Node1&#45;&gt;Node2</title>
<g id="a_edge1_Node000001_Node000002"><a xlink:title=" ">
<path fill="none" stroke="#63b8ff" d="M57.11,-120.75C71.18,-126.09 88.73,-132.75 103.02,-138.17"/>
<polygon fill="#63b8ff" stroke="#63b8ff" points="102.16,-141.59 112.75,-141.86 104.65,-135.04 102.16,-141.59"/>
</a>
</g>
</g>
<!-- Node3 -->
<g id="Node000003" class="node">
<title>Node3</title>
<g id="a_Node000003"><a xlink:href="fs_8c.html#ae74f6e5b19a4e7f3e72807ee67141819" target="_top" xlink:title=" ">
<polygon fill="white" stroke="#666666" points="163,-120.72 98,-120.72 98,-101.72 163,-101.72 163,-120.72"/>
<text text-anchor="middle" x="130.5" y="-108.72" font-family="Helvetica,sans-Serif" font-size="10.00">namecmp</text>
</a>
</g>
</g>
<!-- Node1&#45;&gt;Node3 -->
<g id="edge2_Node000001_Node000003" class="edge">
<title>Node1&#45;&gt;Node3</title>
<g id="a_edge2_Node000001_Node000003"><a xlink:title=" ">
<path fill="none" stroke="#63b8ff" d="M62.05,-111.22C70.08,-111.22 78.92,-111.22 87.47,-111.22"/>
<polygon fill="#63b8ff" stroke="#63b8ff" points="87.69,-114.72 97.69,-111.22 87.69,-107.72 87.69,-114.72"/>
</a>
</g>
</g>
<!-- Node4 -->
<g id="Node000004" class="node">
<title>Node4</title>
<g id="a_Node000004"><a xlink:href="fs_8c.html#a3aba1fa9f6789d09356aec5b96d91fa8" target="_top" xlink:title=" ">
<polygon fill="white" stroke="#666666" points="151,-83.72 110,-83.72 110,-64.72 151,-64.72 151,-83.72"/>
<text text-anchor="middle" x="130.5" y="-71.72" font-family="Helvetica,sans-Serif" font-size="10.00">readi</text>
</a>
</g>
</g>
<!-- Node1&#45;&gt;Node4 -->
<g id="edge3_Node000001_Node000004" class="edge">
<title>Node1&#45;&gt;Node4</title>
<g id="a_edge3_Node000001_Node000004"><a xlink:title=" ">
<path fill="none" stroke="#63b8ff" d="M57.11,-101.69C70.28,-96.69 86.48,-90.54 100.21,-85.33"/>
<polygon fill="#63b8ff" stroke="#63b8ff" points="101.59,-88.55 109.7,-81.73 99.11,-82.01 101.59,-88.55"/>
</a>
</g>
</g>
<!-- Node5 -->
<g id="Node000005" class="node">
<title>Node5</title>
<g id="a_Node000005"><a xlink:href="fs_8c.html#a965e83e1fa9b15abf268784ce74181bb" target="_top" xlink:title=" ">
<polygon fill="white" stroke="#666666" points="243,-83.72 199,-83.72 199,-64.72 243,-64.72 243,-83.72"/>
<text text-anchor="middle" x="221" y="-71.72" font-family="Helvetica,sans-Serif" font-size="10.00">bmap</text>
</a>
</g>
</g>
<!-- Node4&#45;&gt;Node5 -->
<g id="edge4_Node000004_Node000005" class="edge">
<title>Node4&#45;&gt;Node5</title>
<g id="a_edge4_Node000004_Node000005"><a xlink:title=" ">
<path fill="none" stroke="#63b8ff" d="M151.14,-74.22C162.2,-74.22 176.27,-74.22 188.8,-74.22"/>
<polygon fill="#63b8ff" stroke="#63b8ff" points="188.87,-77.72 198.87,-74.22 188.87,-70.72 188.87,-77.72"/>
</a>
</g>
</g>
<!-- Node7 -->
<g id="Node000007" class="node">
<title>Node7</title>
<g id="a_Node000007"><a xlink:href="bio_8c.html#a30b8d2ef2300ed8e3d879a428fe39898" target="_top" xlink:title=" ">
<polygon fill="white" stroke="#666666" points="494,-216.72 450,-216.72 450,-197.72 494,-197.72 494,-216.72"/>
<text text-anchor="middle" x="472" y="-204.72" font-family="Helvetica,sans-Serif" font-size="10.00">bread</text>
</a>
</g>
</g>
<!-- Node4&#45;&gt;Node7 -->
<g id="edge17_Node000004_Node000007" class="edge">
<title>Node4&#45;&gt;Node7</title>
<g id="a_edge17_Node000004_Node000007"><a xlink:title=" ">
<path fill="none" stroke="#63b8ff" d="M148.26,-83.79C186.21,-105.46 275.69,-156.53 279,-158.22 314.63,-176.35 322.43,-184.7 361,-195.22 386.96,-202.3 417.45,-205.22 439.73,-206.42"/>
<polygon fill="#63b8ff" stroke="#63b8ff" points="439.81,-209.93 449.96,-206.88 440.12,-202.93 439.81,-209.93"/>
</a>
</g>
</g>
<!-- Node9 -->
<g id="Node000009" class="node">
<title>Node9</title>
<g id="a_Node000009"><a xlink:href="bio_8c.html#ab5335aeb503731104314321a78a6d727" target="_top" xlink:title=" ">
<polygon fill="white" stroke="#666666" points="495.5,-45.72 448.5,-45.72 448.5,-26.72 495.5,-26.72 495.5,-45.72"/>
<text text-anchor="middle" x="472" y="-33.72" font-family="Helvetica,sans-Serif" font-size="10.00">brelse</text>
</a>
</g>
</g>
<!-- Node4&#45;&gt;Node9 -->
<g id="edge18_Node000004_Node000009" class="edge">
<title>Node4&#45;&gt;Node9</title>
<g id="a_edge18_Node000004_Node000009"><a xlink:title=" ">
<path fill="none" stroke="#63b8ff" d="M147.57,-64.52C173.91,-49.25 228.41,-20.19 279,-9.22 333.73,2.66 350.12,2.94 405,-8.22 418.53,-10.97 432.73,-16.59 444.48,-22.09"/>
<polygon fill="#63b8ff" stroke="#63b8ff" points="443.18,-25.35 453.7,-26.6 446.25,-19.06 443.18,-25.35"/>
</a>
</g>
</g>
<!-- Node6 -->
<g id="Node000006" class="node">
<title>Node6</title>
<g id="a_Node000006"><a xlink:href="fs_8c.html#a29272227722d57ff937caaffd03455a9" target="_top" xlink:title=" ">
<polygon fill="white" stroke="#666666" points="325,-121.72 279,-121.72 279,-102.72 325,-102.72 325,-121.72"/>
<text text-anchor="middle" x="302" y="-109.72" font-family="Helvetica,sans-Serif" font-size="10.00">balloc</text>
</a>
</g>
</g>
<!-- Node5&#45;&gt;Node6 -->
<g id="edge5_Node000005_Node000006" class="edge">
<title>Node5&#45;&gt;Node6</title>
<g id="a_edge5_Node000005_Node000006"><a xlink:title=" ">
<path fill="none" stroke="#63b8ff" d="M241.94,-83.81C251.01,-88.17 261.93,-93.42 271.9,-98.22"/>
<polygon fill="#63b8ff" stroke="#63b8ff" points="270.54,-101.45 281.07,-102.63 273.58,-95.14 270.54,-101.45"/>
</a>
</g>
</g>
<!-- Node5&#45;&gt;Node7 -->
<g id="edge14_Node000005_Node000007" class="edge">
<title>Node5&#45;&gt;Node7</title>
<g id="a_edge14_Node000005_Node000007"><a xlink:title=" ">
<path fill="none" stroke="#63b8ff" d="M230.11,-83.87C240.53,-95.84 259.58,-116.35 279,-130.22 329.82,-166.5 400.17,-189.02 440.08,-199.73"/>
<polygon fill="#63b8ff" stroke="#63b8ff" points="439.22,-203.12 449.78,-202.26 440.99,-196.35 439.22,-203.12"/>
</a>
</g>
</g>
<!-- Node5&#45;&gt;Node9 -->
<g id="edge15_Node000005_Node000009" class="edge">
<title>Node5&#45;&gt;Node9</title>
<g id="a_edge15_Node000005_Node000009"><a xlink:title=" ">
<path fill="none" stroke="#63b8ff" d="M228.78,-64.65C238.32,-52.12 257.02,-30.74 279,-22.22 332.06,-1.65 399.49,-14.64 438.69,-25.64"/>
<polygon fill="#63b8ff" stroke="#63b8ff" points="437.91,-29.06 448.49,-28.52 439.88,-22.34 437.91,-29.06"/>
</a>
</g>
</g>
<!-- Node11 -->
<g id="Node000011" class="node">
<title>Node11</title>
<g id="a_Node000011"><a xlink:href="log_8c.html#a7eacb0fbebe5ce4c7d3ddea15908b13d" target="_top" xlink:title=" ">
<polygon fill="white" stroke="#666666" points="503,-121.72 441,-121.72 441,-102.72 503,-102.72 503,-121.72"/>
<text text-anchor="middle" x="472" y="-109.72" font-family="Helvetica,sans-Serif" font-size="10.00">log_write</text>
</a>
</g>
</g>
<!-- Node5&#45;&gt;Node11 -->
<g id="edge16_Node000005_Node000011" class="edge">
<title>Node5&#45;&gt;Node11</title>
<g id="a_edge16_Node000005_Node000011"><a xlink:title=" ">
<path fill="none" stroke="#63b8ff" d="M243.04,-75.19C277.26,-77.04 346.99,-81.95 405,-93.22 413.93,-94.95 423.4,-97.34 432.29,-99.84"/>
<polygon fill="#63b8ff" stroke="#63b8ff" points="431.45,-103.24 442.03,-102.68 433.41,-96.52 431.45,-103.24"/>
</a>
</g>
</g>
<!-- Node6&#45;&gt;Node7 -->
<g id="edge6_Node000006_Node000007" class="edge">
<title>Node6&#45;&gt;Node7</title>
<g id="a_edge6_Node000006_Node000007"><a xlink:title=" ">
<path fill="none" stroke="#63b8ff" d="M319.19,-121.85C330.79,-128.71 346.81,-138.12 361,-146.22 389.38,-162.4 422.16,-180.51 444.51,-192.76"/>
<polygon fill="#63b8ff" stroke="#63b8ff" points="442.95,-195.89 453.4,-197.63 446.31,-189.75 442.95,-195.89"/>
</a>
</g>
</g>
<!-- Node6&#45;&gt;Node9 -->
<g id="edge8_Node000006_Node000009" class="edge">
<title>Node6&#45;&gt;Node9</title>
<g id="a_edge8_Node000006_Node000009"><a xlink:title=" ">
<path fill="none" stroke="#63b8ff" d="M324.28,-102.59C353.69,-89.29 406.94,-65.2 440.56,-49.99"/>
<polygon fill="#63b8ff" stroke="#63b8ff" points="442.23,-53.08 449.9,-45.76 439.34,-46.7 442.23,-53.08"/>
</a>
</g>
</g>
<!-- Node10 -->
<g id="Node000010" class="node">
<title>Node10</title>
<g id="a_Node000010"><a xlink:href="fs_8c.html#ac93f607f4a954323f4c9ea485ca88538" target="_top" xlink:title=" ">
<polygon fill="white" stroke="#666666" points="405,-121.72 361,-121.72 361,-102.72 405,-102.72 405,-121.72"/>
<text text-anchor="middle" x="383" y="-109.72" font-family="Helvetica,sans-Serif" font-size="10.00">bzero</text>
</a>
</g>
</g>
<!-- Node6&#45;&gt;Node10 -->
<g id="edge9_Node000006_Node000010" class="edge">
<title>Node6&#45;&gt;Node10</title>
<g id="a_edge9_Node000006_Node000010"><a xlink:title=" ">
<path fill="none" stroke="#63b8ff" d="M325.01,-112.22C332.99,-112.22 342.17,-112.22 350.8,-112.22"/>
<polygon fill="#63b8ff" stroke="#63b8ff" points="350.93,-115.72 360.93,-112.22 350.93,-108.72 350.93,-115.72"/>
</a>
</g>
</g>
<!-- Node6&#45;&gt;Node11 -->
<g id="edge13_Node000006_Node000011" class="edge">
<title>Node6&#45;&gt;Node11</title>
<g id="a_edge13_Node000006_Node000011"><a xlink:title=" ">
<path fill="none" stroke="#63b8ff" d="M325.22,-120.83C335.87,-124.52 348.91,-128.38 361,-130.22 380.33,-133.15 385.62,-132.81 405,-130.22 414.07,-129 423.65,-126.89 432.62,-124.53"/>
<polygon fill="#63b8ff" stroke="#63b8ff" points="433.74,-127.85 442.43,-121.79 431.86,-121.11 433.74,-127.85"/>
</a>
</g>
</g>
<!-- Node8 -->
<g id="Node000008" class="node">
<title>Node8</title>
<g id="a_Node000008"><a xlink:href="bio_8c.html#a69dcd3ce86d958b4024c6746263f3f5b" target="_top" xlink:title=" ">
<polygon fill="white" stroke="#666666" points="577,-216.72 539,-216.72 539,-197.72 577,-197.72 577,-216.72"/>
<text text-anchor="middle" x="558" y="-204.72" font-family="Helvetica,sans-Serif" font-size="10.00">bget</text>
</a>
</g>
</g>
<!-- Node7&#45;&gt;Node8 -->
<g id="edge7_Node000007_Node000008" class="edge">
<title>Node7&#45;&gt;Node8</title>
<g id="a_edge7_Node000007_Node000008"><a xlink:title=" ">
<path fill="none" stroke="#63b8ff" d="M494.2,-207.22C504.66,-207.22 517.42,-207.22 528.7,-207.22"/>
<polygon fill="#63b8ff" stroke="#63b8ff" points="528.94,-210.72 538.94,-207.22 528.94,-203.72 528.94,-210.72"/>
</a>
</g>
</g>
<!-- Node10&#45;&gt;Node7 -->
<g id="edge10_Node000010_Node000007" class="edge">
<title>Node10&#45;&gt;Node7</title>
<g id="a_edge10_Node000010_Node000007"><a xlink:title=" ">
<path fill="none" stroke="#63b8ff" d="M392.98,-122.03C407.71,-138.11 437.18,-170.28 455.38,-190.16"/>
<polygon fill="#63b8ff" stroke="#63b8ff" points="452.86,-192.59 462.2,-197.6 458.02,-187.87 452.86,-192.59"/>
</a>
</g>
</g>
<!-- Node10&#45;&gt;Node9 -->
<g id="edge11_Node000010_Node000009" class="edge">
<title>Node10&#45;&gt;Node9</title>
<g id="a_edge11_Node000010_Node000009"><a xlink:title=" ">
<path fill="none" stroke="#63b8ff" d="M395.02,-102.59C409.4,-90.03 434.79,-67.85 452.23,-52.62"/>
<polygon fill="#63b8ff" stroke="#63b8ff" points="454.84,-54.98 460.07,-45.76 450.24,-49.71 454.84,-54.98"/>
</a>
</g>
</g>
<!-- Node10&#45;&gt;Node11 -->
<g id="edge12_Node000010_Node000011" class="edge">
<title>Node10&#45;&gt;Node11</title>
<g id="a_edge12_Node000010_Node000011"><a xlink:title=" ">
<path fill="none" stroke="#63b8ff" d="M405.06,-112.22C412.8,-112.22 421.83,-112.22 430.69,-112.22"/>
<polygon fill="#63b8ff" stroke="#63b8ff" points="430.93,-115.72 440.93,-112.22 430.93,-108.72 430.93,-115.72"/>
</a>
</g>
</g>
</g>
</svg>
