<?xml version="1.0" encoding="UTF-8" standalone="no"?>
<!DOCTYPE svg PUBLIC "-//W3C//DTD SVG 1.1//EN"
 "http://www.w3.org/Graphics/SVG/1.1/DTD/svg11.dtd">
<!-- Generated by graphviz version 2.43.0 (0)
 -->
<!-- Title: nameiparent Pages: 1 -->
<!--zoomable 588 -->

<svg id="main" version="1.1" xmlns="http://www.w3.org/2000/svg" xmlns:xlink="http://www.w3.org/1999/xlink" xml:space="preserve" onload="init(evt)">
<style type="text/css"><![CDATA[
.node, .edge {opacity: 0.7;}
.node.selected, .edge.selected {opacity: 1;}
.edge:hover path { stroke: red; }
.edge:hover polygon { stroke: red; fill: red; }
]]></style>

<defs>
  <circle id="rim" cx="0" cy="0" r="7"/>
  <circle id="rim2" cx="0" cy="0" r="3.5"/>
  <g id="zoomPlus">
    <use xlink:href="#rim" fill="#404040"><set attributeName="fill" to="#808080" begin="zoomplus.mouseover" end="zoomplus.mouseout"/></use>
    <path d="M-4,0h8M0,-4v8" fill="none" stroke="white" stroke-width="1.5" pointer-events="none"/>
  </g>
  <g id="zoomMin">
    <use xlink:href="#rim" fill="#404040"><set attributeName="fill" to="#808080" begin="zoomminus.mouseover" end="zoomminus.mouseout"/></use>
    <path d="M-4,0h8" fill="none" stroke="white" stroke-width="1.5" pointer-events="none"/>
  </g>
  <g id="arrowUp" transform="translate(30 24)">
    <use xlink:href="#rim"/>
    <path pointer-events="none" fill="none" stroke="white" stroke-width="1.5" d="M0,-3.0v7 M-2.5,-0.5L0,-3.0L2.5,-0.5"/>
  </g>
  <g id="arrowRight" transform="rotate(90) translate(36 -43)">
    <use xlink:href="#rim"/>
    <path pointer-events="none" fill="none" stroke="white" stroke-width="1.5" d="M0,-3.0v7 M-2.5,-0.5L0,-3.0L2.5,-0.5"/>
  </g>
  <g id="arrowDown" transform="rotate(180) translate(-30 -48)">
    <use xlink:href="#rim"/>
    <path pointer-events="none" fill="none" stroke="white" stroke-width="1.5" d="M0,-3.0v7 M-2.5,-0.5L0,-3.0L2.5,-0.5"/>
  </g>
  <g id="arrowLeft" transform="rotate(270) translate(-36 17)">
    <use xlink:href="#rim"/>
    <path pointer-events="none" fill="none" stroke="white" stroke-width="1.5" d="M0,-3.0v7 M-2.5,-0.5L0,-3.0L2.5,-0.5"/>
  </g>
  <g id="resetDef">
    <use xlink:href="#rim2" fill="#404040"><set attributeName="fill" to="#808080" begin="reset.mouseover" end="reset.mouseout"/></use>
  </g>
</defs>
<script type="application/ecmascript">
var viewWidth = 801;
var viewHeight = 588;
var sectionId = 'dynsection-29';
</script>
<script type="application/ecmascript" xlink:href="svg.min.js"/>
<svg id="graph" class="graph">
<g id="viewport">
<title>nameiparent</title>
<!-- Node1 -->
<g id="Node000001" class="node">
<title>Node1</title>
<g id="a_Node000001"><a xlink:title=" ">
<polygon fill="#999999" stroke="#666666" points="79,-208 0,-208 0,-189 79,-189 79,-208"/>
<text text-anchor="middle" x="39.5" y="-196" font-family="Helvetica,sans-Serif" font-size="10.00">nameiparent</text>
</a>
</g>
</g>
<!-- Node2 -->
<g id="Node000002" class="node">
<title>Node2</title>
<g id="a_Node000002"><a xlink:href="fs_8c.html#a0f085d02326c9dd34cb4e58133a7b948" target="_top" xlink:title=" ">
<polygon fill="white" stroke="#666666" points="165,-208 115,-208 115,-189 165,-189 165,-208"/>
<text text-anchor="middle" x="140" y="-196" font-family="Helvetica,sans-Serif" font-size="10.00">namex</text>
</a>
</g>
</g>
<!-- Node1&#45;&gt;Node2 -->
<g id="edge1_Node000001_Node000002" class="edge">
<title>Node1&#45;&gt;Node2</title>
<g id="a_edge1_Node000001_Node000002"><a xlink:title=" ">
<path fill="none" stroke="#63b8ff" d="M79.15,-191.89C87.64,-191.66 96.57,-191.71 104.86,-192.04"/>
<polygon fill="#63b8ff" stroke="#63b8ff" points="104.77,-195.54 114.95,-192.61 105.16,-188.55 104.77,-195.54"/>
</a>
</g>
</g>
<!-- Node2&#45;&gt;Node1 -->
<g id="edge43_Node000002_Node000001" class="edge">
<title>Node2&#45;&gt;Node1</title>
<g id="a_edge43_Node000002_Node000001"><a xlink:title=" ">
<path fill="none" stroke="#63b8ff" d="M114.95,-204.39C107.13,-204.98 98.15,-205.26 89.19,-205.25"/>
<polygon fill="#63b8ff" stroke="#63b8ff" points="89.2,-201.75 79.15,-205.11 89.1,-208.75 89.2,-201.75"/>
</a>
</g>
</g>
<!-- Node3 -->
<g id="Node000003" class="node">
<title>Node3</title>
<g id="a_Node000003"><a xlink:href="fs_8c.html#a5341068f021beac8cf0032b97d231e6f" target="_top" xlink:title=" ">
<polygon fill="white" stroke="#666666" points="266,-321 204,-321 204,-302 266,-302 266,-321"/>
<text text-anchor="middle" x="235" y="-309" font-family="Helvetica,sans-Serif" font-size="10.00">dirlookup</text>
</a>
</g>
</g>
<!-- Node2&#45;&gt;Node3 -->
<g id="edge2_Node000002_Node000003" class="edge">
<title>Node2&#45;&gt;Node3</title>
<g id="a_edge2_Node000002_Node000003"><a xlink:title=" ">
<path fill="none" stroke="#63b8ff" d="M148.93,-208.13C164.58,-227.15 199.64,-269.75 219.52,-293.9"/>
<polygon fill="#63b8ff" stroke="#63b8ff" points="217.03,-296.39 226.09,-301.89 222.44,-291.94 217.03,-296.39"/>
</a>
</g>
</g>
<!-- Node4 -->
<g id="Node000004" class="node">
<title>Node4</title>
<g id="a_Node000004"><a xlink:href="fs_8c.html#aa574143402896986fe315a0c2749fffa" target="_top" xlink:title=" ">
<polygon fill="white" stroke="#666666" points="355,-377 320,-377 320,-358 355,-358 355,-377"/>
<text text-anchor="middle" x="337.5" y="-365" font-family="Helvetica,sans-Serif" font-size="10.00">iget</text>
</a>
</g>
</g>
<!-- Node2&#45;&gt;Node4 -->
<g id="edge22_Node000002_Node000004" class="edge">
<title>Node2&#45;&gt;Node4</title>
<g id="a_edge22_Node000002_Node000004"><a xlink:title=" ">
<path fill="none" stroke="#63b8ff" d="M142.52,-208.15C146.87,-232.52 161.71,-297.04 201,-330.5 231.92,-356.83 279.96,-364.56 309.76,-366.75"/>
<polygon fill="#63b8ff" stroke="#63b8ff" points="309.66,-370.25 319.84,-367.33 310.06,-363.26 309.66,-370.25"/>
</a>
</g>
</g>
<!-- Node14 -->
<g id="Node000014" class="node">
<title>Node14</title>
<g id="a_Node000014"><a xlink:href="fs_8c.html#a24a91383ab80b4b8a1ef1f4df896035c" target="_top" xlink:title=" ">
<polygon fill="white" stroke="#666666" points="254,-56 216,-56 216,-37 254,-37 254,-56"/>
<text text-anchor="middle" x="235" y="-44" font-family="Helvetica,sans-Serif" font-size="10.00">idup</text>
</a>
</g>
</g>
<!-- Node2&#45;&gt;Node14 -->
<g id="edge21_Node000002_Node000014" class="edge">
<title>Node2&#45;&gt;Node14</title>
<g id="a_edge21_Node000002_Node000014"><a xlink:title=" ">
<path fill="none" stroke="#63b8ff" d="M143.67,-188.92C150.33,-166.32 169.44,-108.73 201,-70.5 203.44,-67.54 206.33,-64.76 209.37,-62.21"/>
<polygon fill="#63b8ff" stroke="#63b8ff" points="211.65,-64.87 217.54,-56.06 207.44,-59.28 211.65,-64.87"/>
</a>
</g>
</g>
<!-- Node15 -->
<g id="Node000015" class="node">
<title>Node15</title>
<g id="a_Node000015"><a xlink:href="fs_8c.html#aed28187406d84a3aa71f10c6235a03ec" target="_top" xlink:title=" ">
<polygon fill="white" stroke="#666666" points="614.5,-208 574.5,-208 574.5,-189 614.5,-189 614.5,-208"/>
<text text-anchor="middle" x="594.5" y="-196" font-family="Helvetica,sans-Serif" font-size="10.00">ilock</text>
</a>
</g>
</g>
<!-- Node2&#45;&gt;Node15 -->
<g id="edge23_Node000002_Node000015" class="edge">
<title>Node2&#45;&gt;Node15</title>
<g id="a_edge23_Node000002_Node000015"><a xlink:title=" ">
<path fill="none" stroke="#63b8ff" d="M149.68,-188.78C175.29,-161.21 253.99,-84.5 336.5,-84.5 336.5,-84.5 336.5,-84.5 429,-84.5 495.7,-84.5 554.86,-148.59 580.29,-180.66"/>
<polygon fill="#63b8ff" stroke="#63b8ff" points="577.67,-183 586.54,-188.78 583.21,-178.72 577.67,-183"/>
</a>
</g>
</g>
<!-- Node16 -->
<g id="Node000016" class="node">
<title>Node16</title>
<g id="a_Node000016"><a xlink:href="fs_8c.html#ab3c447f135c68e4c3c1f8d5866f6e77b" target="_top" xlink:title=" ">
<polygon fill="white" stroke="#666666" points="445.5,-293 410.5,-293 410.5,-274 445.5,-274 445.5,-293"/>
<text text-anchor="middle" x="428" y="-281" font-family="Helvetica,sans-Serif" font-size="10.00">iput</text>
</a>
</g>
</g>
<!-- Node2&#45;&gt;Node16 -->
<g id="edge26_Node000002_Node000016" class="edge">
<title>Node2&#45;&gt;Node16</title>
<g id="a_edge26_Node000002_Node000016"><a xlink:title=" ">
<path fill="none" stroke="#63b8ff" d="M153.15,-208.06C164.79,-216.75 183.17,-229.28 201,-236.5 237.07,-251.11 348.45,-270.6 400.14,-279.16"/>
<polygon fill="#63b8ff" stroke="#63b8ff" points="399.78,-282.65 410.22,-280.81 400.92,-275.74 399.78,-282.65"/>
</a>
</g>
</g>
<!-- Node20 -->
<g id="Node000020" class="node">
<title>Node20</title>
<g id="a_Node000020"><a xlink:href="fs_8c.html#ae4e29916219b9293b37f9c34220694fe" target="_top" xlink:title=" ">
<polygon fill="white" stroke="#666666" points="363.5,-189 311.5,-189 311.5,-170 363.5,-170 363.5,-189"/>
<text text-anchor="middle" x="337.5" y="-177" font-family="Helvetica,sans-Serif" font-size="10.00">iunlock</text>
</a>
</g>
</g>
<!-- Node2&#45;&gt;Node20 -->
<g id="edge39_Node000002_Node000020" class="edge">
<title>Node2&#45;&gt;Node20</title>
<g id="a_edge39_Node000002_Node000020"><a xlink:title=" ">
<path fill="none" stroke="#63b8ff" d="M165.36,-196.13C199.49,-192.82 261.75,-186.76 301.02,-182.95"/>
<polygon fill="#63b8ff" stroke="#63b8ff" points="301.59,-186.41 311.21,-181.96 300.92,-179.44 301.59,-186.41"/>
</a>
</g>
</g>
<!-- Node21 -->
<g id="Node000021" class="node">
<title>Node21</title>
<g id="a_Node000021"><a xlink:href="fs_8c.html#a207b3008bae35596c55ec7c4fc6875eb" target="_top" xlink:title=" ">
<polygon fill="white" stroke="#666666" points="269,-227 201,-227 201,-208 269,-208 269,-227"/>
<text text-anchor="middle" x="235" y="-215" font-family="Helvetica,sans-Serif" font-size="10.00">iunlockput</text>
</a>
</g>
</g>
<!-- Node2&#45;&gt;Node21 -->
<g id="edge40_Node000002_Node000021" class="edge">
<title>Node2&#45;&gt;Node21</title>
<g id="a_edge40_Node000002_Node000021"><a xlink:title=" ">
<path fill="none" stroke="#63b8ff" d="M165.43,-203.49C173.33,-205.11 182.34,-206.95 191.16,-208.75"/>
<polygon fill="#63b8ff" stroke="#63b8ff" points="190.49,-212.18 200.99,-210.76 191.89,-205.32 190.49,-212.18"/>
</a>
</g>
</g>
<!-- Node22 -->
<g id="Node000022" class="node">
<title>Node22</title>
<g id="a_Node000022"><a xlink:href="fs_8c.html#a8b3eda072ad15763cdaa2fd356643fb4" target="_top" xlink:title=" ">
<polygon fill="white" stroke="#666666" points="266,-19 204,-19 204,0 266,0 266,-19"/>
<text text-anchor="middle" x="235" y="-7" font-family="Helvetica,sans-Serif" font-size="10.00">skipelem</text>
</a>
</g>
</g>
<!-- Node2&#45;&gt;Node22 -->
<g id="edge44_Node000002_Node000022" class="edge">
<title>Node2&#45;&gt;Node22</title>
<g id="a_edge44_Node000002_Node000022"><a xlink:title=" ">
<path fill="none" stroke="#63b8ff" d="M141.97,-188.8C145.25,-160.66 158.21,-77.84 201,-27.5 201.61,-26.78 202.26,-26.09 202.93,-25.42"/>
<polygon fill="#63b8ff" stroke="#63b8ff" points="205.31,-28 211.06,-19.1 201.01,-22.48 205.31,-28"/>
</a>
</g>
</g>
<!-- Node3&#45;&gt;Node4 -->
<g id="edge3_Node000003_Node000004" class="edge">
<title>Node3&#45;&gt;Node4</title>
<g id="a_edge3_Node000003_Node000004"><a xlink:title=" ">
<path fill="none" stroke="#63b8ff" d="M253.51,-321.25C269.41,-330.11 293.05,-343.29 311.04,-353.31"/>
<polygon fill="#63b8ff" stroke="#63b8ff" points="309.42,-356.42 319.86,-358.23 312.83,-350.3 309.42,-356.42"/>
</a>
</g>
</g>
<!-- Node5 -->
<g id="Node000005" class="node">
<title>Node5</title>
<g id="a_Node000005"><a xlink:href="fs_8c.html#ae74f6e5b19a4e7f3e72807ee67141819" target="_top" xlink:title=" ">
<polygon fill="white" stroke="#666666" points="370,-340 305,-340 305,-321 370,-321 370,-340"/>
<text text-anchor="middle" x="337.5" y="-328" font-family="Helvetica,sans-Serif" font-size="10.00">namecmp</text>
</a>
</g>
</g>
<!-- Node3&#45;&gt;Node5 -->
<g id="edge4_Node000003_Node000005" class="edge">
<title>Node3&#45;&gt;Node5</title>
<g id="a_edge4_Node000003_Node000005"><a xlink:title=" ">
<path fill="none" stroke="#63b8ff" d="M266.15,-317.2C275.25,-318.92 285.4,-320.84 295.1,-322.67"/>
<polygon fill="#63b8ff" stroke="#63b8ff" points="294.5,-326.12 304.97,-324.54 295.8,-319.24 294.5,-326.12"/>
</a>
</g>
</g>
<!-- Node6 -->
<g id="Node000006" class="node">
<title>Node6</title>
<g id="a_Node000006"><a xlink:href="fs_8c.html#a3aba1fa9f6789d09356aec5b96d91fa8" target="_top" xlink:title=" ">
<polygon fill="white" stroke="#666666" points="358,-303 317,-303 317,-284 358,-284 358,-303"/>
<text text-anchor="middle" x="337.5" y="-291" font-family="Helvetica,sans-Serif" font-size="10.00">readi</text>
</a>
</g>
</g>
<!-- Node3&#45;&gt;Node6 -->
<g id="edge5_Node000003_Node000006" class="edge">
<title>Node3&#45;&gt;Node6</title>
<g id="a_edge5_Node000003_Node000006"><a xlink:title=" ">
<path fill="none" stroke="#63b8ff" d="M266.15,-306.1C278.98,-303.8 293.9,-301.13 306.69,-298.84"/>
<polygon fill="#63b8ff" stroke="#63b8ff" points="307.62,-302.23 316.84,-297.02 306.38,-295.34 307.62,-302.23"/>
</a>
</g>
</g>
<!-- Node7 -->
<g id="Node000007" class="node">
<title>Node7</title>
<g id="a_Node000007"><a xlink:href="fs_8c.html#a965e83e1fa9b15abf268784ce74181bb" target="_top" xlink:title=" ">
<polygon fill="white" stroke="#666666" points="450,-474 406,-474 406,-455 450,-455 450,-474"/>
<text text-anchor="middle" x="428" y="-462" font-family="Helvetica,sans-Serif" font-size="10.00">bmap</text>
</a>
</g>
</g>
<!-- Node6&#45;&gt;Node7 -->
<g id="edge6_Node000006_Node000007" class="edge">
<title>Node6&#45;&gt;Node7</title>
<g id="a_edge6_Node000006_Node000007"><a xlink:title=" ">
<path fill="none" stroke="#63b8ff" d="M358.3,-302.33C362.67,-305.06 366.9,-308.44 370,-312.5 405.82,-359.51 377.85,-388.54 406,-440.5 407.25,-442.8 408.75,-445.07 410.37,-447.24"/>
<polygon fill="#63b8ff" stroke="#63b8ff" points="407.79,-449.61 416.92,-454.98 413.13,-445.09 407.79,-449.61"/>
</a>
</g>
</g>
<!-- Node9 -->
<g id="Node000009" class="node">
<title>Node9</title>
<g id="a_Node000009"><a xlink:href="bio_8c.html#a30b8d2ef2300ed8e3d879a428fe39898" target="_top" xlink:title=" ">
<polygon fill="white" stroke="#666666" points="710,-265 666,-265 666,-246 710,-246 710,-265"/>
<text text-anchor="middle" x="688" y="-253" font-family="Helvetica,sans-Serif" font-size="10.00">bread</text>
</a>
</g>
</g>
<!-- Node6&#45;&gt;Node9 -->
<g id="edge19_Node000006_Node000009" class="edge">
<title>Node6&#45;&gt;Node9</title>
<g id="a_edge19_Node000006_Node000009"><a xlink:title=" ">
<path fill="none" stroke="#63b8ff" d="M349.94,-284C381.85,-258.26 475.62,-187.89 568,-169.5 591.1,-164.9 599.87,-159.08 621,-169.5 649.29,-183.45 668.82,-215.99 678.94,-236.8"/>
<polygon fill="#63b8ff" stroke="#63b8ff" points="675.79,-238.32 683.15,-245.94 682.15,-235.4 675.79,-238.32"/>
</a>
</g>
</g>
<!-- Node11 -->
<g id="Node000011" class="node">
<title>Node11</title>
<g id="a_Node000011"><a xlink:href="bio_8c.html#ab5335aeb503731104314321a78a6d727" target="_top" xlink:title=" ">
<polygon fill="white" stroke="#666666" points="711.5,-417 664.5,-417 664.5,-398 711.5,-398 711.5,-417"/>
<text text-anchor="middle" x="688" y="-405" font-family="Helvetica,sans-Serif" font-size="10.00">brelse</text>
</a>
</g>
</g>
<!-- Node6&#45;&gt;Node11 -->
<g id="edge20_Node000006_Node000011" class="edge">
<title>Node6&#45;&gt;Node11</title>
<g id="a_edge20_Node000006_Node000011"><a xlink:title=" ">
<path fill="none" stroke="#63b8ff" d="M355.25,-303.09C400.2,-328.61 523.06,-396.95 568,-407.5 596.56,-414.2 630.05,-413.47 654.21,-411.49"/>
<polygon fill="#63b8ff" stroke="#63b8ff" points="654.65,-414.96 664.28,-410.55 653.99,-407.99 654.65,-414.96"/>
</a>
</g>
</g>
<!-- Node8 -->
<g id="Node000008" class="node">
<title>Node8</title>
<g id="a_Node000008"><a xlink:href="fs_8c.html#a29272227722d57ff937caaffd03455a9" target="_top" xlink:title=" ">
<polygon fill="white" stroke="#666666" points="532,-512 486,-512 486,-493 532,-493 532,-512"/>
<text text-anchor="middle" x="509" y="-500" font-family="Helvetica,sans-Serif" font-size="10.00">balloc</text>
</a>
</g>
</g>
<!-- Node7&#45;&gt;Node8 -->
<g id="edge7_Node000007_Node000008" class="edge">
<title>Node7&#45;&gt;Node8</title>
<g id="a_edge7_Node000007_Node000008"><a xlink:title=" ">
<path fill="none" stroke="#63b8ff" d="M448.94,-474.09C458.01,-478.45 468.93,-483.71 478.9,-488.5"/>
<polygon fill="#63b8ff" stroke="#63b8ff" points="477.54,-491.73 488.07,-492.91 480.58,-485.43 477.54,-491.73"/>
</a>
</g>
</g>
<!-- Node7&#45;&gt;Node9 -->
<g id="edge16_Node000007_Node000009" class="edge">
<title>Node7&#45;&gt;Node9</title>
<g id="a_edge16_Node000007_Node000009"><a xlink:title=" ">
<path fill="none" stroke="#63b8ff" d="M429.84,-454.93C434.22,-411.96 458.57,-236.58 568,-180.5 588.96,-169.76 599.54,-170.8 621,-180.5 646.34,-191.95 665.82,-218.47 676.85,-236.7"/>
<polygon fill="#63b8ff" stroke="#63b8ff" points="674.07,-238.89 682.09,-245.82 680.14,-235.41 674.07,-238.89"/>
</a>
</g>
</g>
<!-- Node7&#45;&gt;Node11 -->
<g id="edge17_Node000007_Node000011" class="edge">
<title>Node7&#45;&gt;Node11</title>
<g id="a_edge17_Node000007_Node000011"><a xlink:title=" ">
<path fill="none" stroke="#63b8ff" d="M450.22,-464.18C486.14,-463.12 560.88,-458.7 621,-440.5 635.42,-436.14 650.51,-428.82 662.62,-422.18"/>
<polygon fill="#63b8ff" stroke="#63b8ff" points="664.65,-425.06 671.62,-417.08 661.2,-418.97 664.65,-425.06"/>
</a>
</g>
</g>
<!-- Node13 -->
<g id="Node000013" class="node">
<title>Node13</title>
<g id="a_Node000013"><a xlink:href="log_8c.html#a7eacb0fbebe5ce4c7d3ddea15908b13d" target="_top" xlink:title=" ">
<polygon fill="white" stroke="#666666" points="719,-550 657,-550 657,-531 719,-531 719,-550"/>
<text text-anchor="middle" x="688" y="-538" font-family="Helvetica,sans-Serif" font-size="10.00">log_write</text>
</a>
</g>
</g>
<!-- Node7&#45;&gt;Node13 -->
<g id="edge18_Node000007_Node000013" class="edge">
<title>Node7&#45;&gt;Node13</title>
<g id="a_edge18_Node000007_Node000013"><a xlink:title=" ">
<path fill="none" stroke="#63b8ff" d="M436.41,-474.14C455.22,-497.67 507.65,-557.41 568,-575.5 590.56,-582.26 598.14,-581.19 621,-575.5 636.65,-571.61 652.66,-563.24 664.99,-555.67"/>
<polygon fill="#63b8ff" stroke="#63b8ff" points="667.12,-558.46 673.64,-550.11 663.34,-552.57 667.12,-558.46"/>
</a>
</g>
</g>
<!-- Node8&#45;&gt;Node9 -->
<g id="edge8_Node000008_Node000009" class="edge">
<title>Node8&#45;&gt;Node9</title>
<g id="a_edge8_Node000008_Node000009"><a xlink:title=" ">
<path fill="none" stroke="#63b8ff" d="M509.7,-492.69C509.25,-459.87 512.3,-352.75 568,-294.5 590.95,-270.5 628.87,-261.26 655.73,-257.7"/>
<polygon fill="#63b8ff" stroke="#63b8ff" points="656.24,-261.17 665.78,-256.57 655.45,-254.21 656.24,-261.17"/>
</a>
</g>
</g>
<!-- Node8&#45;&gt;Node11 -->
<g id="edge10_Node000008_Node000011" class="edge">
<title>Node8&#45;&gt;Node11</title>
<g id="a_edge10_Node000008_Node000011"><a xlink:title=" ">
<path fill="none" stroke="#63b8ff" d="M532.25,-501.59C555.71,-499.78 593.07,-494.4 621,-478.5 643.95,-465.44 663.57,-441.71 675.31,-425.3"/>
<polygon fill="#63b8ff" stroke="#63b8ff" points="678.2,-427.27 681,-417.05 672.44,-423.3 678.2,-427.27"/>
</a>
</g>
</g>
<!-- Node12 -->
<g id="Node000012" class="node">
<title>Node12</title>
<g id="a_Node000012"><a xlink:href="fs_8c.html#ac93f607f4a954323f4c9ea485ca88538" target="_top" xlink:title=" ">
<polygon fill="white" stroke="#666666" points="616.5,-550 572.5,-550 572.5,-531 616.5,-531 616.5,-550"/>
<text text-anchor="middle" x="594.5" y="-538" font-family="Helvetica,sans-Serif" font-size="10.00">bzero</text>
</a>
</g>
</g>
<!-- Node8&#45;&gt;Node12 -->
<g id="edge11_Node000008_Node000012" class="edge">
<title>Node8&#45;&gt;Node12</title>
<g id="a_edge11_Node000008_Node000012"><a xlink:title=" ">
<path fill="none" stroke="#63b8ff" d="M531.07,-512.09C540.76,-516.5 552.44,-521.81 563.06,-526.65"/>
<polygon fill="#63b8ff" stroke="#63b8ff" points="561.88,-529.96 572.44,-530.91 564.78,-523.59 561.88,-529.96"/>
</a>
</g>
</g>
<!-- Node8&#45;&gt;Node13 -->
<g id="edge15_Node000008_Node000013" class="edge">
<title>Node8&#45;&gt;Node13</title>
<g id="a_edge15_Node000008_Node000013"><a xlink:title=" ">
<path fill="none" stroke="#63b8ff" d="M516.08,-512.04C525.36,-525.61 544.48,-549.88 568,-559.5 596.93,-571.34 632.63,-562.88 657.34,-553.79"/>
<polygon fill="#63b8ff" stroke="#63b8ff" points="658.85,-556.96 666.88,-550.05 656.29,-550.44 658.85,-556.96"/>
</a>
</g>
</g>
<!-- Node10 -->
<g id="Node000010" class="node">
<title>Node10</title>
<g id="a_Node000010"><a xlink:href="bio_8c.html#a69dcd3ce86d958b4024c6746263f3f5b" target="_top" xlink:title=" ">
<polygon fill="white" stroke="#666666" points="793,-265 755,-265 755,-246 793,-246 793,-265"/>
<text text-anchor="middle" x="774" y="-253" font-family="Helvetica,sans-Serif" font-size="10.00">bget</text>
</a>
</g>
</g>
<!-- Node9&#45;&gt;Node10 -->
<g id="edge9_Node000009_Node000010" class="edge">
<title>Node9&#45;&gt;Node10</title>
<g id="a_edge9_Node000009_Node000010"><a xlink:title=" ">
<path fill="none" stroke="#63b8ff" d="M710.2,-255.5C720.66,-255.5 733.42,-255.5 744.7,-255.5"/>
<polygon fill="#63b8ff" stroke="#63b8ff" points="744.94,-259 754.94,-255.5 744.94,-252 744.94,-259"/>
</a>
</g>
</g>
<!-- Node12&#45;&gt;Node9 -->
<g id="edge12_Node000012_Node000009" class="edge">
<title>Node12&#45;&gt;Node9</title>
<g id="a_edge12_Node000012_Node000009"><a xlink:title=" ">
<path fill="none" stroke="#63b8ff" d="M598.65,-530.69C611.85,-489.58 662.84,-330.74 680.75,-274.98"/>
<polygon fill="#63b8ff" stroke="#63b8ff" points="684.14,-275.86 683.86,-265.27 677.47,-273.72 684.14,-275.86"/>
</a>
</g>
</g>
<!-- Node12&#45;&gt;Node11 -->
<g id="edge13_Node000012_Node000011" class="edge">
<title>Node12&#45;&gt;Node11</title>
<g id="a_edge13_Node000012_Node000011"><a xlink:title=" ">
<path fill="none" stroke="#63b8ff" d="M607.07,-530.83C611.69,-526.67 616.87,-521.61 621,-516.5 644.65,-487.26 665.99,-448.8 677.66,-426.25"/>
<polygon fill="#63b8ff" stroke="#63b8ff" points="680.9,-427.6 682.32,-417.1 674.66,-424.43 680.9,-427.6"/>
</a>
</g>
</g>
<!-- Node12&#45;&gt;Node13 -->
<g id="edge14_Node000012_Node000013" class="edge">
<title>Node12&#45;&gt;Node13</title>
<g id="a_edge14_Node000012_Node000013"><a xlink:title=" ">
<path fill="none" stroke="#63b8ff" d="M616.72,-540.5C625.67,-540.5 636.4,-540.5 646.74,-540.5"/>
<polygon fill="#63b8ff" stroke="#63b8ff" points="646.88,-544 656.88,-540.5 646.88,-537 646.88,-544"/>
</a>
</g>
</g>
<!-- Node15&#45;&gt;Node9 -->
<g id="edge24_Node000015_Node000009" class="edge">
<title>Node15&#45;&gt;Node9</title>
<g id="a_edge24_Node000015_Node000009"><a xlink:title=" ">
<path fill="none" stroke="#63b8ff" d="M611.02,-208.17C625.3,-217.07 646.7,-230.4 663.15,-240.64"/>
<polygon fill="#63b8ff" stroke="#63b8ff" points="661.37,-243.66 671.71,-245.97 665.07,-237.72 661.37,-243.66"/>
</a>
</g>
</g>
<!-- Node15&#45;&gt;Node11 -->
<g id="edge25_Node000015_Node000011" class="edge">
<title>Node15&#45;&gt;Node11</title>
<g id="a_edge25_Node000015_Node000011"><a xlink:title=" ">
<path fill="none" stroke="#63b8ff" d="M599.67,-208.02C613.75,-240.19 659.73,-345.2 678.7,-388.53"/>
<polygon fill="#63b8ff" stroke="#63b8ff" points="675.59,-390.16 682.81,-397.92 682,-387.36 675.59,-390.16"/>
</a>
</g>
</g>
<!-- Node17 -->
<g id="Node000017" class="node">
<title>Node17</title>
<g id="a_Node000017"><a xlink:href="fs_8c.html#a7c42ba96035fb59aef87372552b1a661" target="_top" xlink:title=" ">
<polygon fill="white" stroke="#666666" points="531,-322 487,-322 487,-303 531,-303 531,-322"/>
<text text-anchor="middle" x="509" y="-310" font-family="Helvetica,sans-Serif" font-size="10.00">itrunc</text>
</a>
</g>
</g>
<!-- Node16&#45;&gt;Node17 -->
<g id="edge27_Node000016_Node000017" class="edge">
<title>Node16&#45;&gt;Node17</title>
<g id="a_edge27_Node000016_Node000017"><a xlink:title=" ">
<path fill="none" stroke="#63b8ff" d="M445.75,-289.65C454.91,-293.01 466.54,-297.28 477.26,-301.21"/>
<polygon fill="#63b8ff" stroke="#63b8ff" points="476.16,-304.54 486.75,-304.7 478.57,-297.97 476.16,-304.54"/>
</a>
</g>
</g>
<!-- Node19 -->
<g id="Node000019" class="node">
<title>Node19</title>
<g id="a_Node000019"><a xlink:href="fs_8c.html#a7220afa8e5f4bea540eb95879ea7df6e" target="_top" xlink:title=" ">
<polygon fill="white" stroke="#666666" points="621,-398 568,-398 568,-379 621,-379 621,-398"/>
<text text-anchor="middle" x="594.5" y="-386" font-family="Helvetica,sans-Serif" font-size="10.00">iupdate</text>
</a>
</g>
</g>
<!-- Node16&#45;&gt;Node19 -->
<g id="edge38_Node000016_Node000019" class="edge">
<title>Node16&#45;&gt;Node19</title>
<g id="a_edge38_Node000016_Node000019"><a xlink:title=" ">
<path fill="none" stroke="#63b8ff" d="M438.98,-293.04C449.97,-303.27 468.41,-319.63 486,-331.5 510.71,-348.18 540.84,-363.79 562.91,-374.44"/>
<polygon fill="#63b8ff" stroke="#63b8ff" points="561.6,-377.69 572.14,-378.83 564.61,-371.37 561.6,-377.69"/>
</a>
</g>
</g>
<!-- Node17&#45;&gt;Node9 -->
<g id="edge32_Node000017_Node000009" class="edge">
<title>Node17&#45;&gt;Node9</title>
<g id="a_edge32_Node000017_Node000009"><a xlink:title=" ">
<path fill="none" stroke="#63b8ff" d="M517.33,-302.64C527.24,-290.2 546.2,-269.37 568,-260.5 596.03,-249.09 630.9,-249.1 655.63,-251.19"/>
<polygon fill="#63b8ff" stroke="#63b8ff" points="655.59,-254.7 665.89,-252.22 656.29,-247.74 655.59,-254.7"/>
</a>
</g>
</g>
<!-- Node17&#45;&gt;Node11 -->
<g id="edge33_Node000017_Node000011" class="edge">
<title>Node17&#45;&gt;Node11</title>
<g id="a_edge33_Node000017_Node000011"><a xlink:title=" ">
<path fill="none" stroke="#63b8ff" d="M528.94,-322.18C551.11,-333.56 588.88,-353.11 621,-370.5 634.44,-377.78 649.3,-386.08 661.5,-392.98"/>
<polygon fill="#63b8ff" stroke="#63b8ff" points="659.83,-396.05 670.26,-397.93 663.28,-389.96 659.83,-396.05"/>
</a>
</g>
</g>
<!-- Node18 -->
<g id="Node000018" class="node">
<title>Node18</title>
<g id="a_Node000018"><a xlink:href="fs_8c.html#a2800a4b570ae39363cec0613dac92fd7" target="_top" xlink:title=" ">
<polygon fill="white" stroke="#666666" points="615.5,-322 573.5,-322 573.5,-303 615.5,-303 615.5,-322"/>
<text text-anchor="middle" x="594.5" y="-310" font-family="Helvetica,sans-Serif" font-size="10.00">bfree</text>
</a>
</g>
</g>
<!-- Node17&#45;&gt;Node18 -->
<g id="edge28_Node000017_Node000018" class="edge">
<title>Node17&#45;&gt;Node18</title>
<g id="a_edge28_Node000017_Node000018"><a xlink:title=" ">
<path fill="none" stroke="#63b8ff" d="M531.07,-312.5C540.78,-312.5 552.49,-312.5 563.13,-312.5"/>
<polygon fill="#63b8ff" stroke="#63b8ff" points="563.3,-316 573.3,-312.5 563.3,-309 563.3,-316"/>
</a>
</g>
</g>
<!-- Node17&#45;&gt;Node19 -->
<g id="edge34_Node000017_Node000019" class="edge">
<title>Node17&#45;&gt;Node19</title>
<g id="a_edge34_Node000017_Node000019"><a xlink:title=" ">
<path fill="none" stroke="#63b8ff" d="M520.58,-322.13C534.38,-334.69 558.74,-356.87 575.48,-372.1"/>
<polygon fill="#63b8ff" stroke="#63b8ff" points="573.26,-374.81 583.01,-378.95 577.97,-369.63 573.26,-374.81"/>
</a>
</g>
</g>
<!-- Node18&#45;&gt;Node9 -->
<g id="edge29_Node000018_Node000009" class="edge">
<title>Node18&#45;&gt;Node9</title>
<g id="a_edge29_Node000018_Node000009"><a xlink:title=" ">
<path fill="none" stroke="#63b8ff" d="M611.02,-302.83C625.3,-293.93 646.7,-280.6 663.15,-270.36"/>
<polygon fill="#63b8ff" stroke="#63b8ff" points="665.07,-273.28 671.71,-265.03 661.37,-267.34 665.07,-273.28"/>
</a>
</g>
</g>
<!-- Node18&#45;&gt;Node11 -->
<g id="edge30_Node000018_Node000011" class="edge">
<title>Node18&#45;&gt;Node11</title>
<g id="a_edge30_Node000018_Node000011"><a xlink:title=" ">
<path fill="none" stroke="#63b8ff" d="M606.07,-322.15C610.72,-326.47 616.2,-331.67 621,-336.5 638.65,-354.26 658.08,-375.36 671.26,-389.92"/>
<polygon fill="#63b8ff" stroke="#63b8ff" points="668.94,-392.57 678.23,-397.66 674.14,-387.89 668.94,-392.57"/>
</a>
</g>
</g>
<!-- Node18&#45;&gt;Node13 -->
<g id="edge31_Node000018_Node000013" class="edge">
<title>Node18&#45;&gt;Node13</title>
<g id="a_edge31_Node000018_Node000013"><a xlink:title=" ">
<path fill="none" stroke="#63b8ff" d="M599.96,-322.3C605.16,-333.78 613.94,-353.42 621,-370.5 643.41,-424.67 667.93,-489.42 679.79,-521.1"/>
<polygon fill="#63b8ff" stroke="#63b8ff" points="676.65,-522.71 683.43,-530.86 683.21,-520.26 676.65,-522.71"/>
</a>
</g>
</g>
<!-- Node19&#45;&gt;Node9 -->
<g id="edge35_Node000019_Node000009" class="edge">
<title>Node19&#45;&gt;Node9</title>
<g id="a_edge35_Node000019_Node000009"><a xlink:title=" ">
<path fill="none" stroke="#63b8ff" d="M602.08,-378.93C617.24,-356.9 654.83,-302.26 674.52,-273.64"/>
<polygon fill="#63b8ff" stroke="#63b8ff" points="677.45,-275.56 680.23,-265.34 671.68,-271.59 677.45,-275.56"/>
</a>
</g>
</g>
<!-- Node19&#45;&gt;Node11 -->
<g id="edge36_Node000019_Node000011" class="edge">
<title>Node19&#45;&gt;Node11</title>
<g id="a_edge36_Node000019_Node000011"><a xlink:title=" ">
<path fill="none" stroke="#63b8ff" d="M621.48,-393.89C631.73,-396.02 643.62,-398.49 654.43,-400.74"/>
<polygon fill="#63b8ff" stroke="#63b8ff" points="653.88,-404.2 664.38,-402.8 655.3,-397.34 653.88,-404.2"/>
</a>
</g>
</g>
<!-- Node19&#45;&gt;Node13 -->
<g id="edge37_Node000019_Node000013" class="edge">
<title>Node19&#45;&gt;Node13</title>
<g id="a_edge37_Node000019_Node000013"><a xlink:title=" ">
<path fill="none" stroke="#63b8ff" d="M601.22,-398.01C616.12,-422.75 656.27,-489.45 675.9,-522.06"/>
<polygon fill="#63b8ff" stroke="#63b8ff" points="673.12,-524.23 681.28,-531 679.12,-520.62 673.12,-524.23"/>
</a>
</g>
</g>
<!-- Node21&#45;&gt;Node16 -->
<g id="edge41_Node000021_Node000016" class="edge">
<title>Node21&#45;&gt;Node16</title>
<g id="a_edge41_Node000021_Node000016"><a xlink:title=" ">
<path fill="none" stroke="#63b8ff" d="M269.15,-219.23C297.02,-221.66 337.43,-227.49 370,-241.5 384.43,-247.71 398.67,-258.19 409.3,-267.13"/>
<polygon fill="#63b8ff" stroke="#63b8ff" points="407.16,-269.9 416.99,-273.85 411.77,-264.63 407.16,-269.9"/>
</a>
</g>
</g>
<!-- Node21&#45;&gt;Node20 -->
<g id="edge42_Node000021_Node000020" class="edge">
<title>Node21&#45;&gt;Node20</title>
<g id="a_edge42_Node000021_Node000020"><a xlink:title=" ">
<path fill="none" stroke="#63b8ff" d="M261.36,-207.91C273.71,-203.24 288.75,-197.55 302.12,-192.5"/>
<polygon fill="#63b8ff" stroke="#63b8ff" points="303.38,-195.76 311.5,-188.95 300.9,-189.22 303.38,-195.76"/>
</a>
</g>
</g>
</g>
</svg>

<g id="navigator" transform="translate(0 0)" fill="#404254">
  <rect fill="#f2f5e9" fill-opacity="0.5" stroke="#606060" stroke-width=".5" x="0" y="0" width="60" height="60"/>
  <use id="zoomplus" xlink:href="#zoomPlus" x="17" y="9" onmousedown="handleZoom(evt,'in')"/>
  <use id="zoomminus" xlink:href="#zoomMin" x="42" y="9" onmousedown="handleZoom(evt,'out')"/>
  <use id="reset" xlink:href="#resetDef" x="30" y="36" onmousedown="handleReset()"/>
   <use id="arrowup" xlink:href="#arrowUp" x="0" y="0" onmousedown="handlePan(0,-1)"/>
  <use id="arrowright" xlink:href="#arrowRight" x="0" y="0" onmousedown="handlePan(1,0)"/>
  <use id="arrowdown" xlink:href="#arrowDown" x="0" y="0" onmousedown="handlePan(0,1)"/>
  <use id="arrowleft" xlink:href="#arrowLeft" x="0" y="0" onmousedown="handlePan(-1,0)"/>
</g>
<svg viewBox="0 0 15 15" width="100%" height="30px" preserveAspectRatio="xMaxYMin meet">
 <g id="arrow_out" transform="scale(0.3 0.3)">
  <a xlink:href="fs_8c_ade44726f2aed2af27fa0df5f63f9e688_cgraph_org.svg" target="_base">
   <rect id="button" ry="5" rx="5" y="6" x="6" height="38" width="38"
        fill="#f2f5e9" fill-opacity="0.5" stroke="#606060" stroke-width="1.0"/>
   <path id="arrow"
     d="M 11.500037,31.436501 C 11.940474,20.09759 22.043105,11.32322 32.158766,21.979434 L 37.068811,17.246167 C 37.068811,17.246167 37.088388,32 37.088388,32 L 22.160133,31.978069 C 22.160133,31.978069 26.997745,27.140456 26.997745,27.140456 C 18.528582,18.264221 13.291696,25.230495 11.500037,31.436501 z"
     style="fill:#404040;"/>
  </a>
 </g>
</svg>

<style type='text/css'>
<![CDATA[
[data-mouse-over-selected='false'] { opacity: 0.7; }
[data-mouse-over-selected='true']  { opacity: 1.0; }
]]>
</style>
<script type="application/ecmascript"><![CDATA[
document.addEventListener('DOMContentLoaded', (event) => {
  highlightEdges();
  highlightAdjacentNodes();
});
]]></script>
</svg>
