<?xml version="1.0" encoding="UTF-8" standalone="no"?>
<!DOCTYPE svg PUBLIC "-//W3C//DTD SVG 1.1//EN"
 "http://www.w3.org/Graphics/SVG/1.1/DTD/svg11.dtd">
<!-- Generated by graphviz version 2.43.0 (0)
 -->
<!-- Title: end_op Pages: 1 -->
<svg width="420pt" height="101pt"
 viewBox="0.00 0.00 420.00 101.00" xmlns="http://www.w3.org/2000/svg" xmlns:xlink="http://www.w3.org/1999/xlink">

<svg id="main" version="1.1" xmlns="http://www.w3.org/2000/svg" xmlns:xlink="http://www.w3.org/1999/xlink" xml:space="preserve" onload="init(evt)">
<style type="text/css"><![CDATA[
.node, .edge {opacity: 0.7;}
.node.selected, .edge.selected {opacity: 1;}
.edge:hover path { stroke: red; }
.edge:hover polygon { stroke: red; fill: red; }
]]></style>
<script type="application/ecmascript" xlink:href="svg.min.js"/>
<svg id="graph" class="graph">
<g id="graph0" class="graph" transform="scale(1 1) rotate(0) translate(4 97)">
<title>end_op</title>
<!-- Node1 -->
<g id="Node000001" class="node">
<title>Node1</title>
<g id="a_Node000001"><a xlink:title=" ">
<polygon fill="#999999" stroke="#666666" points="52,-56 0,-56 0,-37 52,-37 52,-56"/>
<text text-anchor="middle" x="26" y="-44" font-family="Helvetica,sans-Serif" font-size="10.00">end_op</text>
</a>
</g>
</g>
<!-- Node2 -->
<g id="Node000002" class="node">
<title>Node2</title>
<g id="a_Node000002"><a xlink:href="log_8c.html#a504ac82448623ae8ad27b97dbed82694" target="_top" xlink:title=" ">
<polygon fill="white" stroke="#666666" points="142,-56 88,-56 88,-37 142,-37 142,-56"/>
<text text-anchor="middle" x="115" y="-44" font-family="Helvetica,sans-Serif" font-size="10.00">commit</text>
</a>
</g>
</g>
<!-- Node1&#45;&gt;Node2 -->
<g id="edge1_Node000001_Node000002" class="edge">
<title>Node1&#45;&gt;Node2</title>
<g id="a_edge1_Node000001_Node000002"><a xlink:title=" ">
<path fill="none" stroke="#63b8ff" d="M52.16,-46.5C60.16,-46.5 69.16,-46.5 77.77,-46.5"/>
<polygon fill="#63b8ff" stroke="#63b8ff" points="77.99,-50 87.99,-46.5 77.99,-43 77.99,-50"/>
</a>
</g>
</g>
<!-- Node3 -->
<g id="Node000003" class="node">
<title>Node3</title>
<g id="a_Node000003"><a xlink:href="log_8c.html#ab5eaeac1ab988530dcda4fd57a634df0" target="_top" xlink:title=" ">
<polygon fill="white" stroke="#666666" points="255,-93 178,-93 178,-74 255,-74 255,-93"/>
<text text-anchor="middle" x="216.5" y="-81" font-family="Helvetica,sans-Serif" font-size="10.00">install_trans</text>
</a>
</g>
</g>
<!-- Node2&#45;&gt;Node3 -->
<g id="edge2_Node000002_Node000003" class="edge">
<title>Node2&#45;&gt;Node3</title>
<g id="a_edge2_Node000002_Node000003"><a xlink:title=" ">
<path fill="none" stroke="#63b8ff" d="M141.62,-56.03C153.37,-60.4 167.48,-65.64 180.21,-70.38"/>
<polygon fill="#63b8ff" stroke="#63b8ff" points="179.02,-73.67 189.62,-73.88 181.46,-67.11 179.02,-73.67"/>
</a>
</g>
</g>
<!-- Node8 -->
<g id="Node000008" class="node">
<title>Node8</title>
<g id="a_Node000008"><a xlink:href="log_8c.html#a34322134c00d3e9ad7fb48a7baa9a4c5" target="_top" xlink:title=" ">
<polygon fill="white" stroke="#666666" points="252,-56 181,-56 181,-37 252,-37 252,-56"/>
<text text-anchor="middle" x="216.5" y="-44" font-family="Helvetica,sans-Serif" font-size="10.00">write_head</text>
</a>
</g>
</g>
<!-- Node2&#45;&gt;Node8 -->
<g id="edge7_Node000002_Node000008" class="edge">
<title>Node2&#45;&gt;Node8</title>
<g id="a_edge7_Node000002_Node000008"><a xlink:title=" ">
<path fill="none" stroke="#63b8ff" d="M142.14,-46.5C150.95,-46.5 161.03,-46.5 170.85,-46.5"/>
<polygon fill="#63b8ff" stroke="#63b8ff" points="170.92,-50 180.92,-46.5 170.92,-43 170.92,-50"/>
</a>
</g>
</g>
<!-- Node9 -->
<g id="Node000009" class="node">
<title>Node9</title>
<g id="a_Node000009"><a xlink:href="log_8c.html#af4e7fbf2920c27568c9b88d45f0bd5e1" target="_top" xlink:title=" ">
<polygon fill="white" stroke="#666666" points="247.5,-19 185.5,-19 185.5,0 247.5,0 247.5,-19"/>
<text text-anchor="middle" x="216.5" y="-7" font-family="Helvetica,sans-Serif" font-size="10.00">write_log</text>
</a>
</g>
</g>
<!-- Node2&#45;&gt;Node9 -->
<g id="edge11_Node000002_Node000009" class="edge">
<title>Node2&#45;&gt;Node9</title>
<g id="a_edge11_Node000002_Node000009"><a xlink:title=" ">
<path fill="none" stroke="#63b8ff" d="M141.62,-36.97C153.37,-32.6 167.48,-27.36 180.21,-22.62"/>
<polygon fill="#63b8ff" stroke="#63b8ff" points="181.46,-25.89 189.62,-19.12 179.02,-19.33 181.46,-25.89"/>
</a>
</g>
</g>
<!-- Node4 -->
<g id="Node000004" class="node">
<title>Node4</title>
<g id="a_Node000004"><a xlink:href="bio_8c.html#a30b8d2ef2300ed8e3d879a428fe39898" target="_top" xlink:title=" ">
<polygon fill="white" stroke="#666666" points="336.5,-93 292.5,-93 292.5,-74 336.5,-74 336.5,-93"/>
<text text-anchor="middle" x="314.5" y="-81" font-family="Helvetica,sans-Serif" font-size="10.00">bread</text>
</a>
</g>
</g>
<!-- Node3&#45;&gt;Node4 -->
<g id="edge3_Node000003_Node000004" class="edge">
<title>Node3&#45;&gt;Node4</title>
<g id="a_edge3_Node000003_Node000004"><a xlink:title=" ">
<path fill="none" stroke="#63b8ff" d="M255.17,-83.5C264.13,-83.5 273.6,-83.5 282.24,-83.5"/>
<polygon fill="#63b8ff" stroke="#63b8ff" points="282.28,-87 292.28,-83.5 282.28,-80 282.28,-87"/>
</a>
</g>
</g>
<!-- Node6 -->
<g id="Node000006" class="node">
<title>Node6</title>
<g id="a_Node000006"><a xlink:href="bio_8c.html#ab5335aeb503731104314321a78a6d727" target="_top" xlink:title=" ">
<polygon fill="white" stroke="#666666" points="338,-56 291,-56 291,-37 338,-37 338,-56"/>
<text text-anchor="middle" x="314.5" y="-44" font-family="Helvetica,sans-Serif" font-size="10.00">brelse</text>
</a>
</g>
</g>
<!-- Node3&#45;&gt;Node6 -->
<g id="edge5_Node000003_Node000006" class="edge">
<title>Node3&#45;&gt;Node6</title>
<g id="a_edge5_Node000003_Node000006"><a xlink:title=" ">
<path fill="none" stroke="#63b8ff" d="M242.22,-73.97C254.18,-69.36 268.67,-63.78 281.46,-58.85"/>
<polygon fill="#63b8ff" stroke="#63b8ff" points="282.76,-62.1 290.83,-55.24 280.25,-55.57 282.76,-62.1"/>
</a>
</g>
</g>
<!-- Node7 -->
<g id="Node000007" class="node">
<title>Node7</title>
<g id="a_Node000007"><a xlink:href="bio_8c.html#a63c899c13b176ddf80064d32225e1298" target="_top" xlink:title=" ">
<polygon fill="white" stroke="#666666" points="338,-19 291,-19 291,0 338,0 338,-19"/>
<text text-anchor="middle" x="314.5" y="-7" font-family="Helvetica,sans-Serif" font-size="10.00">bwrite</text>
</a>
</g>
</g>
<!-- Node3&#45;&gt;Node7 -->
<g id="edge6_Node000003_Node000007" class="edge">
<title>Node3&#45;&gt;Node7</title>
<g id="a_edge6_Node000003_Node000007"><a xlink:title=" ">
<path fill="none" stroke="#63b8ff" d="M239.63,-73.81C244.87,-71.11 250.3,-67.96 255,-64.5 273.48,-50.91 274.01,-42.92 291,-27.5 291.68,-26.88 292.38,-26.26 293.09,-25.64"/>
<polygon fill="#63b8ff" stroke="#63b8ff" points="295.45,-28.23 300.89,-19.13 290.97,-22.85 295.45,-28.23"/>
</a>
</g>
</g>
<!-- Node5 -->
<g id="Node000005" class="node">
<title>Node5</title>
<g id="a_Node000005"><a xlink:href="bio_8c.html#a69dcd3ce86d958b4024c6746263f3f5b" target="_top" xlink:title=" ">
<polygon fill="white" stroke="#666666" points="412,-93 374,-93 374,-74 412,-74 412,-93"/>
<text text-anchor="middle" x="393" y="-81" font-family="Helvetica,sans-Serif" font-size="10.00">bget</text>
</a>
</g>
</g>
<!-- Node4&#45;&gt;Node5 -->
<g id="edge4_Node000004_Node000005" class="edge">
<title>Node4&#45;&gt;Node5</title>
<g id="a_edge4_Node000004_Node000005"><a xlink:title=" ">
<path fill="none" stroke="#63b8ff" d="M336.81,-83.5C345.2,-83.5 354.95,-83.5 363.9,-83.5"/>
<polygon fill="#63b8ff" stroke="#63b8ff" points="363.91,-87 373.91,-83.5 363.91,-80 363.91,-87"/>
</a>
</g>
</g>
<!-- Node8&#45;&gt;Node4 -->
<g id="edge8_Node000008_Node000004" class="edge">
<title>Node8&#45;&gt;Node4</title>
<g id="a_edge8_Node000008_Node000004"><a xlink:title=" ">
<path fill="none" stroke="#63b8ff" d="M242.22,-56.03C254.62,-60.81 269.75,-66.64 282.87,-71.7"/>
<polygon fill="#63b8ff" stroke="#63b8ff" points="281.85,-75.05 292.44,-75.38 284.37,-68.52 281.85,-75.05"/>
</a>
</g>
</g>
<!-- Node8&#45;&gt;Node6 -->
<g id="edge9_Node000008_Node000006" class="edge">
<title>Node8&#45;&gt;Node6</title>
<g id="a_edge9_Node000008_Node000006"><a xlink:title=" ">
<path fill="none" stroke="#63b8ff" d="M252.16,-46.5C261.42,-46.5 271.41,-46.5 280.58,-46.5"/>
<polygon fill="#63b8ff" stroke="#63b8ff" points="280.87,-50 290.87,-46.5 280.87,-43 280.87,-50"/>
</a>
</g>
</g>
<!-- Node8&#45;&gt;Node7 -->
<g id="edge10_Node000008_Node000007" class="edge">
<title>Node8&#45;&gt;Node7</title>
<g id="a_edge10_Node000008_Node000007"><a xlink:title=" ">
<path fill="none" stroke="#63b8ff" d="M242.22,-36.97C254.18,-32.36 268.67,-26.78 281.46,-21.85"/>
<polygon fill="#63b8ff" stroke="#63b8ff" points="282.76,-25.1 290.83,-18.24 280.25,-18.57 282.76,-25.1"/>
</a>
</g>
</g>
<!-- Node9&#45;&gt;Node4 -->
<g id="edge12_Node000009_Node000004" class="edge">
<title>Node9&#45;&gt;Node4</title>
<g id="a_edge12_Node000009_Node000004"><a xlink:title=" ">
<path fill="none" stroke="#63b8ff" d="M240.83,-19.13C245.7,-21.56 250.66,-24.38 255,-27.5 273.63,-40.89 274.22,-48.86 291,-64.5 291.82,-65.27 292.67,-66.04 293.53,-66.82"/>
<polygon fill="#63b8ff" stroke="#63b8ff" points="291.56,-69.74 301.4,-73.65 296.15,-64.45 291.56,-69.74"/>
</a>
</g>
</g>
<!-- Node9&#45;&gt;Node6 -->
<g id="edge13_Node000009_Node000006" class="edge">
<title>Node9&#45;&gt;Node6</title>
<g id="a_edge13_Node000009_Node000006"><a xlink:title=" ">
<path fill="none" stroke="#63b8ff" d="M242.22,-19.03C254.18,-23.64 268.67,-29.22 281.46,-34.15"/>
<polygon fill="#63b8ff" stroke="#63b8ff" points="280.25,-37.43 290.83,-37.76 282.76,-30.9 280.25,-37.43"/>
</a>
</g>
</g>
<!-- Node9&#45;&gt;Node7 -->
<g id="edge14_Node000009_Node000007" class="edge">
<title>Node9&#45;&gt;Node7</title>
<g id="a_edge14_Node000009_Node000007"><a xlink:title=" ">
<path fill="none" stroke="#63b8ff" d="M247.61,-9.5C258.09,-9.5 269.89,-9.5 280.58,-9.5"/>
<polygon fill="#63b8ff" stroke="#63b8ff" points="280.81,-13 290.81,-9.5 280.81,-6 280.81,-13"/>
</a>
</g>
</g>
</g>
</svg>
</svg>

<style type='text/css'>
<![CDATA[
[data-mouse-over-selected='false'] { opacity: 0.7; }
[data-mouse-over-selected='true']  { opacity: 1.0; }
]]>
</style>
<script type="application/ecmascript"><![CDATA[
document.addEventListener('DOMContentLoaded', (event) => {
  highlightEdges();
  highlightAdjacentNodes();
});
]]></script>
</svg>
