<?xml version="1.0" encoding="UTF-8" standalone="no"?>
<!DOCTYPE svg PUBLIC "-//W3C//DTD SVG 1.1//EN"
 "http://www.w3.org/Graphics/SVG/1.1/DTD/svg11.dtd">
<!-- Generated by graphviz version 2.43.0 (0)
 -->
<!-- Title: commit Pages: 1 -->
<svg width="332pt" height="101pt"
 viewBox="0.00 0.00 332.00 101.00" xmlns="http://www.w3.org/2000/svg" xmlns:xlink="http://www.w3.org/1999/xlink">

<svg id="main" version="1.1" xmlns="http://www.w3.org/2000/svg" xmlns:xlink="http://www.w3.org/1999/xlink" xml:space="preserve" onload="init(evt)">
<style type="text/css"><![CDATA[
.node, .edge {opacity: 0.7;}
.node.selected, .edge.selected {opacity: 1;}
.edge:hover path { stroke: red; }
.edge:hover polygon { stroke: red; fill: red; }
]]></style>
<script type="application/ecmascript" xlink:href="svg.min.js"/>
<svg id="graph" class="graph">
<g id="graph0" class="graph" transform="scale(1 1) rotate(0) translate(4 97)">
<title>commit</title>
<!-- Node1 -->
<g id="Node000001" class="node">
<title>Node1</title>
<g id="a_Node000001"><a xlink:title=" ">
<polygon fill="#999999" stroke="#666666" points="54,-56 0,-56 0,-37 54,-37 54,-56"/>
<text text-anchor="middle" x="27" y="-44" font-family="Helvetica,sans-Serif" font-size="10.00">commit</text>
</a>
</g>
</g>
<!-- Node2 -->
<g id="Node000002" class="node">
<title>Node2</title>
<g id="a_Node000002"><a xlink:href="log_8c.html#ab5eaeac1ab988530dcda4fd57a634df0" target="_top" xlink:title=" ">
<polygon fill="white" stroke="#666666" points="167,-93 90,-93 90,-74 167,-74 167,-93"/>
<text text-anchor="middle" x="128.5" y="-81" font-family="Helvetica,sans-Serif" font-size="10.00">install_trans</text>
</a>
</g>
</g>
<!-- Node1&#45;&gt;Node2 -->
<g id="edge1_Node000001_Node000002" class="edge">
<title>Node1&#45;&gt;Node2</title>
<g id="a_edge1_Node000001_Node000002"><a xlink:title=" ">
<path fill="none" stroke="#63b8ff" d="M53.62,-56.03C65.37,-60.4 79.48,-65.64 92.21,-70.38"/>
<polygon fill="#63b8ff" stroke="#63b8ff" points="91.02,-73.67 101.62,-73.88 93.46,-67.11 91.02,-73.67"/>
</a>
</g>
</g>
<!-- Node7 -->
<g id="Node000007" class="node">
<title>Node7</title>
<g id="a_Node000007"><a xlink:href="log_8c.html#a34322134c00d3e9ad7fb48a7baa9a4c5" target="_top" xlink:title=" ">
<polygon fill="white" stroke="#666666" points="164,-56 93,-56 93,-37 164,-37 164,-56"/>
<text text-anchor="middle" x="128.5" y="-44" font-family="Helvetica,sans-Serif" font-size="10.00">write_head</text>
</a>
</g>
</g>
<!-- Node1&#45;&gt;Node7 -->
<g id="edge6_Node000001_Node000007" class="edge">
<title>Node1&#45;&gt;Node7</title>
<g id="a_edge6_Node000001_Node000007"><a xlink:title=" ">
<path fill="none" stroke="#63b8ff" d="M54.14,-46.5C62.95,-46.5 73.03,-46.5 82.85,-46.5"/>
<polygon fill="#63b8ff" stroke="#63b8ff" points="82.92,-50 92.92,-46.5 82.92,-43 82.92,-50"/>
</a>
</g>
</g>
<!-- Node8 -->
<g id="Node000008" class="node">
<title>Node8</title>
<g id="a_Node000008"><a xlink:href="log_8c.html#af4e7fbf2920c27568c9b88d45f0bd5e1" target="_top" xlink:title=" ">
<polygon fill="white" stroke="#666666" points="159.5,-19 97.5,-19 97.5,0 159.5,0 159.5,-19"/>
<text text-anchor="middle" x="128.5" y="-7" font-family="Helvetica,sans-Serif" font-size="10.00">write_log</text>
</a>
</g>
</g>
<!-- Node1&#45;&gt;Node8 -->
<g id="edge10_Node000001_Node000008" class="edge">
<title>Node1&#45;&gt;Node8</title>
<g id="a_edge10_Node000001_Node000008"><a xlink:title=" ">
<path fill="none" stroke="#63b8ff" d="M53.62,-36.97C65.37,-32.6 79.48,-27.36 92.21,-22.62"/>
<polygon fill="#63b8ff" stroke="#63b8ff" points="93.46,-25.89 101.62,-19.12 91.02,-19.33 93.46,-25.89"/>
</a>
</g>
</g>
<!-- Node3 -->
<g id="Node000003" class="node">
<title>Node3</title>
<g id="a_Node000003"><a xlink:href="bio_8c.html#a30b8d2ef2300ed8e3d879a428fe39898" target="_top" xlink:title=" ">
<polygon fill="white" stroke="#666666" points="248.5,-93 204.5,-93 204.5,-74 248.5,-74 248.5,-93"/>
<text text-anchor="middle" x="226.5" y="-81" font-family="Helvetica,sans-Serif" font-size="10.00">bread</text>
</a>
</g>
</g>
<!-- Node2&#45;&gt;Node3 -->
<g id="edge2_Node000002_Node000003" class="edge">
<title>Node2&#45;&gt;Node3</title>
<g id="a_edge2_Node000002_Node000003"><a xlink:title=" ">
<path fill="none" stroke="#63b8ff" d="M167.17,-83.5C176.13,-83.5 185.6,-83.5 194.24,-83.5"/>
<polygon fill="#63b8ff" stroke="#63b8ff" points="194.28,-87 204.28,-83.5 194.28,-80 194.28,-87"/>
</a>
</g>
</g>
<!-- Node5 -->
<g id="Node000005" class="node">
<title>Node5</title>
<g id="a_Node000005"><a xlink:href="bio_8c.html#ab5335aeb503731104314321a78a6d727" target="_top" xlink:title=" ">
<polygon fill="white" stroke="#666666" points="250,-56 203,-56 203,-37 250,-37 250,-56"/>
<text text-anchor="middle" x="226.5" y="-44" font-family="Helvetica,sans-Serif" font-size="10.00">brelse</text>
</a>
</g>
</g>
<!-- Node2&#45;&gt;Node5 -->
<g id="edge4_Node000002_Node000005" class="edge">
<title>Node2&#45;&gt;Node5</title>
<g id="a_edge4_Node000002_Node000005"><a xlink:title=" ">
<path fill="none" stroke="#63b8ff" d="M154.22,-73.97C166.18,-69.36 180.67,-63.78 193.46,-58.85"/>
<polygon fill="#63b8ff" stroke="#63b8ff" points="194.76,-62.1 202.83,-55.24 192.25,-55.57 194.76,-62.1"/>
</a>
</g>
</g>
<!-- Node6 -->
<g id="Node000006" class="node">
<title>Node6</title>
<g id="a_Node000006"><a xlink:href="bio_8c.html#a63c899c13b176ddf80064d32225e1298" target="_top" xlink:title=" ">
<polygon fill="white" stroke="#666666" points="250,-19 203,-19 203,0 250,0 250,-19"/>
<text text-anchor="middle" x="226.5" y="-7" font-family="Helvetica,sans-Serif" font-size="10.00">bwrite</text>
</a>
</g>
</g>
<!-- Node2&#45;&gt;Node6 -->
<g id="edge5_Node000002_Node000006" class="edge">
<title>Node2&#45;&gt;Node6</title>
<g id="a_edge5_Node000002_Node000006"><a xlink:title=" ">
<path fill="none" stroke="#63b8ff" d="M151.63,-73.81C156.87,-71.11 162.3,-67.96 167,-64.5 185.48,-50.91 186.01,-42.92 203,-27.5 203.68,-26.88 204.38,-26.26 205.09,-25.64"/>
<polygon fill="#63b8ff" stroke="#63b8ff" points="207.45,-28.23 212.89,-19.13 202.97,-22.85 207.45,-28.23"/>
</a>
</g>
</g>
<!-- Node4 -->
<g id="Node000004" class="node">
<title>Node4</title>
<g id="a_Node000004"><a xlink:href="bio_8c.html#a69dcd3ce86d958b4024c6746263f3f5b" target="_top" xlink:title=" ">
<polygon fill="white" stroke="#666666" points="324,-93 286,-93 286,-74 324,-74 324,-93"/>
<text text-anchor="middle" x="305" y="-81" font-family="Helvetica,sans-Serif" font-size="10.00">bget</text>
</a>
</g>
</g>
<!-- Node3&#45;&gt;Node4 -->
<g id="edge3_Node000003_Node000004" class="edge">
<title>Node3&#45;&gt;Node4</title>
<g id="a_edge3_Node000003_Node000004"><a xlink:title=" ">
<path fill="none" stroke="#63b8ff" d="M248.81,-83.5C257.2,-83.5 266.95,-83.5 275.9,-83.5"/>
<polygon fill="#63b8ff" stroke="#63b8ff" points="275.91,-87 285.91,-83.5 275.91,-80 275.91,-87"/>
</a>
</g>
</g>
<!-- Node7&#45;&gt;Node3 -->
<g id="edge7_Node000007_Node000003" class="edge">
<title>Node7&#45;&gt;Node3</title>
<g id="a_edge7_Node000007_Node000003"><a xlink:title=" ">
<path fill="none" stroke="#63b8ff" d="M154.22,-56.03C166.62,-60.81 181.75,-66.64 194.87,-71.7"/>
<polygon fill="#63b8ff" stroke="#63b8ff" points="193.85,-75.05 204.44,-75.38 196.37,-68.52 193.85,-75.05"/>
</a>
</g>
</g>
<!-- Node7&#45;&gt;Node5 -->
<g id="edge8_Node000007_Node000005" class="edge">
<title>Node7&#45;&gt;Node5</title>
<g id="a_edge8_Node000007_Node000005"><a xlink:title=" ">
<path fill="none" stroke="#63b8ff" d="M164.16,-46.5C173.42,-46.5 183.41,-46.5 192.58,-46.5"/>
<polygon fill="#63b8ff" stroke="#63b8ff" points="192.87,-50 202.87,-46.5 192.87,-43 192.87,-50"/>
</a>
</g>
</g>
<!-- Node7&#45;&gt;Node6 -->
<g id="edge9_Node000007_Node000006" class="edge">
<title>Node7&#45;&gt;Node6</title>
<g id="a_edge9_Node000007_Node000006"><a xlink:title=" ">
<path fill="none" stroke="#63b8ff" d="M154.22,-36.97C166.18,-32.36 180.67,-26.78 193.46,-21.85"/>
<polygon fill="#63b8ff" stroke="#63b8ff" points="194.76,-25.1 202.83,-18.24 192.25,-18.57 194.76,-25.1"/>
</a>
</g>
</g>
<!-- Node8&#45;&gt;Node3 -->
<g id="edge11_Node000008_Node000003" class="edge">
<title>Node8&#45;&gt;Node3</title>
<g id="a_edge11_Node000008_Node000003"><a xlink:title=" ">
<path fill="none" stroke="#63b8ff" d="M152.83,-19.13C157.7,-21.56 162.66,-24.38 167,-27.5 185.63,-40.89 186.22,-48.86 203,-64.5 203.82,-65.27 204.67,-66.04 205.53,-66.82"/>
<polygon fill="#63b8ff" stroke="#63b8ff" points="203.56,-69.74 213.4,-73.65 208.15,-64.45 203.56,-69.74"/>
</a>
</g>
</g>
<!-- Node8&#45;&gt;Node5 -->
<g id="edge12_Node000008_Node000005" class="edge">
<title>Node8&#45;&gt;Node5</title>
<g id="a_edge12_Node000008_Node000005"><a xlink:title=" ">
<path fill="none" stroke="#63b8ff" d="M154.22,-19.03C166.18,-23.64 180.67,-29.22 193.46,-34.15"/>
<polygon fill="#63b8ff" stroke="#63b8ff" points="192.25,-37.43 202.83,-37.76 194.76,-30.9 192.25,-37.43"/>
</a>
</g>
</g>
<!-- Node8&#45;&gt;Node6 -->
<g id="edge13_Node000008_Node000006" class="edge">
<title>Node8&#45;&gt;Node6</title>
<g id="a_edge13_Node000008_Node000006"><a xlink:title=" ">
<path fill="none" stroke="#63b8ff" d="M159.61,-9.5C170.09,-9.5 181.89,-9.5 192.58,-9.5"/>
<polygon fill="#63b8ff" stroke="#63b8ff" points="192.81,-13 202.81,-9.5 192.81,-6 192.81,-13"/>
</a>
</g>
</g>
</g>
</svg>
</svg>

<style type='text/css'>
<![CDATA[
[data-mouse-over-selected='false'] { opacity: 0.7; }
[data-mouse-over-selected='true']  { opacity: 1.0; }
]]>
</style>
<script type="application/ecmascript"><![CDATA[
document.addEventListener('DOMContentLoaded', (event) => {
  highlightEdges();
  highlightAdjacentNodes();
});
]]></script>
</svg>
