<?xml version="1.0" encoding="UTF-8" standalone="no"?>
<!DOCTYPE svg PUBLIC "-//W3C//DTD SVG 1.1//EN"
 "http://www.w3.org/Graphics/SVG/1.1/DTD/svg11.dtd">
<!-- Generated by graphviz version 2.43.0 (0)
 -->
<!-- Title: log_write Pages: 1 -->
<svg width="704pt" height="294pt"
 viewBox="0.00 0.00 704.00 293.83" xmlns="http://www.w3.org/2000/svg" xmlns:xlink="http://www.w3.org/1999/xlink">
<g id="graph0" class="graph" transform="scale(1 1) rotate(0) translate(4 289.83)">
<title>log_write</title>
<!-- Node1 -->
<g id="Node000001" class="node">
<title>Node1</title>
<g id="a_Node000001"><a xlink:title=" ">
<polygon fill="#999999" stroke="#666666" points="696,-186.91 634,-186.91 634,-167.91 696,-167.91 696,-186.91"/>
<text text-anchor="middle" x="665" y="-174.91" font-family="Helvetica,sans-Serif" font-size="10.00">log_write</text>
</a>
</g>
</g>
<!-- Node2 -->
<g id="Node000002" class="node">
<title>Node2</title>
<g id="a_Node000002"><a xlink:href="fs_8c.html#a29272227722d57ff937caaffd03455a9" target="_top" xlink:title=" ">
<polygon fill="white" stroke="#666666" points="514.5,-262.91 468.5,-262.91 468.5,-243.91 514.5,-243.91 514.5,-262.91"/>
<text text-anchor="middle" x="491.5" y="-250.91" font-family="Helvetica,sans-Serif" font-size="10.00">balloc</text>
</a>
</g>
</g>
<!-- Node1&#45;&gt;Node2 -->
<g id="edge1_Node000001_Node000002" class="edge">
<title>Node1&#45;&gt;Node2</title>
<g id="a_edge1_Node000001_Node000002"><a xlink:title=" ">
<path fill="none" stroke="#63b8ff" d="M632.72,-191.28C598.32,-206.52 543.97,-230.6 514.04,-243.87"/>
<polygon fill="#63b8ff" stroke="#63b8ff" points="634.55,-194.29 642.28,-187.04 631.72,-187.89 634.55,-194.29"/>
</a>
</g>
</g>
<!-- Node3 -->
<g id="Node000003" class="node">
<title>Node3</title>
<g id="a_Node000003"><a xlink:href="fs_8c.html#a965e83e1fa9b15abf268784ce74181bb" target="_top" xlink:title=" ">
<polygon fill="white" stroke="#666666" points="429,-262.91 385,-262.91 385,-243.91 429,-243.91 429,-262.91"/>
<text text-anchor="middle" x="407" y="-250.91" font-family="Helvetica,sans-Serif" font-size="10.00">bmap</text>
</a>
</g>
</g>
<!-- Node1&#45;&gt;Node3 -->
<g id="edge23_Node000001_Node000003" class="edge">
<title>Node1&#45;&gt;Node3</title>
<g id="a_edge23_Node000001_Node000003"><a xlink:title=" ">
<path fill="none" stroke="#63b8ff" d="M656.85,-196.79C647.33,-219.43 628.09,-255.77 598,-271.41 542.58,-300.22 465.76,-276.84 429.1,-262.52"/>
<polygon fill="#63b8ff" stroke="#63b8ff" points="660.22,-197.79 660.65,-187.2 653.72,-195.21 660.22,-197.79"/>
</a>
</g>
</g>
<!-- Node11 -->
<g id="Node000011" class="node">
<title>Node11</title>
<g id="a_Node000011"><a xlink:href="fs_8c.html#a15858f4d8a4cc1def3d84d03c312836b" target="_top" xlink:title=" ">
<polygon fill="white" stroke="#666666" points="349,-186.91 305,-186.91 305,-167.91 349,-167.91 349,-186.91"/>
<text text-anchor="middle" x="327" y="-174.91" font-family="Helvetica,sans-Serif" font-size="10.00">writei</text>
</a>
</g>
</g>
<!-- Node1&#45;&gt;Node11 -->
<g id="edge31_Node000001_Node000011" class="edge">
<title>Node1&#45;&gt;Node11</title>
<g id="a_edge31_Node000001_Node000011"><a xlink:title=" ">
<path fill="none" stroke="#63b8ff" d="M623.87,-177.41C552.1,-177.41 404.12,-177.41 349.16,-177.41"/>
<polygon fill="#63b8ff" stroke="#63b8ff" points="623.89,-180.91 633.89,-177.41 623.89,-173.91 623.89,-180.91"/>
</a>
</g>
</g>
<!-- Node13 -->
<g id="Node000013" class="node">
<title>Node13</title>
<g id="a_Node000013"><a xlink:href="fs_8c.html#a2800a4b570ae39363cec0613dac92fd7" target="_top" xlink:title=" ">
<polygon fill="white" stroke="#666666" points="597,-110.91 555,-110.91 555,-91.91 597,-91.91 597,-110.91"/>
<text text-anchor="middle" x="576" y="-98.91" font-family="Helvetica,sans-Serif" font-size="10.00">bfree</text>
</a>
</g>
</g>
<!-- Node1&#45;&gt;Node13 -->
<g id="edge15_Node000001_Node000013" class="edge">
<title>Node1&#45;&gt;Node13</title>
<g id="a_edge15_Node000001_Node000013"><a xlink:title=" ">
<path fill="none" stroke="#63b8ff" d="M645.12,-160.92C627.64,-145.66 602.26,-123.48 587.93,-110.96"/>
<polygon fill="#63b8ff" stroke="#63b8ff" points="643.15,-163.85 652.98,-167.79 647.75,-158.57 643.15,-163.85"/>
</a>
</g>
</g>
<!-- Node18 -->
<g id="Node000018" class="node">
<title>Node18</title>
<g id="a_Node000018"><a xlink:href="fs_8c.html#ac93f607f4a954323f4c9ea485ca88538" target="_top" xlink:title=" ">
<polygon fill="white" stroke="#666666" points="598,-262.91 554,-262.91 554,-243.91 598,-243.91 598,-262.91"/>
<text text-anchor="middle" x="576" y="-250.91" font-family="Helvetica,sans-Serif" font-size="10.00">bzero</text>
</a>
</g>
</g>
<!-- Node1&#45;&gt;Node18 -->
<g id="edge24_Node000001_Node000018" class="edge">
<title>Node1&#45;&gt;Node18</title>
<g id="a_edge24_Node000001_Node000018"><a xlink:title=" ">
<path fill="none" stroke="#63b8ff" d="M645.12,-193.91C627.64,-209.17 602.26,-231.34 587.93,-243.87"/>
<polygon fill="#63b8ff" stroke="#63b8ff" points="647.75,-196.25 652.98,-187.04 643.15,-190.98 647.75,-196.25"/>
</a>
</g>
</g>
<!-- Node19 -->
<g id="Node000019" class="node">
<title>Node19</title>
<g id="a_Node000019"><a xlink:href="fs_8c.html#af95049367381647bc9487af49724b869" target="_top" xlink:title=" ">
<polygon fill="white" stroke="#666666" points="597.5,-73.91 554.5,-73.91 554.5,-54.91 597.5,-54.91 597.5,-73.91"/>
<text text-anchor="middle" x="576" y="-61.91" font-family="Helvetica,sans-Serif" font-size="10.00">ialloc</text>
</a>
</g>
</g>
<!-- Node1&#45;&gt;Node19 -->
<g id="edge26_Node000001_Node000019" class="edge">
<title>Node1&#45;&gt;Node19</title>
<g id="a_edge26_Node000001_Node000019"><a xlink:title=" ">
<path fill="none" stroke="#63b8ff" d="M653.14,-158.95C640.99,-139.02 620.1,-106.87 598,-82.41 595.42,-79.56 592.41,-76.74 589.48,-74.2"/>
<polygon fill="#63b8ff" stroke="#63b8ff" points="650.22,-160.88 658.37,-167.66 656.22,-157.28 650.22,-160.88"/>
</a>
</g>
</g>
<!-- Node20 -->
<g id="Node000020" class="node">
<title>Node20</title>
<g id="a_Node000020"><a xlink:href="fs_8c.html#a7220afa8e5f4bea540eb95879ea7df6e" target="_top" xlink:title=" ">
<polygon fill="white" stroke="#666666" points="518,-129.91 465,-129.91 465,-110.91 518,-110.91 518,-129.91"/>
<text text-anchor="middle" x="491.5" y="-117.91" font-family="Helvetica,sans-Serif" font-size="10.00">iupdate</text>
</a>
</g>
</g>
<!-- Node1&#45;&gt;Node20 -->
<g id="edge27_Node000001_Node000020" class="edge">
<title>Node1&#45;&gt;Node20</title>
<g id="a_edge27_Node000001_Node000020"><a xlink:title=" ">
<path fill="none" stroke="#63b8ff" d="M625.6,-164.65C592.85,-153.76 546.67,-138.42 518.21,-128.96"/>
<polygon fill="#63b8ff" stroke="#63b8ff" points="624.7,-168.04 635.29,-167.87 626.91,-161.4 624.7,-168.04"/>
</a>
</g>
</g>
<!-- Node2&#45;&gt;Node3 -->
<g id="edge2_Node000002_Node000003" class="edge">
<title>Node2&#45;&gt;Node3</title>
<g id="a_edge2_Node000002_Node000003"><a xlink:title=" ">
<path fill="none" stroke="#63b8ff" d="M458.16,-253.41C448.37,-253.41 437.88,-253.41 429.03,-253.41"/>
<polygon fill="#63b8ff" stroke="#63b8ff" points="458.39,-256.91 468.39,-253.41 458.39,-249.91 458.39,-256.91"/>
</a>
</g>
</g>
<!-- Node4 -->
<g id="Node000004" class="node">
<title>Node4</title>
<g id="a_Node000004"><a xlink:href="fs_8c.html#a3aba1fa9f6789d09356aec5b96d91fa8" target="_top" xlink:title=" ">
<polygon fill="white" stroke="#666666" points="347.5,-262.91 306.5,-262.91 306.5,-243.91 347.5,-243.91 347.5,-262.91"/>
<text text-anchor="middle" x="327" y="-250.91" font-family="Helvetica,sans-Serif" font-size="10.00">readi</text>
</a>
</g>
</g>
<!-- Node3&#45;&gt;Node4 -->
<g id="edge3_Node000003_Node000004" class="edge">
<title>Node3&#45;&gt;Node4</title>
<g id="a_edge3_Node000003_Node000004"><a xlink:title=" ">
<path fill="none" stroke="#63b8ff" d="M374.44,-253.41C365.4,-253.41 355.79,-253.41 347.68,-253.41"/>
<polygon fill="#63b8ff" stroke="#63b8ff" points="374.69,-256.91 384.69,-253.41 374.69,-249.91 374.69,-256.91"/>
</a>
</g>
</g>
<!-- Node3&#45;&gt;Node11 -->
<g id="edge12_Node000003_Node000011" class="edge">
<title>Node3&#45;&gt;Node11</title>
<g id="a_edge12_Node000003_Node000011"><a xlink:title=" ">
<path fill="none" stroke="#63b8ff" d="M388.69,-236.55C373.14,-221.39 350.83,-199.66 338.04,-187.2"/>
<polygon fill="#63b8ff" stroke="#63b8ff" points="386.52,-239.32 396.12,-243.79 391.4,-234.3 386.52,-239.32"/>
</a>
</g>
</g>
<!-- Node5 -->
<g id="Node000005" class="node">
<title>Node5</title>
<g id="a_Node000005"><a xlink:href="fs_8c.html#a69a135a0e8a06d9f306d77ebc0c1f7a0" target="_top" xlink:title=" ">
<polygon fill="white" stroke="#666666" points="163.5,-206.91 116.5,-206.91 116.5,-187.91 163.5,-187.91 163.5,-206.91"/>
<text text-anchor="middle" x="140" y="-194.91" font-family="Helvetica,sans-Serif" font-size="10.00">dirlink</text>
</a>
</g>
</g>
<!-- Node4&#45;&gt;Node5 -->
<g id="edge4_Node000004_Node000005" class="edge">
<title>Node4&#45;&gt;Node5</title>
<g id="a_edge4_Node000004_Node000005"><a xlink:title=" ">
<path fill="none" stroke="#63b8ff" d="M296.95,-266.57C270.67,-276.44 231.54,-285.97 201,-271.41 172.63,-257.89 153.32,-223.68 145.25,-206.94"/>
<polygon fill="#63b8ff" stroke="#63b8ff" points="298.35,-269.78 306.34,-262.82 295.76,-263.28 298.35,-269.78"/>
</a>
</g>
</g>
<!-- Node6 -->
<g id="Node000006" class="node">
<title>Node6</title>
<g id="a_Node000006"><a xlink:href="fs_8c.html#a5341068f021beac8cf0032b97d231e6f" target="_top" xlink:title=" ">
<polygon fill="white" stroke="#666666" points="266,-225.91 204,-225.91 204,-206.91 266,-206.91 266,-225.91"/>
<text text-anchor="middle" x="235" y="-213.91" font-family="Helvetica,sans-Serif" font-size="10.00">dirlookup</text>
</a>
</g>
</g>
<!-- Node4&#45;&gt;Node6 -->
<g id="edge5_Node000004_Node000006" class="edge">
<title>Node4&#45;&gt;Node6</title>
<g id="a_edge5_Node000004_Node000006"><a xlink:title=" ">
<path fill="none" stroke="#63b8ff" d="M297.15,-241.55C284.92,-236.53 270.87,-230.75 259.32,-226"/>
<polygon fill="#63b8ff" stroke="#63b8ff" points="295.89,-244.82 306.47,-245.39 298.55,-238.35 295.89,-244.82"/>
</a>
</g>
</g>
<!-- Node10 -->
<g id="Node000010" class="node">
<title>Node10</title>
<g id="a_Node000010"><a xlink:href="file_8c.html#a1dc8c87c7e48bdaaf98e9c7047928f29" target="_top" xlink:title=" ">
<polygon fill="white" stroke="#666666" points="261.5,-262.91 208.5,-262.91 208.5,-243.91 261.5,-243.91 261.5,-262.91"/>
<text text-anchor="middle" x="235" y="-250.91" font-family="Helvetica,sans-Serif" font-size="10.00">fileread</text>
</a>
</g>
</g>
<!-- Node4&#45;&gt;Node10 -->
<g id="edge11_Node000004_Node000010" class="edge">
<title>Node4&#45;&gt;Node10</title>
<g id="a_edge11_Node000004_Node000010"><a xlink:title=" ">
<path fill="none" stroke="#63b8ff" d="M296.28,-253.41C285.08,-253.41 272.44,-253.41 261.65,-253.41"/>
<polygon fill="#63b8ff" stroke="#63b8ff" points="296.47,-256.91 306.47,-253.41 296.47,-249.91 296.47,-256.91"/>
</a>
</g>
</g>
<!-- Node6&#45;&gt;Node5 -->
<g id="edge6_Node000006_Node000005" class="edge">
<title>Node6&#45;&gt;Node5</title>
<g id="a_edge6_Node000006_Node000005"><a xlink:title=" ">
<path fill="none" stroke="#63b8ff" d="M193.73,-208.19C183.44,-206.08 172.73,-203.9 163.68,-202.05"/>
<polygon fill="#63b8ff" stroke="#63b8ff" points="193.31,-211.67 203.81,-210.25 194.71,-204.81 193.31,-211.67"/>
</a>
</g>
</g>
<!-- Node7 -->
<g id="Node000007" class="node">
<title>Node7</title>
<g id="a_Node000007"><a xlink:href="fs_8c.html#a0f085d02326c9dd34cb4e58133a7b948" target="_top" xlink:title=" ">
<polygon fill="white" stroke="#666666" points="165,-73.91 115,-73.91 115,-54.91 165,-54.91 165,-73.91"/>
<text text-anchor="middle" x="140" y="-61.91" font-family="Helvetica,sans-Serif" font-size="10.00">namex</text>
</a>
</g>
</g>
<!-- Node6&#45;&gt;Node7 -->
<g id="edge7_Node000006_Node000007" class="edge">
<title>Node6&#45;&gt;Node7</title>
<g id="a_edge7_Node000006_Node000007"><a xlink:title=" ">
<path fill="none" stroke="#63b8ff" d="M222.71,-197.97C202.76,-165.36 161.95,-98.65 146.82,-73.92"/>
<polygon fill="#63b8ff" stroke="#63b8ff" points="219.98,-200.2 228.18,-206.91 225.95,-196.55 219.98,-200.2"/>
</a>
</g>
</g>
<!-- Node8 -->
<g id="Node000008" class="node">
<title>Node8</title>
<g id="a_Node000008"><a xlink:href="fs_8c.html#a35c52ecf358097c17dcbbd5594acb41a" target="_top" xlink:title=" ">
<polygon fill="white" stroke="#666666" points="63,-110.91 16,-110.91 16,-91.91 63,-91.91 63,-110.91"/>
<text text-anchor="middle" x="39.5" y="-98.91" font-family="Helvetica,sans-Serif" font-size="10.00">namei</text>
</a>
</g>
</g>
<!-- Node7&#45;&gt;Node8 -->
<g id="edge8_Node000007_Node000008" class="edge">
<title>Node7&#45;&gt;Node8</title>
<g id="a_edge8_Node000007_Node000008"><a xlink:title=" ">
<path fill="none" stroke="#63b8ff" d="M105.23,-77.1C91.41,-82.29 75.77,-88.16 63.33,-92.84"/>
<polygon fill="#63b8ff" stroke="#63b8ff" points="106.77,-80.26 114.9,-73.47 104.31,-73.71 106.77,-80.26"/>
</a>
</g>
</g>
<!-- Node9 -->
<g id="Node000009" class="node">
<title>Node9</title>
<g id="a_Node000009"><a xlink:href="fs_8c.html#ade44726f2aed2af27fa0df5f63f9e688" target="_top" xlink:title=" ">
<polygon fill="white" stroke="#666666" points="79,-73.91 0,-73.91 0,-54.91 79,-54.91 79,-73.91"/>
<text text-anchor="middle" x="39.5" y="-61.91" font-family="Helvetica,sans-Serif" font-size="10.00">nameiparent</text>
</a>
</g>
</g>
<!-- Node7&#45;&gt;Node9 -->
<g id="edge9_Node000007_Node000009" class="edge">
<title>Node7&#45;&gt;Node9</title>
<g id="a_edge9_Node000007_Node000009"><a xlink:title=" ">
<path fill="none" stroke="#63b8ff" d="M104.87,-57.96C96.63,-57.63 87.76,-57.58 79.31,-57.8"/>
<polygon fill="#63b8ff" stroke="#63b8ff" points="104.72,-61.45 114.9,-58.52 105.12,-54.46 104.72,-61.45"/>
</a>
</g>
</g>
<!-- Node9&#45;&gt;Node7 -->
<g id="edge10_Node000009_Node000007" class="edge">
<title>Node9&#45;&gt;Node7</title>
<g id="a_edge10_Node000009_Node000007"><a xlink:title=" ">
<path fill="none" stroke="#63b8ff" d="M89.58,-71.16C98.39,-71.17 107.21,-70.88 114.9,-70.31"/>
<polygon fill="#63b8ff" stroke="#63b8ff" points="89.36,-67.66 79.31,-71.03 89.27,-74.66 89.36,-67.66"/>
</a>
</g>
</g>
<!-- Node11&#45;&gt;Node5 -->
<g id="edge13_Node000011_Node000005" class="edge">
<title>Node11&#45;&gt;Node5</title>
<g id="a_edge13_Node000011_Node000005"><a xlink:title=" ">
<path fill="none" stroke="#63b8ff" d="M294.52,-180.82C257.38,-184.83 196.53,-191.41 163.7,-194.96"/>
<polygon fill="#63b8ff" stroke="#63b8ff" points="295.21,-184.26 304.78,-179.71 294.46,-177.3 295.21,-184.26"/>
</a>
</g>
</g>
<!-- Node12 -->
<g id="Node000012" class="node">
<title>Node12</title>
<g id="a_Node000012"><a xlink:href="file_8c.html#ab8de757a0a9f58dcc6511ea5e46ebb88" target="_top" xlink:title=" ">
<polygon fill="white" stroke="#666666" points="263,-149.91 207,-149.91 207,-130.91 263,-130.91 263,-149.91"/>
<text text-anchor="middle" x="235" y="-137.91" font-family="Helvetica,sans-Serif" font-size="10.00">filewrite</text>
</a>
</g>
</g>
<!-- Node11&#45;&gt;Node12 -->
<g id="edge14_Node000011_Node000012" class="edge">
<title>Node11&#45;&gt;Node12</title>
<g id="a_edge14_Node000011_Node000012"><a xlink:title=" ">
<path fill="none" stroke="#63b8ff" d="M295.23,-164.77C283.5,-159.94 270.33,-154.53 259.39,-150.03"/>
<polygon fill="#63b8ff" stroke="#63b8ff" points="294.09,-168.08 304.67,-168.65 296.75,-161.61 294.09,-168.08"/>
</a>
</g>
</g>
<!-- Node14 -->
<g id="Node000014" class="node">
<title>Node14</title>
<g id="a_Node000014"><a xlink:href="fs_8c.html#a7c42ba96035fb59aef87372552b1a661" target="_top" xlink:title=" ">
<polygon fill="white" stroke="#666666" points="429,-72.91 385,-72.91 385,-53.91 429,-53.91 429,-72.91"/>
<text text-anchor="middle" x="407" y="-60.91" font-family="Helvetica,sans-Serif" font-size="10.00">itrunc</text>
</a>
</g>
</g>
<!-- Node13&#45;&gt;Node14 -->
<g id="edge16_Node000013_Node000014" class="edge">
<title>Node13&#45;&gt;Node14</title>
<g id="a_edge16_Node000013_Node000014"><a xlink:title=" ">
<path fill="none" stroke="#63b8ff" d="M544.73,-94.53C511.26,-86.91 458.21,-74.84 429,-68.19"/>
<polygon fill="#63b8ff" stroke="#63b8ff" points="544.33,-98.02 554.86,-96.83 545.88,-91.2 544.33,-98.02"/>
</a>
</g>
</g>
<!-- Node15 -->
<g id="Node000015" class="node">
<title>Node15</title>
<g id="a_Node000015"><a xlink:href="fs_8c.html#ab3c447f135c68e4c3c1f8d5866f6e77b" target="_top" xlink:title=" ">
<polygon fill="white" stroke="#666666" points="344.5,-72.91 309.5,-72.91 309.5,-53.91 344.5,-53.91 344.5,-72.91"/>
<text text-anchor="middle" x="327" y="-60.91" font-family="Helvetica,sans-Serif" font-size="10.00">iput</text>
</a>
</g>
</g>
<!-- Node14&#45;&gt;Node15 -->
<g id="edge17_Node000014_Node000015" class="edge">
<title>Node14&#45;&gt;Node15</title>
<g id="a_edge17_Node000014_Node000015"><a xlink:title=" ">
<path fill="none" stroke="#63b8ff" d="M374.42,-63.41C364.2,-63.41 353.27,-63.41 344.59,-63.41"/>
<polygon fill="#63b8ff" stroke="#63b8ff" points="374.69,-66.91 384.69,-63.41 374.69,-59.91 374.69,-66.91"/>
</a>
</g>
</g>
<!-- Node15&#45;&gt;Node5 -->
<g id="edge18_Node000015_Node000005" class="edge">
<title>Node15&#45;&gt;Node5</title>
<g id="a_edge18_Node000015_Node000005"><a xlink:title=" ">
<path fill="none" stroke="#63b8ff" d="M299.46,-71.64C272.7,-80.82 231.17,-97.59 201,-121.41 176.46,-140.79 155.91,-172.13 146.5,-187.82"/>
<polygon fill="#63b8ff" stroke="#63b8ff" points="300.88,-74.86 309.27,-68.39 298.68,-68.21 300.88,-74.86"/>
</a>
</g>
</g>
<!-- Node15&#45;&gt;Node7 -->
<g id="edge22_Node000015_Node000007" class="edge">
<title>Node15&#45;&gt;Node7</title>
<g id="a_edge22_Node000015_Node000007"><a xlink:title=" ">
<path fill="none" stroke="#63b8ff" d="M313.49,-45.47C303.24,-32.45 287.44,-15.86 269,-8.41 240.98,2.9 229.12,2.67 201,-8.41 177.4,-17.71 157.61,-41.16 147.74,-54.58"/>
<polygon fill="#63b8ff" stroke="#63b8ff" points="310.89,-47.83 319.67,-53.76 316.5,-43.65 310.89,-47.83"/>
</a>
</g>
</g>
<!-- Node16 -->
<g id="Node000016" class="node">
<title>Node16</title>
<g id="a_Node000016"><a xlink:href="file_8c.html#ae557c81ab89c24219146144bb6adaa2c" target="_top" xlink:title=" ">
<polygon fill="white" stroke="#666666" points="263.5,-36.91 206.5,-36.91 206.5,-17.91 263.5,-17.91 263.5,-36.91"/>
<text text-anchor="middle" x="235" y="-24.91" font-family="Helvetica,sans-Serif" font-size="10.00">fileclose</text>
</a>
</g>
</g>
<!-- Node15&#45;&gt;Node16 -->
<g id="edge19_Node000015_Node000016" class="edge">
<title>Node15&#45;&gt;Node16</title>
<g id="a_edge19_Node000015_Node000016"><a xlink:title=" ">
<path fill="none" stroke="#63b8ff" d="M299.97,-53C287.32,-47.94 272.22,-41.9 259.86,-36.96"/>
<polygon fill="#63b8ff" stroke="#63b8ff" points="298.91,-56.35 309.49,-56.81 301.51,-49.85 298.91,-56.35"/>
</a>
</g>
</g>
<!-- Node17 -->
<g id="Node000017" class="node">
<title>Node17</title>
<g id="a_Node000017"><a xlink:href="fs_8c.html#a207b3008bae35596c55ec7c4fc6875eb" target="_top" xlink:title=" ">
<polygon fill="white" stroke="#666666" points="269,-73.91 201,-73.91 201,-54.91 269,-54.91 269,-73.91"/>
<text text-anchor="middle" x="235" y="-61.91" font-family="Helvetica,sans-Serif" font-size="10.00">iunlockput</text>
</a>
</g>
</g>
<!-- Node15&#45;&gt;Node17 -->
<g id="edge20_Node000015_Node000017" class="edge">
<title>Node15&#45;&gt;Node17</title>
<g id="a_edge20_Node000015_Node000017"><a xlink:title=" ">
<path fill="none" stroke="#63b8ff" d="M299.46,-63.71C289.97,-63.81 279.16,-63.93 269.18,-64.05"/>
<polygon fill="#63b8ff" stroke="#63b8ff" points="299.53,-67.21 309.49,-63.6 299.45,-60.21 299.53,-67.21"/>
</a>
</g>
</g>
<!-- Node17&#45;&gt;Node7 -->
<g id="edge21_Node000017_Node000007" class="edge">
<title>Node17&#45;&gt;Node7</title>
<g id="a_edge21_Node000017_Node000007"><a xlink:title=" ">
<path fill="none" stroke="#63b8ff" d="M190.77,-64.41C181.97,-64.41 173.02,-64.41 165.17,-64.41"/>
<polygon fill="#63b8ff" stroke="#63b8ff" points="190.95,-67.91 200.95,-64.41 190.95,-60.91 190.95,-67.91"/>
</a>
</g>
</g>
<!-- Node18&#45;&gt;Node2 -->
<g id="edge25_Node000018_Node000002" class="edge">
<title>Node18&#45;&gt;Node2</title>
<g id="a_edge25_Node000018_Node000002"><a xlink:title=" ">
<path fill="none" stroke="#63b8ff" d="M543.64,-253.41C533.94,-253.41 523.47,-253.41 514.54,-253.41"/>
<polygon fill="#63b8ff" stroke="#63b8ff" points="543.75,-256.91 553.75,-253.41 543.75,-249.91 543.75,-256.91"/>
</a>
</g>
</g>
<!-- Node20&#45;&gt;Node11 -->
<g id="edge30_Node000020_Node000011" class="edge">
<title>Node20&#45;&gt;Node11</title>
<g id="a_edge30_Node000020_Node000011"><a xlink:title=" ">
<path fill="none" stroke="#63b8ff" d="M455.25,-132.78C423.04,-144.08 376.43,-160.42 349.48,-169.88"/>
<polygon fill="#63b8ff" stroke="#63b8ff" points="456.47,-136.06 464.75,-129.45 454.16,-129.45 456.47,-136.06"/>
</a>
</g>
</g>
<!-- Node20&#45;&gt;Node14 -->
<g id="edge29_Node000020_Node000014" class="edge">
<title>Node20&#45;&gt;Node14</title>
<g id="a_edge29_Node000020_Node000014"><a xlink:title=" ">
<path fill="none" stroke="#63b8ff" d="M467.93,-104.82C453.17,-94.62 434.36,-81.63 421.79,-72.94"/>
<polygon fill="#63b8ff" stroke="#63b8ff" points="466.29,-107.94 476.5,-110.74 470.27,-102.18 466.29,-107.94"/>
</a>
</g>
</g>
<!-- Node20&#45;&gt;Node15 -->
<g id="edge28_Node000020_Node000015" class="edge">
<title>Node20&#45;&gt;Node15</title>
<g id="a_edge28_Node000020_Node000015"><a xlink:title=" ">
<path fill="none" stroke="#63b8ff" d="M455.13,-108.01C420.92,-96.01 370.57,-78.35 344.7,-69.27"/>
<polygon fill="#63b8ff" stroke="#63b8ff" points="454.16,-111.37 464.75,-111.38 456.47,-104.77 454.16,-111.37"/>
</a>
</g>
</g>
</g>
</svg>
