<?xml version="1.0" encoding="UTF-8" standalone="no"?>
<!DOCTYPE svg PUBLIC "-//W3C//DTD SVG 1.1//EN"
 "http://www.w3.org/Graphics/SVG/1.1/DTD/svg11.dtd">
<!-- Generated by graphviz version 2.43.0 (0)
 -->
<!-- Title: initlog Pages: 1 -->
<svg width="463pt" height="138pt"
 viewBox="0.00 0.00 463.00 138.00" xmlns="http://www.w3.org/2000/svg" xmlns:xlink="http://www.w3.org/1999/xlink">
<g id="graph0" class="graph" transform="scale(1 1) rotate(0) translate(4 134)">
<title>initlog</title>
<!-- Node1 -->
<g id="Node000001" class="node">
<title>Node1</title>
<g id="a_Node000001"><a xlink:title=" ">
<polygon fill="#999999" stroke="#666666" points="47,-93 0,-93 0,-74 47,-74 47,-93"/>
<text text-anchor="middle" x="23.5" y="-81" font-family="Helvetica,sans-Serif" font-size="10.00">initlog</text>
</a>
</g>
</g>
<!-- Node2 -->
<g id="Node000002" class="node">
<title>Node2</title>
<g id="a_Node000002"><a xlink:href="fs_8c.html#aff0080b2133027be2e525ca088b40e78" target="_top" xlink:title=" ">
<polygon fill="white" stroke="#666666" points="284.5,-130 234.5,-130 234.5,-111 284.5,-111 284.5,-130"/>
<text text-anchor="middle" x="259.5" y="-118" font-family="Helvetica,sans-Serif" font-size="10.00">readsb</text>
</a>
</g>
</g>
<!-- Node1&#45;&gt;Node2 -->
<g id="edge1_Node000001_Node000002" class="edge">
<title>Node1&#45;&gt;Node2</title>
<g id="a_edge1_Node000001_Node000002"><a xlink:title=" ">
<path fill="none" stroke="#63b8ff" d="M47.36,-87.12C88.72,-93.65 176.14,-107.48 224.51,-115.13"/>
<polygon fill="#63b8ff" stroke="#63b8ff" points="224.07,-118.6 234.5,-116.7 225.17,-111.69 224.07,-118.6"/>
</a>
</g>
</g>
<!-- Node6 -->
<g id="Node000006" class="node">
<title>Node6</title>
<g id="a_Node000006"><a xlink:href="log_8c.html#a18cdf83ef674be145df14b83500f1d1b" target="_top" xlink:title=" ">
<polygon fill="white" stroke="#666666" points="185,-74 83,-74 83,-55 185,-55 185,-74"/>
<text text-anchor="middle" x="134" y="-62" font-family="Helvetica,sans-Serif" font-size="10.00">recover_from_log</text>
</a>
</g>
</g>
<!-- Node1&#45;&gt;Node6 -->
<g id="edge5_Node000001_Node000006" class="edge">
<title>Node1&#45;&gt;Node6</title>
<g id="a_edge5_Node000001_Node000006"><a xlink:title=" ">
<path fill="none" stroke="#63b8ff" d="M47.25,-79.52C54.82,-78.19 63.65,-76.64 72.71,-75.06"/>
<polygon fill="#63b8ff" stroke="#63b8ff" points="73.33,-78.5 82.58,-73.33 72.12,-71.61 73.33,-78.5"/>
</a>
</g>
</g>
<!-- Node3 -->
<g id="Node000003" class="node">
<title>Node3</title>
<g id="a_Node000003"><a xlink:href="bio_8c.html#a30b8d2ef2300ed8e3d879a428fe39898" target="_top" xlink:title=" ">
<polygon fill="white" stroke="#666666" points="379.5,-56 335.5,-56 335.5,-37 379.5,-37 379.5,-56"/>
<text text-anchor="middle" x="357.5" y="-44" font-family="Helvetica,sans-Serif" font-size="10.00">bread</text>
</a>
</g>
</g>
<!-- Node2&#45;&gt;Node3 -->
<g id="edge2_Node000002_Node000003" class="edge">
<title>Node2&#45;&gt;Node3</title>
<g id="a_edge2_Node000002_Node000003"><a xlink:title=" ">
<path fill="none" stroke="#63b8ff" d="M283.83,-110.87C288.7,-108.44 293.66,-105.62 298,-102.5 316.63,-89.11 317.22,-81.14 334,-65.5 334.82,-64.73 335.67,-63.96 336.53,-63.18"/>
<polygon fill="#63b8ff" stroke="#63b8ff" points="339.15,-65.55 344.4,-56.35 334.56,-60.26 339.15,-65.55"/>
</a>
</g>
</g>
<!-- Node5 -->
<g id="Node000005" class="node">
<title>Node5</title>
<g id="a_Node000005"><a xlink:href="bio_8c.html#ab5335aeb503731104314321a78a6d727" target="_top" xlink:title=" ">
<polygon fill="white" stroke="#666666" points="381,-93 334,-93 334,-74 381,-74 381,-93"/>
<text text-anchor="middle" x="357.5" y="-81" font-family="Helvetica,sans-Serif" font-size="10.00">brelse</text>
</a>
</g>
</g>
<!-- Node2&#45;&gt;Node5 -->
<g id="edge4_Node000002_Node000005" class="edge">
<title>Node2&#45;&gt;Node5</title>
<g id="a_edge4_Node000002_Node000005"><a xlink:title=" ">
<path fill="none" stroke="#63b8ff" d="M284.72,-111.16C296.76,-106.52 311.47,-100.85 324.43,-95.86"/>
<polygon fill="#63b8ff" stroke="#63b8ff" points="325.86,-99.06 333.93,-92.2 323.34,-92.53 325.86,-99.06"/>
</a>
</g>
</g>
<!-- Node4 -->
<g id="Node000004" class="node">
<title>Node4</title>
<g id="a_Node000004"><a xlink:href="bio_8c.html#a69dcd3ce86d958b4024c6746263f3f5b" target="_top" xlink:title=" ">
<polygon fill="white" stroke="#666666" points="455,-56 417,-56 417,-37 455,-37 455,-56"/>
<text text-anchor="middle" x="436" y="-44" font-family="Helvetica,sans-Serif" font-size="10.00">bget</text>
</a>
</g>
</g>
<!-- Node3&#45;&gt;Node4 -->
<g id="edge3_Node000003_Node000004" class="edge">
<title>Node3&#45;&gt;Node4</title>
<g id="a_edge3_Node000003_Node000004"><a xlink:title=" ">
<path fill="none" stroke="#63b8ff" d="M379.81,-46.5C388.2,-46.5 397.95,-46.5 406.9,-46.5"/>
<polygon fill="#63b8ff" stroke="#63b8ff" points="406.91,-50 416.91,-46.5 406.91,-43 406.91,-50"/>
</a>
</g>
</g>
<!-- Node7 -->
<g id="Node000007" class="node">
<title>Node7</title>
<g id="a_Node000007"><a xlink:href="log_8c.html#ab5eaeac1ab988530dcda4fd57a634df0" target="_top" xlink:title=" ">
<polygon fill="white" stroke="#666666" points="298,-19 221,-19 221,0 298,0 298,-19"/>
<text text-anchor="middle" x="259.5" y="-7" font-family="Helvetica,sans-Serif" font-size="10.00">install_trans</text>
</a>
</g>
</g>
<!-- Node6&#45;&gt;Node7 -->
<g id="edge6_Node000006_Node000007" class="edge">
<title>Node6&#45;&gt;Node7</title>
<g id="a_edge6_Node000006_Node000007"><a xlink:title=" ">
<path fill="none" stroke="#63b8ff" d="M156.51,-54.92C176.14,-46.18 205.37,-33.16 227.51,-23.3"/>
<polygon fill="#63b8ff" stroke="#63b8ff" points="229.11,-26.42 236.82,-19.16 226.26,-20.03 229.11,-26.42"/>
</a>
</g>
</g>
<!-- Node9 -->
<g id="Node000009" class="node">
<title>Node9</title>
<g id="a_Node000009"><a xlink:href="log_8c.html#a608ce9e072cf1640900437d6b59ca181" target="_top" xlink:title=" ">
<polygon fill="white" stroke="#666666" points="293.5,-93 225.5,-93 225.5,-74 293.5,-74 293.5,-93"/>
<text text-anchor="middle" x="259.5" y="-81" font-family="Helvetica,sans-Serif" font-size="10.00">read_head</text>
</a>
</g>
</g>
<!-- Node6&#45;&gt;Node9 -->
<g id="edge10_Node000006_Node000009" class="edge">
<title>Node6&#45;&gt;Node9</title>
<g id="a_edge10_Node000006_Node000009"><a xlink:title=" ">
<path fill="none" stroke="#63b8ff" d="M185.23,-72.23C195.14,-73.75 205.46,-75.34 215.11,-76.83"/>
<polygon fill="#63b8ff" stroke="#63b8ff" points="214.87,-80.33 225.28,-78.39 215.93,-73.41 214.87,-80.33"/>
</a>
</g>
</g>
<!-- Node10 -->
<g id="Node000010" class="node">
<title>Node10</title>
<g id="a_Node000010"><a xlink:href="log_8c.html#a34322134c00d3e9ad7fb48a7baa9a4c5" target="_top" xlink:title=" ">
<polygon fill="white" stroke="#666666" points="295,-56 224,-56 224,-37 295,-37 295,-56"/>
<text text-anchor="middle" x="259.5" y="-44" font-family="Helvetica,sans-Serif" font-size="10.00">write_head</text>
</a>
</g>
</g>
<!-- Node6&#45;&gt;Node10 -->
<g id="edge13_Node000006_Node000010" class="edge">
<title>Node6&#45;&gt;Node10</title>
<g id="a_edge13_Node000006_Node000010"><a xlink:title=" ">
<path fill="none" stroke="#63b8ff" d="M185.23,-57.18C194.65,-55.81 204.43,-54.38 213.66,-53.03"/>
<polygon fill="#63b8ff" stroke="#63b8ff" points="214.42,-56.46 223.81,-51.56 213.41,-49.53 214.42,-56.46"/>
</a>
</g>
</g>
<!-- Node7&#45;&gt;Node3 -->
<g id="edge7_Node000007_Node000003" class="edge">
<title>Node7&#45;&gt;Node3</title>
<g id="a_edge7_Node000007_Node000003"><a xlink:title=" ">
<path fill="none" stroke="#63b8ff" d="M285.22,-19.03C297.62,-23.81 312.75,-29.64 325.87,-34.7"/>
<polygon fill="#63b8ff" stroke="#63b8ff" points="324.85,-38.05 335.44,-38.38 327.37,-31.52 324.85,-38.05"/>
</a>
</g>
</g>
<!-- Node7&#45;&gt;Node5 -->
<g id="edge8_Node000007_Node000005" class="edge">
<title>Node7&#45;&gt;Node5</title>
<g id="a_edge8_Node000007_Node000005"><a xlink:title=" ">
<path fill="none" stroke="#63b8ff" d="M283.86,-19.08C288.73,-21.52 293.68,-24.35 298,-27.5 316.8,-41.21 316.88,-49.75 334,-65.5 334.68,-66.12 335.37,-66.75 336.08,-67.37"/>
<polygon fill="#63b8ff" stroke="#63b8ff" points="333.95,-70.16 343.87,-73.89 338.45,-64.79 333.95,-70.16"/>
</a>
</g>
</g>
<!-- Node8 -->
<g id="Node000008" class="node">
<title>Node8</title>
<g id="a_Node000008"><a xlink:href="bio_8c.html#a63c899c13b176ddf80064d32225e1298" target="_top" xlink:title=" ">
<polygon fill="white" stroke="#666666" points="381,-19 334,-19 334,0 381,0 381,-19"/>
<text text-anchor="middle" x="357.5" y="-7" font-family="Helvetica,sans-Serif" font-size="10.00">bwrite</text>
</a>
</g>
</g>
<!-- Node7&#45;&gt;Node8 -->
<g id="edge9_Node000007_Node000008" class="edge">
<title>Node7&#45;&gt;Node8</title>
<g id="a_edge9_Node000007_Node000008"><a xlink:title=" ">
<path fill="none" stroke="#63b8ff" d="M298.17,-9.5C306.66,-9.5 315.61,-9.5 323.88,-9.5"/>
<polygon fill="#63b8ff" stroke="#63b8ff" points="323.9,-13 333.9,-9.5 323.9,-6 323.9,-13"/>
</a>
</g>
</g>
<!-- Node9&#45;&gt;Node3 -->
<g id="edge11_Node000009_Node000003" class="edge">
<title>Node9&#45;&gt;Node3</title>
<g id="a_edge11_Node000009_Node000003"><a xlink:title=" ">
<path fill="none" stroke="#63b8ff" d="M285.22,-73.97C297.62,-69.19 312.75,-63.36 325.87,-58.3"/>
<polygon fill="#63b8ff" stroke="#63b8ff" points="327.37,-61.48 335.44,-54.62 324.85,-54.95 327.37,-61.48"/>
</a>
</g>
</g>
<!-- Node9&#45;&gt;Node5 -->
<g id="edge12_Node000009_Node000005" class="edge">
<title>Node9&#45;&gt;Node5</title>
<g id="a_edge12_Node000009_Node000005"><a xlink:title=" ">
<path fill="none" stroke="#63b8ff" d="M293.54,-83.5C303.34,-83.5 314.06,-83.5 323.83,-83.5"/>
<polygon fill="#63b8ff" stroke="#63b8ff" points="323.98,-87 333.98,-83.5 323.98,-80 323.98,-87"/>
</a>
</g>
</g>
<!-- Node10&#45;&gt;Node3 -->
<g id="edge14_Node000010_Node000003" class="edge">
<title>Node10&#45;&gt;Node3</title>
<g id="a_edge14_Node000010_Node000003"><a xlink:title=" ">
<path fill="none" stroke="#63b8ff" d="M295.16,-46.5C304.91,-46.5 315.47,-46.5 325.03,-46.5"/>
<polygon fill="#63b8ff" stroke="#63b8ff" points="325.3,-50 335.3,-46.5 325.3,-43 325.3,-50"/>
</a>
</g>
</g>
<!-- Node10&#45;&gt;Node5 -->
<g id="edge15_Node000010_Node000005" class="edge">
<title>Node10&#45;&gt;Node5</title>
<g id="a_edge15_Node000010_Node000005"><a xlink:title=" ">
<path fill="none" stroke="#63b8ff" d="M285.22,-56.03C297.18,-60.64 311.67,-66.22 324.46,-71.15"/>
<polygon fill="#63b8ff" stroke="#63b8ff" points="323.25,-74.43 333.83,-74.76 325.76,-67.9 323.25,-74.43"/>
</a>
</g>
</g>
<!-- Node10&#45;&gt;Node8 -->
<g id="edge16_Node000010_Node000008" class="edge">
<title>Node10&#45;&gt;Node8</title>
<g id="a_edge16_Node000010_Node000008"><a xlink:title=" ">
<path fill="none" stroke="#63b8ff" d="M285.22,-36.97C297.18,-32.36 311.67,-26.78 324.46,-21.85"/>
<polygon fill="#63b8ff" stroke="#63b8ff" points="325.76,-25.1 333.83,-18.24 323.25,-18.57 325.76,-25.1"/>
</a>
</g>
</g>
</g>
</svg>
