<?xml version="1.0" encoding="UTF-8" standalone="no"?>
<!DOCTYPE svg PUBLIC "-//W3C//DTD SVG 1.1//EN"
 "http://www.w3.org/Graphics/SVG/1.1/DTD/svg11.dtd">
<!-- Generated by graphviz version 2.43.0 (0)
 -->
<!-- Title: write_log Pages: 1 -->
<svg width="227pt" height="101pt"
 viewBox="0.00 0.00 227.00 101.00" xmlns="http://www.w3.org/2000/svg" xmlns:xlink="http://www.w3.org/1999/xlink">

<svg id="main" version="1.1" xmlns="http://www.w3.org/2000/svg" xmlns:xlink="http://www.w3.org/1999/xlink" xml:space="preserve" onload="init(evt)">
<style type="text/css"><![CDATA[
.node, .edge {opacity: 0.7;}
.node.selected, .edge.selected {opacity: 1;}
.edge:hover path { stroke: red; }
.edge:hover polygon { stroke: red; fill: red; }
]]></style>
<script type="application/ecmascript" xlink:href="svg.min.js"/>
<svg id="graph" class="graph">
<g id="graph0" class="graph" transform="scale(1 1) rotate(0) translate(4 97)">
<title>write_log</title>
<!-- Node1 -->
<g id="Node000001" class="node">
<title>Node1</title>
<g id="a_Node000001"><a xlink:title=" ">
<polygon fill="#999999" stroke="#666666" points="62,-56 0,-56 0,-37 62,-37 62,-56"/>
<text text-anchor="middle" x="31" y="-44" font-family="Helvetica,sans-Serif" font-size="10.00">write_log</text>
</a>
</g>
</g>
<!-- Node2 -->
<g id="Node000002" class="node">
<title>Node2</title>
<g id="a_Node000002"><a xlink:href="bio_8c.html#a30b8d2ef2300ed8e3d879a428fe39898" target="_top" xlink:title=" ">
<polygon fill="white" stroke="#666666" points="143.5,-93 99.5,-93 99.5,-74 143.5,-74 143.5,-93"/>
<text text-anchor="middle" x="121.5" y="-81" font-family="Helvetica,sans-Serif" font-size="10.00">bread</text>
</a>
</g>
</g>
<!-- Node1&#45;&gt;Node2 -->
<g id="edge1_Node000001_Node000002" class="edge">
<title>Node1&#45;&gt;Node2</title>
<g id="a_edge1_Node000001_Node000002"><a xlink:title=" ">
<path fill="none" stroke="#63b8ff" d="M54.79,-56.03C65.51,-60.51 78.46,-65.92 90.01,-70.75"/>
<polygon fill="#63b8ff" stroke="#63b8ff" points="88.73,-74.01 99.31,-74.64 91.43,-67.55 88.73,-74.01"/>
</a>
</g>
</g>
<!-- Node4 -->
<g id="Node000004" class="node">
<title>Node4</title>
<g id="a_Node000004"><a xlink:href="bio_8c.html#ab5335aeb503731104314321a78a6d727" target="_top" xlink:title=" ">
<polygon fill="white" stroke="#666666" points="145,-56 98,-56 98,-37 145,-37 145,-56"/>
<text text-anchor="middle" x="121.5" y="-44" font-family="Helvetica,sans-Serif" font-size="10.00">brelse</text>
</a>
</g>
</g>
<!-- Node1&#45;&gt;Node4 -->
<g id="edge3_Node000001_Node000004" class="edge">
<title>Node1&#45;&gt;Node4</title>
<g id="a_edge3_Node000001_Node000004"><a xlink:title=" ">
<path fill="none" stroke="#63b8ff" d="M62.46,-46.5C70.61,-46.5 79.46,-46.5 87.74,-46.5"/>
<polygon fill="#63b8ff" stroke="#63b8ff" points="87.82,-50 97.82,-46.5 87.82,-43 87.82,-50"/>
</a>
</g>
</g>
<!-- Node5 -->
<g id="Node000005" class="node">
<title>Node5</title>
<g id="a_Node000005"><a xlink:href="bio_8c.html#a63c899c13b176ddf80064d32225e1298" target="_top" xlink:title=" ">
<polygon fill="white" stroke="#666666" points="145,-19 98,-19 98,0 145,0 145,-19"/>
<text text-anchor="middle" x="121.5" y="-7" font-family="Helvetica,sans-Serif" font-size="10.00">bwrite</text>
</a>
</g>
</g>
<!-- Node1&#45;&gt;Node5 -->
<g id="edge4_Node000001_Node000005" class="edge">
<title>Node1&#45;&gt;Node5</title>
<g id="a_edge4_Node000001_Node000005"><a xlink:title=" ">
<path fill="none" stroke="#63b8ff" d="M54.79,-36.97C65.01,-32.7 77.25,-27.58 88.37,-22.93"/>
<polygon fill="#63b8ff" stroke="#63b8ff" points="89.91,-26.08 97.79,-19 87.21,-19.62 89.91,-26.08"/>
</a>
</g>
</g>
<!-- Node3 -->
<g id="Node000003" class="node">
<title>Node3</title>
<g id="a_Node000003"><a xlink:href="bio_8c.html#a69dcd3ce86d958b4024c6746263f3f5b" target="_top" xlink:title=" ">
<polygon fill="white" stroke="#666666" points="219,-93 181,-93 181,-74 219,-74 219,-93"/>
<text text-anchor="middle" x="200" y="-81" font-family="Helvetica,sans-Serif" font-size="10.00">bget</text>
</a>
</g>
</g>
<!-- Node2&#45;&gt;Node3 -->
<g id="edge2_Node000002_Node000003" class="edge">
<title>Node2&#45;&gt;Node3</title>
<g id="a_edge2_Node000002_Node000003"><a xlink:title=" ">
<path fill="none" stroke="#63b8ff" d="M143.81,-83.5C152.2,-83.5 161.95,-83.5 170.9,-83.5"/>
<polygon fill="#63b8ff" stroke="#63b8ff" points="170.91,-87 180.91,-83.5 170.91,-80 170.91,-87"/>
</a>
</g>
</g>
</g>
</svg>
</svg>

<style type='text/css'>
<![CDATA[
[data-mouse-over-selected='false'] { opacity: 0.7; }
[data-mouse-over-selected='true']  { opacity: 1.0; }
]]>
</style>
<script type="application/ecmascript"><![CDATA[
document.addEventListener('DOMContentLoaded', (event) => {
  highlightEdges();
  highlightAdjacentNodes();
});
]]></script>
</svg>
