<?xml version="1.0" encoding="UTF-8" standalone="no"?>
<!DOCTYPE svg PUBLIC "-//W3C//DTD SVG 1.1//EN"
 "http://www.w3.org/Graphics/SVG/1.1/DTD/svg11.dtd">
<!-- Generated by graphviz version 2.43.0 (0)
 -->
<!-- Title: install_trans Pages: 1 -->
<svg width="404pt" height="82pt"
 viewBox="0.00 0.00 404.00 82.00" xmlns="http://www.w3.org/2000/svg" xmlns:xlink="http://www.w3.org/1999/xlink">

<svg id="main" version="1.1" xmlns="http://www.w3.org/2000/svg" xmlns:xlink="http://www.w3.org/1999/xlink" xml:space="preserve" onload="init(evt)">
<style type="text/css"><![CDATA[
.node, .edge {opacity: 0.7;}
.node.selected, .edge.selected {opacity: 1;}
.edge:hover path { stroke: red; }
.edge:hover polygon { stroke: red; fill: red; }
]]></style>
<script type="application/ecmascript" xlink:href="svg.min.js"/>
<svg id="graph" class="graph">
<g id="graph0" class="graph" transform="scale(1 1) rotate(0) translate(4 78)">
<title>install_trans</title>
<!-- Node1 -->
<g id="Node000001" class="node">
<title>Node1</title>
<g id="a_Node000001"><a xlink:title=" ">
<polygon fill="#999999" stroke="#666666" points="396,-37 319,-37 319,-18 396,-18 396,-37"/>
<text text-anchor="middle" x="357.5" y="-25" font-family="Helvetica,sans-Serif" font-size="10.00">install_trans</text>
</a>
</g>
</g>
<!-- Node2 -->
<g id="Node000002" class="node">
<title>Node2</title>
<g id="a_Node000002"><a xlink:href="log_8c.html#a504ac82448623ae8ad27b97dbed82694" target="_top" xlink:title=" ">
<polygon fill="white" stroke="#666666" points="259,-56 205,-56 205,-37 259,-37 259,-56"/>
<text text-anchor="middle" x="232" y="-44" font-family="Helvetica,sans-Serif" font-size="10.00">commit</text>
</a>
</g>
</g>
<!-- Node1&#45;&gt;Node2 -->
<g id="edge1_Node000001_Node000002" class="edge">
<title>Node1&#45;&gt;Node2</title>
<g id="a_edge1_Node000001_Node000002"><a xlink:title=" ">
<path fill="none" stroke="#63b8ff" d="M308.55,-34.88C291.74,-37.46 273.5,-40.27 259.15,-42.48"/>
<polygon fill="#63b8ff" stroke="#63b8ff" points="309.42,-38.28 318.77,-33.3 308.36,-31.37 309.42,-38.28"/>
</a>
</g>
</g>
<!-- Node6 -->
<g id="Node000006" class="node">
<title>Node6</title>
<g id="a_Node000006"><a xlink:href="log_8c.html#a18cdf83ef674be145df14b83500f1d1b" target="_top" xlink:title=" ">
<polygon fill="white" stroke="#666666" points="283,-19 181,-19 181,0 283,0 283,-19"/>
<text text-anchor="middle" x="232" y="-7" font-family="Helvetica,sans-Serif" font-size="10.00">recover_from_log</text>
</a>
</g>
</g>
<!-- Node1&#45;&gt;Node6 -->
<g id="edge5_Node000001_Node000006" class="edge">
<title>Node1&#45;&gt;Node6</title>
<g id="a_edge5_Node000001_Node000006"><a xlink:title=" ">
<path fill="none" stroke="#63b8ff" d="M308.79,-20.55C300.41,-19.33 291.68,-18.05 283.24,-16.82"/>
<polygon fill="#63b8ff" stroke="#63b8ff" points="308.37,-24.02 318.77,-22 309.38,-17.1 308.37,-24.02"/>
</a>
</g>
</g>
<!-- Node3 -->
<g id="Node000003" class="node">
<title>Node3</title>
<g id="a_Node000003"><a xlink:href="log_8c.html#ac0f12be0ca0de555e60b27b06a57a65b" target="_top" xlink:title=" ">
<polygon fill="white" stroke="#666666" points="145,-56 93,-56 93,-37 145,-37 145,-56"/>
<text text-anchor="middle" x="119" y="-44" font-family="Helvetica,sans-Serif" font-size="10.00">end_op</text>
</a>
</g>
</g>
<!-- Node2&#45;&gt;Node3 -->
<g id="edge2_Node000002_Node000003" class="edge">
<title>Node2&#45;&gt;Node3</title>
<g id="a_edge2_Node000002_Node000003"><a xlink:title=" ">
<path fill="none" stroke="#63b8ff" d="M194.73,-46.5C178.5,-46.5 159.75,-46.5 145.1,-46.5"/>
<polygon fill="#63b8ff" stroke="#63b8ff" points="194.98,-50 204.98,-46.5 194.98,-43 194.98,-50"/>
</a>
</g>
</g>
<!-- Node4 -->
<g id="Node000004" class="node">
<title>Node4</title>
<g id="a_Node000004"><a xlink:href="file_8c.html#ae557c81ab89c24219146144bb6adaa2c" target="_top" xlink:title=" ">
<polygon fill="white" stroke="#666666" points="57,-74 0,-74 0,-55 57,-55 57,-74"/>
<text text-anchor="middle" x="28.5" y="-62" font-family="Helvetica,sans-Serif" font-size="10.00">fileclose</text>
</a>
</g>
</g>
<!-- Node3&#45;&gt;Node4 -->
<g id="edge3_Node000003_Node000004" class="edge">
<title>Node3&#45;&gt;Node4</title>
<g id="a_edge3_Node000003_Node000004"><a xlink:title=" ">
<path fill="none" stroke="#63b8ff" d="M82.8,-53.66C74.28,-55.39 65.29,-57.22 57.17,-58.87"/>
<polygon fill="#63b8ff" stroke="#63b8ff" points="83.77,-57.03 92.88,-51.61 82.38,-50.17 83.77,-57.03"/>
</a>
</g>
</g>
<!-- Node5 -->
<g id="Node000005" class="node">
<title>Node5</title>
<g id="a_Node000005"><a xlink:href="file_8c.html#ab8de757a0a9f58dcc6511ea5e46ebb88" target="_top" xlink:title=" ">
<polygon fill="white" stroke="#666666" points="56.5,-37 0.5,-37 0.5,-18 56.5,-18 56.5,-37"/>
<text text-anchor="middle" x="28.5" y="-25" font-family="Helvetica,sans-Serif" font-size="10.00">filewrite</text>
</a>
</g>
</g>
<!-- Node3&#45;&gt;Node5 -->
<g id="edge4_Node000003_Node000005" class="edge">
<title>Node3&#45;&gt;Node5</title>
<g id="a_edge4_Node000003_Node000005"><a xlink:title=" ">
<path fill="none" stroke="#63b8ff" d="M82.9,-38.96C74.13,-37.08 64.86,-35.09 56.55,-33.31"/>
<polygon fill="#63b8ff" stroke="#63b8ff" points="82.36,-42.43 92.88,-41.11 83.83,-35.59 82.36,-42.43"/>
</a>
</g>
</g>
<!-- Node7 -->
<g id="Node000007" class="node">
<title>Node7</title>
<g id="a_Node000007"><a xlink:href="log_8c.html#ad5e79aaefb91f41b9ef6aeae7ecf4708" target="_top" xlink:title=" ">
<polygon fill="white" stroke="#666666" points="142.5,-19 95.5,-19 95.5,0 142.5,0 142.5,-19"/>
<text text-anchor="middle" x="119" y="-7" font-family="Helvetica,sans-Serif" font-size="10.00">initlog</text>
</a>
</g>
</g>
<!-- Node6&#45;&gt;Node7 -->
<g id="edge6_Node000006_Node000007" class="edge">
<title>Node6&#45;&gt;Node7</title>
<g id="a_edge6_Node000006_Node000007"><a xlink:title=" ">
<path fill="none" stroke="#63b8ff" d="M170.69,-9.5C160.7,-9.5 150.92,-9.5 142.66,-9.5"/>
<polygon fill="#63b8ff" stroke="#63b8ff" points="170.7,-13 180.7,-9.5 170.7,-6 170.7,-13"/>
</a>
</g>
</g>
</g>
</svg>
</svg>

<style type='text/css'>
<![CDATA[
[data-mouse-over-selected='false'] { opacity: 0.7; }
[data-mouse-over-selected='true']  { opacity: 1.0; }
]]>
</style>
<script type="application/ecmascript"><![CDATA[
document.addEventListener('DOMContentLoaded', (event) => {
  highlightEdges();
  highlightAdjacentNodes();
});
]]></script>
</svg>
