<?xml version="1.0" encoding="UTF-8" standalone="no"?>
<!DOCTYPE svg PUBLIC "-//W3C//DTD SVG 1.1//EN"
 "http://www.w3.org/Graphics/SVG/1.1/DTD/svg11.dtd">
<!-- Generated by graphviz version 2.43.0 (0)
 -->
<!-- Title: log Pages: 1 -->
<svg width="124pt" height="243pt"
 viewBox="0.00 0.00 124.00 243.00" xmlns="http://www.w3.org/2000/svg" xmlns:xlink="http://www.w3.org/1999/xlink">
<g id="graph0" class="graph" transform="scale(1 1) rotate(0) translate(4 239)">
<title>log</title>
<!-- Node1 -->
<g id="Node000001" class="node">
<title>Node1</title>
<g id="a_Node000001"><a xlink:title=" ">
<polygon fill="#999999" stroke="transparent" points="116,-124 0,-124 0,0 116,0 116,-124"/>
<text text-anchor="start" x="50" y="-112" font-family="Helvetica,sans-Serif" font-size="10.00">log</text>
<text text-anchor="start" x="4" y="-97" font-family="Helvetica,sans-Serif" font-size="10.00">+</text>
<text text-anchor="start" x="17" y="-97" font-family="Helvetica,sans-Serif" font-size="10.00">struct spinlock lock</text>
<text text-anchor="start" x="4" y="-82" font-family="Helvetica,sans-Serif" font-size="10.00">+</text>
<text text-anchor="start" x="17" y="-82" font-family="Helvetica,sans-Serif" font-size="10.00">int start</text>
<text text-anchor="start" x="4" y="-67" font-family="Helvetica,sans-Serif" font-size="10.00">+</text>
<text text-anchor="start" x="17" y="-67" font-family="Helvetica,sans-Serif" font-size="10.00">int size</text>
<text text-anchor="start" x="4" y="-52" font-family="Helvetica,sans-Serif" font-size="10.00">+</text>
<text text-anchor="start" x="17" y="-52" font-family="Helvetica,sans-Serif" font-size="10.00">int outstanding</text>
<text text-anchor="start" x="4" y="-37" font-family="Helvetica,sans-Serif" font-size="10.00">+</text>
<text text-anchor="start" x="17" y="-37" font-family="Helvetica,sans-Serif" font-size="10.00">int committing</text>
<text text-anchor="start" x="4" y="-22" font-family="Helvetica,sans-Serif" font-size="10.00">+</text>
<text text-anchor="start" x="17" y="-22" font-family="Helvetica,sans-Serif" font-size="10.00">int dev</text>
<text text-anchor="start" x="56" y="-7" font-family="Helvetica,sans-Serif" font-size="10.00"> </text>
<polygon fill="#666666" stroke="#666666" points="0,-107 0,-107 116,-107 116,-107 0,-107"/>
<polygon fill="#666666" stroke="#666666" points="0,-17 0,-17 15,-17 15,-17 0,-17"/>
<polygon fill="#666666" stroke="#666666" points="15,-17 15,-17 116,-17 116,-17 15,-17"/>
<polygon fill="none" stroke="#666666" points="0,0 0,-124 116,-124 116,0 0,0"/>
</a>
</g>
</g>
<!-- Node2 -->
<g id="Node000002" class="node">
<title>Node2</title>
<g id="a_Node000002"><a xlink:href="structlogheader.html" target="_top" xlink:title=" ">
<polygon fill="white" stroke="transparent" points="90,-235 26,-235 26,-171 90,-171 90,-235"/>
<text text-anchor="start" x="33.5" y="-223" font-family="Helvetica,sans-Serif" font-size="10.00">logheader</text>
<text text-anchor="start" x="30" y="-208" font-family="Helvetica,sans-Serif" font-size="10.00">+</text>
<text text-anchor="start" x="43" y="-208" font-family="Helvetica,sans-Serif" font-size="10.00">int n</text>
<text text-anchor="start" x="30" y="-193" font-family="Helvetica,sans-Serif" font-size="10.00">+</text>
<text text-anchor="start" x="43" y="-193" font-family="Helvetica,sans-Serif" font-size="10.00">int block</text>
<text text-anchor="start" x="56" y="-178" font-family="Helvetica,sans-Serif" font-size="10.00"> </text>
<polygon fill="#666666" stroke="#666666" points="26,-218 26,-218 90,-218 90,-218 26,-218"/>
<polygon fill="#666666" stroke="#666666" points="26,-188 26,-188 41,-188 41,-188 26,-188"/>
<polygon fill="#666666" stroke="#666666" points="41,-188 41,-188 90,-188 90,-188 41,-188"/>
<polygon fill="none" stroke="#666666" points="26,-171 26,-235 90,-235 90,-171 26,-171"/>
</a>
</g>
</g>
<!-- Node2&#45;&gt;Node1 -->
<g id="edge1_Node000001_Node000002" class="edge">
<title>Node2&#45;&gt;Node1</title>
<g id="a_edge1_Node000001_Node000002"><a xlink:title=" ">
<path fill="none" stroke="#63b8ff" d="M58,-170.81C58,-160.48 58,-148.51 58,-136.39"/>
<polygon fill="none" stroke="#63b8ff" points="58,-136.27 54,-130.27 58,-124.27 62,-130.27 58,-136.27"/>
</a>
</g>
<text text-anchor="middle" x="68.5" y="-145" font-family="Helvetica,sans-Serif" font-size="10.00" fill="grey"> +lh</text>
</g>
</g>
</svg>
